M48
;GenerationSoftware,Autodesk,EAGLE,9.5.1*%
;CreationDate,2020-02-10T06:08:02Z*%
FMAT,2
ICI,OFF
METRIC,TZ,000.000
T6C0.700
T5C0.787
T4C0.813
T3C0.900
T2C1.016
T1C3.048
%
G90
M71
T1
X46355Y43180
X5715Y10160
X46355Y4445
X4445Y40640
T2
X36195Y4445
X38735Y4445
X41275Y4445
X12700Y5080
X20955Y26035
X5715Y33655
X5715Y31115
X5715Y28575
X5715Y26035
X5715Y23495
X5715Y20955
X20955Y23495
X5080Y5080
X20955Y28575
X20955Y31115
X9195Y43078
X11735Y43078
X14275Y43078
X16815Y43078
X19355Y43078
X7620Y5080
X10160Y5080
X26670Y5080
X24130Y5080
X21590Y5080
X19050Y5080
X33655Y4445
T3
X37037Y8814
X47037Y8814
T4
X27838Y43739
X25679Y43739
X23520Y43739
X19152Y17272
X6452Y17272
X16154Y20472
X16154Y33172
X38049Y13879
X25349Y13857
X48616Y12116
X35916Y12116
T5
X21133Y13030
X19863Y10490
X18593Y13030
T6
X47830Y27345
X47830Y29345
X47830Y31345
X25830Y21345
X47830Y35345
X25830Y17345
X47830Y23345
X47830Y25345
X25830Y23345
X25830Y25345
X25830Y27345
X25830Y19345
X25830Y29345
X25830Y31345
X25830Y33345
X25830Y35345
X47830Y17345
X47830Y19345
X47830Y21345
X47830Y33345
M30