G04 EAGLE Gerber RS-274X export*
G75*
%MOMM*%
%FSLAX34Y34*%
%LPD*%
%INBottom Copper*%
%IPPOS*%
%AMOC8*
5,1,8,0,0,1.08239X$1,22.5*%
G01*
%ADD10C,0.152400*%
%ADD11C,1.651000*%
%ADD12P,1.814519X8X202.500000*%
%ADD13C,1.524000*%
%ADD14P,1.429621X8X202.500000*%
%ADD15P,1.429621X8X112.500000*%
%ADD16P,1.429621X8X202.600000*%
%ADD17C,1.422400*%
%ADD18R,1.422400X1.422400*%
%ADD19C,1.295400*%
%ADD20R,1.295400X1.295400*%
%ADD21C,0.304800*%

G36*
X505742Y10164D02*
X505742Y10164D01*
X505768Y10162D01*
X505915Y10184D01*
X506062Y10201D01*
X506087Y10209D01*
X506113Y10213D01*
X506251Y10268D01*
X506390Y10318D01*
X506412Y10332D01*
X506437Y10342D01*
X506558Y10427D01*
X506683Y10507D01*
X506701Y10526D01*
X506723Y10541D01*
X506822Y10651D01*
X506925Y10758D01*
X506939Y10780D01*
X506956Y10800D01*
X507028Y10930D01*
X507104Y11057D01*
X507112Y11082D01*
X507125Y11105D01*
X507165Y11248D01*
X507210Y11389D01*
X507212Y11415D01*
X507220Y11440D01*
X507239Y11684D01*
X507239Y470816D01*
X507236Y470842D01*
X507238Y470868D01*
X507216Y471015D01*
X507199Y471162D01*
X507191Y471187D01*
X507187Y471213D01*
X507132Y471351D01*
X507082Y471490D01*
X507068Y471512D01*
X507058Y471537D01*
X506973Y471658D01*
X506893Y471783D01*
X506874Y471801D01*
X506859Y471823D01*
X506749Y471922D01*
X506642Y472025D01*
X506620Y472039D01*
X506600Y472056D01*
X506470Y472128D01*
X506343Y472204D01*
X506318Y472212D01*
X506295Y472225D01*
X506152Y472265D01*
X506011Y472310D01*
X505985Y472312D01*
X505960Y472320D01*
X505716Y472339D01*
X11684Y472339D01*
X11658Y472336D01*
X11632Y472338D01*
X11485Y472316D01*
X11338Y472299D01*
X11313Y472291D01*
X11287Y472287D01*
X11149Y472232D01*
X11010Y472182D01*
X10988Y472168D01*
X10963Y472158D01*
X10842Y472073D01*
X10717Y471993D01*
X10699Y471974D01*
X10677Y471959D01*
X10578Y471849D01*
X10475Y471742D01*
X10461Y471720D01*
X10444Y471700D01*
X10372Y471570D01*
X10296Y471443D01*
X10288Y471418D01*
X10275Y471395D01*
X10235Y471252D01*
X10190Y471111D01*
X10188Y471085D01*
X10180Y471060D01*
X10161Y470816D01*
X10161Y11684D01*
X10164Y11658D01*
X10162Y11632D01*
X10184Y11485D01*
X10201Y11338D01*
X10209Y11313D01*
X10213Y11287D01*
X10268Y11149D01*
X10318Y11010D01*
X10332Y10988D01*
X10342Y10963D01*
X10427Y10842D01*
X10507Y10717D01*
X10526Y10699D01*
X10541Y10677D01*
X10651Y10578D01*
X10758Y10475D01*
X10780Y10461D01*
X10800Y10444D01*
X10930Y10372D01*
X11057Y10296D01*
X11082Y10288D01*
X11105Y10275D01*
X11248Y10235D01*
X11389Y10190D01*
X11415Y10188D01*
X11440Y10180D01*
X11684Y10161D01*
X505716Y10161D01*
X505742Y10164D01*
G37*
%LPC*%
G36*
X169778Y13715D02*
X169778Y13715D01*
X168098Y14411D01*
X140269Y42240D01*
X140191Y42302D01*
X140118Y42372D01*
X140054Y42411D01*
X139996Y42457D01*
X139905Y42500D01*
X139819Y42551D01*
X139748Y42574D01*
X139681Y42606D01*
X139583Y42627D01*
X139487Y42657D01*
X139413Y42663D01*
X139340Y42679D01*
X139240Y42677D01*
X139140Y42685D01*
X139066Y42674D01*
X138992Y42673D01*
X138895Y42649D01*
X138795Y42634D01*
X138726Y42606D01*
X138654Y42588D01*
X138564Y42542D01*
X138471Y42505D01*
X138410Y42463D01*
X138344Y42428D01*
X138267Y42363D01*
X138185Y42306D01*
X138135Y42251D01*
X138079Y42203D01*
X138019Y42122D01*
X137952Y42047D01*
X137916Y41982D01*
X137871Y41922D01*
X137832Y41830D01*
X137783Y41742D01*
X137763Y41671D01*
X137733Y41602D01*
X137716Y41504D01*
X137688Y41407D01*
X137680Y41307D01*
X137672Y41259D01*
X137674Y41224D01*
X137669Y41163D01*
X137669Y41058D01*
X136044Y37137D01*
X133043Y34136D01*
X129122Y32511D01*
X124878Y32511D01*
X120957Y34136D01*
X117956Y37137D01*
X116331Y41058D01*
X116331Y60542D01*
X116700Y61432D01*
X116721Y61505D01*
X116751Y61575D01*
X116768Y61672D01*
X116795Y61767D01*
X116799Y61843D01*
X116813Y61918D01*
X116808Y62017D01*
X116812Y62115D01*
X116799Y62190D01*
X116795Y62266D01*
X116767Y62361D01*
X116750Y62458D01*
X116719Y62528D01*
X116698Y62601D01*
X116650Y62687D01*
X116611Y62777D01*
X116565Y62839D01*
X116528Y62905D01*
X116431Y63019D01*
X116403Y63057D01*
X116388Y63069D01*
X116370Y63092D01*
X111947Y67514D01*
X111251Y69194D01*
X111251Y116347D01*
X111237Y116473D01*
X111230Y116599D01*
X111217Y116645D01*
X111211Y116693D01*
X111169Y116812D01*
X111134Y116934D01*
X111110Y116976D01*
X111094Y117021D01*
X111025Y117128D01*
X110964Y117238D01*
X110924Y117284D01*
X110905Y117314D01*
X110870Y117348D01*
X110805Y117424D01*
X65608Y162621D01*
X65509Y162700D01*
X65415Y162784D01*
X65373Y162808D01*
X65335Y162838D01*
X65221Y162892D01*
X65110Y162953D01*
X65064Y162966D01*
X65020Y162987D01*
X64897Y163013D01*
X64775Y163048D01*
X64714Y163053D01*
X64679Y163060D01*
X64631Y163059D01*
X64531Y163067D01*
X60518Y163067D01*
X54863Y168722D01*
X54863Y176718D01*
X60518Y182373D01*
X62499Y182373D01*
X62625Y182387D01*
X62751Y182394D01*
X62797Y182407D01*
X62845Y182413D01*
X62964Y182455D01*
X63086Y182490D01*
X63128Y182514D01*
X63173Y182530D01*
X63280Y182599D01*
X63390Y182660D01*
X63436Y182700D01*
X63466Y182719D01*
X63500Y182754D01*
X63576Y182819D01*
X64680Y183923D01*
X65608Y184851D01*
X65671Y184930D01*
X65740Y185002D01*
X65778Y185066D01*
X65825Y185124D01*
X65868Y185215D01*
X65919Y185301D01*
X65942Y185372D01*
X65974Y185439D01*
X65995Y185537D01*
X66025Y185633D01*
X66031Y185707D01*
X66047Y185780D01*
X66045Y185880D01*
X66053Y185980D01*
X66042Y186054D01*
X66041Y186128D01*
X66017Y186225D01*
X66002Y186325D01*
X65974Y186394D01*
X65956Y186466D01*
X65910Y186555D01*
X65873Y186649D01*
X65831Y186710D01*
X65796Y186776D01*
X65731Y186853D01*
X65674Y186935D01*
X65619Y186985D01*
X65571Y187041D01*
X65490Y187101D01*
X65415Y187168D01*
X65350Y187204D01*
X65290Y187249D01*
X65198Y187288D01*
X65110Y187337D01*
X65039Y187357D01*
X64970Y187387D01*
X64871Y187404D01*
X64775Y187432D01*
X64675Y187440D01*
X64627Y187448D01*
X64592Y187446D01*
X64531Y187451D01*
X60437Y187451D01*
X60311Y187437D01*
X60185Y187430D01*
X60139Y187417D01*
X60091Y187411D01*
X59972Y187369D01*
X59850Y187334D01*
X59808Y187310D01*
X59763Y187294D01*
X59656Y187225D01*
X59546Y187164D01*
X59500Y187124D01*
X59470Y187105D01*
X59436Y187070D01*
X59360Y187005D01*
X50739Y178384D01*
X50660Y178285D01*
X50576Y178191D01*
X50552Y178149D01*
X50522Y178111D01*
X50468Y177997D01*
X50407Y177886D01*
X50394Y177840D01*
X50373Y177796D01*
X50347Y177673D01*
X50312Y177551D01*
X50307Y177490D01*
X50300Y177455D01*
X50301Y177407D01*
X50293Y177307D01*
X50293Y167117D01*
X50307Y166991D01*
X50314Y166865D01*
X50327Y166819D01*
X50333Y166771D01*
X50375Y166652D01*
X50410Y166530D01*
X50434Y166488D01*
X50450Y166443D01*
X50519Y166336D01*
X50580Y166226D01*
X50620Y166180D01*
X50639Y166150D01*
X50674Y166116D01*
X50739Y166040D01*
X95317Y121462D01*
X96013Y119782D01*
X96013Y78338D01*
X95317Y76658D01*
X93816Y75157D01*
X85260Y66602D01*
X85244Y66581D01*
X85224Y66564D01*
X85136Y66444D01*
X85044Y66329D01*
X85033Y66305D01*
X85017Y66284D01*
X84958Y66147D01*
X84895Y66014D01*
X84889Y65988D01*
X84879Y65964D01*
X84853Y65818D01*
X84822Y65673D01*
X84822Y65647D01*
X84817Y65621D01*
X84825Y65472D01*
X84827Y65324D01*
X84834Y65299D01*
X84835Y65273D01*
X84876Y65130D01*
X84912Y64986D01*
X84925Y64963D01*
X84932Y64938D01*
X85004Y64809D01*
X85072Y64677D01*
X85089Y64657D01*
X85102Y64634D01*
X85242Y64469D01*
X86869Y60542D01*
X86869Y41058D01*
X85244Y37137D01*
X82243Y34136D01*
X78322Y32511D01*
X74078Y32511D01*
X70157Y34136D01*
X67156Y37137D01*
X65531Y41058D01*
X65531Y60542D01*
X67156Y64463D01*
X70157Y67464D01*
X74078Y69089D01*
X74183Y69089D01*
X74309Y69103D01*
X74435Y69110D01*
X74481Y69123D01*
X74529Y69129D01*
X74648Y69171D01*
X74770Y69206D01*
X74812Y69230D01*
X74857Y69246D01*
X74964Y69315D01*
X75074Y69376D01*
X75120Y69416D01*
X75150Y69435D01*
X75184Y69470D01*
X75260Y69535D01*
X86421Y80696D01*
X86486Y80778D01*
X86534Y80827D01*
X86544Y80844D01*
X86584Y80889D01*
X86608Y80931D01*
X86638Y80969D01*
X86692Y81083D01*
X86753Y81194D01*
X86766Y81240D01*
X86787Y81284D01*
X86813Y81407D01*
X86848Y81529D01*
X86853Y81590D01*
X86860Y81625D01*
X86859Y81673D01*
X86867Y81773D01*
X86867Y116347D01*
X86853Y116473D01*
X86846Y116599D01*
X86833Y116645D01*
X86827Y116693D01*
X86785Y116812D01*
X86750Y116934D01*
X86726Y116976D01*
X86710Y117021D01*
X86641Y117128D01*
X86580Y117238D01*
X86540Y117284D01*
X86521Y117314D01*
X86486Y117348D01*
X86421Y117424D01*
X41843Y162002D01*
X41147Y163682D01*
X41147Y180742D01*
X41843Y182422D01*
X55322Y195901D01*
X55443Y195951D01*
X55487Y195975D01*
X55534Y195992D01*
X55639Y196060D01*
X55747Y196120D01*
X55785Y196154D01*
X55827Y196181D01*
X55914Y196271D01*
X56006Y196354D01*
X56034Y196396D01*
X56069Y196432D01*
X56133Y196539D01*
X56204Y196641D01*
X56222Y196688D01*
X56248Y196731D01*
X56286Y196849D01*
X56332Y196965D01*
X56339Y197015D01*
X56354Y197063D01*
X56364Y197187D01*
X56382Y197310D01*
X56378Y197360D01*
X56382Y197410D01*
X56364Y197533D01*
X56354Y197657D01*
X56338Y197705D01*
X56331Y197755D01*
X56285Y197871D01*
X56246Y197989D01*
X56221Y198032D01*
X56202Y198079D01*
X56131Y198181D01*
X56067Y198287D01*
X56032Y198323D01*
X56003Y198365D01*
X55911Y198448D01*
X55824Y198537D01*
X55782Y198565D01*
X55744Y198598D01*
X55635Y198659D01*
X55531Y198726D01*
X55483Y198742D01*
X55439Y198767D01*
X55319Y198801D01*
X55202Y198842D01*
X55152Y198848D01*
X55104Y198862D01*
X54860Y198881D01*
X47408Y198881D01*
X43487Y200506D01*
X40486Y203507D01*
X38861Y207428D01*
X38861Y211672D01*
X40486Y215593D01*
X43487Y218594D01*
X47408Y220219D01*
X66892Y220219D01*
X70813Y218594D01*
X72075Y217333D01*
X72154Y217270D01*
X72226Y217201D01*
X72290Y217162D01*
X72348Y217116D01*
X72439Y217073D01*
X72525Y217022D01*
X72596Y216999D01*
X72663Y216967D01*
X72761Y216946D01*
X72857Y216916D01*
X72931Y216910D01*
X73004Y216894D01*
X73104Y216896D01*
X73204Y216888D01*
X73278Y216899D01*
X73352Y216900D01*
X73449Y216924D01*
X73549Y216939D01*
X73618Y216967D01*
X73690Y216985D01*
X73779Y217031D01*
X73873Y217068D01*
X73934Y217111D01*
X74000Y217145D01*
X74076Y217210D01*
X74159Y217267D01*
X74209Y217322D01*
X74265Y217370D01*
X74325Y217451D01*
X74392Y217526D01*
X74428Y217591D01*
X74473Y217651D01*
X74512Y217743D01*
X74561Y217831D01*
X74581Y217902D01*
X74611Y217971D01*
X74628Y218070D01*
X74656Y218166D01*
X74664Y218266D01*
X74672Y218314D01*
X74670Y218349D01*
X74675Y218410D01*
X74675Y226090D01*
X74664Y226190D01*
X74662Y226290D01*
X74644Y226362D01*
X74635Y226436D01*
X74602Y226531D01*
X74577Y226628D01*
X74543Y226694D01*
X74518Y226764D01*
X74463Y226849D01*
X74417Y226938D01*
X74369Y226995D01*
X74329Y227057D01*
X74257Y227127D01*
X74192Y227203D01*
X74132Y227248D01*
X74078Y227299D01*
X73992Y227351D01*
X73911Y227411D01*
X73843Y227440D01*
X73779Y227478D01*
X73683Y227509D01*
X73591Y227549D01*
X73518Y227562D01*
X73447Y227584D01*
X73347Y227592D01*
X73248Y227610D01*
X73174Y227606D01*
X73100Y227612D01*
X73000Y227597D01*
X72900Y227592D01*
X72829Y227572D01*
X72755Y227561D01*
X72662Y227524D01*
X72565Y227496D01*
X72500Y227459D01*
X72431Y227432D01*
X72349Y227375D01*
X72261Y227326D01*
X72185Y227260D01*
X72145Y227233D01*
X72121Y227207D01*
X72075Y227167D01*
X70813Y225906D01*
X66892Y224281D01*
X47408Y224281D01*
X46518Y224650D01*
X46445Y224671D01*
X46375Y224701D01*
X46278Y224718D01*
X46183Y224745D01*
X46107Y224749D01*
X46032Y224763D01*
X45933Y224758D01*
X45835Y224762D01*
X45760Y224749D01*
X45684Y224745D01*
X45589Y224717D01*
X45492Y224700D01*
X45422Y224669D01*
X45349Y224648D01*
X45263Y224600D01*
X45173Y224561D01*
X45111Y224515D01*
X45045Y224478D01*
X44931Y224381D01*
X44893Y224353D01*
X44881Y224338D01*
X44858Y224320D01*
X26355Y205816D01*
X26276Y205717D01*
X26192Y205623D01*
X26168Y205581D01*
X26138Y205543D01*
X26084Y205429D01*
X26023Y205318D01*
X26010Y205272D01*
X25989Y205228D01*
X25963Y205105D01*
X25928Y204983D01*
X25923Y204922D01*
X25916Y204887D01*
X25917Y204839D01*
X25909Y204739D01*
X25909Y69581D01*
X25923Y69455D01*
X25930Y69329D01*
X25943Y69283D01*
X25949Y69235D01*
X25991Y69116D01*
X26026Y68994D01*
X26050Y68952D01*
X26066Y68907D01*
X26102Y68852D01*
X26104Y68847D01*
X26121Y68822D01*
X26135Y68800D01*
X26196Y68690D01*
X26236Y68644D01*
X26255Y68614D01*
X26287Y68583D01*
X26303Y68561D01*
X26320Y68545D01*
X26355Y68504D01*
X37531Y57328D01*
X37609Y57266D01*
X37682Y57196D01*
X37746Y57157D01*
X37804Y57111D01*
X37895Y57068D01*
X37981Y57017D01*
X38052Y56994D01*
X38119Y56962D01*
X38217Y56941D01*
X38313Y56911D01*
X38387Y56905D01*
X38460Y56889D01*
X38560Y56891D01*
X38660Y56883D01*
X38734Y56894D01*
X38808Y56895D01*
X38905Y56919D01*
X39005Y56934D01*
X39074Y56962D01*
X39146Y56980D01*
X39236Y57026D01*
X39329Y57063D01*
X39390Y57105D01*
X39456Y57140D01*
X39533Y57205D01*
X39615Y57262D01*
X39665Y57317D01*
X39721Y57365D01*
X39781Y57446D01*
X39848Y57521D01*
X39884Y57586D01*
X39929Y57646D01*
X39968Y57738D01*
X40017Y57826D01*
X40037Y57897D01*
X40067Y57966D01*
X40084Y58064D01*
X40112Y58161D01*
X40120Y58261D01*
X40128Y58309D01*
X40126Y58344D01*
X40131Y58405D01*
X40131Y60542D01*
X41756Y64463D01*
X44757Y67464D01*
X48678Y69089D01*
X52922Y69089D01*
X56843Y67464D01*
X59844Y64463D01*
X61469Y60542D01*
X61469Y41058D01*
X59844Y37137D01*
X56843Y34136D01*
X52922Y32511D01*
X48678Y32511D01*
X44757Y34136D01*
X41756Y37137D01*
X40131Y41058D01*
X40131Y45720D01*
X40128Y45746D01*
X40130Y45772D01*
X40108Y45919D01*
X40091Y46066D01*
X40083Y46091D01*
X40079Y46117D01*
X40024Y46255D01*
X39974Y46394D01*
X39960Y46416D01*
X39950Y46441D01*
X39865Y46562D01*
X39785Y46687D01*
X39766Y46705D01*
X39751Y46727D01*
X39641Y46826D01*
X39534Y46929D01*
X39512Y46943D01*
X39492Y46960D01*
X39362Y47032D01*
X39235Y47108D01*
X39210Y47116D01*
X39187Y47129D01*
X39044Y47169D01*
X38903Y47214D01*
X38877Y47216D01*
X38852Y47224D01*
X38608Y47243D01*
X35666Y47243D01*
X33986Y47939D01*
X17459Y64466D01*
X16763Y66146D01*
X16763Y208174D01*
X17459Y209854D01*
X38602Y230997D01*
X38649Y231057D01*
X38704Y231110D01*
X38757Y231193D01*
X38819Y231270D01*
X38851Y231339D01*
X38893Y231403D01*
X38925Y231496D01*
X38967Y231585D01*
X38984Y231660D01*
X39009Y231732D01*
X39020Y231830D01*
X39041Y231926D01*
X39040Y232002D01*
X39048Y232078D01*
X39037Y232176D01*
X39035Y232274D01*
X39016Y232348D01*
X39007Y232424D01*
X38961Y232566D01*
X38950Y232612D01*
X38941Y232629D01*
X38932Y232657D01*
X38861Y232828D01*
X38861Y237072D01*
X40486Y240993D01*
X43487Y243994D01*
X47408Y245619D01*
X66892Y245619D01*
X70813Y243994D01*
X72075Y242733D01*
X72154Y242670D01*
X72226Y242601D01*
X72290Y242562D01*
X72348Y242516D01*
X72439Y242473D01*
X72525Y242422D01*
X72596Y242399D01*
X72663Y242367D01*
X72761Y242346D01*
X72857Y242316D01*
X72931Y242310D01*
X73004Y242294D01*
X73104Y242296D01*
X73204Y242288D01*
X73278Y242299D01*
X73352Y242300D01*
X73449Y242324D01*
X73549Y242339D01*
X73618Y242367D01*
X73690Y242385D01*
X73779Y242431D01*
X73873Y242468D01*
X73934Y242511D01*
X74000Y242545D01*
X74076Y242610D01*
X74159Y242667D01*
X74209Y242722D01*
X74265Y242770D01*
X74325Y242851D01*
X74392Y242926D01*
X74428Y242991D01*
X74473Y243051D01*
X74512Y243143D01*
X74561Y243231D01*
X74581Y243302D01*
X74611Y243371D01*
X74628Y243470D01*
X74656Y243566D01*
X74664Y243666D01*
X74672Y243714D01*
X74670Y243749D01*
X74675Y243810D01*
X74675Y244363D01*
X74661Y244489D01*
X74654Y244615D01*
X74641Y244661D01*
X74635Y244709D01*
X74593Y244828D01*
X74558Y244950D01*
X74534Y244992D01*
X74518Y245037D01*
X74449Y245144D01*
X74388Y245254D01*
X74348Y245300D01*
X74329Y245330D01*
X74294Y245364D01*
X74229Y245440D01*
X69801Y249868D01*
X69741Y249916D01*
X69688Y249971D01*
X69605Y250024D01*
X69528Y250085D01*
X69459Y250118D01*
X69394Y250159D01*
X69302Y250192D01*
X69213Y250234D01*
X69138Y250250D01*
X69066Y250276D01*
X68968Y250287D01*
X68872Y250307D01*
X68796Y250306D01*
X68720Y250314D01*
X68622Y250303D01*
X68524Y250301D01*
X68449Y250283D01*
X68374Y250274D01*
X68232Y250228D01*
X68186Y250216D01*
X68169Y250207D01*
X68141Y250198D01*
X66892Y249681D01*
X47408Y249681D01*
X43487Y251306D01*
X40486Y254307D01*
X38861Y258228D01*
X38861Y262472D01*
X40486Y266393D01*
X43487Y269394D01*
X47408Y271019D01*
X66892Y271019D01*
X70813Y269394D01*
X73814Y266393D01*
X75439Y262472D01*
X75439Y258143D01*
X75421Y258081D01*
X75417Y258005D01*
X75404Y257929D01*
X75409Y257831D01*
X75404Y257733D01*
X75418Y257658D01*
X75422Y257581D01*
X75449Y257487D01*
X75467Y257390D01*
X75497Y257320D01*
X75518Y257246D01*
X75566Y257161D01*
X75605Y257070D01*
X75651Y257009D01*
X75688Y256942D01*
X75785Y256829D01*
X75813Y256791D01*
X75828Y256778D01*
X75847Y256756D01*
X78171Y254432D01*
X78249Y254370D01*
X78322Y254300D01*
X78386Y254261D01*
X78444Y254215D01*
X78535Y254172D01*
X78621Y254121D01*
X78692Y254098D01*
X78759Y254066D01*
X78857Y254045D01*
X78953Y254015D01*
X79027Y254009D01*
X79100Y253993D01*
X79200Y253995D01*
X79300Y253987D01*
X79374Y253998D01*
X79448Y253999D01*
X79545Y254023D01*
X79645Y254038D01*
X79714Y254066D01*
X79786Y254084D01*
X79875Y254130D01*
X79969Y254167D01*
X80030Y254210D01*
X80096Y254244D01*
X80172Y254309D01*
X80255Y254366D01*
X80305Y254421D01*
X80361Y254469D01*
X80421Y254550D01*
X80488Y254625D01*
X80524Y254690D01*
X80569Y254750D01*
X80608Y254842D01*
X80657Y254930D01*
X80677Y255001D01*
X80707Y255070D01*
X80724Y255168D01*
X80752Y255265D01*
X80760Y255365D01*
X80768Y255413D01*
X80766Y255448D01*
X80771Y255509D01*
X80771Y314467D01*
X80757Y314593D01*
X80750Y314719D01*
X80737Y314765D01*
X80731Y314813D01*
X80689Y314932D01*
X80654Y315054D01*
X80630Y315096D01*
X80614Y315141D01*
X80545Y315248D01*
X80484Y315358D01*
X80444Y315404D01*
X80425Y315434D01*
X80390Y315468D01*
X80325Y315544D01*
X69801Y326068D01*
X69741Y326116D01*
X69688Y326171D01*
X69605Y326224D01*
X69528Y326285D01*
X69459Y326318D01*
X69394Y326359D01*
X69302Y326392D01*
X69213Y326434D01*
X69138Y326450D01*
X69066Y326476D01*
X68968Y326487D01*
X68872Y326507D01*
X68796Y326506D01*
X68720Y326514D01*
X68622Y326503D01*
X68524Y326501D01*
X68449Y326483D01*
X68374Y326474D01*
X68232Y326428D01*
X68186Y326416D01*
X68169Y326407D01*
X68141Y326398D01*
X66892Y325881D01*
X47408Y325881D01*
X43487Y327506D01*
X40486Y330507D01*
X38861Y334428D01*
X38861Y338672D01*
X40486Y342593D01*
X43487Y345594D01*
X47408Y347219D01*
X47513Y347219D01*
X47639Y347233D01*
X47765Y347240D01*
X47811Y347253D01*
X47859Y347259D01*
X47978Y347301D01*
X48100Y347336D01*
X48142Y347360D01*
X48187Y347376D01*
X48294Y347445D01*
X48404Y347506D01*
X48450Y347546D01*
X48480Y347565D01*
X48514Y347600D01*
X48590Y347665D01*
X74229Y373304D01*
X74308Y373403D01*
X74392Y373497D01*
X74416Y373539D01*
X74446Y373577D01*
X74500Y373691D01*
X74561Y373802D01*
X74574Y373848D01*
X74595Y373892D01*
X74621Y374015D01*
X74656Y374137D01*
X74661Y374198D01*
X74668Y374233D01*
X74667Y374281D01*
X74675Y374381D01*
X74675Y405907D01*
X74661Y406033D01*
X74654Y406159D01*
X74641Y406205D01*
X74635Y406253D01*
X74593Y406372D01*
X74558Y406494D01*
X74534Y406536D01*
X74518Y406581D01*
X74449Y406687D01*
X74388Y406798D01*
X74348Y406844D01*
X74329Y406874D01*
X74294Y406908D01*
X74229Y406984D01*
X72451Y408762D01*
X72372Y408825D01*
X72300Y408894D01*
X72236Y408933D01*
X72178Y408979D01*
X72087Y409022D01*
X72001Y409073D01*
X71930Y409096D01*
X71863Y409128D01*
X71765Y409149D01*
X71669Y409179D01*
X71595Y409185D01*
X71522Y409201D01*
X71422Y409199D01*
X71322Y409207D01*
X71248Y409196D01*
X71174Y409195D01*
X71077Y409171D01*
X70977Y409156D01*
X70908Y409128D01*
X70836Y409110D01*
X70747Y409064D01*
X70653Y409027D01*
X70592Y408984D01*
X70526Y408950D01*
X70450Y408885D01*
X70367Y408828D01*
X70317Y408773D01*
X70261Y408725D01*
X70201Y408644D01*
X70134Y408569D01*
X70098Y408504D01*
X70053Y408444D01*
X70014Y408352D01*
X69965Y408264D01*
X69945Y408193D01*
X69915Y408124D01*
X69898Y408026D01*
X69870Y407929D01*
X69862Y407829D01*
X69854Y407781D01*
X69856Y407746D01*
X69851Y407685D01*
X69851Y403056D01*
X68120Y396596D01*
X64776Y390803D01*
X60047Y386074D01*
X54254Y382730D01*
X47794Y380999D01*
X41106Y380999D01*
X34646Y382730D01*
X28853Y386074D01*
X24124Y390803D01*
X20780Y396596D01*
X19049Y403056D01*
X19049Y409744D01*
X20780Y416204D01*
X24124Y421997D01*
X28853Y426726D01*
X34646Y430070D01*
X41106Y431801D01*
X47794Y431801D01*
X54254Y430070D01*
X60047Y426726D01*
X64776Y421997D01*
X65737Y420332D01*
X65811Y420231D01*
X65879Y420126D01*
X65915Y420092D01*
X65944Y420052D01*
X66040Y419971D01*
X66130Y419884D01*
X66172Y419858D01*
X66210Y419826D01*
X66322Y419769D01*
X66429Y419705D01*
X66476Y419690D01*
X66520Y419667D01*
X66642Y419637D01*
X66761Y419599D01*
X66810Y419595D01*
X66859Y419583D01*
X66984Y419581D01*
X67108Y419571D01*
X67157Y419578D01*
X67207Y419577D01*
X67329Y419604D01*
X67453Y419623D01*
X67499Y419641D01*
X67548Y419651D01*
X67660Y419705D01*
X67777Y419751D01*
X67817Y419780D01*
X67862Y419801D01*
X67960Y419879D01*
X68063Y419950D01*
X68096Y419987D01*
X68135Y420018D01*
X68213Y420116D01*
X68296Y420209D01*
X68320Y420252D01*
X68351Y420291D01*
X68404Y420405D01*
X68465Y420514D01*
X68478Y420562D01*
X68500Y420607D01*
X68526Y420729D01*
X68560Y420849D01*
X68565Y420912D01*
X68572Y420948D01*
X68571Y420995D01*
X68579Y421093D01*
X68579Y445918D01*
X69275Y447598D01*
X70776Y449099D01*
X81253Y459576D01*
X82754Y461077D01*
X84434Y461773D01*
X180742Y461773D01*
X182422Y461077D01*
X193980Y449519D01*
X194079Y449440D01*
X194173Y449356D01*
X194215Y449332D01*
X194253Y449302D01*
X194367Y449248D01*
X194478Y449187D01*
X194524Y449174D01*
X194568Y449153D01*
X194691Y449127D01*
X194813Y449092D01*
X194874Y449087D01*
X194909Y449080D01*
X194957Y449081D01*
X195057Y449073D01*
X195670Y449073D01*
X199591Y447448D01*
X202592Y444447D01*
X204217Y440526D01*
X204217Y435864D01*
X204220Y435838D01*
X204218Y435812D01*
X204240Y435665D01*
X204257Y435518D01*
X204265Y435493D01*
X204269Y435467D01*
X204324Y435329D01*
X204374Y435190D01*
X204388Y435168D01*
X204398Y435143D01*
X204483Y435022D01*
X204563Y434897D01*
X204582Y434879D01*
X204597Y434857D01*
X204707Y434758D01*
X204814Y434655D01*
X204836Y434641D01*
X204856Y434624D01*
X204986Y434552D01*
X205113Y434476D01*
X205138Y434468D01*
X205161Y434455D01*
X205304Y434415D01*
X205445Y434370D01*
X205471Y434368D01*
X205496Y434360D01*
X205740Y434341D01*
X214270Y434341D01*
X215950Y433645D01*
X227000Y422595D01*
X227099Y422516D01*
X227193Y422432D01*
X227235Y422408D01*
X227273Y422378D01*
X227387Y422324D01*
X227498Y422263D01*
X227544Y422250D01*
X227588Y422229D01*
X227711Y422203D01*
X227833Y422168D01*
X227894Y422163D01*
X227929Y422156D01*
X227977Y422157D01*
X228077Y422149D01*
X241315Y422149D01*
X241441Y422163D01*
X241567Y422170D01*
X241613Y422183D01*
X241661Y422189D01*
X241780Y422231D01*
X241902Y422266D01*
X241944Y422290D01*
X241989Y422306D01*
X242096Y422375D01*
X242206Y422436D01*
X242252Y422476D01*
X242282Y422495D01*
X242316Y422530D01*
X242392Y422595D01*
X247830Y428033D01*
X247846Y428053D01*
X247866Y428070D01*
X247954Y428190D01*
X248046Y428306D01*
X248058Y428329D01*
X248073Y428350D01*
X248132Y428487D01*
X248195Y428621D01*
X248201Y428646D01*
X248211Y428670D01*
X248237Y428817D01*
X248269Y428961D01*
X248268Y428987D01*
X248273Y429013D01*
X248265Y429162D01*
X248263Y429310D01*
X248256Y429335D01*
X248255Y429361D01*
X248214Y429504D01*
X248178Y429648D01*
X248166Y429671D01*
X248158Y429696D01*
X248086Y429826D01*
X248018Y429958D01*
X248001Y429978D01*
X247988Y430001D01*
X247830Y430187D01*
X247076Y430940D01*
X247056Y430957D01*
X247039Y430977D01*
X246919Y431065D01*
X246803Y431157D01*
X246779Y431168D01*
X246758Y431184D01*
X246622Y431243D01*
X246488Y431306D01*
X246462Y431311D01*
X246438Y431322D01*
X246292Y431348D01*
X246147Y431379D01*
X246121Y431379D01*
X246095Y431384D01*
X245947Y431376D01*
X245799Y431373D01*
X245773Y431367D01*
X245747Y431366D01*
X245605Y431325D01*
X245461Y431288D01*
X245438Y431276D01*
X245412Y431269D01*
X245283Y431197D01*
X245151Y431129D01*
X245131Y431112D01*
X245108Y431099D01*
X244922Y430940D01*
X239939Y425957D01*
X230469Y425957D01*
X223773Y432653D01*
X223773Y442123D01*
X230469Y448819D01*
X231409Y448819D01*
X231535Y448833D01*
X231661Y448840D01*
X231707Y448853D01*
X231755Y448859D01*
X231874Y448901D01*
X231996Y448936D01*
X232038Y448960D01*
X232083Y448976D01*
X232190Y449045D01*
X232300Y449106D01*
X232346Y449146D01*
X232376Y449165D01*
X232410Y449200D01*
X232412Y449202D01*
X232414Y449203D01*
X232417Y449206D01*
X232486Y449265D01*
X244298Y461077D01*
X245978Y461773D01*
X287422Y461773D01*
X289102Y461077D01*
X302581Y447598D01*
X303277Y445918D01*
X303277Y404474D01*
X302581Y402794D01*
X265998Y366211D01*
X265936Y366133D01*
X265866Y366060D01*
X265827Y365996D01*
X265781Y365938D01*
X265738Y365847D01*
X265687Y365761D01*
X265664Y365690D01*
X265632Y365623D01*
X265611Y365525D01*
X265581Y365429D01*
X265575Y365355D01*
X265559Y365282D01*
X265561Y365182D01*
X265553Y365082D01*
X265564Y365008D01*
X265565Y364934D01*
X265589Y364837D01*
X265604Y364737D01*
X265632Y364668D01*
X265650Y364596D01*
X265696Y364506D01*
X265733Y364413D01*
X265775Y364352D01*
X265810Y364286D01*
X265875Y364209D01*
X265932Y364127D01*
X265987Y364077D01*
X266035Y364021D01*
X266116Y363961D01*
X266191Y363894D01*
X266256Y363858D01*
X266316Y363813D01*
X266408Y363774D01*
X266496Y363725D01*
X266567Y363705D01*
X266591Y363695D01*
X268461Y361825D01*
X268461Y345075D01*
X266675Y343289D01*
X266508Y343289D01*
X266408Y343278D01*
X266307Y343276D01*
X266235Y343258D01*
X266161Y343249D01*
X266067Y343216D01*
X265969Y343191D01*
X265903Y343157D01*
X265833Y343132D01*
X265749Y343077D01*
X265660Y343031D01*
X265603Y342983D01*
X265540Y342943D01*
X265471Y342871D01*
X265394Y342806D01*
X265350Y342746D01*
X265298Y342692D01*
X265247Y342606D01*
X265187Y342525D01*
X265158Y342457D01*
X265119Y342393D01*
X265089Y342297D01*
X265049Y342205D01*
X265036Y342132D01*
X265013Y342061D01*
X265005Y341961D01*
X264987Y341862D01*
X264991Y341788D01*
X264985Y341714D01*
X265000Y341614D01*
X265005Y341514D01*
X265026Y341443D01*
X265037Y341369D01*
X265074Y341276D01*
X265102Y341179D01*
X265138Y341114D01*
X265166Y341045D01*
X265223Y340963D01*
X265272Y340875D01*
X265337Y340799D01*
X265365Y340759D01*
X265391Y340735D01*
X265431Y340689D01*
X266914Y339206D01*
X268461Y335471D01*
X268461Y331429D01*
X266914Y327694D01*
X264039Y324820D01*
X264019Y324808D01*
X263927Y324768D01*
X263867Y324724D01*
X263802Y324688D01*
X263728Y324620D01*
X263647Y324560D01*
X263599Y324504D01*
X263544Y324454D01*
X263487Y324371D01*
X263422Y324294D01*
X263388Y324228D01*
X263346Y324167D01*
X263309Y324074D01*
X263263Y323984D01*
X263245Y323912D01*
X263218Y323843D01*
X263203Y323743D01*
X263179Y323646D01*
X263178Y323572D01*
X263167Y323498D01*
X263175Y323398D01*
X263174Y323297D01*
X263190Y323225D01*
X263196Y323151D01*
X263227Y323055D01*
X263248Y322957D01*
X263280Y322890D01*
X263303Y322819D01*
X263355Y322733D01*
X263398Y322642D01*
X263444Y322584D01*
X263483Y322521D01*
X263553Y322448D01*
X263615Y322370D01*
X263674Y322324D01*
X263726Y322271D01*
X263810Y322216D01*
X263889Y322154D01*
X263978Y322108D01*
X264019Y322082D01*
X264047Y322072D01*
X266914Y319206D01*
X268081Y316388D01*
X268142Y316277D01*
X268197Y316163D01*
X268227Y316125D01*
X268250Y316083D01*
X268335Y315989D01*
X268414Y315891D01*
X268452Y315861D01*
X268485Y315825D01*
X268588Y315753D01*
X268688Y315675D01*
X268742Y315647D01*
X268771Y315627D01*
X268816Y315609D01*
X268905Y315563D01*
X270814Y314773D01*
X372685Y212902D01*
X373381Y211222D01*
X373381Y154925D01*
X373395Y154799D01*
X373402Y154673D01*
X373415Y154627D01*
X373421Y154579D01*
X373463Y154460D01*
X373498Y154338D01*
X373522Y154296D01*
X373538Y154251D01*
X373607Y154144D01*
X373668Y154034D01*
X373708Y153988D01*
X373727Y153958D01*
X373762Y153924D01*
X373827Y153848D01*
X378782Y148893D01*
X378882Y148813D01*
X378977Y148728D01*
X379018Y148705D01*
X379055Y148676D01*
X379171Y148621D01*
X379283Y148560D01*
X379328Y148547D01*
X379370Y148527D01*
X379495Y148500D01*
X379618Y148466D01*
X379677Y148461D01*
X379711Y148454D01*
X379759Y148455D01*
X379862Y148446D01*
X384473Y148454D01*
X390138Y142810D01*
X390152Y134813D01*
X384507Y129149D01*
X376510Y129135D01*
X372949Y132684D01*
X372930Y132699D01*
X372914Y132718D01*
X372793Y132807D01*
X372676Y132900D01*
X372653Y132911D01*
X372633Y132926D01*
X372496Y132985D01*
X372360Y133048D01*
X372336Y133054D01*
X372313Y133064D01*
X372166Y133090D01*
X372020Y133121D01*
X371995Y133121D01*
X371970Y133125D01*
X371821Y133118D01*
X371671Y133115D01*
X371647Y133109D01*
X371622Y133107D01*
X371479Y133066D01*
X371333Y133029D01*
X371311Y133018D01*
X371287Y133011D01*
X371157Y132938D01*
X371024Y132869D01*
X371005Y132853D01*
X370983Y132841D01*
X370797Y132682D01*
X367117Y129002D01*
X367101Y128982D01*
X367081Y128965D01*
X366993Y128845D01*
X366900Y128729D01*
X366889Y128705D01*
X366874Y128684D01*
X366815Y128548D01*
X366751Y128414D01*
X366746Y128388D01*
X366736Y128364D01*
X366709Y128218D01*
X366678Y128073D01*
X366679Y128047D01*
X366674Y128021D01*
X366682Y127873D01*
X366684Y127725D01*
X366690Y127699D01*
X366692Y127673D01*
X366733Y127531D01*
X366769Y127387D01*
X366781Y127364D01*
X366788Y127338D01*
X366861Y127209D01*
X366929Y127077D01*
X366946Y127057D01*
X366959Y127034D01*
X367117Y126848D01*
X368809Y125156D01*
X368809Y117160D01*
X363154Y111505D01*
X355158Y111505D01*
X349503Y117160D01*
X349503Y125156D01*
X355158Y130811D01*
X355361Y130811D01*
X355487Y130825D01*
X355613Y130832D01*
X355659Y130845D01*
X355707Y130851D01*
X355826Y130893D01*
X355948Y130928D01*
X355990Y130952D01*
X356035Y130968D01*
X356142Y131037D01*
X356252Y131098D01*
X356298Y131138D01*
X356328Y131157D01*
X356362Y131192D01*
X356438Y131257D01*
X367765Y142584D01*
X368884Y143703D01*
X368900Y143723D01*
X368920Y143740D01*
X369008Y143859D01*
X369101Y143976D01*
X369112Y144000D01*
X369128Y144021D01*
X369186Y144157D01*
X369250Y144291D01*
X369255Y144317D01*
X369266Y144341D01*
X369292Y144487D01*
X369323Y144632D01*
X369323Y144658D01*
X369327Y144684D01*
X369320Y144832D01*
X369317Y144980D01*
X369311Y145006D01*
X369309Y145032D01*
X369268Y145174D01*
X369232Y145318D01*
X369220Y145341D01*
X369213Y145367D01*
X369140Y145496D01*
X369072Y145628D01*
X369055Y145648D01*
X369043Y145671D01*
X368884Y145857D01*
X364931Y149810D01*
X364235Y151490D01*
X364235Y207787D01*
X364221Y207913D01*
X364214Y208039D01*
X364201Y208085D01*
X364195Y208133D01*
X364153Y208252D01*
X364118Y208374D01*
X364094Y208416D01*
X364078Y208461D01*
X364009Y208568D01*
X363948Y208678D01*
X363908Y208724D01*
X363889Y208754D01*
X363854Y208788D01*
X363789Y208864D01*
X267013Y305640D01*
X266993Y305656D01*
X266976Y305676D01*
X266856Y305764D01*
X266740Y305856D01*
X266717Y305868D01*
X266696Y305883D01*
X266560Y305942D01*
X266425Y306005D01*
X266400Y306011D01*
X266376Y306021D01*
X266229Y306047D01*
X266085Y306079D01*
X266058Y306078D01*
X266033Y306083D01*
X265884Y306075D01*
X265736Y306073D01*
X265711Y306066D01*
X265684Y306065D01*
X265542Y306024D01*
X265398Y305988D01*
X265375Y305976D01*
X265350Y305968D01*
X265221Y305896D01*
X265088Y305828D01*
X265068Y305811D01*
X265045Y305798D01*
X264859Y305640D01*
X264039Y304820D01*
X264019Y304808D01*
X263927Y304768D01*
X263867Y304724D01*
X263802Y304688D01*
X263728Y304620D01*
X263647Y304560D01*
X263599Y304504D01*
X263544Y304454D01*
X263487Y304371D01*
X263422Y304294D01*
X263388Y304228D01*
X263346Y304167D01*
X263309Y304074D01*
X263263Y303984D01*
X263245Y303912D01*
X263218Y303843D01*
X263203Y303743D01*
X263179Y303646D01*
X263178Y303572D01*
X263167Y303498D01*
X263175Y303398D01*
X263174Y303297D01*
X263190Y303225D01*
X263196Y303151D01*
X263227Y303055D01*
X263248Y302957D01*
X263280Y302890D01*
X263303Y302819D01*
X263355Y302733D01*
X263398Y302642D01*
X263444Y302584D01*
X263483Y302521D01*
X263553Y302448D01*
X263615Y302370D01*
X263674Y302324D01*
X263726Y302271D01*
X263810Y302216D01*
X263889Y302154D01*
X263978Y302108D01*
X264019Y302082D01*
X264047Y302072D01*
X266914Y299206D01*
X268461Y295471D01*
X268461Y291429D01*
X266914Y287694D01*
X264039Y284820D01*
X264019Y284808D01*
X263927Y284768D01*
X263867Y284724D01*
X263802Y284688D01*
X263728Y284620D01*
X263647Y284560D01*
X263599Y284504D01*
X263544Y284454D01*
X263487Y284371D01*
X263422Y284294D01*
X263388Y284228D01*
X263346Y284167D01*
X263309Y284074D01*
X263263Y283984D01*
X263245Y283912D01*
X263218Y283843D01*
X263203Y283743D01*
X263179Y283646D01*
X263178Y283572D01*
X263167Y283498D01*
X263175Y283398D01*
X263174Y283297D01*
X263190Y283225D01*
X263196Y283151D01*
X263227Y283055D01*
X263248Y282957D01*
X263280Y282890D01*
X263303Y282819D01*
X263355Y282733D01*
X263398Y282642D01*
X263444Y282584D01*
X263483Y282521D01*
X263553Y282448D01*
X263615Y282370D01*
X263674Y282324D01*
X263726Y282271D01*
X263810Y282216D01*
X263889Y282154D01*
X263978Y282108D01*
X264019Y282082D01*
X264047Y282072D01*
X266914Y279206D01*
X268461Y275471D01*
X268461Y271429D01*
X266914Y267694D01*
X264039Y264820D01*
X264019Y264808D01*
X263927Y264768D01*
X263867Y264724D01*
X263802Y264688D01*
X263728Y264620D01*
X263647Y264560D01*
X263599Y264504D01*
X263544Y264454D01*
X263487Y264371D01*
X263422Y264294D01*
X263388Y264228D01*
X263346Y264167D01*
X263309Y264074D01*
X263263Y263984D01*
X263245Y263912D01*
X263218Y263843D01*
X263203Y263743D01*
X263179Y263646D01*
X263178Y263572D01*
X263167Y263498D01*
X263175Y263398D01*
X263174Y263297D01*
X263190Y263225D01*
X263196Y263151D01*
X263227Y263055D01*
X263248Y262957D01*
X263280Y262890D01*
X263303Y262819D01*
X263355Y262733D01*
X263398Y262642D01*
X263444Y262584D01*
X263483Y262521D01*
X263553Y262448D01*
X263615Y262370D01*
X263674Y262324D01*
X263726Y262271D01*
X263810Y262216D01*
X263889Y262154D01*
X263978Y262108D01*
X264019Y262082D01*
X264047Y262072D01*
X266914Y259206D01*
X267853Y256937D01*
X267854Y256936D01*
X267855Y256934D01*
X267940Y256782D01*
X268023Y256633D01*
X268024Y256631D01*
X268025Y256630D01*
X268184Y256443D01*
X343752Y180875D01*
X345253Y179374D01*
X345949Y177694D01*
X345949Y115301D01*
X345963Y115175D01*
X345970Y115049D01*
X345983Y115003D01*
X345989Y114955D01*
X346031Y114836D01*
X346066Y114714D01*
X346090Y114672D01*
X346106Y114627D01*
X346175Y114520D01*
X346236Y114410D01*
X346276Y114364D01*
X346295Y114334D01*
X346330Y114300D01*
X346362Y114263D01*
X346365Y114258D01*
X346368Y114255D01*
X346395Y114224D01*
X362491Y98127D01*
X362551Y98080D01*
X362604Y98025D01*
X362687Y97972D01*
X362764Y97911D01*
X362833Y97878D01*
X362898Y97837D01*
X362991Y97804D01*
X363079Y97762D01*
X363154Y97746D01*
X363226Y97720D01*
X363324Y97709D01*
X363420Y97689D01*
X363496Y97690D01*
X363573Y97681D01*
X363670Y97693D01*
X363769Y97695D01*
X363843Y97713D01*
X363919Y97722D01*
X364061Y97768D01*
X364107Y97780D01*
X364124Y97788D01*
X364151Y97797D01*
X368122Y99442D01*
X372618Y99442D01*
X376773Y97721D01*
X379953Y94541D01*
X381674Y90386D01*
X381674Y85890D01*
X380922Y84075D01*
X380901Y84001D01*
X380871Y83931D01*
X380853Y83834D01*
X380826Y83740D01*
X380823Y83663D01*
X380809Y83588D01*
X380814Y83490D01*
X380809Y83391D01*
X380823Y83316D01*
X380827Y83240D01*
X380854Y83145D01*
X380872Y83049D01*
X380902Y82979D01*
X380924Y82905D01*
X380972Y82819D01*
X381011Y82729D01*
X381056Y82668D01*
X381094Y82601D01*
X381190Y82487D01*
X381219Y82449D01*
X381233Y82437D01*
X381252Y82415D01*
X385496Y78171D01*
X385595Y78092D01*
X385689Y78008D01*
X385731Y77984D01*
X385769Y77954D01*
X385883Y77900D01*
X385994Y77839D01*
X386040Y77826D01*
X386084Y77805D01*
X386207Y77779D01*
X386329Y77744D01*
X386390Y77739D01*
X386425Y77732D01*
X386473Y77733D01*
X386573Y77725D01*
X394102Y77725D01*
X395782Y77029D01*
X409626Y63185D01*
X409725Y63106D01*
X409819Y63022D01*
X409861Y62998D01*
X409899Y62968D01*
X410013Y62914D01*
X410124Y62853D01*
X410170Y62840D01*
X410214Y62819D01*
X410337Y62793D01*
X410459Y62758D01*
X410520Y62753D01*
X410555Y62746D01*
X410603Y62747D01*
X410703Y62739D01*
X414872Y62739D01*
X418793Y61114D01*
X421794Y58113D01*
X423419Y54192D01*
X423419Y34708D01*
X421794Y30787D01*
X418793Y27786D01*
X414872Y26161D01*
X410628Y26161D01*
X406707Y27786D01*
X403706Y30787D01*
X402081Y34708D01*
X402081Y54192D01*
X402747Y55800D01*
X402768Y55874D01*
X402799Y55944D01*
X402816Y56040D01*
X402843Y56135D01*
X402847Y56212D01*
X402860Y56287D01*
X402855Y56385D01*
X402860Y56483D01*
X402846Y56558D01*
X402842Y56635D01*
X402815Y56729D01*
X402797Y56826D01*
X402767Y56896D01*
X402746Y56970D01*
X402698Y57056D01*
X402659Y57146D01*
X402613Y57207D01*
X402576Y57274D01*
X402479Y57388D01*
X402451Y57425D01*
X402436Y57438D01*
X402417Y57460D01*
X391744Y68133D01*
X391645Y68212D01*
X391551Y68296D01*
X391509Y68320D01*
X391471Y68350D01*
X391357Y68404D01*
X391246Y68465D01*
X391200Y68478D01*
X391156Y68499D01*
X391033Y68525D01*
X390911Y68560D01*
X390850Y68565D01*
X390815Y68572D01*
X390767Y68571D01*
X390667Y68579D01*
X383138Y68579D01*
X381458Y69275D01*
X374244Y76490D01*
X374184Y76537D01*
X374130Y76592D01*
X374048Y76645D01*
X373971Y76706D01*
X373901Y76739D01*
X373837Y76780D01*
X373744Y76813D01*
X373655Y76855D01*
X373581Y76871D01*
X373509Y76897D01*
X373411Y76908D01*
X373315Y76929D01*
X373239Y76927D01*
X373162Y76936D01*
X373065Y76924D01*
X372966Y76923D01*
X372892Y76904D01*
X372816Y76895D01*
X372674Y76849D01*
X372628Y76838D01*
X372622Y76834D01*
X368122Y76834D01*
X363967Y78555D01*
X360787Y81735D01*
X359066Y85890D01*
X359066Y87988D01*
X359052Y88114D01*
X359045Y88240D01*
X359032Y88286D01*
X359026Y88334D01*
X358984Y88453D01*
X358949Y88575D01*
X358925Y88617D01*
X358909Y88662D01*
X358840Y88769D01*
X358779Y88879D01*
X358739Y88925D01*
X358720Y88955D01*
X358685Y88989D01*
X358620Y89065D01*
X337499Y110186D01*
X336803Y111866D01*
X336803Y174259D01*
X336789Y174385D01*
X336782Y174511D01*
X336769Y174557D01*
X336763Y174605D01*
X336721Y174724D01*
X336686Y174846D01*
X336662Y174888D01*
X336646Y174933D01*
X336577Y175040D01*
X336516Y175150D01*
X336476Y175196D01*
X336457Y175226D01*
X336422Y175260D01*
X336357Y175336D01*
X266533Y245160D01*
X266513Y245176D01*
X266496Y245196D01*
X266376Y245284D01*
X266260Y245376D01*
X266237Y245388D01*
X266216Y245403D01*
X266079Y245462D01*
X265945Y245525D01*
X265920Y245531D01*
X265896Y245541D01*
X265749Y245568D01*
X265605Y245599D01*
X265578Y245598D01*
X265553Y245603D01*
X265404Y245595D01*
X265256Y245593D01*
X265231Y245586D01*
X265204Y245585D01*
X265062Y245544D01*
X264918Y245508D01*
X264895Y245496D01*
X264870Y245488D01*
X264740Y245416D01*
X264608Y245348D01*
X264588Y245331D01*
X264565Y245318D01*
X264379Y245160D01*
X264039Y244820D01*
X264019Y244808D01*
X263927Y244768D01*
X263867Y244724D01*
X263802Y244688D01*
X263728Y244620D01*
X263647Y244560D01*
X263599Y244504D01*
X263544Y244454D01*
X263487Y244371D01*
X263422Y244294D01*
X263388Y244228D01*
X263346Y244167D01*
X263309Y244074D01*
X263263Y243984D01*
X263245Y243912D01*
X263218Y243843D01*
X263203Y243743D01*
X263179Y243646D01*
X263178Y243572D01*
X263167Y243498D01*
X263175Y243398D01*
X263174Y243297D01*
X263190Y243225D01*
X263196Y243151D01*
X263227Y243055D01*
X263248Y242957D01*
X263280Y242890D01*
X263303Y242819D01*
X263355Y242733D01*
X263398Y242642D01*
X263444Y242584D01*
X263483Y242521D01*
X263553Y242448D01*
X263615Y242370D01*
X263674Y242324D01*
X263726Y242271D01*
X263810Y242216D01*
X263889Y242154D01*
X263978Y242108D01*
X264019Y242082D01*
X264047Y242072D01*
X266914Y239206D01*
X268461Y235471D01*
X268461Y231429D01*
X266914Y227694D01*
X264039Y224820D01*
X264019Y224808D01*
X263927Y224768D01*
X263867Y224724D01*
X263802Y224688D01*
X263728Y224620D01*
X263647Y224560D01*
X263599Y224504D01*
X263544Y224454D01*
X263487Y224371D01*
X263422Y224294D01*
X263388Y224228D01*
X263346Y224167D01*
X263309Y224074D01*
X263263Y223984D01*
X263245Y223912D01*
X263218Y223843D01*
X263203Y223743D01*
X263179Y223646D01*
X263178Y223572D01*
X263167Y223498D01*
X263175Y223398D01*
X263174Y223297D01*
X263190Y223225D01*
X263196Y223151D01*
X263227Y223055D01*
X263248Y222957D01*
X263280Y222890D01*
X263303Y222819D01*
X263355Y222733D01*
X263398Y222642D01*
X263444Y222584D01*
X263483Y222521D01*
X263553Y222448D01*
X263615Y222370D01*
X263674Y222324D01*
X263726Y222271D01*
X263810Y222216D01*
X263889Y222154D01*
X263978Y222108D01*
X264019Y222082D01*
X264047Y222072D01*
X266914Y219206D01*
X268461Y215471D01*
X268461Y211429D01*
X266914Y207694D01*
X264039Y204820D01*
X264019Y204808D01*
X263927Y204768D01*
X263867Y204724D01*
X263802Y204688D01*
X263728Y204620D01*
X263647Y204560D01*
X263599Y204504D01*
X263544Y204454D01*
X263487Y204371D01*
X263422Y204294D01*
X263388Y204228D01*
X263346Y204167D01*
X263309Y204074D01*
X263263Y203984D01*
X263245Y203912D01*
X263218Y203843D01*
X263203Y203743D01*
X263179Y203646D01*
X263178Y203572D01*
X263167Y203498D01*
X263175Y203398D01*
X263174Y203297D01*
X263190Y203225D01*
X263196Y203151D01*
X263227Y203055D01*
X263248Y202957D01*
X263280Y202890D01*
X263303Y202819D01*
X263355Y202733D01*
X263398Y202642D01*
X263444Y202584D01*
X263483Y202521D01*
X263553Y202448D01*
X263615Y202370D01*
X263674Y202324D01*
X263726Y202271D01*
X263810Y202216D01*
X263889Y202154D01*
X263978Y202108D01*
X264019Y202082D01*
X264047Y202072D01*
X266914Y199206D01*
X268461Y195471D01*
X268461Y191429D01*
X266914Y187694D01*
X264056Y184836D01*
X263335Y184538D01*
X263300Y184518D01*
X263261Y184505D01*
X263148Y184434D01*
X263031Y184368D01*
X263000Y184341D01*
X262966Y184319D01*
X262872Y184224D01*
X262772Y184134D01*
X262749Y184101D01*
X262721Y184072D01*
X262650Y183958D01*
X262574Y183848D01*
X262559Y183810D01*
X262538Y183775D01*
X262496Y183648D01*
X262446Y183523D01*
X262441Y183483D01*
X262428Y183444D01*
X262415Y183311D01*
X262396Y183179D01*
X262399Y183138D01*
X262395Y183097D01*
X262413Y182965D01*
X262425Y182831D01*
X262437Y182793D01*
X262443Y182752D01*
X262491Y182627D01*
X262532Y182500D01*
X262553Y182465D01*
X262567Y182427D01*
X262642Y182316D01*
X262711Y182201D01*
X262740Y182172D01*
X262763Y182138D01*
X262861Y182047D01*
X262954Y181951D01*
X262989Y181929D01*
X263018Y181901D01*
X263227Y181773D01*
X263359Y181706D01*
X264588Y180813D01*
X265663Y179738D01*
X266556Y178509D01*
X267246Y177155D01*
X267715Y175710D01*
X267796Y175199D01*
X258526Y175199D01*
X258500Y175196D01*
X258474Y175198D01*
X258329Y175177D01*
X258318Y175180D01*
X258074Y175199D01*
X248804Y175199D01*
X248885Y175710D01*
X249354Y177155D01*
X250044Y178509D01*
X250937Y179738D01*
X252012Y180813D01*
X253241Y181706D01*
X253373Y181773D01*
X253407Y181796D01*
X253445Y181812D01*
X253552Y181892D01*
X253664Y181966D01*
X253692Y181996D01*
X253724Y182020D01*
X253811Y182122D01*
X253903Y182220D01*
X253923Y182255D01*
X253950Y182286D01*
X254011Y182405D01*
X254078Y182521D01*
X254090Y182560D01*
X254108Y182596D01*
X254141Y182726D01*
X254180Y182854D01*
X254183Y182895D01*
X254192Y182934D01*
X254194Y183068D01*
X254203Y183202D01*
X254197Y183242D01*
X254197Y183283D01*
X254169Y183414D01*
X254147Y183546D01*
X254132Y183583D01*
X254123Y183623D01*
X254066Y183744D01*
X254015Y183868D01*
X253991Y183901D01*
X253973Y183938D01*
X253890Y184043D01*
X253812Y184152D01*
X253781Y184179D01*
X253756Y184210D01*
X253651Y184293D01*
X253550Y184382D01*
X253514Y184401D01*
X253482Y184426D01*
X253265Y184538D01*
X252544Y184836D01*
X249686Y187694D01*
X248139Y191429D01*
X248139Y195471D01*
X249686Y199206D01*
X252561Y202080D01*
X252581Y202091D01*
X252673Y202131D01*
X252733Y202176D01*
X252798Y202212D01*
X252872Y202279D01*
X252953Y202339D01*
X253001Y202396D01*
X253056Y202446D01*
X253113Y202529D01*
X253178Y202605D01*
X253212Y202672D01*
X253254Y202733D01*
X253291Y202826D01*
X253337Y202916D01*
X253355Y202988D01*
X253382Y203057D01*
X253397Y203156D01*
X253421Y203254D01*
X253422Y203328D01*
X253433Y203402D01*
X253425Y203502D01*
X253426Y203602D01*
X253410Y203675D01*
X253404Y203749D01*
X253373Y203845D01*
X253352Y203943D01*
X253320Y204010D01*
X253297Y204081D01*
X253245Y204167D01*
X253202Y204258D01*
X253156Y204316D01*
X253117Y204379D01*
X253047Y204451D01*
X252985Y204530D01*
X252926Y204576D01*
X252875Y204629D01*
X252790Y204684D01*
X252711Y204746D01*
X252622Y204792D01*
X252581Y204818D01*
X252553Y204828D01*
X249686Y207694D01*
X248139Y211429D01*
X248139Y215471D01*
X249686Y219206D01*
X252561Y222080D01*
X252581Y222091D01*
X252673Y222131D01*
X252733Y222176D01*
X252798Y222212D01*
X252872Y222279D01*
X252953Y222339D01*
X253001Y222396D01*
X253056Y222446D01*
X253113Y222529D01*
X253178Y222605D01*
X253212Y222672D01*
X253254Y222733D01*
X253291Y222826D01*
X253337Y222916D01*
X253355Y222988D01*
X253382Y223057D01*
X253397Y223156D01*
X253421Y223254D01*
X253422Y223328D01*
X253433Y223402D01*
X253425Y223502D01*
X253426Y223602D01*
X253410Y223675D01*
X253404Y223749D01*
X253373Y223845D01*
X253352Y223943D01*
X253320Y224010D01*
X253297Y224081D01*
X253245Y224167D01*
X253202Y224258D01*
X253156Y224316D01*
X253117Y224379D01*
X253047Y224451D01*
X252985Y224530D01*
X252926Y224576D01*
X252875Y224629D01*
X252790Y224684D01*
X252711Y224746D01*
X252622Y224792D01*
X252581Y224818D01*
X252553Y224828D01*
X249686Y227694D01*
X248139Y231429D01*
X248139Y235471D01*
X249686Y239206D01*
X252561Y242080D01*
X252581Y242091D01*
X252673Y242131D01*
X252733Y242176D01*
X252798Y242212D01*
X252872Y242279D01*
X252953Y242339D01*
X253001Y242396D01*
X253056Y242446D01*
X253113Y242529D01*
X253178Y242605D01*
X253212Y242672D01*
X253254Y242733D01*
X253291Y242826D01*
X253337Y242916D01*
X253355Y242988D01*
X253382Y243057D01*
X253397Y243156D01*
X253421Y243254D01*
X253422Y243328D01*
X253433Y243402D01*
X253425Y243502D01*
X253426Y243602D01*
X253410Y243675D01*
X253404Y243749D01*
X253373Y243845D01*
X253352Y243943D01*
X253320Y244010D01*
X253297Y244081D01*
X253245Y244167D01*
X253202Y244258D01*
X253156Y244316D01*
X253117Y244379D01*
X253047Y244451D01*
X252985Y244530D01*
X252926Y244576D01*
X252875Y244629D01*
X252790Y244684D01*
X252711Y244746D01*
X252622Y244792D01*
X252581Y244818D01*
X252553Y244828D01*
X249686Y247694D01*
X248139Y251429D01*
X248139Y255471D01*
X249686Y259206D01*
X252561Y262080D01*
X252581Y262091D01*
X252673Y262131D01*
X252733Y262176D01*
X252798Y262212D01*
X252872Y262279D01*
X252953Y262339D01*
X253001Y262396D01*
X253056Y262446D01*
X253113Y262529D01*
X253178Y262605D01*
X253212Y262672D01*
X253254Y262733D01*
X253291Y262826D01*
X253337Y262916D01*
X253355Y262988D01*
X253382Y263057D01*
X253397Y263156D01*
X253421Y263254D01*
X253422Y263328D01*
X253433Y263402D01*
X253425Y263502D01*
X253426Y263602D01*
X253410Y263675D01*
X253404Y263749D01*
X253373Y263845D01*
X253352Y263943D01*
X253320Y264010D01*
X253297Y264081D01*
X253245Y264167D01*
X253202Y264258D01*
X253156Y264316D01*
X253117Y264379D01*
X253047Y264451D01*
X252985Y264530D01*
X252926Y264576D01*
X252875Y264629D01*
X252790Y264684D01*
X252711Y264746D01*
X252622Y264792D01*
X252581Y264818D01*
X252553Y264828D01*
X249686Y267694D01*
X248139Y271429D01*
X248139Y275471D01*
X249686Y279206D01*
X252561Y282080D01*
X252581Y282091D01*
X252673Y282131D01*
X252733Y282176D01*
X252798Y282212D01*
X252872Y282279D01*
X252953Y282339D01*
X253001Y282396D01*
X253056Y282446D01*
X253113Y282529D01*
X253178Y282605D01*
X253212Y282672D01*
X253254Y282733D01*
X253291Y282826D01*
X253337Y282916D01*
X253355Y282988D01*
X253382Y283057D01*
X253397Y283156D01*
X253421Y283254D01*
X253422Y283328D01*
X253433Y283402D01*
X253425Y283502D01*
X253426Y283602D01*
X253410Y283675D01*
X253404Y283749D01*
X253373Y283845D01*
X253352Y283943D01*
X253320Y284010D01*
X253297Y284081D01*
X253245Y284167D01*
X253202Y284258D01*
X253156Y284316D01*
X253117Y284379D01*
X253047Y284451D01*
X252985Y284530D01*
X252926Y284576D01*
X252875Y284629D01*
X252790Y284684D01*
X252711Y284746D01*
X252622Y284792D01*
X252581Y284818D01*
X252553Y284828D01*
X249686Y287694D01*
X248139Y291429D01*
X248139Y295471D01*
X249686Y299206D01*
X252561Y302080D01*
X252581Y302091D01*
X252673Y302131D01*
X252733Y302176D01*
X252798Y302212D01*
X252872Y302279D01*
X252953Y302339D01*
X253001Y302396D01*
X253056Y302446D01*
X253113Y302529D01*
X253178Y302605D01*
X253212Y302672D01*
X253254Y302733D01*
X253291Y302826D01*
X253337Y302916D01*
X253355Y302988D01*
X253382Y303057D01*
X253397Y303156D01*
X253421Y303254D01*
X253422Y303328D01*
X253433Y303402D01*
X253425Y303502D01*
X253426Y303602D01*
X253410Y303675D01*
X253404Y303749D01*
X253373Y303845D01*
X253352Y303943D01*
X253320Y304010D01*
X253297Y304081D01*
X253245Y304167D01*
X253202Y304258D01*
X253156Y304316D01*
X253117Y304379D01*
X253047Y304451D01*
X252985Y304530D01*
X252926Y304576D01*
X252875Y304629D01*
X252790Y304684D01*
X252711Y304746D01*
X252622Y304792D01*
X252581Y304818D01*
X252553Y304828D01*
X249686Y307694D01*
X248139Y311429D01*
X248139Y315471D01*
X249686Y319206D01*
X252561Y322080D01*
X252581Y322091D01*
X252673Y322131D01*
X252733Y322176D01*
X252798Y322212D01*
X252872Y322279D01*
X252953Y322339D01*
X253001Y322396D01*
X253056Y322446D01*
X253113Y322529D01*
X253178Y322605D01*
X253212Y322672D01*
X253254Y322733D01*
X253291Y322826D01*
X253337Y322916D01*
X253355Y322988D01*
X253382Y323057D01*
X253397Y323156D01*
X253421Y323254D01*
X253422Y323328D01*
X253433Y323402D01*
X253425Y323502D01*
X253426Y323602D01*
X253410Y323675D01*
X253404Y323749D01*
X253373Y323845D01*
X253352Y323943D01*
X253320Y324010D01*
X253297Y324081D01*
X253245Y324167D01*
X253202Y324258D01*
X253156Y324316D01*
X253117Y324379D01*
X253047Y324451D01*
X252985Y324530D01*
X252926Y324576D01*
X252875Y324629D01*
X252790Y324684D01*
X252711Y324746D01*
X252622Y324792D01*
X252581Y324818D01*
X252553Y324828D01*
X250167Y327213D01*
X250068Y327292D01*
X249975Y327376D01*
X249932Y327400D01*
X249894Y327430D01*
X249780Y327484D01*
X249670Y327545D01*
X249623Y327558D01*
X249579Y327579D01*
X249456Y327605D01*
X249334Y327640D01*
X249273Y327645D01*
X249239Y327652D01*
X249191Y327651D01*
X249090Y327659D01*
X246365Y327659D01*
X246239Y327645D01*
X246113Y327638D01*
X246067Y327625D01*
X246019Y327619D01*
X245900Y327577D01*
X245778Y327542D01*
X245736Y327518D01*
X245691Y327502D01*
X245584Y327433D01*
X245474Y327372D01*
X245428Y327332D01*
X245398Y327313D01*
X245364Y327278D01*
X245288Y327213D01*
X242763Y324688D01*
X242684Y324589D01*
X242600Y324495D01*
X242576Y324453D01*
X242546Y324415D01*
X242492Y324301D01*
X242431Y324190D01*
X242418Y324144D01*
X242397Y324100D01*
X242371Y323977D01*
X242336Y323855D01*
X242331Y323794D01*
X242324Y323759D01*
X242325Y323711D01*
X242317Y323611D01*
X242317Y224642D01*
X241621Y222962D01*
X230682Y212023D01*
X229002Y211327D01*
X175245Y211327D01*
X175119Y211313D01*
X174993Y211306D01*
X174947Y211293D01*
X174899Y211287D01*
X174780Y211245D01*
X174658Y211210D01*
X174616Y211186D01*
X174571Y211170D01*
X174464Y211101D01*
X174354Y211040D01*
X174308Y211000D01*
X174278Y210981D01*
X174244Y210946D01*
X174168Y210881D01*
X171882Y208595D01*
X171866Y208575D01*
X171846Y208558D01*
X171757Y208438D01*
X171665Y208322D01*
X171654Y208298D01*
X171638Y208277D01*
X171580Y208141D01*
X171516Y208007D01*
X171511Y207981D01*
X171500Y207957D01*
X171474Y207811D01*
X171443Y207666D01*
X171443Y207640D01*
X171439Y207614D01*
X171446Y207466D01*
X171449Y207318D01*
X171455Y207292D01*
X171457Y207266D01*
X171498Y207124D01*
X171534Y206980D01*
X171546Y206957D01*
X171553Y206931D01*
X171626Y206802D01*
X171694Y206670D01*
X171711Y206650D01*
X171723Y206627D01*
X171882Y206441D01*
X178232Y200091D01*
X178331Y200012D01*
X178425Y199928D01*
X178467Y199904D01*
X178505Y199874D01*
X178619Y199820D01*
X178730Y199759D01*
X178776Y199746D01*
X178820Y199725D01*
X178943Y199699D01*
X179065Y199664D01*
X179126Y199659D01*
X179161Y199652D01*
X179209Y199653D01*
X179309Y199645D01*
X195982Y199645D01*
X197662Y198949D01*
X199163Y197448D01*
X203544Y193067D01*
X212688Y183923D01*
X214189Y182422D01*
X214885Y180742D01*
X214885Y163682D01*
X214189Y162002D01*
X209235Y157048D01*
X209156Y156949D01*
X209072Y156855D01*
X209048Y156813D01*
X209018Y156775D01*
X208964Y156661D01*
X208903Y156550D01*
X208890Y156504D01*
X208869Y156460D01*
X208843Y156337D01*
X208808Y156215D01*
X208803Y156154D01*
X208796Y156119D01*
X208797Y156071D01*
X208789Y155971D01*
X208789Y145781D01*
X208803Y145655D01*
X208810Y145529D01*
X208823Y145483D01*
X208829Y145435D01*
X208871Y145316D01*
X208906Y145194D01*
X208930Y145152D01*
X208946Y145107D01*
X209015Y145000D01*
X209076Y144890D01*
X209116Y144844D01*
X209135Y144814D01*
X209170Y144780D01*
X209235Y144704D01*
X214242Y139697D01*
X214254Y139682D01*
X214277Y139640D01*
X214362Y139546D01*
X214441Y139447D01*
X214479Y139417D01*
X214512Y139381D01*
X214616Y139309D01*
X214715Y139231D01*
X214769Y139203D01*
X214798Y139183D01*
X214843Y139165D01*
X214933Y139119D01*
X216724Y138378D01*
X219404Y135698D01*
X220854Y132197D01*
X220854Y128407D01*
X219404Y124906D01*
X216724Y122226D01*
X213223Y120776D01*
X212456Y120776D01*
X212356Y120765D01*
X212256Y120763D01*
X212184Y120745D01*
X212110Y120736D01*
X212015Y120703D01*
X211918Y120678D01*
X211852Y120644D01*
X211782Y120619D01*
X211697Y120564D01*
X211608Y120518D01*
X211551Y120470D01*
X211489Y120430D01*
X211419Y120358D01*
X211343Y120293D01*
X211298Y120233D01*
X211247Y120179D01*
X211195Y120093D01*
X211135Y120012D01*
X211106Y119944D01*
X211068Y119880D01*
X211037Y119784D01*
X210997Y119692D01*
X210984Y119619D01*
X210962Y119548D01*
X210954Y119448D01*
X210936Y119349D01*
X210940Y119275D01*
X210934Y119201D01*
X210949Y119101D01*
X210954Y119001D01*
X210974Y118930D01*
X210985Y118856D01*
X211022Y118763D01*
X211050Y118666D01*
X211087Y118601D01*
X211114Y118532D01*
X211171Y118450D01*
X211220Y118362D01*
X211286Y118286D01*
X211313Y118246D01*
X211339Y118222D01*
X211379Y118176D01*
X220285Y109270D01*
X220981Y107590D01*
X220981Y103109D01*
X220995Y102983D01*
X221002Y102857D01*
X221015Y102811D01*
X221021Y102763D01*
X221063Y102644D01*
X221098Y102522D01*
X221122Y102480D01*
X221138Y102435D01*
X221207Y102328D01*
X221268Y102218D01*
X221308Y102172D01*
X221327Y102142D01*
X221362Y102108D01*
X221384Y102083D01*
X221391Y102072D01*
X221398Y102066D01*
X221427Y102032D01*
X244669Y78790D01*
X245365Y77110D01*
X245365Y69302D01*
X245373Y69226D01*
X245372Y69150D01*
X245393Y69053D01*
X245405Y68956D01*
X245430Y68884D01*
X245447Y68809D01*
X245489Y68720D01*
X245522Y68628D01*
X245564Y68563D01*
X245596Y68494D01*
X245658Y68417D01*
X245711Y68335D01*
X245766Y68282D01*
X245814Y68222D01*
X245891Y68161D01*
X245962Y68093D01*
X246027Y68053D01*
X246087Y68006D01*
X246220Y67938D01*
X246261Y67914D01*
X246279Y67908D01*
X246305Y67895D01*
X247343Y67464D01*
X250344Y64463D01*
X251969Y60542D01*
X251969Y41058D01*
X250344Y37137D01*
X247343Y34136D01*
X243422Y32511D01*
X239178Y32511D01*
X235257Y34136D01*
X232256Y37137D01*
X230631Y41058D01*
X230631Y60542D01*
X232256Y64463D01*
X235257Y67464D01*
X235279Y67474D01*
X235346Y67511D01*
X235417Y67539D01*
X235497Y67595D01*
X235583Y67643D01*
X235640Y67694D01*
X235703Y67738D01*
X235769Y67811D01*
X235842Y67877D01*
X235885Y67940D01*
X235936Y67997D01*
X235984Y68083D01*
X236040Y68164D01*
X236068Y68235D01*
X236105Y68302D01*
X236132Y68397D01*
X236168Y68488D01*
X236179Y68564D01*
X236200Y68637D01*
X236212Y68786D01*
X236219Y68833D01*
X236217Y68852D01*
X236219Y68881D01*
X236219Y73675D01*
X236205Y73801D01*
X236198Y73927D01*
X236185Y73973D01*
X236179Y74021D01*
X236137Y74140D01*
X236102Y74262D01*
X236078Y74304D01*
X236062Y74349D01*
X235993Y74456D01*
X235932Y74566D01*
X235892Y74612D01*
X235873Y74642D01*
X235838Y74676D01*
X235773Y74752D01*
X212531Y97994D01*
X211835Y99674D01*
X211835Y104155D01*
X211821Y104280D01*
X211814Y104407D01*
X211801Y104453D01*
X211795Y104501D01*
X211753Y104620D01*
X211718Y104742D01*
X211694Y104784D01*
X211678Y104829D01*
X211609Y104935D01*
X211548Y105046D01*
X211508Y105092D01*
X211489Y105122D01*
X211454Y105156D01*
X211389Y105232D01*
X210754Y105867D01*
X210676Y105929D01*
X210603Y105999D01*
X210539Y106037D01*
X210481Y106084D01*
X210390Y106127D01*
X210304Y106178D01*
X210233Y106201D01*
X210166Y106233D01*
X210068Y106254D01*
X209972Y106284D01*
X209898Y106290D01*
X209825Y106306D01*
X209725Y106304D01*
X209625Y106312D01*
X209551Y106301D01*
X209477Y106300D01*
X209380Y106276D01*
X209280Y106261D01*
X209211Y106233D01*
X209139Y106215D01*
X209050Y106169D01*
X208956Y106132D01*
X208895Y106090D01*
X208829Y106055D01*
X208752Y105990D01*
X208670Y105933D01*
X208620Y105878D01*
X208564Y105830D01*
X208504Y105749D01*
X208437Y105674D01*
X208401Y105609D01*
X208356Y105549D01*
X208317Y105457D01*
X208268Y105369D01*
X208248Y105298D01*
X208218Y105229D01*
X208201Y105130D01*
X208173Y105034D01*
X208165Y104934D01*
X208157Y104886D01*
X208159Y104851D01*
X208154Y104790D01*
X208154Y97162D01*
X206368Y95376D01*
X190888Y95376D01*
X189102Y97162D01*
X189102Y100584D01*
X189099Y100610D01*
X189101Y100636D01*
X189079Y100783D01*
X189062Y100930D01*
X189054Y100955D01*
X189050Y100981D01*
X188995Y101119D01*
X188945Y101258D01*
X188931Y101280D01*
X188921Y101305D01*
X188836Y101426D01*
X188756Y101551D01*
X188737Y101569D01*
X188722Y101591D01*
X188612Y101690D01*
X188505Y101793D01*
X188483Y101807D01*
X188463Y101824D01*
X188333Y101896D01*
X188206Y101972D01*
X188181Y101980D01*
X188158Y101993D01*
X188015Y102033D01*
X187874Y102078D01*
X187848Y102080D01*
X187823Y102088D01*
X187579Y102107D01*
X182357Y102107D01*
X182257Y102096D01*
X182157Y102094D01*
X182085Y102076D01*
X182011Y102067D01*
X181916Y102034D01*
X181819Y102009D01*
X181753Y101975D01*
X181683Y101950D01*
X181598Y101895D01*
X181509Y101849D01*
X181452Y101801D01*
X181390Y101761D01*
X181320Y101689D01*
X181244Y101624D01*
X181199Y101564D01*
X181148Y101510D01*
X181096Y101424D01*
X181036Y101343D01*
X181007Y101275D01*
X180969Y101211D01*
X180938Y101115D01*
X180898Y101023D01*
X180885Y100950D01*
X180863Y100879D01*
X180855Y100779D01*
X180837Y100680D01*
X180841Y100606D01*
X180835Y100532D01*
X180850Y100432D01*
X180855Y100332D01*
X180875Y100261D01*
X180886Y100187D01*
X180923Y100094D01*
X180951Y99997D01*
X180988Y99932D01*
X181015Y99863D01*
X181072Y99781D01*
X181121Y99693D01*
X181187Y99617D01*
X181214Y99577D01*
X181240Y99553D01*
X181280Y99507D01*
X190424Y90363D01*
X190523Y90284D01*
X190617Y90200D01*
X190659Y90176D01*
X190697Y90146D01*
X190811Y90092D01*
X190922Y90031D01*
X190968Y90018D01*
X191012Y89997D01*
X191135Y89971D01*
X191257Y89936D01*
X191318Y89931D01*
X191353Y89924D01*
X191401Y89925D01*
X191501Y89917D01*
X195982Y89917D01*
X197662Y89221D01*
X217419Y69464D01*
X217420Y69463D01*
X217421Y69461D01*
X217561Y69351D01*
X217692Y69248D01*
X217693Y69247D01*
X217695Y69245D01*
X217913Y69134D01*
X221943Y67464D01*
X224944Y64463D01*
X226569Y60542D01*
X226569Y41058D01*
X224944Y37137D01*
X221943Y34136D01*
X218022Y32511D01*
X213778Y32511D01*
X209857Y34136D01*
X206856Y37137D01*
X205231Y41058D01*
X205231Y60542D01*
X206856Y64463D01*
X207094Y64701D01*
X207110Y64722D01*
X207130Y64739D01*
X207218Y64859D01*
X207310Y64974D01*
X207321Y64998D01*
X207337Y65019D01*
X207396Y65155D01*
X207459Y65289D01*
X207465Y65315D01*
X207475Y65339D01*
X207501Y65485D01*
X207532Y65630D01*
X207532Y65656D01*
X207537Y65682D01*
X207529Y65830D01*
X207527Y65979D01*
X207520Y66004D01*
X207519Y66030D01*
X207478Y66173D01*
X207442Y66317D01*
X207430Y66340D01*
X207422Y66365D01*
X207350Y66495D01*
X207282Y66626D01*
X207265Y66646D01*
X207252Y66669D01*
X207094Y66856D01*
X193624Y80325D01*
X193525Y80404D01*
X193431Y80488D01*
X193389Y80512D01*
X193351Y80542D01*
X193237Y80596D01*
X193126Y80657D01*
X193080Y80670D01*
X193036Y80691D01*
X192913Y80717D01*
X192791Y80752D01*
X192730Y80757D01*
X192695Y80764D01*
X192647Y80763D01*
X192547Y80771D01*
X188066Y80771D01*
X186386Y81467D01*
X152333Y115520D01*
X151637Y117200D01*
X151637Y171465D01*
X151623Y171591D01*
X151616Y171717D01*
X151603Y171763D01*
X151597Y171811D01*
X151555Y171930D01*
X151520Y172052D01*
X151496Y172094D01*
X151480Y172139D01*
X151411Y172246D01*
X151350Y172356D01*
X151310Y172402D01*
X151291Y172432D01*
X151256Y172466D01*
X151191Y172542D01*
X150952Y172781D01*
X150853Y172860D01*
X150759Y172944D01*
X150717Y172968D01*
X150679Y172998D01*
X150565Y173052D01*
X150454Y173113D01*
X150408Y173126D01*
X150364Y173147D01*
X150241Y173173D01*
X150119Y173208D01*
X150058Y173213D01*
X150023Y173220D01*
X149975Y173219D01*
X149875Y173227D01*
X137160Y173227D01*
X137134Y173224D01*
X137108Y173226D01*
X136961Y173204D01*
X136814Y173187D01*
X136789Y173179D01*
X136763Y173175D01*
X136625Y173120D01*
X136486Y173070D01*
X136464Y173056D01*
X136439Y173046D01*
X136318Y172961D01*
X136193Y172881D01*
X136175Y172862D01*
X136153Y172847D01*
X136054Y172737D01*
X135951Y172630D01*
X135937Y172608D01*
X135920Y172588D01*
X135848Y172458D01*
X135772Y172331D01*
X135764Y172306D01*
X135751Y172283D01*
X135711Y172140D01*
X135666Y171999D01*
X135664Y171973D01*
X135656Y171948D01*
X135637Y171704D01*
X135637Y100061D01*
X135651Y99935D01*
X135658Y99809D01*
X135671Y99763D01*
X135677Y99715D01*
X135719Y99596D01*
X135754Y99474D01*
X135778Y99432D01*
X135794Y99387D01*
X135863Y99280D01*
X135924Y99170D01*
X135964Y99124D01*
X135983Y99094D01*
X136018Y99060D01*
X136037Y99038D01*
X136046Y99026D01*
X136054Y99018D01*
X136083Y98984D01*
X177231Y57836D01*
X177309Y57774D01*
X177382Y57704D01*
X177446Y57665D01*
X177504Y57619D01*
X177595Y57576D01*
X177681Y57525D01*
X177752Y57502D01*
X177819Y57470D01*
X177917Y57449D01*
X178013Y57419D01*
X178087Y57413D01*
X178160Y57397D01*
X178260Y57399D01*
X178360Y57391D01*
X178434Y57402D01*
X178508Y57403D01*
X178605Y57427D01*
X178705Y57442D01*
X178774Y57470D01*
X178846Y57488D01*
X178936Y57534D01*
X179029Y57571D01*
X179090Y57613D01*
X179156Y57648D01*
X179233Y57713D01*
X179315Y57770D01*
X179365Y57825D01*
X179421Y57873D01*
X179481Y57954D01*
X179548Y58029D01*
X179584Y58094D01*
X179629Y58154D01*
X179668Y58246D01*
X179717Y58334D01*
X179737Y58405D01*
X179767Y58474D01*
X179784Y58572D01*
X179812Y58669D01*
X179820Y58769D01*
X179828Y58817D01*
X179826Y58852D01*
X179831Y58913D01*
X179831Y60542D01*
X181456Y64463D01*
X184457Y67464D01*
X188378Y69089D01*
X192622Y69089D01*
X196543Y67464D01*
X199544Y64463D01*
X201169Y60542D01*
X201169Y41058D01*
X199544Y37137D01*
X196543Y34136D01*
X192622Y32511D01*
X188378Y32511D01*
X184457Y34136D01*
X181456Y37137D01*
X179831Y41058D01*
X179831Y45720D01*
X179828Y45746D01*
X179830Y45772D01*
X179808Y45919D01*
X179791Y46066D01*
X179783Y46091D01*
X179779Y46117D01*
X179724Y46255D01*
X179674Y46394D01*
X179660Y46416D01*
X179650Y46441D01*
X179565Y46562D01*
X179485Y46687D01*
X179466Y46705D01*
X179451Y46727D01*
X179341Y46826D01*
X179234Y46929D01*
X179212Y46943D01*
X179192Y46960D01*
X179062Y47032D01*
X178935Y47108D01*
X178910Y47116D01*
X178887Y47129D01*
X178744Y47169D01*
X178603Y47214D01*
X178577Y47216D01*
X178552Y47224D01*
X178308Y47243D01*
X175874Y47243D01*
X174194Y47939D01*
X127187Y94946D01*
X126491Y96626D01*
X126491Y400198D01*
X127187Y401878D01*
X137019Y411710D01*
X137112Y411827D01*
X137210Y411943D01*
X137221Y411964D01*
X137235Y411983D01*
X137300Y412119D01*
X137368Y412253D01*
X137374Y412276D01*
X137384Y412298D01*
X137416Y412445D01*
X137452Y412591D01*
X137453Y412615D01*
X137458Y412638D01*
X137455Y412789D01*
X137457Y412940D01*
X137452Y412963D01*
X137452Y412987D01*
X137415Y413133D01*
X137383Y413280D01*
X137373Y413302D01*
X137367Y413325D01*
X137298Y413459D01*
X137233Y413595D01*
X137218Y413613D01*
X137207Y413635D01*
X137109Y413750D01*
X137016Y413867D01*
X136997Y413882D01*
X136981Y413900D01*
X136860Y413990D01*
X136742Y414083D01*
X136740Y414084D01*
X133704Y417121D01*
X132079Y421042D01*
X132079Y440526D01*
X133704Y444447D01*
X136705Y447448D01*
X140626Y449073D01*
X144870Y449073D01*
X148791Y447448D01*
X151792Y444447D01*
X153417Y440526D01*
X153417Y421042D01*
X151792Y417121D01*
X151323Y416651D01*
X151244Y416552D01*
X151160Y416458D01*
X151136Y416416D01*
X151106Y416378D01*
X151052Y416264D01*
X150991Y416153D01*
X150978Y416107D01*
X150957Y416063D01*
X150931Y415940D01*
X150896Y415818D01*
X150891Y415757D01*
X150884Y415722D01*
X150885Y415674D01*
X150877Y415574D01*
X150877Y413618D01*
X150181Y411938D01*
X148680Y410437D01*
X136083Y397840D01*
X136004Y397741D01*
X135920Y397647D01*
X135896Y397605D01*
X135866Y397567D01*
X135812Y397453D01*
X135751Y397342D01*
X135738Y397296D01*
X135717Y397252D01*
X135691Y397129D01*
X135656Y397007D01*
X135651Y396946D01*
X135644Y396911D01*
X135645Y396863D01*
X135637Y396763D01*
X135637Y389621D01*
X135648Y389521D01*
X135650Y389421D01*
X135668Y389349D01*
X135677Y389275D01*
X135710Y389180D01*
X135735Y389083D01*
X135769Y389017D01*
X135794Y388947D01*
X135849Y388862D01*
X135895Y388773D01*
X135943Y388716D01*
X135983Y388654D01*
X136055Y388584D01*
X136120Y388508D01*
X136180Y388463D01*
X136234Y388412D01*
X136320Y388360D01*
X136401Y388300D01*
X136469Y388271D01*
X136533Y388233D01*
X136629Y388202D01*
X136721Y388162D01*
X136794Y388149D01*
X136865Y388127D01*
X136965Y388119D01*
X137064Y388101D01*
X137138Y388105D01*
X137212Y388099D01*
X137312Y388114D01*
X137412Y388119D01*
X137483Y388139D01*
X137557Y388150D01*
X137650Y388187D01*
X137747Y388215D01*
X137812Y388252D01*
X137881Y388279D01*
X137963Y388336D01*
X138051Y388385D01*
X138127Y388451D01*
X138167Y388478D01*
X138191Y388504D01*
X138237Y388544D01*
X161882Y412188D01*
X161898Y412209D01*
X161918Y412226D01*
X162006Y412345D01*
X162098Y412461D01*
X162109Y412485D01*
X162125Y412506D01*
X162184Y412642D01*
X162247Y412776D01*
X162253Y412802D01*
X162263Y412826D01*
X162289Y412972D01*
X162320Y413117D01*
X162320Y413143D01*
X162325Y413169D01*
X162317Y413318D01*
X162315Y413466D01*
X162308Y413491D01*
X162307Y413517D01*
X162266Y413660D01*
X162230Y413804D01*
X162218Y413827D01*
X162210Y413852D01*
X162138Y413982D01*
X162070Y414113D01*
X162053Y414133D01*
X162040Y414156D01*
X161882Y414343D01*
X159104Y417121D01*
X157479Y421042D01*
X157479Y440526D01*
X159104Y444447D01*
X162105Y447448D01*
X166026Y449073D01*
X170270Y449073D01*
X174191Y447448D01*
X177192Y444447D01*
X178817Y440526D01*
X178817Y421042D01*
X177192Y417121D01*
X174191Y414119D01*
X173153Y413689D01*
X173121Y413671D01*
X173102Y413665D01*
X173077Y413649D01*
X173015Y413624D01*
X172934Y413568D01*
X172848Y413520D01*
X172792Y413469D01*
X172729Y413425D01*
X172663Y413352D01*
X172590Y413286D01*
X172547Y413223D01*
X172496Y413166D01*
X172448Y413080D01*
X172392Y412999D01*
X172364Y412928D01*
X172327Y412861D01*
X172300Y412767D01*
X172264Y412675D01*
X172253Y412600D01*
X172232Y412526D01*
X172220Y412377D01*
X172213Y412330D01*
X172215Y412311D01*
X172213Y412282D01*
X172213Y410570D01*
X171517Y408890D01*
X142179Y379552D01*
X142100Y379453D01*
X142016Y379359D01*
X141992Y379317D01*
X141962Y379279D01*
X141908Y379165D01*
X141847Y379054D01*
X141834Y379008D01*
X141813Y378964D01*
X141787Y378841D01*
X141752Y378719D01*
X141747Y378658D01*
X141740Y378623D01*
X141741Y378575D01*
X141733Y378475D01*
X141733Y316469D01*
X141744Y316369D01*
X141746Y316269D01*
X141764Y316197D01*
X141773Y316123D01*
X141806Y316028D01*
X141831Y315931D01*
X141865Y315865D01*
X141890Y315795D01*
X141945Y315710D01*
X141991Y315621D01*
X142039Y315564D01*
X142079Y315502D01*
X142151Y315432D01*
X142216Y315356D01*
X142276Y315311D01*
X142330Y315260D01*
X142416Y315208D01*
X142497Y315148D01*
X142565Y315119D01*
X142629Y315081D01*
X142725Y315050D01*
X142817Y315010D01*
X142890Y314997D01*
X142961Y314975D01*
X143061Y314967D01*
X143160Y314949D01*
X143234Y314953D01*
X143308Y314947D01*
X143408Y314962D01*
X143508Y314967D01*
X143579Y314987D01*
X143653Y314998D01*
X143746Y315035D01*
X143843Y315063D01*
X143908Y315100D01*
X143977Y315127D01*
X144059Y315184D01*
X144147Y315233D01*
X144223Y315299D01*
X144263Y315326D01*
X144287Y315352D01*
X144333Y315392D01*
X153202Y324261D01*
X153218Y324281D01*
X153238Y324298D01*
X153327Y324418D01*
X153419Y324534D01*
X153430Y324557D01*
X153445Y324579D01*
X153504Y324715D01*
X153568Y324849D01*
X153573Y324875D01*
X153583Y324899D01*
X153610Y325045D01*
X153641Y325190D01*
X153640Y325216D01*
X153645Y325242D01*
X153637Y325390D01*
X153635Y325538D01*
X153629Y325563D01*
X153627Y325590D01*
X153586Y325732D01*
X153550Y325876D01*
X153538Y325899D01*
X153531Y325925D01*
X153458Y326054D01*
X153390Y326186D01*
X153373Y326206D01*
X153360Y326229D01*
X153202Y326415D01*
X151891Y327726D01*
X151891Y335722D01*
X157546Y341377D01*
X165542Y341377D01*
X166853Y340066D01*
X166874Y340050D01*
X166891Y340030D01*
X167010Y339941D01*
X167126Y339849D01*
X167150Y339838D01*
X167171Y339823D01*
X167307Y339764D01*
X167441Y339700D01*
X167467Y339695D01*
X167491Y339685D01*
X167637Y339658D01*
X167782Y339627D01*
X167808Y339628D01*
X167834Y339623D01*
X167982Y339631D01*
X168130Y339633D01*
X168156Y339639D01*
X168182Y339641D01*
X168324Y339682D01*
X168468Y339718D01*
X168492Y339730D01*
X168517Y339737D01*
X168646Y339810D01*
X168778Y339878D01*
X168798Y339895D01*
X168821Y339908D01*
X169007Y340066D01*
X169368Y340427D01*
X171048Y341123D01*
X232425Y341123D01*
X232551Y341137D01*
X232677Y341144D01*
X232723Y341157D01*
X232771Y341163D01*
X232890Y341205D01*
X233012Y341240D01*
X233054Y341264D01*
X233099Y341280D01*
X233206Y341349D01*
X233316Y341410D01*
X233362Y341450D01*
X233392Y341469D01*
X233426Y341504D01*
X233502Y341569D01*
X242631Y350698D01*
X242710Y350797D01*
X242794Y350891D01*
X242818Y350933D01*
X242848Y350971D01*
X242902Y351085D01*
X242963Y351196D01*
X242976Y351242D01*
X242997Y351286D01*
X243023Y351409D01*
X243058Y351531D01*
X243063Y351592D01*
X243070Y351627D01*
X243069Y351675D01*
X243077Y351775D01*
X243077Y354478D01*
X243773Y356158D01*
X245060Y357445D01*
X246785Y358159D01*
X246815Y358164D01*
X246962Y358181D01*
X246987Y358189D01*
X247013Y358193D01*
X247151Y358248D01*
X247290Y358298D01*
X247312Y358312D01*
X247337Y358322D01*
X247458Y358407D01*
X247583Y358487D01*
X247601Y358506D01*
X247623Y358521D01*
X247722Y358631D01*
X247825Y358738D01*
X247839Y358760D01*
X247856Y358780D01*
X247928Y358910D01*
X248004Y359037D01*
X248012Y359062D01*
X248025Y359085D01*
X248065Y359228D01*
X248110Y359369D01*
X248112Y359395D01*
X248120Y359420D01*
X248139Y359664D01*
X248139Y361825D01*
X249937Y363623D01*
X249959Y363625D01*
X250085Y363632D01*
X250131Y363645D01*
X250179Y363651D01*
X250298Y363693D01*
X250420Y363728D01*
X250462Y363752D01*
X250507Y363768D01*
X250614Y363837D01*
X250724Y363898D01*
X250770Y363938D01*
X250800Y363957D01*
X250834Y363992D01*
X250910Y364057D01*
X293685Y406832D01*
X293764Y406931D01*
X293848Y407025D01*
X293872Y407067D01*
X293902Y407105D01*
X293956Y407219D01*
X294017Y407330D01*
X294030Y407376D01*
X294051Y407420D01*
X294077Y407543D01*
X294112Y407665D01*
X294117Y407726D01*
X294124Y407761D01*
X294123Y407809D01*
X294131Y407909D01*
X294131Y442483D01*
X294117Y442609D01*
X294110Y442735D01*
X294097Y442781D01*
X294091Y442829D01*
X294049Y442948D01*
X294014Y443070D01*
X293990Y443112D01*
X293974Y443157D01*
X293905Y443264D01*
X293844Y443374D01*
X293804Y443420D01*
X293785Y443450D01*
X293750Y443484D01*
X293685Y443560D01*
X285064Y452181D01*
X284965Y452260D01*
X284871Y452344D01*
X284829Y452368D01*
X284791Y452398D01*
X284677Y452452D01*
X284566Y452513D01*
X284520Y452526D01*
X284476Y452547D01*
X284353Y452573D01*
X284231Y452608D01*
X284170Y452613D01*
X284135Y452620D01*
X284087Y452619D01*
X283987Y452627D01*
X249413Y452627D01*
X249287Y452613D01*
X249161Y452606D01*
X249115Y452593D01*
X249067Y452587D01*
X248948Y452545D01*
X248826Y452510D01*
X248784Y452486D01*
X248739Y452470D01*
X248632Y452401D01*
X248522Y452340D01*
X248476Y452300D01*
X248446Y452281D01*
X248412Y452246D01*
X248336Y452181D01*
X243533Y447378D01*
X243517Y447358D01*
X243497Y447341D01*
X243409Y447221D01*
X243317Y447105D01*
X243305Y447082D01*
X243290Y447061D01*
X243231Y446924D01*
X243168Y446790D01*
X243162Y446765D01*
X243152Y446741D01*
X243126Y446595D01*
X243094Y446450D01*
X243095Y446423D01*
X243090Y446398D01*
X243098Y446249D01*
X243100Y446101D01*
X243107Y446076D01*
X243108Y446050D01*
X243149Y445907D01*
X243185Y445763D01*
X243197Y445740D01*
X243205Y445715D01*
X243277Y445585D01*
X243345Y445453D01*
X243362Y445433D01*
X243375Y445410D01*
X243533Y445224D01*
X244922Y443836D01*
X244942Y443819D01*
X244959Y443799D01*
X245079Y443711D01*
X245195Y443619D01*
X245219Y443608D01*
X245240Y443592D01*
X245376Y443533D01*
X245510Y443470D01*
X245536Y443465D01*
X245560Y443454D01*
X245706Y443428D01*
X245851Y443397D01*
X245877Y443397D01*
X245903Y443392D01*
X246051Y443400D01*
X246199Y443403D01*
X246225Y443409D01*
X246251Y443410D01*
X246393Y443451D01*
X246537Y443488D01*
X246560Y443500D01*
X246586Y443507D01*
X246715Y443579D01*
X246847Y443647D01*
X246867Y443664D01*
X246890Y443677D01*
X247076Y443836D01*
X252059Y448819D01*
X261529Y448819D01*
X266871Y443476D01*
X266892Y443460D01*
X266909Y443440D01*
X267028Y443352D01*
X267144Y443260D01*
X267168Y443249D01*
X267189Y443233D01*
X267325Y443174D01*
X267459Y443111D01*
X267485Y443105D01*
X267509Y443095D01*
X267655Y443069D01*
X267800Y443037D01*
X267826Y443038D01*
X267852Y443033D01*
X268000Y443041D01*
X268148Y443043D01*
X268174Y443050D01*
X268200Y443051D01*
X268342Y443092D01*
X268486Y443128D01*
X268510Y443140D01*
X268535Y443148D01*
X268664Y443220D01*
X268796Y443288D01*
X268816Y443305D01*
X268839Y443318D01*
X269025Y443476D01*
X273860Y448311D01*
X276353Y448311D01*
X276353Y437896D01*
X276356Y437870D01*
X276354Y437844D01*
X276376Y437697D01*
X276393Y437550D01*
X276401Y437525D01*
X276405Y437499D01*
X276448Y437392D01*
X276427Y437316D01*
X276382Y437175D01*
X276379Y437149D01*
X276372Y437124D01*
X276353Y436880D01*
X276353Y426465D01*
X273860Y426465D01*
X269025Y431300D01*
X269005Y431316D01*
X268988Y431336D01*
X268868Y431424D01*
X268752Y431516D01*
X268729Y431527D01*
X268707Y431543D01*
X268571Y431602D01*
X268437Y431665D01*
X268412Y431671D01*
X268387Y431681D01*
X268241Y431707D01*
X268097Y431739D01*
X268070Y431738D01*
X268044Y431743D01*
X267896Y431735D01*
X267748Y431733D01*
X267723Y431726D01*
X267696Y431725D01*
X267554Y431684D01*
X267410Y431648D01*
X267387Y431636D01*
X267362Y431628D01*
X267232Y431556D01*
X267100Y431488D01*
X267080Y431471D01*
X267057Y431458D01*
X266871Y431300D01*
X261529Y425957D01*
X259319Y425957D01*
X259193Y425943D01*
X259067Y425936D01*
X259021Y425923D01*
X258973Y425917D01*
X258854Y425875D01*
X258732Y425840D01*
X258690Y425816D01*
X258645Y425800D01*
X258538Y425731D01*
X258428Y425670D01*
X258382Y425630D01*
X258352Y425611D01*
X258318Y425576D01*
X258242Y425511D01*
X246430Y413699D01*
X244750Y413003D01*
X224642Y413003D01*
X222962Y413699D01*
X211912Y424749D01*
X211813Y424828D01*
X211719Y424912D01*
X211677Y424936D01*
X211639Y424966D01*
X211525Y425020D01*
X211414Y425081D01*
X211368Y425094D01*
X211324Y425115D01*
X211201Y425141D01*
X211079Y425176D01*
X211018Y425181D01*
X210983Y425188D01*
X210935Y425187D01*
X210835Y425195D01*
X205740Y425195D01*
X205714Y425192D01*
X205688Y425194D01*
X205541Y425172D01*
X205394Y425155D01*
X205369Y425147D01*
X205343Y425143D01*
X205205Y425088D01*
X205066Y425038D01*
X205044Y425024D01*
X205019Y425014D01*
X204898Y424929D01*
X204773Y424849D01*
X204755Y424830D01*
X204733Y424815D01*
X204634Y424705D01*
X204531Y424598D01*
X204517Y424576D01*
X204500Y424556D01*
X204428Y424426D01*
X204352Y424299D01*
X204344Y424274D01*
X204331Y424251D01*
X204291Y424108D01*
X204246Y423967D01*
X204244Y423941D01*
X204236Y423916D01*
X204217Y423672D01*
X204217Y421042D01*
X202592Y417121D01*
X199591Y414120D01*
X195670Y412495D01*
X191426Y412495D01*
X187505Y414120D01*
X184504Y417121D01*
X182879Y421042D01*
X182879Y440526D01*
X184587Y444649D01*
X184608Y444722D01*
X184638Y444792D01*
X184655Y444889D01*
X184683Y444984D01*
X184686Y445060D01*
X184700Y445135D01*
X184695Y445234D01*
X184699Y445332D01*
X184686Y445407D01*
X184682Y445483D01*
X184655Y445578D01*
X184637Y445675D01*
X184606Y445745D01*
X184585Y445818D01*
X184537Y445904D01*
X184498Y445994D01*
X184452Y446056D01*
X184415Y446122D01*
X184318Y446236D01*
X184290Y446274D01*
X184276Y446286D01*
X184257Y446309D01*
X178384Y452181D01*
X178285Y452260D01*
X178191Y452344D01*
X178149Y452368D01*
X178111Y452398D01*
X177997Y452452D01*
X177886Y452513D01*
X177840Y452526D01*
X177796Y452547D01*
X177673Y452573D01*
X177551Y452608D01*
X177490Y452613D01*
X177455Y452620D01*
X177407Y452619D01*
X177307Y452627D01*
X87869Y452627D01*
X87743Y452613D01*
X87617Y452606D01*
X87571Y452593D01*
X87523Y452587D01*
X87404Y452545D01*
X87282Y452510D01*
X87240Y452486D01*
X87195Y452470D01*
X87088Y452401D01*
X86978Y452340D01*
X86932Y452300D01*
X86902Y452281D01*
X86868Y452246D01*
X86792Y452181D01*
X78171Y443560D01*
X78092Y443461D01*
X78008Y443367D01*
X77984Y443325D01*
X77954Y443287D01*
X77900Y443173D01*
X77839Y443062D01*
X77826Y443016D01*
X77805Y442972D01*
X77779Y442849D01*
X77744Y442727D01*
X77739Y442666D01*
X77732Y442631D01*
X77733Y442583D01*
X77725Y442483D01*
X77725Y420101D01*
X77739Y419976D01*
X77746Y419849D01*
X77759Y419803D01*
X77765Y419755D01*
X77807Y419636D01*
X77842Y419514D01*
X77866Y419472D01*
X77882Y419427D01*
X77951Y419320D01*
X78012Y419210D01*
X78052Y419164D01*
X78071Y419134D01*
X78106Y419100D01*
X78171Y419024D01*
X78576Y418619D01*
X80077Y417118D01*
X80773Y415438D01*
X80773Y414005D01*
X80787Y413879D01*
X80794Y413753D01*
X80807Y413707D01*
X80813Y413659D01*
X80855Y413540D01*
X80890Y413418D01*
X80914Y413376D01*
X80930Y413331D01*
X80999Y413224D01*
X81060Y413114D01*
X81100Y413068D01*
X81119Y413038D01*
X81154Y413004D01*
X81219Y412928D01*
X83125Y411022D01*
X83821Y409342D01*
X83821Y370946D01*
X83125Y369266D01*
X63678Y349819D01*
X63616Y349741D01*
X63546Y349668D01*
X63507Y349604D01*
X63461Y349546D01*
X63418Y349455D01*
X63367Y349369D01*
X63344Y349298D01*
X63312Y349231D01*
X63291Y349133D01*
X63261Y349037D01*
X63255Y348963D01*
X63239Y348890D01*
X63241Y348790D01*
X63233Y348690D01*
X63244Y348616D01*
X63245Y348542D01*
X63269Y348445D01*
X63284Y348345D01*
X63312Y348276D01*
X63330Y348204D01*
X63376Y348114D01*
X63413Y348021D01*
X63455Y347960D01*
X63490Y347894D01*
X63555Y347817D01*
X63612Y347735D01*
X63667Y347685D01*
X63715Y347629D01*
X63796Y347569D01*
X63871Y347502D01*
X63936Y347466D01*
X63996Y347421D01*
X64088Y347382D01*
X64176Y347333D01*
X64247Y347313D01*
X64316Y347283D01*
X64414Y347266D01*
X64511Y347238D01*
X64611Y347230D01*
X64659Y347222D01*
X64694Y347224D01*
X64755Y347219D01*
X66892Y347219D01*
X70813Y345594D01*
X73814Y342593D01*
X75439Y338672D01*
X75439Y334343D01*
X75421Y334281D01*
X75417Y334205D01*
X75404Y334129D01*
X75409Y334031D01*
X75404Y333933D01*
X75418Y333858D01*
X75422Y333781D01*
X75449Y333687D01*
X75467Y333590D01*
X75497Y333520D01*
X75518Y333446D01*
X75566Y333361D01*
X75605Y333270D01*
X75651Y333209D01*
X75688Y333142D01*
X75785Y333029D01*
X75813Y332991D01*
X75828Y332978D01*
X75847Y332956D01*
X89221Y319582D01*
X89917Y317902D01*
X89917Y197210D01*
X89221Y195530D01*
X73366Y179675D01*
X73350Y179655D01*
X73330Y179638D01*
X73241Y179518D01*
X73149Y179402D01*
X73138Y179378D01*
X73123Y179357D01*
X73064Y179221D01*
X73000Y179087D01*
X72995Y179061D01*
X72985Y179037D01*
X72958Y178891D01*
X72927Y178746D01*
X72928Y178720D01*
X72923Y178694D01*
X72931Y178546D01*
X72933Y178398D01*
X72939Y178372D01*
X72941Y178346D01*
X72982Y178204D01*
X73018Y178060D01*
X73030Y178037D01*
X73037Y178011D01*
X73110Y177882D01*
X73178Y177750D01*
X73195Y177730D01*
X73208Y177707D01*
X73366Y177521D01*
X74169Y176718D01*
X74169Y168666D01*
X74165Y168662D01*
X74154Y168638D01*
X74139Y168617D01*
X74080Y168481D01*
X74016Y168347D01*
X74011Y168321D01*
X74001Y168297D01*
X73974Y168151D01*
X73943Y168006D01*
X73944Y167980D01*
X73939Y167954D01*
X73947Y167806D01*
X73949Y167658D01*
X73955Y167632D01*
X73957Y167606D01*
X73998Y167463D01*
X74034Y167320D01*
X74046Y167296D01*
X74053Y167271D01*
X74126Y167142D01*
X74194Y167010D01*
X74211Y166990D01*
X74224Y166967D01*
X74382Y166781D01*
X118200Y122963D01*
X119701Y121462D01*
X120397Y119782D01*
X120397Y72629D01*
X120411Y72503D01*
X120418Y72377D01*
X120431Y72331D01*
X120437Y72283D01*
X120479Y72164D01*
X120514Y72042D01*
X120538Y72000D01*
X120554Y71955D01*
X120592Y71896D01*
X120593Y71893D01*
X120603Y71879D01*
X120623Y71849D01*
X120684Y71738D01*
X120724Y71692D01*
X120743Y71662D01*
X120776Y71630D01*
X120792Y71607D01*
X120809Y71592D01*
X120843Y71552D01*
X123047Y69348D01*
X123107Y69301D01*
X123160Y69246D01*
X123243Y69193D01*
X123320Y69131D01*
X123389Y69099D01*
X123453Y69057D01*
X123546Y69025D01*
X123635Y68983D01*
X123710Y68966D01*
X123782Y68941D01*
X123879Y68930D01*
X123976Y68909D01*
X124052Y68910D01*
X124128Y68902D01*
X124226Y68913D01*
X124324Y68915D01*
X124398Y68934D01*
X124474Y68943D01*
X124616Y68989D01*
X124662Y69000D01*
X124679Y69009D01*
X124707Y69018D01*
X124878Y69089D01*
X129122Y69089D01*
X133043Y67464D01*
X136044Y64463D01*
X137669Y60542D01*
X137669Y58405D01*
X137683Y58279D01*
X137690Y58153D01*
X137703Y58107D01*
X137709Y58059D01*
X137751Y57940D01*
X137786Y57818D01*
X137810Y57776D01*
X137826Y57731D01*
X137895Y57624D01*
X137956Y57514D01*
X137996Y57468D01*
X138015Y57438D01*
X138050Y57404D01*
X138115Y57328D01*
X172136Y23307D01*
X172235Y23228D01*
X172329Y23144D01*
X172371Y23120D01*
X172409Y23090D01*
X172523Y23036D01*
X172634Y22975D01*
X172680Y22962D01*
X172724Y22941D01*
X172847Y22915D01*
X172969Y22880D01*
X173030Y22875D01*
X173065Y22868D01*
X173113Y22869D01*
X173213Y22861D01*
X378475Y22861D01*
X378601Y22875D01*
X378727Y22882D01*
X378773Y22895D01*
X378821Y22901D01*
X378940Y22943D01*
X379062Y22978D01*
X379104Y23002D01*
X379149Y23018D01*
X379256Y23087D01*
X379366Y23148D01*
X379412Y23188D01*
X379442Y23207D01*
X379476Y23242D01*
X379552Y23307D01*
X381621Y25376D01*
X381714Y25493D01*
X381812Y25608D01*
X381823Y25630D01*
X381837Y25649D01*
X381902Y25785D01*
X381970Y25919D01*
X381976Y25942D01*
X381986Y25964D01*
X382018Y26111D01*
X382054Y26257D01*
X382055Y26281D01*
X382060Y26304D01*
X382057Y26455D01*
X382059Y26605D01*
X382054Y26629D01*
X382054Y26653D01*
X382017Y26798D01*
X381985Y26946D01*
X381975Y26968D01*
X381969Y26991D01*
X381900Y27125D01*
X381835Y27261D01*
X381820Y27279D01*
X381809Y27301D01*
X381711Y27416D01*
X381618Y27533D01*
X381599Y27548D01*
X381583Y27566D01*
X381462Y27656D01*
X381344Y27749D01*
X381343Y27750D01*
X378306Y30787D01*
X376681Y34708D01*
X376681Y54192D01*
X378306Y58113D01*
X381307Y61114D01*
X385228Y62739D01*
X389472Y62739D01*
X393393Y61114D01*
X396394Y58113D01*
X398019Y54192D01*
X398019Y34708D01*
X396394Y30787D01*
X393393Y27786D01*
X392609Y27461D01*
X392542Y27423D01*
X392471Y27395D01*
X392390Y27339D01*
X392304Y27291D01*
X392248Y27240D01*
X392185Y27196D01*
X392119Y27123D01*
X392046Y27057D01*
X392003Y26994D01*
X391952Y26938D01*
X391904Y26851D01*
X391848Y26770D01*
X391820Y26699D01*
X391783Y26633D01*
X391756Y26538D01*
X391720Y26446D01*
X391709Y26371D01*
X391688Y26297D01*
X391676Y26148D01*
X391669Y26101D01*
X391671Y26082D01*
X391669Y26053D01*
X391669Y23474D01*
X390973Y21794D01*
X383590Y14411D01*
X381910Y13715D01*
X169778Y13715D01*
G37*
%LPD*%
%LPC*%
G36*
X476279Y163289D02*
X476279Y163289D01*
X472544Y164836D01*
X469686Y167694D01*
X468139Y171429D01*
X468139Y175471D01*
X469686Y179206D01*
X472561Y182080D01*
X472581Y182091D01*
X472673Y182131D01*
X472733Y182176D01*
X472798Y182212D01*
X472872Y182279D01*
X472953Y182339D01*
X473001Y182396D01*
X473056Y182446D01*
X473113Y182529D01*
X473178Y182605D01*
X473212Y182672D01*
X473254Y182733D01*
X473291Y182826D01*
X473337Y182916D01*
X473355Y182988D01*
X473382Y183057D01*
X473397Y183156D01*
X473421Y183254D01*
X473422Y183328D01*
X473433Y183402D01*
X473425Y183502D01*
X473426Y183602D01*
X473410Y183675D01*
X473404Y183749D01*
X473373Y183845D01*
X473352Y183943D01*
X473320Y184010D01*
X473297Y184081D01*
X473245Y184167D01*
X473202Y184258D01*
X473156Y184316D01*
X473117Y184379D01*
X473047Y184451D01*
X472985Y184530D01*
X472926Y184576D01*
X472875Y184629D01*
X472790Y184684D01*
X472711Y184746D01*
X472622Y184792D01*
X472581Y184818D01*
X472553Y184828D01*
X469686Y187694D01*
X468139Y191429D01*
X468139Y195471D01*
X469686Y199206D01*
X472561Y202080D01*
X472581Y202091D01*
X472673Y202131D01*
X472733Y202176D01*
X472798Y202212D01*
X472872Y202279D01*
X472953Y202339D01*
X473001Y202396D01*
X473056Y202446D01*
X473113Y202529D01*
X473178Y202605D01*
X473212Y202672D01*
X473254Y202733D01*
X473291Y202826D01*
X473337Y202916D01*
X473355Y202988D01*
X473382Y203057D01*
X473397Y203156D01*
X473421Y203254D01*
X473422Y203328D01*
X473433Y203402D01*
X473425Y203502D01*
X473426Y203602D01*
X473410Y203675D01*
X473404Y203749D01*
X473373Y203845D01*
X473352Y203943D01*
X473320Y204010D01*
X473297Y204081D01*
X473245Y204167D01*
X473202Y204258D01*
X473156Y204316D01*
X473117Y204379D01*
X473047Y204451D01*
X472985Y204530D01*
X472926Y204576D01*
X472875Y204629D01*
X472790Y204684D01*
X472711Y204746D01*
X472622Y204792D01*
X472581Y204818D01*
X472553Y204828D01*
X469686Y207694D01*
X468139Y211429D01*
X468139Y215471D01*
X469686Y219206D01*
X472561Y222080D01*
X472581Y222091D01*
X472673Y222131D01*
X472733Y222176D01*
X472798Y222212D01*
X472872Y222279D01*
X472953Y222339D01*
X473001Y222396D01*
X473056Y222446D01*
X473113Y222529D01*
X473178Y222605D01*
X473212Y222672D01*
X473254Y222733D01*
X473291Y222826D01*
X473337Y222916D01*
X473355Y222988D01*
X473382Y223057D01*
X473397Y223156D01*
X473421Y223254D01*
X473422Y223328D01*
X473433Y223402D01*
X473425Y223502D01*
X473426Y223602D01*
X473410Y223675D01*
X473404Y223749D01*
X473373Y223845D01*
X473352Y223943D01*
X473320Y224010D01*
X473297Y224081D01*
X473245Y224167D01*
X473202Y224258D01*
X473156Y224316D01*
X473117Y224379D01*
X473047Y224451D01*
X472985Y224530D01*
X472926Y224576D01*
X472875Y224629D01*
X472790Y224684D01*
X472711Y224746D01*
X472622Y224792D01*
X472581Y224818D01*
X472553Y224828D01*
X469686Y227694D01*
X468139Y231429D01*
X468139Y235471D01*
X469686Y239206D01*
X472561Y242080D01*
X472581Y242091D01*
X472673Y242131D01*
X472733Y242176D01*
X472798Y242212D01*
X472872Y242279D01*
X472953Y242339D01*
X473001Y242396D01*
X473056Y242446D01*
X473113Y242529D01*
X473178Y242605D01*
X473212Y242672D01*
X473254Y242733D01*
X473291Y242826D01*
X473337Y242916D01*
X473355Y242988D01*
X473382Y243057D01*
X473397Y243156D01*
X473421Y243254D01*
X473422Y243328D01*
X473433Y243402D01*
X473425Y243502D01*
X473426Y243602D01*
X473410Y243675D01*
X473404Y243749D01*
X473373Y243845D01*
X473352Y243943D01*
X473320Y244010D01*
X473297Y244081D01*
X473245Y244167D01*
X473202Y244258D01*
X473156Y244316D01*
X473117Y244379D01*
X473047Y244451D01*
X472985Y244530D01*
X472926Y244576D01*
X472875Y244629D01*
X472790Y244684D01*
X472711Y244746D01*
X472622Y244792D01*
X472581Y244818D01*
X472553Y244828D01*
X469686Y247694D01*
X468139Y251429D01*
X468139Y255471D01*
X469686Y259206D01*
X472561Y262080D01*
X472581Y262091D01*
X472673Y262131D01*
X472733Y262176D01*
X472798Y262212D01*
X472872Y262279D01*
X472953Y262339D01*
X473001Y262396D01*
X473056Y262446D01*
X473113Y262529D01*
X473178Y262605D01*
X473212Y262672D01*
X473254Y262733D01*
X473291Y262826D01*
X473337Y262916D01*
X473355Y262988D01*
X473382Y263057D01*
X473397Y263156D01*
X473421Y263254D01*
X473422Y263328D01*
X473433Y263402D01*
X473425Y263502D01*
X473426Y263602D01*
X473410Y263675D01*
X473404Y263749D01*
X473373Y263845D01*
X473352Y263943D01*
X473320Y264010D01*
X473297Y264081D01*
X473245Y264167D01*
X473202Y264258D01*
X473156Y264316D01*
X473117Y264379D01*
X473047Y264451D01*
X472985Y264530D01*
X472926Y264576D01*
X472875Y264629D01*
X472790Y264684D01*
X472711Y264746D01*
X472622Y264792D01*
X472581Y264818D01*
X472553Y264828D01*
X469686Y267694D01*
X468139Y271429D01*
X468139Y275471D01*
X469686Y279206D01*
X472561Y282080D01*
X472581Y282091D01*
X472673Y282131D01*
X472733Y282176D01*
X472798Y282212D01*
X472872Y282279D01*
X472953Y282339D01*
X473001Y282396D01*
X473056Y282446D01*
X473113Y282529D01*
X473178Y282605D01*
X473212Y282672D01*
X473254Y282733D01*
X473291Y282826D01*
X473337Y282916D01*
X473355Y282988D01*
X473382Y283057D01*
X473397Y283156D01*
X473421Y283254D01*
X473422Y283328D01*
X473433Y283402D01*
X473425Y283502D01*
X473426Y283602D01*
X473410Y283675D01*
X473404Y283749D01*
X473373Y283845D01*
X473352Y283943D01*
X473320Y284010D01*
X473297Y284081D01*
X473245Y284167D01*
X473202Y284258D01*
X473156Y284316D01*
X473117Y284379D01*
X473047Y284451D01*
X472985Y284530D01*
X472926Y284576D01*
X472875Y284629D01*
X472790Y284684D01*
X472711Y284746D01*
X472622Y284792D01*
X472581Y284818D01*
X472553Y284828D01*
X469686Y287694D01*
X468139Y291429D01*
X468139Y295471D01*
X469686Y299206D01*
X472561Y302080D01*
X472581Y302091D01*
X472673Y302131D01*
X472733Y302176D01*
X472798Y302212D01*
X472872Y302279D01*
X472953Y302339D01*
X473001Y302396D01*
X473056Y302446D01*
X473113Y302529D01*
X473178Y302605D01*
X473212Y302672D01*
X473254Y302733D01*
X473291Y302826D01*
X473337Y302916D01*
X473355Y302988D01*
X473382Y303057D01*
X473397Y303156D01*
X473421Y303254D01*
X473422Y303328D01*
X473433Y303402D01*
X473425Y303502D01*
X473426Y303602D01*
X473410Y303675D01*
X473404Y303749D01*
X473373Y303845D01*
X473352Y303943D01*
X473320Y304010D01*
X473297Y304081D01*
X473245Y304167D01*
X473202Y304258D01*
X473156Y304316D01*
X473117Y304379D01*
X473047Y304451D01*
X472985Y304530D01*
X472926Y304576D01*
X472875Y304629D01*
X472790Y304684D01*
X472711Y304746D01*
X472622Y304792D01*
X472581Y304818D01*
X472553Y304828D01*
X469686Y307694D01*
X468139Y311429D01*
X468139Y315471D01*
X469686Y319206D01*
X472561Y322080D01*
X472581Y322091D01*
X472673Y322131D01*
X472733Y322176D01*
X472798Y322212D01*
X472872Y322279D01*
X472953Y322339D01*
X473001Y322396D01*
X473056Y322446D01*
X473113Y322529D01*
X473178Y322605D01*
X473212Y322671D01*
X473254Y322733D01*
X473291Y322826D01*
X473337Y322916D01*
X473355Y322988D01*
X473382Y323057D01*
X473397Y323156D01*
X473421Y323254D01*
X473422Y323328D01*
X473433Y323402D01*
X473425Y323502D01*
X473426Y323602D01*
X473410Y323675D01*
X473404Y323749D01*
X473373Y323844D01*
X473352Y323943D01*
X473320Y324010D01*
X473297Y324081D01*
X473245Y324167D01*
X473202Y324257D01*
X473156Y324316D01*
X473117Y324379D01*
X473047Y324451D01*
X472985Y324530D01*
X472926Y324576D01*
X472875Y324629D01*
X472790Y324684D01*
X472711Y324746D01*
X472622Y324792D01*
X472581Y324818D01*
X472553Y324828D01*
X469686Y327694D01*
X468139Y331429D01*
X468139Y335471D01*
X469686Y339206D01*
X472561Y342080D01*
X472581Y342091D01*
X472673Y342131D01*
X472733Y342176D01*
X472798Y342212D01*
X472872Y342279D01*
X472953Y342339D01*
X473001Y342396D01*
X473056Y342446D01*
X473113Y342529D01*
X473178Y342605D01*
X473212Y342671D01*
X473254Y342733D01*
X473291Y342826D01*
X473337Y342916D01*
X473355Y342988D01*
X473382Y343057D01*
X473397Y343156D01*
X473421Y343254D01*
X473422Y343328D01*
X473433Y343402D01*
X473425Y343502D01*
X473426Y343602D01*
X473410Y343675D01*
X473404Y343749D01*
X473373Y343844D01*
X473352Y343943D01*
X473320Y344010D01*
X473297Y344081D01*
X473245Y344167D01*
X473202Y344257D01*
X473156Y344316D01*
X473117Y344379D01*
X473047Y344451D01*
X472985Y344530D01*
X472926Y344576D01*
X472875Y344629D01*
X472790Y344684D01*
X472711Y344746D01*
X472622Y344792D01*
X472581Y344818D01*
X472553Y344828D01*
X469686Y347694D01*
X468139Y351429D01*
X468139Y355471D01*
X469686Y359206D01*
X472544Y362064D01*
X476279Y363611D01*
X480321Y363611D01*
X484056Y362064D01*
X486914Y359206D01*
X488461Y355471D01*
X488461Y351429D01*
X486914Y347694D01*
X484039Y344820D01*
X484019Y344808D01*
X483927Y344768D01*
X483867Y344724D01*
X483802Y344688D01*
X483728Y344620D01*
X483647Y344561D01*
X483599Y344504D01*
X483544Y344454D01*
X483487Y344371D01*
X483422Y344294D01*
X483388Y344228D01*
X483346Y344167D01*
X483309Y344074D01*
X483263Y343984D01*
X483245Y343912D01*
X483218Y343843D01*
X483203Y343744D01*
X483179Y343646D01*
X483178Y343572D01*
X483167Y343498D01*
X483175Y343398D01*
X483174Y343298D01*
X483190Y343225D01*
X483196Y343151D01*
X483227Y343055D01*
X483248Y342957D01*
X483280Y342890D01*
X483303Y342819D01*
X483355Y342733D01*
X483398Y342642D01*
X483444Y342584D01*
X483483Y342521D01*
X483553Y342449D01*
X483615Y342370D01*
X483674Y342324D01*
X483726Y342271D01*
X483810Y342216D01*
X483889Y342154D01*
X483978Y342108D01*
X484019Y342082D01*
X484047Y342072D01*
X486914Y339206D01*
X488461Y335471D01*
X488461Y331429D01*
X486914Y327694D01*
X484039Y324820D01*
X484019Y324808D01*
X483927Y324768D01*
X483867Y324724D01*
X483802Y324688D01*
X483728Y324620D01*
X483647Y324561D01*
X483599Y324504D01*
X483544Y324454D01*
X483487Y324371D01*
X483422Y324294D01*
X483388Y324228D01*
X483346Y324167D01*
X483309Y324074D01*
X483263Y323984D01*
X483245Y323912D01*
X483218Y323843D01*
X483203Y323744D01*
X483179Y323646D01*
X483178Y323572D01*
X483167Y323498D01*
X483175Y323398D01*
X483174Y323298D01*
X483190Y323225D01*
X483196Y323151D01*
X483227Y323055D01*
X483248Y322957D01*
X483280Y322890D01*
X483303Y322819D01*
X483355Y322733D01*
X483398Y322642D01*
X483444Y322584D01*
X483483Y322521D01*
X483553Y322449D01*
X483615Y322370D01*
X483674Y322324D01*
X483726Y322271D01*
X483810Y322216D01*
X483889Y322154D01*
X483978Y322108D01*
X484019Y322082D01*
X484047Y322072D01*
X486914Y319206D01*
X488461Y315471D01*
X488461Y311429D01*
X486914Y307694D01*
X484039Y304820D01*
X484019Y304808D01*
X483927Y304768D01*
X483867Y304724D01*
X483802Y304688D01*
X483728Y304620D01*
X483647Y304560D01*
X483599Y304504D01*
X483544Y304454D01*
X483487Y304371D01*
X483422Y304294D01*
X483388Y304228D01*
X483346Y304167D01*
X483309Y304074D01*
X483263Y303984D01*
X483245Y303912D01*
X483218Y303843D01*
X483203Y303743D01*
X483179Y303646D01*
X483178Y303572D01*
X483167Y303498D01*
X483175Y303398D01*
X483174Y303297D01*
X483190Y303225D01*
X483196Y303151D01*
X483227Y303055D01*
X483248Y302957D01*
X483280Y302890D01*
X483303Y302819D01*
X483355Y302733D01*
X483398Y302642D01*
X483444Y302584D01*
X483483Y302521D01*
X483553Y302448D01*
X483615Y302370D01*
X483674Y302324D01*
X483726Y302271D01*
X483810Y302216D01*
X483889Y302154D01*
X483978Y302108D01*
X484019Y302082D01*
X484047Y302072D01*
X486914Y299206D01*
X488461Y295471D01*
X488461Y291429D01*
X486914Y287694D01*
X484039Y284820D01*
X484019Y284808D01*
X483927Y284768D01*
X483867Y284724D01*
X483802Y284688D01*
X483728Y284620D01*
X483647Y284560D01*
X483599Y284504D01*
X483544Y284454D01*
X483487Y284371D01*
X483422Y284294D01*
X483388Y284228D01*
X483346Y284167D01*
X483309Y284074D01*
X483263Y283984D01*
X483245Y283912D01*
X483218Y283843D01*
X483203Y283743D01*
X483179Y283646D01*
X483178Y283572D01*
X483167Y283498D01*
X483175Y283398D01*
X483174Y283297D01*
X483190Y283225D01*
X483196Y283151D01*
X483227Y283055D01*
X483248Y282957D01*
X483280Y282890D01*
X483303Y282819D01*
X483355Y282733D01*
X483398Y282642D01*
X483444Y282584D01*
X483483Y282521D01*
X483553Y282448D01*
X483615Y282370D01*
X483674Y282324D01*
X483726Y282271D01*
X483810Y282216D01*
X483889Y282154D01*
X483978Y282108D01*
X484019Y282082D01*
X484047Y282072D01*
X486914Y279206D01*
X488461Y275471D01*
X488461Y271429D01*
X486914Y267694D01*
X484039Y264820D01*
X484019Y264808D01*
X483927Y264768D01*
X483867Y264724D01*
X483802Y264688D01*
X483728Y264620D01*
X483647Y264560D01*
X483599Y264504D01*
X483544Y264454D01*
X483487Y264371D01*
X483422Y264294D01*
X483388Y264228D01*
X483346Y264167D01*
X483309Y264074D01*
X483263Y263984D01*
X483245Y263912D01*
X483218Y263843D01*
X483203Y263743D01*
X483179Y263646D01*
X483178Y263572D01*
X483167Y263498D01*
X483175Y263398D01*
X483174Y263297D01*
X483190Y263225D01*
X483196Y263151D01*
X483227Y263055D01*
X483248Y262957D01*
X483280Y262890D01*
X483303Y262819D01*
X483355Y262733D01*
X483398Y262642D01*
X483444Y262584D01*
X483483Y262521D01*
X483553Y262448D01*
X483615Y262370D01*
X483674Y262324D01*
X483726Y262271D01*
X483810Y262216D01*
X483889Y262154D01*
X483978Y262108D01*
X484019Y262082D01*
X484047Y262072D01*
X486914Y259206D01*
X488461Y255471D01*
X488461Y251429D01*
X486914Y247694D01*
X484039Y244820D01*
X484019Y244808D01*
X483927Y244768D01*
X483867Y244724D01*
X483802Y244688D01*
X483728Y244620D01*
X483647Y244560D01*
X483599Y244504D01*
X483544Y244454D01*
X483487Y244371D01*
X483422Y244294D01*
X483388Y244228D01*
X483346Y244167D01*
X483309Y244074D01*
X483263Y243984D01*
X483245Y243912D01*
X483218Y243843D01*
X483203Y243743D01*
X483179Y243646D01*
X483178Y243572D01*
X483167Y243498D01*
X483175Y243398D01*
X483174Y243297D01*
X483190Y243225D01*
X483196Y243151D01*
X483227Y243055D01*
X483248Y242957D01*
X483280Y242890D01*
X483303Y242819D01*
X483355Y242733D01*
X483398Y242642D01*
X483444Y242584D01*
X483483Y242521D01*
X483553Y242448D01*
X483615Y242370D01*
X483674Y242324D01*
X483726Y242271D01*
X483810Y242216D01*
X483889Y242154D01*
X483978Y242108D01*
X484019Y242082D01*
X484047Y242072D01*
X486914Y239206D01*
X488461Y235471D01*
X488461Y231429D01*
X486914Y227694D01*
X484039Y224820D01*
X484019Y224808D01*
X483927Y224768D01*
X483867Y224724D01*
X483802Y224688D01*
X483728Y224620D01*
X483647Y224560D01*
X483599Y224504D01*
X483544Y224454D01*
X483487Y224371D01*
X483422Y224294D01*
X483388Y224228D01*
X483346Y224167D01*
X483309Y224074D01*
X483263Y223984D01*
X483245Y223912D01*
X483218Y223843D01*
X483203Y223743D01*
X483179Y223646D01*
X483178Y223572D01*
X483167Y223498D01*
X483175Y223398D01*
X483174Y223297D01*
X483190Y223225D01*
X483196Y223151D01*
X483227Y223055D01*
X483248Y222957D01*
X483280Y222890D01*
X483303Y222819D01*
X483355Y222733D01*
X483398Y222642D01*
X483444Y222584D01*
X483483Y222521D01*
X483553Y222448D01*
X483615Y222370D01*
X483674Y222324D01*
X483726Y222271D01*
X483810Y222216D01*
X483889Y222154D01*
X483978Y222108D01*
X484019Y222082D01*
X484047Y222072D01*
X486914Y219206D01*
X488461Y215471D01*
X488461Y211429D01*
X486914Y207694D01*
X484039Y204820D01*
X484019Y204808D01*
X483927Y204768D01*
X483867Y204724D01*
X483802Y204688D01*
X483728Y204620D01*
X483647Y204560D01*
X483599Y204504D01*
X483544Y204454D01*
X483487Y204371D01*
X483422Y204294D01*
X483388Y204228D01*
X483346Y204167D01*
X483309Y204074D01*
X483263Y203984D01*
X483245Y203912D01*
X483218Y203843D01*
X483203Y203743D01*
X483179Y203646D01*
X483178Y203572D01*
X483167Y203498D01*
X483175Y203398D01*
X483174Y203297D01*
X483190Y203225D01*
X483196Y203151D01*
X483227Y203055D01*
X483248Y202957D01*
X483280Y202890D01*
X483303Y202819D01*
X483355Y202733D01*
X483398Y202642D01*
X483444Y202584D01*
X483483Y202521D01*
X483553Y202448D01*
X483615Y202370D01*
X483674Y202324D01*
X483726Y202271D01*
X483810Y202216D01*
X483889Y202154D01*
X483978Y202108D01*
X484019Y202082D01*
X484047Y202072D01*
X486914Y199206D01*
X488461Y195471D01*
X488461Y191429D01*
X486914Y187694D01*
X484039Y184820D01*
X484019Y184808D01*
X483927Y184768D01*
X483867Y184724D01*
X483802Y184688D01*
X483728Y184620D01*
X483647Y184560D01*
X483599Y184504D01*
X483544Y184454D01*
X483487Y184371D01*
X483422Y184294D01*
X483388Y184228D01*
X483346Y184167D01*
X483309Y184074D01*
X483263Y183984D01*
X483245Y183912D01*
X483218Y183843D01*
X483203Y183743D01*
X483179Y183646D01*
X483178Y183572D01*
X483167Y183498D01*
X483175Y183398D01*
X483174Y183297D01*
X483190Y183225D01*
X483196Y183151D01*
X483227Y183055D01*
X483248Y182957D01*
X483280Y182890D01*
X483303Y182819D01*
X483355Y182733D01*
X483398Y182642D01*
X483444Y182584D01*
X483483Y182521D01*
X483553Y182448D01*
X483615Y182370D01*
X483674Y182324D01*
X483726Y182271D01*
X483810Y182216D01*
X483889Y182154D01*
X483978Y182108D01*
X484019Y182082D01*
X484047Y182072D01*
X486914Y179206D01*
X488461Y175471D01*
X488461Y171429D01*
X486914Y167694D01*
X484056Y164836D01*
X480321Y163289D01*
X476279Y163289D01*
G37*
%LPD*%
%LPC*%
G36*
X460206Y406399D02*
X460206Y406399D01*
X453746Y408130D01*
X447953Y411474D01*
X443224Y416203D01*
X439880Y421996D01*
X438149Y428456D01*
X438149Y435144D01*
X439880Y441604D01*
X443224Y447397D01*
X447953Y452126D01*
X453746Y455470D01*
X460206Y457201D01*
X466894Y457201D01*
X473354Y455470D01*
X479147Y452126D01*
X483876Y447397D01*
X487220Y441604D01*
X488951Y435144D01*
X488951Y428456D01*
X487220Y421996D01*
X483876Y416203D01*
X479147Y411474D01*
X473354Y408130D01*
X466894Y406399D01*
X460206Y406399D01*
G37*
%LPD*%
%LPC*%
G36*
X53806Y76199D02*
X53806Y76199D01*
X47346Y77930D01*
X41553Y81274D01*
X36824Y86003D01*
X33480Y91796D01*
X31749Y98256D01*
X31749Y104944D01*
X33480Y111404D01*
X36824Y117197D01*
X41553Y121926D01*
X47346Y125270D01*
X53806Y127001D01*
X60494Y127001D01*
X66954Y125270D01*
X72747Y121926D01*
X77476Y117197D01*
X80820Y111404D01*
X82551Y104944D01*
X82551Y98256D01*
X80820Y91796D01*
X77476Y86003D01*
X72747Y81274D01*
X66954Y77930D01*
X60494Y76199D01*
X53806Y76199D01*
G37*
%LPD*%
%LPC*%
G36*
X460206Y19049D02*
X460206Y19049D01*
X453746Y20780D01*
X447953Y24124D01*
X443224Y28853D01*
X439880Y34646D01*
X438149Y41106D01*
X438149Y47794D01*
X439880Y54254D01*
X443224Y60047D01*
X447953Y64776D01*
X453746Y68120D01*
X460206Y69851D01*
X466894Y69851D01*
X473354Y68120D01*
X479147Y64776D01*
X483876Y60047D01*
X487220Y54254D01*
X488951Y47794D01*
X488951Y41106D01*
X487220Y34646D01*
X483876Y28853D01*
X479147Y24124D01*
X473354Y20780D01*
X466894Y19049D01*
X460206Y19049D01*
G37*
%LPD*%
%LPC*%
G36*
X264578Y32511D02*
X264578Y32511D01*
X260657Y34136D01*
X257656Y37137D01*
X256031Y41058D01*
X256031Y60542D01*
X257656Y64463D01*
X260657Y67464D01*
X264578Y69089D01*
X268822Y69089D01*
X272743Y67464D01*
X275744Y64463D01*
X277158Y61051D01*
X277231Y60920D01*
X277300Y60786D01*
X277315Y60768D01*
X277327Y60747D01*
X277428Y60635D01*
X277526Y60521D01*
X277545Y60506D01*
X277561Y60488D01*
X277685Y60403D01*
X277806Y60314D01*
X277828Y60304D01*
X277848Y60290D01*
X277988Y60235D01*
X278126Y60176D01*
X278150Y60171D01*
X278172Y60162D01*
X278321Y60141D01*
X278469Y60114D01*
X278493Y60115D01*
X278517Y60112D01*
X278667Y60124D01*
X278817Y60132D01*
X278840Y60139D01*
X278864Y60141D01*
X279007Y60187D01*
X279152Y60228D01*
X279173Y60240D01*
X279196Y60248D01*
X279325Y60325D01*
X279456Y60399D01*
X279478Y60417D01*
X279495Y60427D01*
X279528Y60460D01*
X279642Y60557D01*
X281493Y62408D01*
X281557Y62489D01*
X281615Y62548D01*
X281626Y62568D01*
X281656Y62601D01*
X281680Y62643D01*
X281710Y62681D01*
X281764Y62795D01*
X281779Y62823D01*
X281794Y62847D01*
X281795Y62852D01*
X281825Y62906D01*
X281838Y62952D01*
X281859Y62996D01*
X281885Y63119D01*
X281920Y63241D01*
X281925Y63302D01*
X281932Y63337D01*
X281931Y63385D01*
X281939Y63485D01*
X281939Y101107D01*
X281925Y101233D01*
X281918Y101359D01*
X281905Y101405D01*
X281899Y101453D01*
X281857Y101572D01*
X281822Y101694D01*
X281798Y101736D01*
X281782Y101781D01*
X281713Y101888D01*
X281652Y101998D01*
X281612Y102044D01*
X281593Y102074D01*
X281558Y102108D01*
X281493Y102184D01*
X255202Y128475D01*
X255102Y128555D01*
X255007Y128640D01*
X254966Y128663D01*
X254929Y128692D01*
X254813Y128747D01*
X254701Y128808D01*
X254656Y128821D01*
X254614Y128841D01*
X254489Y128868D01*
X254366Y128902D01*
X254307Y128907D01*
X254273Y128914D01*
X254225Y128913D01*
X254122Y128922D01*
X249511Y128913D01*
X243846Y134558D01*
X243832Y142555D01*
X249477Y148219D01*
X257474Y148233D01*
X263138Y142588D01*
X263153Y134086D01*
X263167Y133962D01*
X263174Y133837D01*
X263187Y133790D01*
X263193Y133740D01*
X263236Y133623D01*
X263270Y133502D01*
X263294Y133459D01*
X263311Y133412D01*
X263379Y133307D01*
X263440Y133198D01*
X263481Y133151D01*
X263501Y133120D01*
X263535Y133087D01*
X263599Y133012D01*
X288888Y107723D01*
X290389Y106222D01*
X291085Y104542D01*
X291085Y60050D01*
X290389Y58370D01*
X277815Y45796D01*
X277736Y45697D01*
X277652Y45603D01*
X277628Y45561D01*
X277598Y45523D01*
X277544Y45409D01*
X277483Y45298D01*
X277470Y45252D01*
X277449Y45208D01*
X277423Y45085D01*
X277388Y44963D01*
X277383Y44902D01*
X277376Y44867D01*
X277377Y44819D01*
X277369Y44719D01*
X277369Y41058D01*
X275744Y37137D01*
X272743Y34136D01*
X268822Y32511D01*
X264578Y32511D01*
G37*
%LPD*%
%LPC*%
G36*
X396993Y378335D02*
X396993Y378335D01*
X395137Y381119D01*
X395038Y381235D01*
X394944Y381354D01*
X394926Y381368D01*
X394912Y381385D01*
X394789Y381476D01*
X394670Y381570D01*
X394650Y381579D01*
X394632Y381593D01*
X394492Y381654D01*
X394355Y381718D01*
X394333Y381722D01*
X394312Y381732D01*
X394163Y381759D01*
X394014Y381790D01*
X393991Y381790D01*
X393969Y381794D01*
X393818Y381787D01*
X393666Y381784D01*
X393644Y381778D01*
X393621Y381777D01*
X393475Y381735D01*
X393328Y381698D01*
X393308Y381687D01*
X393286Y381681D01*
X393154Y381607D01*
X393018Y381537D01*
X393001Y381523D01*
X392981Y381512D01*
X392869Y381410D01*
X392754Y381311D01*
X392737Y381290D01*
X392723Y381278D01*
X392697Y381239D01*
X392602Y381119D01*
X390746Y378335D01*
X387650Y377716D01*
X386284Y378627D01*
X386239Y378650D01*
X386198Y378680D01*
X386084Y378729D01*
X385974Y378786D01*
X385925Y378798D01*
X385878Y378818D01*
X385756Y378840D01*
X385635Y378870D01*
X385585Y378870D01*
X385535Y378879D01*
X385411Y378873D01*
X385287Y378875D01*
X385238Y378864D01*
X385187Y378861D01*
X385068Y378827D01*
X384946Y378801D01*
X384901Y378779D01*
X384852Y378765D01*
X384744Y378704D01*
X384632Y378651D01*
X384592Y378619D01*
X384548Y378595D01*
X384362Y378436D01*
X383877Y377951D01*
X376036Y377951D01*
X372711Y379871D01*
X372572Y379931D01*
X372435Y379995D01*
X372412Y380000D01*
X372391Y380010D01*
X372243Y380037D01*
X372095Y380068D01*
X372071Y380068D01*
X372048Y380072D01*
X371897Y380064D01*
X371746Y380062D01*
X371723Y380056D01*
X371700Y380055D01*
X371555Y380013D01*
X371408Y379976D01*
X371383Y379964D01*
X371365Y379959D01*
X371324Y379936D01*
X371187Y379871D01*
X367862Y377951D01*
X360021Y377951D01*
X358759Y379213D01*
X358758Y379214D01*
X358757Y379215D01*
X358620Y379324D01*
X358486Y379430D01*
X358485Y379431D01*
X358484Y379431D01*
X358324Y379507D01*
X358171Y379579D01*
X358170Y379579D01*
X358168Y379580D01*
X357993Y379617D01*
X357830Y379652D01*
X357829Y379652D01*
X357828Y379653D01*
X357645Y379649D01*
X357482Y379646D01*
X357481Y379646D01*
X357479Y379646D01*
X357308Y379603D01*
X357144Y379561D01*
X357143Y379561D01*
X357141Y379560D01*
X356920Y379455D01*
X354315Y377951D01*
X346474Y377951D01*
X344242Y380184D01*
X344242Y383340D01*
X344296Y383394D01*
X344312Y383415D01*
X344332Y383432D01*
X344420Y383552D01*
X344512Y383667D01*
X344523Y383691D01*
X344539Y383712D01*
X344598Y383849D01*
X344661Y383982D01*
X344667Y384008D01*
X344677Y384032D01*
X344703Y384178D01*
X344735Y384323D01*
X344734Y384349D01*
X344739Y384375D01*
X344731Y384523D01*
X344729Y384671D01*
X344722Y384697D01*
X344721Y384723D01*
X344680Y384865D01*
X344644Y385009D01*
X344632Y385033D01*
X344624Y385058D01*
X344552Y385188D01*
X344484Y385319D01*
X344467Y385339D01*
X344454Y385362D01*
X344296Y385548D01*
X344242Y385602D01*
X344242Y390976D01*
X346231Y394421D01*
X349676Y396410D01*
X353654Y396410D01*
X357099Y394421D01*
X357119Y394386D01*
X357164Y394325D01*
X357201Y394259D01*
X357268Y394186D01*
X357327Y394106D01*
X357385Y394057D01*
X357436Y394001D01*
X357517Y393945D01*
X357593Y393881D01*
X357660Y393846D01*
X357723Y393803D01*
X357815Y393767D01*
X357903Y393722D01*
X357976Y393703D01*
X358047Y393676D01*
X358145Y393661D01*
X358241Y393637D01*
X358317Y393636D01*
X358392Y393625D01*
X358490Y393633D01*
X358589Y393632D01*
X358664Y393648D01*
X358739Y393654D01*
X358833Y393685D01*
X358930Y393706D01*
X358999Y393738D01*
X359071Y393762D01*
X359155Y393813D01*
X359245Y393855D01*
X359304Y393902D01*
X359369Y393942D01*
X359440Y394011D01*
X359518Y394072D01*
X359564Y394132D01*
X359619Y394185D01*
X359705Y394309D01*
X359734Y394346D01*
X359742Y394363D01*
X359758Y394386D01*
X359778Y394421D01*
X363223Y396410D01*
X367201Y396410D01*
X370995Y394220D01*
X371019Y394209D01*
X371041Y394194D01*
X371112Y394166D01*
X371170Y394134D01*
X371234Y394116D01*
X371315Y394081D01*
X371340Y394076D01*
X371365Y394067D01*
X371455Y394054D01*
X371506Y394039D01*
X371576Y394034D01*
X371658Y394019D01*
X371684Y394020D01*
X371710Y394016D01*
X371750Y394020D01*
X371759Y394020D01*
X371783Y394022D01*
X371857Y394029D01*
X372006Y394036D01*
X372031Y394043D01*
X372057Y394046D01*
X372098Y394059D01*
X372105Y394060D01*
X372150Y394076D01*
X372198Y394091D01*
X372341Y394132D01*
X372364Y394145D01*
X372389Y394153D01*
X372422Y394173D01*
X372433Y394177D01*
X372498Y394219D01*
X372516Y394230D01*
X372645Y394302D01*
X372665Y394319D01*
X372687Y394333D01*
X372712Y394357D01*
X372726Y394366D01*
X372798Y394440D01*
X372903Y394536D01*
X372918Y394558D01*
X372937Y394576D01*
X372957Y394605D01*
X372968Y394617D01*
X372989Y394651D01*
X376036Y396410D01*
X376964Y396410D01*
X376990Y396413D01*
X377017Y396411D01*
X377163Y396433D01*
X377311Y396450D01*
X377335Y396459D01*
X377361Y396463D01*
X377499Y396518D01*
X377639Y396567D01*
X377661Y396582D01*
X377685Y396591D01*
X377807Y396676D01*
X377931Y396756D01*
X377950Y396775D01*
X377971Y396790D01*
X378070Y396900D01*
X378174Y397007D01*
X378187Y397030D01*
X378205Y397049D01*
X378276Y397179D01*
X378352Y397306D01*
X378360Y397331D01*
X378373Y397354D01*
X378413Y397497D01*
X378459Y397638D01*
X378461Y397664D01*
X378468Y397690D01*
X378488Y397933D01*
X378488Y399596D01*
X380720Y401829D01*
X383877Y401829D01*
X384362Y401344D01*
X384401Y401312D01*
X384435Y401275D01*
X384537Y401204D01*
X384635Y401127D01*
X384681Y401105D01*
X384722Y401077D01*
X384837Y401031D01*
X384950Y400978D01*
X384999Y400968D01*
X385046Y400949D01*
X385169Y400931D01*
X385291Y400905D01*
X385341Y400906D01*
X385391Y400898D01*
X385515Y400909D01*
X385639Y400911D01*
X385688Y400923D01*
X385738Y400927D01*
X385857Y400966D01*
X385977Y400996D01*
X386022Y401019D01*
X386070Y401034D01*
X386284Y401153D01*
X387650Y402064D01*
X390746Y401445D01*
X392602Y398661D01*
X392700Y398545D01*
X392795Y398426D01*
X392812Y398412D01*
X392827Y398395D01*
X392950Y398304D01*
X393068Y398210D01*
X393089Y398201D01*
X393107Y398187D01*
X393247Y398126D01*
X393384Y398062D01*
X393406Y398058D01*
X393427Y398048D01*
X393576Y398021D01*
X393725Y397990D01*
X393747Y397990D01*
X393769Y397986D01*
X393921Y397993D01*
X394073Y397996D01*
X394095Y398002D01*
X394118Y398003D01*
X394264Y398045D01*
X394411Y398082D01*
X394431Y398093D01*
X394453Y398099D01*
X394585Y398173D01*
X394720Y398243D01*
X394737Y398257D01*
X394757Y398268D01*
X394870Y398370D01*
X394985Y398469D01*
X395002Y398490D01*
X395015Y398502D01*
X395042Y398541D01*
X395137Y398661D01*
X396993Y401445D01*
X400088Y402064D01*
X402715Y400313D01*
X403334Y397218D01*
X399013Y390735D01*
X398978Y390668D01*
X398936Y390607D01*
X398899Y390514D01*
X398854Y390425D01*
X398836Y390352D01*
X398808Y390283D01*
X398794Y390183D01*
X398769Y390087D01*
X398768Y390012D01*
X398757Y389938D01*
X398766Y389838D01*
X398764Y389738D01*
X398780Y389665D01*
X398786Y389590D01*
X398817Y389495D01*
X398839Y389398D01*
X398871Y389330D01*
X398894Y389259D01*
X398968Y389125D01*
X398988Y389083D01*
X398999Y389069D01*
X399013Y389045D01*
X403334Y382562D01*
X403248Y382129D01*
X402943Y380606D01*
X402943Y380605D01*
X402715Y379467D01*
X400088Y377716D01*
X396993Y378335D01*
G37*
%LPD*%
%LPC*%
G36*
X115226Y412495D02*
X115226Y412495D01*
X111305Y414120D01*
X108304Y417121D01*
X106679Y421042D01*
X106679Y440526D01*
X108304Y444447D01*
X111305Y447448D01*
X115226Y449073D01*
X119470Y449073D01*
X123391Y447448D01*
X126392Y444447D01*
X128017Y440526D01*
X128017Y421042D01*
X126392Y417121D01*
X123391Y414120D01*
X119470Y412495D01*
X115226Y412495D01*
G37*
%LPD*%
%LPC*%
G36*
X47408Y300481D02*
X47408Y300481D01*
X43487Y302106D01*
X40486Y305107D01*
X38861Y309028D01*
X38861Y313272D01*
X40486Y317193D01*
X43487Y320194D01*
X47408Y321819D01*
X66892Y321819D01*
X70813Y320194D01*
X73814Y317193D01*
X75439Y313272D01*
X75439Y309028D01*
X73814Y305107D01*
X70813Y302106D01*
X66892Y300481D01*
X47408Y300481D01*
G37*
%LPD*%
%LPC*%
G36*
X94487Y433323D02*
X94487Y433323D01*
X94487Y448263D01*
X95848Y447820D01*
X97273Y447094D01*
X98567Y446154D01*
X99698Y445023D01*
X100638Y443729D01*
X101364Y442304D01*
X101859Y440783D01*
X102109Y439204D01*
X102109Y433323D01*
X94487Y433323D01*
G37*
%LPD*%
%LPC*%
G36*
X364489Y46989D02*
X364489Y46989D01*
X364489Y61929D01*
X365850Y61486D01*
X367275Y60760D01*
X368569Y59820D01*
X369700Y58689D01*
X370640Y57395D01*
X371366Y55970D01*
X371861Y54449D01*
X372111Y52870D01*
X372111Y46989D01*
X364489Y46989D01*
G37*
%LPD*%
%LPC*%
G36*
X339089Y46989D02*
X339089Y46989D01*
X339089Y61929D01*
X340450Y61486D01*
X341875Y60760D01*
X343169Y59820D01*
X344300Y58689D01*
X345240Y57395D01*
X345966Y55970D01*
X346461Y54449D01*
X346711Y52870D01*
X346711Y46989D01*
X339089Y46989D01*
G37*
%LPD*%
%LPC*%
G36*
X104139Y53339D02*
X104139Y53339D01*
X104139Y68279D01*
X105500Y67836D01*
X106925Y67110D01*
X108219Y66170D01*
X109350Y65039D01*
X110290Y63745D01*
X111016Y62320D01*
X111511Y60799D01*
X111761Y59220D01*
X111761Y53339D01*
X104139Y53339D01*
G37*
%LPD*%
%LPC*%
G36*
X59689Y288289D02*
X59689Y288289D01*
X59689Y295911D01*
X65570Y295911D01*
X67149Y295661D01*
X68670Y295166D01*
X70095Y294440D01*
X71389Y293500D01*
X72520Y292369D01*
X73460Y291075D01*
X74186Y289650D01*
X74629Y288289D01*
X59689Y288289D01*
G37*
%LPD*%
%LPC*%
G36*
X39671Y288289D02*
X39671Y288289D01*
X40114Y289650D01*
X40840Y291075D01*
X41780Y292369D01*
X42911Y293500D01*
X44205Y294440D01*
X45630Y295166D01*
X47151Y295661D01*
X48730Y295911D01*
X54611Y295911D01*
X54611Y288289D01*
X39671Y288289D01*
G37*
%LPD*%
%LPC*%
G36*
X364489Y41911D02*
X364489Y41911D01*
X372111Y41911D01*
X372111Y36030D01*
X371861Y34451D01*
X371366Y32930D01*
X370640Y31505D01*
X369700Y30211D01*
X368569Y29080D01*
X367275Y28140D01*
X365850Y27414D01*
X364489Y26971D01*
X364489Y41911D01*
G37*
%LPD*%
%LPC*%
G36*
X94487Y428245D02*
X94487Y428245D01*
X102109Y428245D01*
X102109Y422364D01*
X101859Y420785D01*
X101364Y419264D01*
X100638Y417839D01*
X99698Y416545D01*
X98567Y415414D01*
X97273Y414474D01*
X95848Y413748D01*
X94487Y413305D01*
X94487Y428245D01*
G37*
%LPD*%
%LPC*%
G36*
X104139Y48261D02*
X104139Y48261D01*
X111761Y48261D01*
X111761Y42380D01*
X111511Y40801D01*
X111016Y39280D01*
X110290Y37855D01*
X109350Y36561D01*
X108219Y35430D01*
X106925Y34490D01*
X105500Y33764D01*
X104139Y33321D01*
X104139Y48261D01*
G37*
%LPD*%
%LPC*%
G36*
X339089Y41911D02*
X339089Y41911D01*
X346711Y41911D01*
X346711Y36030D01*
X346461Y34451D01*
X345966Y32930D01*
X345240Y31505D01*
X344300Y30211D01*
X343169Y29080D01*
X341875Y28140D01*
X340450Y27414D01*
X339089Y26971D01*
X339089Y41911D01*
G37*
%LPD*%
%LPC*%
G36*
X59689Y275589D02*
X59689Y275589D01*
X59689Y283211D01*
X74629Y283211D01*
X74186Y281850D01*
X73460Y280425D01*
X72520Y279131D01*
X71389Y278000D01*
X70095Y277060D01*
X68670Y276334D01*
X67149Y275839D01*
X65570Y275589D01*
X59689Y275589D01*
G37*
%LPD*%
%LPC*%
G36*
X91439Y53339D02*
X91439Y53339D01*
X91439Y59220D01*
X91689Y60799D01*
X92184Y62320D01*
X92910Y63745D01*
X93850Y65039D01*
X94981Y66170D01*
X96275Y67110D01*
X97700Y67836D01*
X99061Y68279D01*
X99061Y53339D01*
X91439Y53339D01*
G37*
%LPD*%
%LPC*%
G36*
X326389Y46989D02*
X326389Y46989D01*
X326389Y52870D01*
X326639Y54449D01*
X327134Y55970D01*
X327860Y57395D01*
X328800Y58689D01*
X329931Y59820D01*
X331225Y60760D01*
X332650Y61486D01*
X334011Y61929D01*
X334011Y46989D01*
X326389Y46989D01*
G37*
%LPD*%
%LPC*%
G36*
X351789Y46989D02*
X351789Y46989D01*
X351789Y52870D01*
X352039Y54449D01*
X352534Y55970D01*
X353260Y57395D01*
X354200Y58689D01*
X355331Y59820D01*
X356625Y60760D01*
X358050Y61486D01*
X359411Y61929D01*
X359411Y46989D01*
X351789Y46989D01*
G37*
%LPD*%
%LPC*%
G36*
X81787Y433323D02*
X81787Y433323D01*
X81787Y439204D01*
X82037Y440783D01*
X82532Y442304D01*
X83258Y443729D01*
X84198Y445023D01*
X85329Y446154D01*
X86623Y447094D01*
X88048Y447820D01*
X89409Y448263D01*
X89409Y433323D01*
X81787Y433323D01*
G37*
%LPD*%
%LPC*%
G36*
X48730Y275589D02*
X48730Y275589D01*
X47151Y275839D01*
X45630Y276334D01*
X44205Y277060D01*
X42911Y278000D01*
X41780Y279131D01*
X40840Y280425D01*
X40114Y281850D01*
X39671Y283211D01*
X54611Y283211D01*
X54611Y275589D01*
X48730Y275589D01*
G37*
%LPD*%
%LPC*%
G36*
X88048Y413748D02*
X88048Y413748D01*
X86623Y414474D01*
X85329Y415414D01*
X84198Y416545D01*
X83258Y417839D01*
X82532Y419264D01*
X82037Y420785D01*
X81787Y422364D01*
X81787Y428245D01*
X89409Y428245D01*
X89409Y413305D01*
X88048Y413748D01*
G37*
%LPD*%
%LPC*%
G36*
X97700Y33764D02*
X97700Y33764D01*
X96275Y34490D01*
X94981Y35430D01*
X93850Y36561D01*
X92910Y37855D01*
X92184Y39280D01*
X91689Y40801D01*
X91439Y42380D01*
X91439Y48261D01*
X99061Y48261D01*
X99061Y33321D01*
X97700Y33764D01*
G37*
%LPD*%
%LPC*%
G36*
X358050Y27414D02*
X358050Y27414D01*
X356625Y28140D01*
X355331Y29080D01*
X354200Y30211D01*
X353260Y31505D01*
X352534Y32930D01*
X352039Y34451D01*
X351789Y36030D01*
X351789Y41911D01*
X359411Y41911D01*
X359411Y26971D01*
X358050Y27414D01*
G37*
%LPD*%
%LPC*%
G36*
X332650Y27414D02*
X332650Y27414D01*
X331225Y28140D01*
X329931Y29080D01*
X328800Y30211D01*
X327860Y31505D01*
X327134Y32930D01*
X326639Y34451D01*
X326389Y36030D01*
X326389Y41911D01*
X334011Y41911D01*
X334011Y26971D01*
X332650Y27414D01*
G37*
%LPD*%
%LPC*%
G36*
X280415Y439419D02*
X280415Y439419D01*
X280415Y448311D01*
X282908Y448311D01*
X289307Y441912D01*
X289307Y439419D01*
X280415Y439419D01*
G37*
%LPD*%
%LPC*%
G36*
X280415Y426465D02*
X280415Y426465D01*
X280415Y435357D01*
X289307Y435357D01*
X289307Y432864D01*
X282908Y426465D01*
X280415Y426465D01*
G37*
%LPD*%
%LPC*%
G36*
X472619Y90387D02*
X472619Y90387D01*
X472619Y98712D01*
X472898Y98668D01*
X474514Y98143D01*
X476028Y97371D01*
X477403Y96372D01*
X478604Y95171D01*
X479603Y93796D01*
X480375Y92282D01*
X480900Y90666D01*
X480944Y90387D01*
X472619Y90387D01*
G37*
%LPD*%
%LPC*%
G36*
X459796Y90387D02*
X459796Y90387D01*
X459840Y90666D01*
X460365Y92282D01*
X461137Y93796D01*
X462136Y95171D01*
X463337Y96372D01*
X464712Y97371D01*
X466226Y98143D01*
X467842Y98668D01*
X468121Y98712D01*
X468121Y90387D01*
X459796Y90387D01*
G37*
%LPD*%
%LPC*%
G36*
X472619Y85889D02*
X472619Y85889D01*
X480944Y85889D01*
X480900Y85610D01*
X480375Y83994D01*
X479603Y82480D01*
X478604Y81105D01*
X477403Y79904D01*
X476028Y78905D01*
X474514Y78133D01*
X472898Y77608D01*
X472619Y77564D01*
X472619Y85889D01*
G37*
%LPD*%
%LPC*%
G36*
X467842Y77608D02*
X467842Y77608D01*
X466226Y78133D01*
X464712Y78905D01*
X463337Y79904D01*
X462136Y81105D01*
X461137Y82480D01*
X460365Y83994D01*
X459840Y85610D01*
X459796Y85889D01*
X468121Y85889D01*
X468121Y77564D01*
X467842Y77608D01*
G37*
%LPD*%
%LPC*%
G36*
X260049Y171701D02*
X260049Y171701D01*
X267796Y171701D01*
X267715Y171190D01*
X267246Y169745D01*
X266556Y168391D01*
X265663Y167162D01*
X264588Y166087D01*
X263359Y165194D01*
X262005Y164504D01*
X260560Y164035D01*
X260049Y163954D01*
X260049Y171701D01*
G37*
%LPD*%
%LPC*%
G36*
X256040Y164035D02*
X256040Y164035D01*
X254595Y164504D01*
X253241Y165194D01*
X252012Y166087D01*
X250937Y167162D01*
X250044Y168391D01*
X249354Y169745D01*
X248885Y171190D01*
X248804Y171701D01*
X256551Y171701D01*
X256551Y163954D01*
X256040Y164035D01*
G37*
%LPD*%
%LPC*%
G36*
X488187Y123189D02*
X488187Y123189D01*
X488187Y130303D01*
X489944Y130303D01*
X495301Y124946D01*
X495301Y123189D01*
X488187Y123189D01*
G37*
%LPD*%
%LPC*%
G36*
X477011Y123189D02*
X477011Y123189D01*
X477011Y124946D01*
X482368Y130303D01*
X484125Y130303D01*
X484125Y123189D01*
X477011Y123189D01*
G37*
%LPD*%
%LPC*%
G36*
X488187Y112013D02*
X488187Y112013D01*
X488187Y119127D01*
X495301Y119127D01*
X495301Y117370D01*
X489944Y112013D01*
X488187Y112013D01*
G37*
%LPD*%
%LPC*%
G36*
X482368Y112013D02*
X482368Y112013D01*
X477011Y117370D01*
X477011Y119127D01*
X484125Y119127D01*
X484125Y112013D01*
X482368Y112013D01*
G37*
%LPD*%
D10*
X399288Y381762D02*
X388451Y398018D01*
X399288Y398018D02*
X388451Y381762D01*
X382298Y381762D02*
X382298Y398018D01*
X382298Y381762D02*
X377783Y381762D01*
X377679Y381764D01*
X377576Y381770D01*
X377472Y381780D01*
X377369Y381794D01*
X377267Y381812D01*
X377166Y381833D01*
X377065Y381859D01*
X376966Y381888D01*
X376867Y381921D01*
X376770Y381958D01*
X376675Y381999D01*
X376581Y382043D01*
X376489Y382091D01*
X376399Y382142D01*
X376310Y382197D01*
X376224Y382255D01*
X376141Y382317D01*
X376059Y382381D01*
X375981Y382449D01*
X375905Y382519D01*
X375831Y382592D01*
X375761Y382669D01*
X375693Y382747D01*
X375629Y382829D01*
X375567Y382912D01*
X375509Y382998D01*
X375454Y383087D01*
X375403Y383177D01*
X375355Y383269D01*
X375311Y383363D01*
X375270Y383458D01*
X375233Y383555D01*
X375200Y383654D01*
X375171Y383753D01*
X375145Y383854D01*
X375124Y383955D01*
X375106Y384057D01*
X375092Y384160D01*
X375082Y384264D01*
X375076Y384367D01*
X375074Y384471D01*
X375073Y384471D02*
X375073Y389890D01*
X375074Y389890D02*
X375076Y389991D01*
X375082Y390092D01*
X375091Y390193D01*
X375104Y390294D01*
X375121Y390394D01*
X375142Y390493D01*
X375166Y390591D01*
X375194Y390688D01*
X375226Y390785D01*
X375261Y390880D01*
X375300Y390973D01*
X375342Y391065D01*
X375388Y391156D01*
X375437Y391245D01*
X375489Y391331D01*
X375545Y391416D01*
X375603Y391499D01*
X375665Y391579D01*
X375730Y391657D01*
X375797Y391733D01*
X375867Y391806D01*
X375940Y391876D01*
X376016Y391943D01*
X376094Y392008D01*
X376174Y392070D01*
X376257Y392128D01*
X376342Y392184D01*
X376429Y392236D01*
X376517Y392285D01*
X376608Y392331D01*
X376700Y392373D01*
X376793Y392412D01*
X376888Y392447D01*
X376985Y392479D01*
X377082Y392507D01*
X377180Y392531D01*
X377279Y392552D01*
X377379Y392569D01*
X377480Y392582D01*
X377581Y392591D01*
X377682Y392597D01*
X377783Y392599D01*
X382298Y392599D01*
X366115Y381762D02*
X361600Y381762D01*
X366115Y381762D02*
X366216Y381764D01*
X366317Y381770D01*
X366418Y381779D01*
X366519Y381792D01*
X366619Y381809D01*
X366718Y381830D01*
X366816Y381854D01*
X366913Y381882D01*
X367010Y381914D01*
X367105Y381949D01*
X367198Y381988D01*
X367290Y382030D01*
X367381Y382076D01*
X367470Y382125D01*
X367556Y382177D01*
X367641Y382233D01*
X367724Y382291D01*
X367804Y382353D01*
X367882Y382418D01*
X367958Y382485D01*
X368031Y382555D01*
X368101Y382628D01*
X368168Y382704D01*
X368233Y382782D01*
X368295Y382862D01*
X368353Y382945D01*
X368409Y383030D01*
X368461Y383117D01*
X368510Y383205D01*
X368556Y383296D01*
X368598Y383388D01*
X368637Y383481D01*
X368672Y383576D01*
X368704Y383673D01*
X368732Y383770D01*
X368756Y383868D01*
X368777Y383967D01*
X368794Y384067D01*
X368807Y384168D01*
X368816Y384269D01*
X368822Y384370D01*
X368824Y384471D01*
X368825Y384471D02*
X368825Y388987D01*
X368824Y388987D02*
X368822Y389106D01*
X368816Y389226D01*
X368806Y389345D01*
X368792Y389463D01*
X368775Y389582D01*
X368753Y389699D01*
X368728Y389816D01*
X368698Y389931D01*
X368665Y390046D01*
X368628Y390160D01*
X368588Y390272D01*
X368543Y390383D01*
X368495Y390492D01*
X368444Y390600D01*
X368389Y390706D01*
X368330Y390810D01*
X368268Y390912D01*
X368203Y391012D01*
X368134Y391110D01*
X368062Y391206D01*
X367987Y391299D01*
X367910Y391389D01*
X367829Y391477D01*
X367745Y391562D01*
X367658Y391644D01*
X367569Y391724D01*
X367477Y391800D01*
X367383Y391874D01*
X367286Y391944D01*
X367188Y392011D01*
X367087Y392075D01*
X366983Y392135D01*
X366878Y392192D01*
X366771Y392245D01*
X366663Y392295D01*
X366553Y392341D01*
X366441Y392383D01*
X366328Y392422D01*
X366214Y392457D01*
X366099Y392488D01*
X365982Y392516D01*
X365865Y392539D01*
X365748Y392559D01*
X365629Y392575D01*
X365510Y392587D01*
X365391Y392595D01*
X365272Y392599D01*
X365152Y392599D01*
X365033Y392595D01*
X364914Y392587D01*
X364795Y392575D01*
X364676Y392559D01*
X364559Y392539D01*
X364442Y392516D01*
X364325Y392488D01*
X364210Y392457D01*
X364096Y392422D01*
X363983Y392383D01*
X363871Y392341D01*
X363761Y392295D01*
X363653Y392245D01*
X363546Y392192D01*
X363441Y392135D01*
X363337Y392075D01*
X363236Y392011D01*
X363138Y391944D01*
X363041Y391874D01*
X362947Y391800D01*
X362855Y391724D01*
X362766Y391644D01*
X362679Y391562D01*
X362595Y391477D01*
X362514Y391389D01*
X362437Y391299D01*
X362362Y391206D01*
X362290Y391110D01*
X362221Y391012D01*
X362156Y390912D01*
X362094Y390810D01*
X362035Y390706D01*
X361980Y390600D01*
X361929Y390492D01*
X361881Y390383D01*
X361836Y390272D01*
X361796Y390160D01*
X361759Y390046D01*
X361726Y389931D01*
X361696Y389816D01*
X361671Y389699D01*
X361649Y389582D01*
X361632Y389463D01*
X361618Y389345D01*
X361608Y389226D01*
X361602Y389106D01*
X361600Y388987D01*
X361600Y387181D01*
X368825Y387181D01*
X352568Y381762D02*
X348053Y381762D01*
X352568Y381762D02*
X352669Y381764D01*
X352770Y381770D01*
X352871Y381779D01*
X352972Y381792D01*
X353072Y381809D01*
X353171Y381830D01*
X353269Y381854D01*
X353366Y381882D01*
X353463Y381914D01*
X353558Y381949D01*
X353651Y381988D01*
X353743Y382030D01*
X353834Y382076D01*
X353923Y382125D01*
X354009Y382177D01*
X354094Y382233D01*
X354177Y382291D01*
X354257Y382353D01*
X354335Y382418D01*
X354411Y382485D01*
X354484Y382555D01*
X354554Y382628D01*
X354621Y382704D01*
X354686Y382782D01*
X354748Y382862D01*
X354806Y382945D01*
X354862Y383030D01*
X354914Y383117D01*
X354963Y383205D01*
X355009Y383296D01*
X355051Y383388D01*
X355090Y383481D01*
X355125Y383576D01*
X355157Y383673D01*
X355185Y383770D01*
X355209Y383868D01*
X355230Y383967D01*
X355247Y384067D01*
X355260Y384168D01*
X355269Y384269D01*
X355275Y384370D01*
X355277Y384471D01*
X355277Y388987D01*
X355275Y389106D01*
X355269Y389226D01*
X355259Y389345D01*
X355245Y389463D01*
X355228Y389582D01*
X355206Y389699D01*
X355181Y389816D01*
X355151Y389931D01*
X355118Y390046D01*
X355081Y390160D01*
X355041Y390272D01*
X354996Y390383D01*
X354948Y390492D01*
X354897Y390600D01*
X354842Y390706D01*
X354783Y390810D01*
X354721Y390912D01*
X354656Y391012D01*
X354587Y391110D01*
X354515Y391206D01*
X354440Y391299D01*
X354363Y391389D01*
X354282Y391477D01*
X354198Y391562D01*
X354111Y391644D01*
X354022Y391724D01*
X353930Y391800D01*
X353836Y391874D01*
X353739Y391944D01*
X353641Y392011D01*
X353540Y392075D01*
X353436Y392135D01*
X353331Y392192D01*
X353224Y392245D01*
X353116Y392295D01*
X353006Y392341D01*
X352894Y392383D01*
X352781Y392422D01*
X352667Y392457D01*
X352552Y392488D01*
X352435Y392516D01*
X352318Y392539D01*
X352201Y392559D01*
X352082Y392575D01*
X351963Y392587D01*
X351844Y392595D01*
X351725Y392599D01*
X351605Y392599D01*
X351486Y392595D01*
X351367Y392587D01*
X351248Y392575D01*
X351129Y392559D01*
X351012Y392539D01*
X350895Y392516D01*
X350778Y392488D01*
X350663Y392457D01*
X350549Y392422D01*
X350436Y392383D01*
X350324Y392341D01*
X350214Y392295D01*
X350106Y392245D01*
X349999Y392192D01*
X349894Y392135D01*
X349790Y392075D01*
X349689Y392011D01*
X349591Y391944D01*
X349494Y391874D01*
X349400Y391800D01*
X349308Y391724D01*
X349219Y391644D01*
X349132Y391562D01*
X349048Y391477D01*
X348967Y391389D01*
X348890Y391299D01*
X348815Y391206D01*
X348743Y391110D01*
X348674Y391012D01*
X348609Y390912D01*
X348547Y390810D01*
X348488Y390706D01*
X348433Y390600D01*
X348382Y390492D01*
X348334Y390383D01*
X348289Y390272D01*
X348249Y390160D01*
X348212Y390046D01*
X348179Y389931D01*
X348149Y389816D01*
X348124Y389699D01*
X348102Y389582D01*
X348085Y389463D01*
X348071Y389345D01*
X348061Y389226D01*
X348055Y389106D01*
X348053Y388987D01*
X348053Y387181D01*
X355277Y387181D01*
D11*
X370370Y88138D03*
X470370Y88138D03*
D12*
X278384Y437388D03*
X256794Y437388D03*
X235204Y437388D03*
D13*
X64770Y336550D02*
X49530Y336550D01*
X49530Y311150D02*
X64770Y311150D01*
X64770Y285750D02*
X49530Y285750D01*
X49530Y260350D02*
X64770Y260350D01*
X64770Y234950D02*
X49530Y234950D01*
X49530Y209550D02*
X64770Y209550D01*
X201930Y234950D02*
X217170Y234950D01*
X217170Y260350D02*
X201930Y260350D01*
X201930Y285750D02*
X217170Y285750D01*
X217170Y311150D02*
X201930Y311150D01*
X91948Y423164D02*
X91948Y438404D01*
X117348Y438404D02*
X117348Y423164D01*
X142748Y423164D02*
X142748Y438404D01*
X168148Y438404D02*
X168148Y423164D01*
X193548Y423164D02*
X193548Y438404D01*
D14*
X191516Y172720D03*
X64516Y172720D03*
D15*
X161544Y204724D03*
X161544Y331724D03*
D16*
X380492Y138795D03*
X253492Y138573D03*
D14*
X486156Y121158D03*
X359156Y121158D03*
D17*
X258300Y173450D03*
X258300Y193450D03*
X258300Y213450D03*
X258300Y233450D03*
X258300Y253450D03*
X258300Y273450D03*
X258300Y293450D03*
X258300Y313450D03*
X258300Y333450D03*
D18*
X258300Y353450D03*
D17*
X478300Y173450D03*
X478300Y193450D03*
X478300Y213450D03*
X478300Y233450D03*
X478300Y253450D03*
X478300Y273450D03*
X478300Y293450D03*
X478300Y313450D03*
X478300Y333450D03*
X478300Y353450D03*
D19*
X211328Y130302D03*
D20*
X198628Y104902D03*
X185928Y130302D03*
D13*
X50800Y58420D02*
X50800Y43180D01*
X76200Y43180D02*
X76200Y58420D01*
X101600Y58420D02*
X101600Y43180D01*
X127000Y43180D02*
X127000Y58420D01*
X266700Y58420D02*
X266700Y43180D01*
X241300Y43180D02*
X241300Y58420D01*
X215900Y58420D02*
X215900Y43180D01*
X190500Y43180D02*
X190500Y58420D01*
X336550Y52070D02*
X336550Y36830D01*
X361950Y36830D02*
X361950Y52070D01*
X387350Y52070D02*
X387350Y36830D01*
X412750Y36830D02*
X412750Y52070D01*
D21*
X265176Y252984D02*
X259080Y252984D01*
X265176Y252984D02*
X341376Y176784D01*
X341376Y112776D01*
X368808Y85344D01*
X259080Y252984D02*
X258300Y253450D01*
X411480Y54864D02*
X411480Y45720D01*
X411480Y54864D02*
X393192Y73152D01*
X384048Y73152D01*
X374904Y82296D01*
X371856Y82296D01*
X368808Y85344D01*
X411480Y45720D02*
X412750Y44450D01*
X368808Y85344D02*
X370370Y88138D01*
X210312Y131064D02*
X210312Y137160D01*
X204216Y143256D01*
X204216Y158496D01*
X210312Y164592D01*
X210312Y179832D01*
X201168Y188976D02*
X195072Y195072D01*
X201168Y188976D02*
X210312Y179832D01*
X195072Y195072D02*
X176784Y195072D01*
X167640Y204216D01*
X161544Y204216D01*
X210312Y131064D02*
X211328Y130302D01*
X161544Y204216D02*
X161544Y204724D01*
X243840Y332232D02*
X256032Y332232D01*
X243840Y332232D02*
X237744Y326136D01*
X237744Y225552D01*
X228346Y216154D01*
X256032Y332232D02*
X258300Y333450D01*
X228346Y216154D02*
X228092Y215900D01*
X172720Y215900D02*
X161544Y204724D01*
X172720Y215900D02*
X228092Y215900D01*
X359664Y128016D02*
X359664Y121920D01*
X359664Y128016D02*
X371856Y140208D01*
X377952Y140208D01*
X359664Y121920D02*
X359156Y121158D01*
X377952Y140208D02*
X380492Y138795D01*
X268224Y310896D02*
X259080Y310896D01*
X268224Y310896D02*
X368808Y210312D01*
X368808Y152400D01*
X381000Y140208D01*
X259080Y310896D02*
X258300Y313450D01*
X381000Y140208D02*
X380492Y138795D01*
X185928Y131064D02*
X185928Y164592D01*
X188976Y167640D01*
X192024Y167640D01*
X192024Y170688D01*
X191516Y172720D01*
X240792Y76200D02*
X240792Y51816D01*
X240792Y76200D02*
X216408Y100584D01*
X216408Y106680D01*
X201168Y121920D01*
X198120Y118872D01*
X185928Y131064D01*
X240792Y51816D02*
X241300Y50800D01*
X185928Y130302D02*
X185928Y131064D01*
X76200Y64008D02*
X76200Y50800D01*
X76200Y64008D02*
X91440Y79248D01*
X91440Y118872D01*
X45720Y164592D01*
X45720Y179832D01*
X57912Y192024D01*
X70104Y192024D01*
X79248Y201168D01*
X79248Y246888D01*
X67056Y259080D01*
X57912Y259080D01*
X57150Y260350D01*
X48768Y51816D02*
X36576Y51816D01*
X21336Y67056D01*
X21336Y207264D01*
X48768Y234696D01*
X54864Y234696D01*
X48768Y51816D02*
X50800Y50800D01*
X54864Y234696D02*
X57150Y234950D01*
X213360Y67056D02*
X213360Y51816D01*
X213360Y67056D02*
X195072Y85344D01*
X188976Y85344D01*
X156210Y118110D01*
X137160Y177800D02*
X137160Y381000D01*
X167640Y411480D01*
X167640Y429768D01*
X213360Y51816D02*
X215900Y50800D01*
X167640Y429768D02*
X168148Y430784D01*
X156210Y173990D02*
X156210Y118110D01*
X156210Y173990D02*
X152400Y177800D01*
X137160Y177800D01*
X176784Y51816D02*
X188976Y51816D01*
X176784Y51816D02*
X131064Y97536D01*
X131064Y399288D01*
X146304Y414528D01*
X143256Y417576D01*
X143256Y429768D01*
X188976Y51816D02*
X190500Y50800D01*
X143256Y429768D02*
X142748Y430784D01*
X256032Y137160D02*
X256032Y134112D01*
X286512Y103632D01*
X286512Y60960D01*
X274320Y48768D01*
X268224Y48768D01*
X256032Y137160D02*
X253492Y138573D01*
X266700Y50800D02*
X268224Y48768D01*
X198120Y106680D02*
X179832Y106680D01*
X143256Y190500D02*
X143256Y307848D01*
X164592Y329184D01*
X161544Y332232D01*
X198120Y106680D02*
X198628Y104902D01*
X247650Y353568D02*
X252984Y353568D01*
X256032Y353568D01*
X167640Y332232D02*
X161544Y332232D01*
X256032Y353568D02*
X258300Y353450D01*
X161544Y332232D02*
X161544Y331724D01*
X234696Y438912D02*
X234696Y445008D01*
X246888Y457200D01*
X286512Y457200D01*
X298704Y445008D01*
X298704Y405384D01*
X252984Y359664D01*
X252984Y353568D01*
X235204Y437388D02*
X234696Y438912D01*
X252984Y353568D02*
X258300Y353450D01*
X165100Y184150D02*
X165100Y121412D01*
X165100Y184150D02*
X158750Y190500D01*
X143256Y190500D01*
X165100Y121412D02*
X179832Y106680D01*
X171958Y336550D02*
X234950Y336550D01*
X247650Y349250D01*
X247650Y353568D01*
X171958Y336550D02*
X167640Y332232D01*
X195072Y429768D02*
X213360Y429768D01*
X225552Y417576D01*
X243840Y417576D01*
X256032Y429768D01*
X256032Y435864D01*
X195072Y429768D02*
X193548Y430784D01*
X256032Y435864D02*
X256794Y437388D01*
X67056Y170688D02*
X67056Y167640D01*
X115824Y118872D01*
X115824Y70104D01*
X124968Y60960D01*
X124968Y54864D02*
X124968Y51816D01*
X124968Y54864D02*
X124968Y60960D01*
X67056Y170688D02*
X64516Y172720D01*
X124968Y51816D02*
X127000Y50800D01*
X387096Y42672D02*
X387096Y24384D01*
X381000Y18288D01*
X170688Y18288D01*
X134112Y54864D01*
X124968Y54864D01*
X387096Y42672D02*
X387350Y44450D01*
X127000Y50800D02*
X124968Y54864D01*
X67056Y335280D02*
X57912Y335280D01*
X67056Y335280D02*
X85344Y316992D01*
X85344Y198120D01*
X67056Y179832D01*
X67056Y173736D01*
X57912Y335280D02*
X57150Y336550D01*
X67056Y173736D02*
X64516Y172720D01*
X192024Y432816D02*
X192024Y445008D01*
X179832Y457200D01*
X85344Y457200D01*
X73152Y445008D01*
X73152Y417576D01*
X76200Y414528D01*
X76200Y411480D01*
X79248Y408432D01*
X79248Y371856D01*
X51816Y344424D01*
X51816Y341376D01*
X54864Y338328D01*
X192024Y432816D02*
X193548Y430784D01*
X57150Y336550D02*
X54864Y338328D01*
M02*
