G04 EAGLE Gerber RS-274X export*
G75*
%MOMM*%
%FSLAX34Y34*%
%LPD*%
%INOutline*%
%IPPOS*%
%AMOC8*
5,1,8,0,0,1.08239X$1,22.5*%
G01*
%ADD10C,0.000000*%
%ADD11C,0.254000*%


D10*
X0Y0D02*
X517400Y0D01*
X517400Y482500D01*
X0Y482500D01*
X0Y0D01*
X448310Y431800D02*
X448315Y432174D01*
X448328Y432548D01*
X448351Y432921D01*
X448383Y433294D01*
X448425Y433666D01*
X448475Y434036D01*
X448534Y434405D01*
X448603Y434773D01*
X448680Y435139D01*
X448767Y435503D01*
X448862Y435865D01*
X448966Y436224D01*
X449079Y436581D01*
X449201Y436934D01*
X449331Y437285D01*
X449470Y437632D01*
X449617Y437976D01*
X449773Y438316D01*
X449937Y438652D01*
X450110Y438984D01*
X450290Y439312D01*
X450478Y439635D01*
X450674Y439953D01*
X450878Y440267D01*
X451090Y440575D01*
X451309Y440878D01*
X451536Y441176D01*
X451769Y441468D01*
X452010Y441754D01*
X452258Y442035D01*
X452512Y442309D01*
X452774Y442576D01*
X453041Y442838D01*
X453315Y443092D01*
X453596Y443340D01*
X453882Y443581D01*
X454174Y443814D01*
X454472Y444041D01*
X454775Y444260D01*
X455083Y444472D01*
X455397Y444676D01*
X455715Y444872D01*
X456038Y445060D01*
X456366Y445240D01*
X456698Y445413D01*
X457034Y445577D01*
X457374Y445733D01*
X457718Y445880D01*
X458065Y446019D01*
X458416Y446149D01*
X458769Y446271D01*
X459126Y446384D01*
X459485Y446488D01*
X459847Y446583D01*
X460211Y446670D01*
X460577Y446747D01*
X460945Y446816D01*
X461314Y446875D01*
X461684Y446925D01*
X462056Y446967D01*
X462429Y446999D01*
X462802Y447022D01*
X463176Y447035D01*
X463550Y447040D01*
X463924Y447035D01*
X464298Y447022D01*
X464671Y446999D01*
X465044Y446967D01*
X465416Y446925D01*
X465786Y446875D01*
X466155Y446816D01*
X466523Y446747D01*
X466889Y446670D01*
X467253Y446583D01*
X467615Y446488D01*
X467974Y446384D01*
X468331Y446271D01*
X468684Y446149D01*
X469035Y446019D01*
X469382Y445880D01*
X469726Y445733D01*
X470066Y445577D01*
X470402Y445413D01*
X470734Y445240D01*
X471062Y445060D01*
X471385Y444872D01*
X471703Y444676D01*
X472017Y444472D01*
X472325Y444260D01*
X472628Y444041D01*
X472926Y443814D01*
X473218Y443581D01*
X473504Y443340D01*
X473785Y443092D01*
X474059Y442838D01*
X474326Y442576D01*
X474588Y442309D01*
X474842Y442035D01*
X475090Y441754D01*
X475331Y441468D01*
X475564Y441176D01*
X475791Y440878D01*
X476010Y440575D01*
X476222Y440267D01*
X476426Y439953D01*
X476622Y439635D01*
X476810Y439312D01*
X476990Y438984D01*
X477163Y438652D01*
X477327Y438316D01*
X477483Y437976D01*
X477630Y437632D01*
X477769Y437285D01*
X477899Y436934D01*
X478021Y436581D01*
X478134Y436224D01*
X478238Y435865D01*
X478333Y435503D01*
X478420Y435139D01*
X478497Y434773D01*
X478566Y434405D01*
X478625Y434036D01*
X478675Y433666D01*
X478717Y433294D01*
X478749Y432921D01*
X478772Y432548D01*
X478785Y432174D01*
X478790Y431800D01*
X478785Y431426D01*
X478772Y431052D01*
X478749Y430679D01*
X478717Y430306D01*
X478675Y429934D01*
X478625Y429564D01*
X478566Y429195D01*
X478497Y428827D01*
X478420Y428461D01*
X478333Y428097D01*
X478238Y427735D01*
X478134Y427376D01*
X478021Y427019D01*
X477899Y426666D01*
X477769Y426315D01*
X477630Y425968D01*
X477483Y425624D01*
X477327Y425284D01*
X477163Y424948D01*
X476990Y424616D01*
X476810Y424288D01*
X476622Y423965D01*
X476426Y423647D01*
X476222Y423333D01*
X476010Y423025D01*
X475791Y422722D01*
X475564Y422424D01*
X475331Y422132D01*
X475090Y421846D01*
X474842Y421565D01*
X474588Y421291D01*
X474326Y421024D01*
X474059Y420762D01*
X473785Y420508D01*
X473504Y420260D01*
X473218Y420019D01*
X472926Y419786D01*
X472628Y419559D01*
X472325Y419340D01*
X472017Y419128D01*
X471703Y418924D01*
X471385Y418728D01*
X471062Y418540D01*
X470734Y418360D01*
X470402Y418187D01*
X470066Y418023D01*
X469726Y417867D01*
X469382Y417720D01*
X469035Y417581D01*
X468684Y417451D01*
X468331Y417329D01*
X467974Y417216D01*
X467615Y417112D01*
X467253Y417017D01*
X466889Y416930D01*
X466523Y416853D01*
X466155Y416784D01*
X465786Y416725D01*
X465416Y416675D01*
X465044Y416633D01*
X464671Y416601D01*
X464298Y416578D01*
X463924Y416565D01*
X463550Y416560D01*
X463176Y416565D01*
X462802Y416578D01*
X462429Y416601D01*
X462056Y416633D01*
X461684Y416675D01*
X461314Y416725D01*
X460945Y416784D01*
X460577Y416853D01*
X460211Y416930D01*
X459847Y417017D01*
X459485Y417112D01*
X459126Y417216D01*
X458769Y417329D01*
X458416Y417451D01*
X458065Y417581D01*
X457718Y417720D01*
X457374Y417867D01*
X457034Y418023D01*
X456698Y418187D01*
X456366Y418360D01*
X456038Y418540D01*
X455715Y418728D01*
X455397Y418924D01*
X455083Y419128D01*
X454775Y419340D01*
X454472Y419559D01*
X454174Y419786D01*
X453882Y420019D01*
X453596Y420260D01*
X453315Y420508D01*
X453041Y420762D01*
X452774Y421024D01*
X452512Y421291D01*
X452258Y421565D01*
X452010Y421846D01*
X451769Y422132D01*
X451536Y422424D01*
X451309Y422722D01*
X451090Y423025D01*
X450878Y423333D01*
X450674Y423647D01*
X450478Y423965D01*
X450290Y424288D01*
X450110Y424616D01*
X449937Y424948D01*
X449773Y425284D01*
X449617Y425624D01*
X449470Y425968D01*
X449331Y426315D01*
X449201Y426666D01*
X449079Y427019D01*
X448966Y427376D01*
X448862Y427735D01*
X448767Y428097D01*
X448680Y428461D01*
X448603Y428827D01*
X448534Y429195D01*
X448475Y429564D01*
X448425Y429934D01*
X448383Y430306D01*
X448351Y430679D01*
X448328Y431052D01*
X448315Y431426D01*
X448310Y431800D01*
X41910Y101600D02*
X41915Y101974D01*
X41928Y102348D01*
X41951Y102721D01*
X41983Y103094D01*
X42025Y103466D01*
X42075Y103836D01*
X42134Y104205D01*
X42203Y104573D01*
X42280Y104939D01*
X42367Y105303D01*
X42462Y105665D01*
X42566Y106024D01*
X42679Y106381D01*
X42801Y106734D01*
X42931Y107085D01*
X43070Y107432D01*
X43217Y107776D01*
X43373Y108116D01*
X43537Y108452D01*
X43710Y108784D01*
X43890Y109112D01*
X44078Y109435D01*
X44274Y109753D01*
X44478Y110067D01*
X44690Y110375D01*
X44909Y110678D01*
X45136Y110976D01*
X45369Y111268D01*
X45610Y111554D01*
X45858Y111835D01*
X46112Y112109D01*
X46374Y112376D01*
X46641Y112638D01*
X46915Y112892D01*
X47196Y113140D01*
X47482Y113381D01*
X47774Y113614D01*
X48072Y113841D01*
X48375Y114060D01*
X48683Y114272D01*
X48997Y114476D01*
X49315Y114672D01*
X49638Y114860D01*
X49966Y115040D01*
X50298Y115213D01*
X50634Y115377D01*
X50974Y115533D01*
X51318Y115680D01*
X51665Y115819D01*
X52016Y115949D01*
X52369Y116071D01*
X52726Y116184D01*
X53085Y116288D01*
X53447Y116383D01*
X53811Y116470D01*
X54177Y116547D01*
X54545Y116616D01*
X54914Y116675D01*
X55284Y116725D01*
X55656Y116767D01*
X56029Y116799D01*
X56402Y116822D01*
X56776Y116835D01*
X57150Y116840D01*
X57524Y116835D01*
X57898Y116822D01*
X58271Y116799D01*
X58644Y116767D01*
X59016Y116725D01*
X59386Y116675D01*
X59755Y116616D01*
X60123Y116547D01*
X60489Y116470D01*
X60853Y116383D01*
X61215Y116288D01*
X61574Y116184D01*
X61931Y116071D01*
X62284Y115949D01*
X62635Y115819D01*
X62982Y115680D01*
X63326Y115533D01*
X63666Y115377D01*
X64002Y115213D01*
X64334Y115040D01*
X64662Y114860D01*
X64985Y114672D01*
X65303Y114476D01*
X65617Y114272D01*
X65925Y114060D01*
X66228Y113841D01*
X66526Y113614D01*
X66818Y113381D01*
X67104Y113140D01*
X67385Y112892D01*
X67659Y112638D01*
X67926Y112376D01*
X68188Y112109D01*
X68442Y111835D01*
X68690Y111554D01*
X68931Y111268D01*
X69164Y110976D01*
X69391Y110678D01*
X69610Y110375D01*
X69822Y110067D01*
X70026Y109753D01*
X70222Y109435D01*
X70410Y109112D01*
X70590Y108784D01*
X70763Y108452D01*
X70927Y108116D01*
X71083Y107776D01*
X71230Y107432D01*
X71369Y107085D01*
X71499Y106734D01*
X71621Y106381D01*
X71734Y106024D01*
X71838Y105665D01*
X71933Y105303D01*
X72020Y104939D01*
X72097Y104573D01*
X72166Y104205D01*
X72225Y103836D01*
X72275Y103466D01*
X72317Y103094D01*
X72349Y102721D01*
X72372Y102348D01*
X72385Y101974D01*
X72390Y101600D01*
X72385Y101226D01*
X72372Y100852D01*
X72349Y100479D01*
X72317Y100106D01*
X72275Y99734D01*
X72225Y99364D01*
X72166Y98995D01*
X72097Y98627D01*
X72020Y98261D01*
X71933Y97897D01*
X71838Y97535D01*
X71734Y97176D01*
X71621Y96819D01*
X71499Y96466D01*
X71369Y96115D01*
X71230Y95768D01*
X71083Y95424D01*
X70927Y95084D01*
X70763Y94748D01*
X70590Y94416D01*
X70410Y94088D01*
X70222Y93765D01*
X70026Y93447D01*
X69822Y93133D01*
X69610Y92825D01*
X69391Y92522D01*
X69164Y92224D01*
X68931Y91932D01*
X68690Y91646D01*
X68442Y91365D01*
X68188Y91091D01*
X67926Y90824D01*
X67659Y90562D01*
X67385Y90308D01*
X67104Y90060D01*
X66818Y89819D01*
X66526Y89586D01*
X66228Y89359D01*
X65925Y89140D01*
X65617Y88928D01*
X65303Y88724D01*
X64985Y88528D01*
X64662Y88340D01*
X64334Y88160D01*
X64002Y87987D01*
X63666Y87823D01*
X63326Y87667D01*
X62982Y87520D01*
X62635Y87381D01*
X62284Y87251D01*
X61931Y87129D01*
X61574Y87016D01*
X61215Y86912D01*
X60853Y86817D01*
X60489Y86730D01*
X60123Y86653D01*
X59755Y86584D01*
X59386Y86525D01*
X59016Y86475D01*
X58644Y86433D01*
X58271Y86401D01*
X57898Y86378D01*
X57524Y86365D01*
X57150Y86360D01*
X56776Y86365D01*
X56402Y86378D01*
X56029Y86401D01*
X55656Y86433D01*
X55284Y86475D01*
X54914Y86525D01*
X54545Y86584D01*
X54177Y86653D01*
X53811Y86730D01*
X53447Y86817D01*
X53085Y86912D01*
X52726Y87016D01*
X52369Y87129D01*
X52016Y87251D01*
X51665Y87381D01*
X51318Y87520D01*
X50974Y87667D01*
X50634Y87823D01*
X50298Y87987D01*
X49966Y88160D01*
X49638Y88340D01*
X49315Y88528D01*
X48997Y88724D01*
X48683Y88928D01*
X48375Y89140D01*
X48072Y89359D01*
X47774Y89586D01*
X47482Y89819D01*
X47196Y90060D01*
X46915Y90308D01*
X46641Y90562D01*
X46374Y90824D01*
X46112Y91091D01*
X45858Y91365D01*
X45610Y91646D01*
X45369Y91932D01*
X45136Y92224D01*
X44909Y92522D01*
X44690Y92825D01*
X44478Y93133D01*
X44274Y93447D01*
X44078Y93765D01*
X43890Y94088D01*
X43710Y94416D01*
X43537Y94748D01*
X43373Y95084D01*
X43217Y95424D01*
X43070Y95768D01*
X42931Y96115D01*
X42801Y96466D01*
X42679Y96819D01*
X42566Y97176D01*
X42462Y97535D01*
X42367Y97897D01*
X42280Y98261D01*
X42203Y98627D01*
X42134Y98995D01*
X42075Y99364D01*
X42025Y99734D01*
X41983Y100106D01*
X41951Y100479D01*
X41928Y100852D01*
X41915Y101226D01*
X41910Y101600D01*
X448310Y44450D02*
X448315Y44824D01*
X448328Y45198D01*
X448351Y45571D01*
X448383Y45944D01*
X448425Y46316D01*
X448475Y46686D01*
X448534Y47055D01*
X448603Y47423D01*
X448680Y47789D01*
X448767Y48153D01*
X448862Y48515D01*
X448966Y48874D01*
X449079Y49231D01*
X449201Y49584D01*
X449331Y49935D01*
X449470Y50282D01*
X449617Y50626D01*
X449773Y50966D01*
X449937Y51302D01*
X450110Y51634D01*
X450290Y51962D01*
X450478Y52285D01*
X450674Y52603D01*
X450878Y52917D01*
X451090Y53225D01*
X451309Y53528D01*
X451536Y53826D01*
X451769Y54118D01*
X452010Y54404D01*
X452258Y54685D01*
X452512Y54959D01*
X452774Y55226D01*
X453041Y55488D01*
X453315Y55742D01*
X453596Y55990D01*
X453882Y56231D01*
X454174Y56464D01*
X454472Y56691D01*
X454775Y56910D01*
X455083Y57122D01*
X455397Y57326D01*
X455715Y57522D01*
X456038Y57710D01*
X456366Y57890D01*
X456698Y58063D01*
X457034Y58227D01*
X457374Y58383D01*
X457718Y58530D01*
X458065Y58669D01*
X458416Y58799D01*
X458769Y58921D01*
X459126Y59034D01*
X459485Y59138D01*
X459847Y59233D01*
X460211Y59320D01*
X460577Y59397D01*
X460945Y59466D01*
X461314Y59525D01*
X461684Y59575D01*
X462056Y59617D01*
X462429Y59649D01*
X462802Y59672D01*
X463176Y59685D01*
X463550Y59690D01*
X463924Y59685D01*
X464298Y59672D01*
X464671Y59649D01*
X465044Y59617D01*
X465416Y59575D01*
X465786Y59525D01*
X466155Y59466D01*
X466523Y59397D01*
X466889Y59320D01*
X467253Y59233D01*
X467615Y59138D01*
X467974Y59034D01*
X468331Y58921D01*
X468684Y58799D01*
X469035Y58669D01*
X469382Y58530D01*
X469726Y58383D01*
X470066Y58227D01*
X470402Y58063D01*
X470734Y57890D01*
X471062Y57710D01*
X471385Y57522D01*
X471703Y57326D01*
X472017Y57122D01*
X472325Y56910D01*
X472628Y56691D01*
X472926Y56464D01*
X473218Y56231D01*
X473504Y55990D01*
X473785Y55742D01*
X474059Y55488D01*
X474326Y55226D01*
X474588Y54959D01*
X474842Y54685D01*
X475090Y54404D01*
X475331Y54118D01*
X475564Y53826D01*
X475791Y53528D01*
X476010Y53225D01*
X476222Y52917D01*
X476426Y52603D01*
X476622Y52285D01*
X476810Y51962D01*
X476990Y51634D01*
X477163Y51302D01*
X477327Y50966D01*
X477483Y50626D01*
X477630Y50282D01*
X477769Y49935D01*
X477899Y49584D01*
X478021Y49231D01*
X478134Y48874D01*
X478238Y48515D01*
X478333Y48153D01*
X478420Y47789D01*
X478497Y47423D01*
X478566Y47055D01*
X478625Y46686D01*
X478675Y46316D01*
X478717Y45944D01*
X478749Y45571D01*
X478772Y45198D01*
X478785Y44824D01*
X478790Y44450D01*
X478785Y44076D01*
X478772Y43702D01*
X478749Y43329D01*
X478717Y42956D01*
X478675Y42584D01*
X478625Y42214D01*
X478566Y41845D01*
X478497Y41477D01*
X478420Y41111D01*
X478333Y40747D01*
X478238Y40385D01*
X478134Y40026D01*
X478021Y39669D01*
X477899Y39316D01*
X477769Y38965D01*
X477630Y38618D01*
X477483Y38274D01*
X477327Y37934D01*
X477163Y37598D01*
X476990Y37266D01*
X476810Y36938D01*
X476622Y36615D01*
X476426Y36297D01*
X476222Y35983D01*
X476010Y35675D01*
X475791Y35372D01*
X475564Y35074D01*
X475331Y34782D01*
X475090Y34496D01*
X474842Y34215D01*
X474588Y33941D01*
X474326Y33674D01*
X474059Y33412D01*
X473785Y33158D01*
X473504Y32910D01*
X473218Y32669D01*
X472926Y32436D01*
X472628Y32209D01*
X472325Y31990D01*
X472017Y31778D01*
X471703Y31574D01*
X471385Y31378D01*
X471062Y31190D01*
X470734Y31010D01*
X470402Y30837D01*
X470066Y30673D01*
X469726Y30517D01*
X469382Y30370D01*
X469035Y30231D01*
X468684Y30101D01*
X468331Y29979D01*
X467974Y29866D01*
X467615Y29762D01*
X467253Y29667D01*
X466889Y29580D01*
X466523Y29503D01*
X466155Y29434D01*
X465786Y29375D01*
X465416Y29325D01*
X465044Y29283D01*
X464671Y29251D01*
X464298Y29228D01*
X463924Y29215D01*
X463550Y29210D01*
X463176Y29215D01*
X462802Y29228D01*
X462429Y29251D01*
X462056Y29283D01*
X461684Y29325D01*
X461314Y29375D01*
X460945Y29434D01*
X460577Y29503D01*
X460211Y29580D01*
X459847Y29667D01*
X459485Y29762D01*
X459126Y29866D01*
X458769Y29979D01*
X458416Y30101D01*
X458065Y30231D01*
X457718Y30370D01*
X457374Y30517D01*
X457034Y30673D01*
X456698Y30837D01*
X456366Y31010D01*
X456038Y31190D01*
X455715Y31378D01*
X455397Y31574D01*
X455083Y31778D01*
X454775Y31990D01*
X454472Y32209D01*
X454174Y32436D01*
X453882Y32669D01*
X453596Y32910D01*
X453315Y33158D01*
X453041Y33412D01*
X452774Y33674D01*
X452512Y33941D01*
X452258Y34215D01*
X452010Y34496D01*
X451769Y34782D01*
X451536Y35074D01*
X451309Y35372D01*
X451090Y35675D01*
X450878Y35983D01*
X450674Y36297D01*
X450478Y36615D01*
X450290Y36938D01*
X450110Y37266D01*
X449937Y37598D01*
X449773Y37934D01*
X449617Y38274D01*
X449470Y38618D01*
X449331Y38965D01*
X449201Y39316D01*
X449079Y39669D01*
X448966Y40026D01*
X448862Y40385D01*
X448767Y40747D01*
X448680Y41111D01*
X448603Y41477D01*
X448534Y41845D01*
X448475Y42214D01*
X448425Y42584D01*
X448383Y42956D01*
X448351Y43329D01*
X448328Y43702D01*
X448315Y44076D01*
X448310Y44450D01*
X29210Y406400D02*
X29215Y406774D01*
X29228Y407148D01*
X29251Y407521D01*
X29283Y407894D01*
X29325Y408266D01*
X29375Y408636D01*
X29434Y409005D01*
X29503Y409373D01*
X29580Y409739D01*
X29667Y410103D01*
X29762Y410465D01*
X29866Y410824D01*
X29979Y411181D01*
X30101Y411534D01*
X30231Y411885D01*
X30370Y412232D01*
X30517Y412576D01*
X30673Y412916D01*
X30837Y413252D01*
X31010Y413584D01*
X31190Y413912D01*
X31378Y414235D01*
X31574Y414553D01*
X31778Y414867D01*
X31990Y415175D01*
X32209Y415478D01*
X32436Y415776D01*
X32669Y416068D01*
X32910Y416354D01*
X33158Y416635D01*
X33412Y416909D01*
X33674Y417176D01*
X33941Y417438D01*
X34215Y417692D01*
X34496Y417940D01*
X34782Y418181D01*
X35074Y418414D01*
X35372Y418641D01*
X35675Y418860D01*
X35983Y419072D01*
X36297Y419276D01*
X36615Y419472D01*
X36938Y419660D01*
X37266Y419840D01*
X37598Y420013D01*
X37934Y420177D01*
X38274Y420333D01*
X38618Y420480D01*
X38965Y420619D01*
X39316Y420749D01*
X39669Y420871D01*
X40026Y420984D01*
X40385Y421088D01*
X40747Y421183D01*
X41111Y421270D01*
X41477Y421347D01*
X41845Y421416D01*
X42214Y421475D01*
X42584Y421525D01*
X42956Y421567D01*
X43329Y421599D01*
X43702Y421622D01*
X44076Y421635D01*
X44450Y421640D01*
X44824Y421635D01*
X45198Y421622D01*
X45571Y421599D01*
X45944Y421567D01*
X46316Y421525D01*
X46686Y421475D01*
X47055Y421416D01*
X47423Y421347D01*
X47789Y421270D01*
X48153Y421183D01*
X48515Y421088D01*
X48874Y420984D01*
X49231Y420871D01*
X49584Y420749D01*
X49935Y420619D01*
X50282Y420480D01*
X50626Y420333D01*
X50966Y420177D01*
X51302Y420013D01*
X51634Y419840D01*
X51962Y419660D01*
X52285Y419472D01*
X52603Y419276D01*
X52917Y419072D01*
X53225Y418860D01*
X53528Y418641D01*
X53826Y418414D01*
X54118Y418181D01*
X54404Y417940D01*
X54685Y417692D01*
X54959Y417438D01*
X55226Y417176D01*
X55488Y416909D01*
X55742Y416635D01*
X55990Y416354D01*
X56231Y416068D01*
X56464Y415776D01*
X56691Y415478D01*
X56910Y415175D01*
X57122Y414867D01*
X57326Y414553D01*
X57522Y414235D01*
X57710Y413912D01*
X57890Y413584D01*
X58063Y413252D01*
X58227Y412916D01*
X58383Y412576D01*
X58530Y412232D01*
X58669Y411885D01*
X58799Y411534D01*
X58921Y411181D01*
X59034Y410824D01*
X59138Y410465D01*
X59233Y410103D01*
X59320Y409739D01*
X59397Y409373D01*
X59466Y409005D01*
X59525Y408636D01*
X59575Y408266D01*
X59617Y407894D01*
X59649Y407521D01*
X59672Y407148D01*
X59685Y406774D01*
X59690Y406400D01*
X59685Y406026D01*
X59672Y405652D01*
X59649Y405279D01*
X59617Y404906D01*
X59575Y404534D01*
X59525Y404164D01*
X59466Y403795D01*
X59397Y403427D01*
X59320Y403061D01*
X59233Y402697D01*
X59138Y402335D01*
X59034Y401976D01*
X58921Y401619D01*
X58799Y401266D01*
X58669Y400915D01*
X58530Y400568D01*
X58383Y400224D01*
X58227Y399884D01*
X58063Y399548D01*
X57890Y399216D01*
X57710Y398888D01*
X57522Y398565D01*
X57326Y398247D01*
X57122Y397933D01*
X56910Y397625D01*
X56691Y397322D01*
X56464Y397024D01*
X56231Y396732D01*
X55990Y396446D01*
X55742Y396165D01*
X55488Y395891D01*
X55226Y395624D01*
X54959Y395362D01*
X54685Y395108D01*
X54404Y394860D01*
X54118Y394619D01*
X53826Y394386D01*
X53528Y394159D01*
X53225Y393940D01*
X52917Y393728D01*
X52603Y393524D01*
X52285Y393328D01*
X51962Y393140D01*
X51634Y392960D01*
X51302Y392787D01*
X50966Y392623D01*
X50626Y392467D01*
X50282Y392320D01*
X49935Y392181D01*
X49584Y392051D01*
X49231Y391929D01*
X48874Y391816D01*
X48515Y391712D01*
X48153Y391617D01*
X47789Y391530D01*
X47423Y391453D01*
X47055Y391384D01*
X46686Y391325D01*
X46316Y391275D01*
X45944Y391233D01*
X45571Y391201D01*
X45198Y391178D01*
X44824Y391165D01*
X44450Y391160D01*
X44076Y391165D01*
X43702Y391178D01*
X43329Y391201D01*
X42956Y391233D01*
X42584Y391275D01*
X42214Y391325D01*
X41845Y391384D01*
X41477Y391453D01*
X41111Y391530D01*
X40747Y391617D01*
X40385Y391712D01*
X40026Y391816D01*
X39669Y391929D01*
X39316Y392051D01*
X38965Y392181D01*
X38618Y392320D01*
X38274Y392467D01*
X37934Y392623D01*
X37598Y392787D01*
X37266Y392960D01*
X36938Y393140D01*
X36615Y393328D01*
X36297Y393524D01*
X35983Y393728D01*
X35675Y393940D01*
X35372Y394159D01*
X35074Y394386D01*
X34782Y394619D01*
X34496Y394860D01*
X34215Y395108D01*
X33941Y395362D01*
X33674Y395624D01*
X33412Y395891D01*
X33158Y396165D01*
X32910Y396446D01*
X32669Y396732D01*
X32436Y397024D01*
X32209Y397322D01*
X31990Y397625D01*
X31778Y397933D01*
X31574Y398247D01*
X31378Y398565D01*
X31190Y398888D01*
X31010Y399216D01*
X30837Y399548D01*
X30673Y399884D01*
X30517Y400224D01*
X30370Y400568D01*
X30231Y400915D01*
X30101Y401266D01*
X29979Y401619D01*
X29866Y401976D01*
X29762Y402335D01*
X29667Y402697D01*
X29580Y403061D01*
X29503Y403427D01*
X29434Y403795D01*
X29375Y404164D01*
X29325Y404534D01*
X29283Y404906D01*
X29251Y405279D01*
X29228Y405652D01*
X29215Y406026D01*
X29210Y406400D01*
D11*
X0Y0D02*
X517400Y0D01*
X517400Y482500D01*
X0Y482500D01*
X0Y0D01*
M02*
