G04 EAGLE Gerber RS-274X export*
G75*
%MOMM*%
%FSLAX34Y34*%
%LPD*%
%INBottom Copper*%
%IPPOS*%
%AMOC8*
5,1,8,0,0,1.08239X$1,22.5*%
G01*
%ADD10C,0.152400*%
%ADD11R,3.175000X2.032000*%
%ADD12C,8.000000*%
%ADD13C,1.651000*%
%ADD14P,1.814519X8X202.500000*%
%ADD15C,1.879600*%
%ADD16R,1.422400X1.422400*%
%ADD17C,1.422400*%
%ADD18P,1.429621X8X202.500000*%
%ADD19P,1.429621X8X292.500000*%
%ADD20P,1.429621X8X112.500000*%
%ADD21C,2.540000*%
%ADD22C,1.930400*%
%ADD23C,1.295400*%
%ADD24R,1.295400X1.295400*%
%ADD25C,0.304800*%

G36*
X381020Y10164D02*
X381020Y10164D01*
X381039Y10162D01*
X381141Y10184D01*
X381243Y10200D01*
X381260Y10210D01*
X381280Y10214D01*
X381369Y10267D01*
X381460Y10316D01*
X381474Y10330D01*
X381491Y10340D01*
X381558Y10419D01*
X381630Y10494D01*
X381638Y10512D01*
X381651Y10527D01*
X381690Y10623D01*
X381733Y10717D01*
X381735Y10737D01*
X381743Y10755D01*
X381761Y10922D01*
X381761Y711200D01*
X381758Y711220D01*
X381760Y711239D01*
X381738Y711341D01*
X381722Y711443D01*
X381712Y711460D01*
X381708Y711480D01*
X381655Y711569D01*
X381606Y711660D01*
X381592Y711674D01*
X381582Y711691D01*
X381503Y711758D01*
X381428Y711830D01*
X381410Y711838D01*
X381395Y711851D01*
X381299Y711890D01*
X381205Y711933D01*
X381185Y711935D01*
X381167Y711943D01*
X381000Y711961D01*
X10922Y711961D01*
X10902Y711958D01*
X10883Y711960D01*
X10781Y711938D01*
X10679Y711922D01*
X10662Y711912D01*
X10642Y711908D01*
X10553Y711855D01*
X10462Y711806D01*
X10448Y711792D01*
X10431Y711782D01*
X10364Y711703D01*
X10292Y711628D01*
X10284Y711610D01*
X10271Y711595D01*
X10232Y711499D01*
X10189Y711405D01*
X10187Y711385D01*
X10179Y711367D01*
X10161Y711200D01*
X10161Y10922D01*
X10164Y10902D01*
X10162Y10883D01*
X10184Y10781D01*
X10200Y10679D01*
X10210Y10662D01*
X10214Y10642D01*
X10267Y10553D01*
X10316Y10462D01*
X10330Y10448D01*
X10340Y10431D01*
X10419Y10364D01*
X10494Y10292D01*
X10512Y10284D01*
X10527Y10271D01*
X10623Y10232D01*
X10717Y10189D01*
X10737Y10187D01*
X10755Y10179D01*
X10922Y10161D01*
X381000Y10161D01*
X381020Y10164D01*
G37*
%LPC*%
G36*
X31634Y16763D02*
X31634Y16763D01*
X16763Y31634D01*
X16763Y571870D01*
X19665Y574772D01*
X32065Y587172D01*
X32132Y587266D01*
X32203Y587360D01*
X32205Y587367D01*
X32208Y587372D01*
X32243Y587483D01*
X32279Y587594D01*
X32279Y587601D01*
X32281Y587607D01*
X32278Y587723D01*
X32277Y587840D01*
X32275Y587848D01*
X32274Y587852D01*
X32268Y587870D01*
X32239Y587969D01*
X32239Y592053D01*
X32248Y592132D01*
X32255Y592164D01*
X32254Y592183D01*
X32257Y592216D01*
X32257Y592223D01*
X33804Y595958D01*
X36662Y598816D01*
X38058Y599394D01*
X38119Y599432D01*
X38185Y599461D01*
X38223Y599496D01*
X38267Y599524D01*
X38313Y599579D01*
X38366Y599627D01*
X38391Y599673D01*
X38424Y599713D01*
X38450Y599780D01*
X38484Y599843D01*
X38494Y599894D01*
X38512Y599943D01*
X38515Y600014D01*
X38528Y600085D01*
X38520Y600136D01*
X38523Y600188D01*
X38503Y600257D01*
X38492Y600328D01*
X38469Y600375D01*
X38454Y600425D01*
X38413Y600483D01*
X38381Y600547D01*
X38344Y600584D01*
X38314Y600627D01*
X38256Y600669D01*
X38205Y600720D01*
X38142Y600754D01*
X38116Y600773D01*
X38094Y600781D01*
X38058Y600801D01*
X36644Y601386D01*
X33786Y604244D01*
X32239Y607979D01*
X32239Y612053D01*
X32248Y612132D01*
X32255Y612164D01*
X32254Y612183D01*
X32257Y612216D01*
X32257Y612223D01*
X33804Y615958D01*
X36662Y618816D01*
X38058Y619394D01*
X38119Y619432D01*
X38185Y619461D01*
X38223Y619496D01*
X38267Y619524D01*
X38313Y619579D01*
X38366Y619627D01*
X38391Y619673D01*
X38424Y619713D01*
X38450Y619780D01*
X38484Y619843D01*
X38494Y619894D01*
X38512Y619943D01*
X38515Y620014D01*
X38528Y620085D01*
X38520Y620136D01*
X38523Y620188D01*
X38503Y620257D01*
X38492Y620328D01*
X38469Y620375D01*
X38454Y620425D01*
X38413Y620483D01*
X38381Y620547D01*
X38344Y620584D01*
X38314Y620627D01*
X38256Y620669D01*
X38205Y620720D01*
X38142Y620754D01*
X38116Y620773D01*
X38094Y620781D01*
X38058Y620801D01*
X36644Y621386D01*
X33786Y624244D01*
X32239Y627979D01*
X32239Y632053D01*
X32248Y632132D01*
X32255Y632164D01*
X32254Y632183D01*
X32257Y632216D01*
X32257Y632223D01*
X33804Y635958D01*
X36662Y638816D01*
X38058Y639394D01*
X38119Y639432D01*
X38185Y639461D01*
X38223Y639496D01*
X38267Y639524D01*
X38313Y639579D01*
X38366Y639627D01*
X38391Y639673D01*
X38424Y639713D01*
X38450Y639780D01*
X38484Y639843D01*
X38494Y639894D01*
X38512Y639943D01*
X38515Y640014D01*
X38528Y640085D01*
X38520Y640136D01*
X38523Y640188D01*
X38503Y640257D01*
X38492Y640328D01*
X38469Y640375D01*
X38454Y640425D01*
X38413Y640483D01*
X38381Y640547D01*
X38344Y640584D01*
X38314Y640627D01*
X38256Y640669D01*
X38205Y640720D01*
X38142Y640754D01*
X38116Y640773D01*
X38094Y640781D01*
X38058Y640801D01*
X36644Y641386D01*
X33786Y644244D01*
X32239Y647979D01*
X32239Y652053D01*
X32248Y652132D01*
X32255Y652164D01*
X32254Y652183D01*
X32257Y652216D01*
X32257Y652223D01*
X33804Y655958D01*
X36662Y658816D01*
X38058Y659394D01*
X38119Y659432D01*
X38185Y659461D01*
X38223Y659496D01*
X38267Y659524D01*
X38313Y659579D01*
X38366Y659627D01*
X38391Y659673D01*
X38424Y659713D01*
X38450Y659780D01*
X38484Y659843D01*
X38494Y659894D01*
X38512Y659943D01*
X38515Y660014D01*
X38528Y660085D01*
X38520Y660136D01*
X38523Y660188D01*
X38503Y660257D01*
X38492Y660328D01*
X38469Y660375D01*
X38454Y660425D01*
X38413Y660483D01*
X38381Y660547D01*
X38344Y660584D01*
X38314Y660627D01*
X38256Y660669D01*
X38205Y660720D01*
X38142Y660754D01*
X38116Y660773D01*
X38094Y660781D01*
X38058Y660801D01*
X36644Y661386D01*
X33786Y664244D01*
X32239Y667979D01*
X32239Y672053D01*
X32248Y672132D01*
X32255Y672164D01*
X32254Y672183D01*
X32257Y672216D01*
X32257Y672223D01*
X33804Y675958D01*
X36386Y678540D01*
X36428Y678598D01*
X36478Y678650D01*
X36499Y678697D01*
X36530Y678739D01*
X36551Y678808D01*
X36581Y678873D01*
X36587Y678925D01*
X36602Y678975D01*
X36600Y679046D01*
X36608Y679117D01*
X36597Y679168D01*
X36596Y679220D01*
X36571Y679288D01*
X36556Y679358D01*
X36529Y679403D01*
X36511Y679451D01*
X36467Y679507D01*
X36430Y679569D01*
X36390Y679603D01*
X36358Y679643D01*
X36297Y679682D01*
X36243Y679729D01*
X36195Y679748D01*
X36151Y679776D01*
X36081Y679794D01*
X36015Y679821D01*
X35943Y679829D01*
X35912Y679837D01*
X35889Y679835D01*
X35848Y679839D01*
X34025Y679839D01*
X32239Y681625D01*
X32239Y698375D01*
X34025Y700161D01*
X39758Y700161D01*
X39822Y700171D01*
X39888Y700172D01*
X39968Y700195D01*
X40001Y700200D01*
X40018Y700210D01*
X40049Y700219D01*
X40397Y700363D01*
X44439Y700363D01*
X44787Y700219D01*
X44851Y700204D01*
X44911Y700179D01*
X44994Y700170D01*
X45026Y700163D01*
X45046Y700164D01*
X45078Y700161D01*
X50775Y700161D01*
X52561Y698375D01*
X52561Y697230D01*
X52564Y697210D01*
X52562Y697191D01*
X52584Y697089D01*
X52600Y696987D01*
X52610Y696970D01*
X52614Y696950D01*
X52667Y696861D01*
X52716Y696770D01*
X52730Y696756D01*
X52740Y696739D01*
X52819Y696672D01*
X52894Y696600D01*
X52912Y696592D01*
X52927Y696579D01*
X53023Y696540D01*
X53117Y696497D01*
X53137Y696495D01*
X53155Y696487D01*
X53322Y696469D01*
X238583Y696469D01*
X238673Y696483D01*
X238764Y696491D01*
X238793Y696503D01*
X238825Y696508D01*
X238906Y696551D01*
X238990Y696587D01*
X239022Y696613D01*
X239043Y696624D01*
X239065Y696647D01*
X239121Y696692D01*
X251090Y708661D01*
X276214Y708661D01*
X301899Y682976D01*
X301973Y682923D01*
X302043Y682863D01*
X302073Y682851D01*
X302099Y682832D01*
X302186Y682805D01*
X302271Y682771D01*
X302312Y682767D01*
X302334Y682760D01*
X302366Y682761D01*
X302437Y682753D01*
X308798Y682753D01*
X314453Y677098D01*
X314453Y669102D01*
X308798Y663447D01*
X301929Y663447D01*
X301839Y663433D01*
X301748Y663425D01*
X301719Y663413D01*
X301687Y663408D01*
X301606Y663365D01*
X301522Y663329D01*
X301490Y663303D01*
X301469Y663292D01*
X301447Y663269D01*
X301391Y663224D01*
X284196Y646029D01*
X284143Y645955D01*
X284083Y645885D01*
X284071Y645855D01*
X284052Y645829D01*
X284025Y645742D01*
X283991Y645657D01*
X283987Y645616D01*
X283980Y645594D01*
X283981Y645562D01*
X283973Y645491D01*
X283973Y616889D01*
X283987Y616799D01*
X283995Y616708D01*
X284007Y616679D01*
X284012Y616647D01*
X284038Y616598D01*
X284038Y616597D01*
X284041Y616594D01*
X284055Y616566D01*
X284091Y616482D01*
X284117Y616450D01*
X284128Y616429D01*
X284151Y616407D01*
X284155Y616402D01*
X284165Y616386D01*
X284175Y616378D01*
X284196Y616351D01*
X319171Y581376D01*
X322260Y578287D01*
X322276Y578276D01*
X322288Y578260D01*
X322376Y578204D01*
X322459Y578144D01*
X322478Y578138D01*
X322495Y578127D01*
X322596Y578102D01*
X322694Y578071D01*
X322714Y578072D01*
X322734Y578067D01*
X322837Y578075D01*
X322940Y578078D01*
X322959Y578085D01*
X322979Y578086D01*
X323074Y578126D01*
X323171Y578162D01*
X323187Y578175D01*
X323205Y578182D01*
X323336Y578287D01*
X326202Y581153D01*
X334198Y581153D01*
X339853Y575498D01*
X339853Y567502D01*
X337028Y564677D01*
X336975Y564603D01*
X336915Y564533D01*
X336903Y564503D01*
X336884Y564477D01*
X336857Y564390D01*
X336823Y564305D01*
X336819Y564264D01*
X336812Y564242D01*
X336813Y564210D01*
X336805Y564138D01*
X336805Y502662D01*
X336806Y502653D01*
X336806Y502650D01*
X336809Y502634D01*
X336819Y502572D01*
X336827Y502481D01*
X336839Y502451D01*
X336844Y502419D01*
X336887Y502338D01*
X336923Y502254D01*
X336949Y502222D01*
X336960Y502201D01*
X336983Y502179D01*
X337028Y502123D01*
X339853Y499298D01*
X339853Y491302D01*
X334198Y485647D01*
X326202Y485647D01*
X320547Y491302D01*
X320547Y499298D01*
X326202Y504953D01*
X326898Y504953D01*
X326918Y504956D01*
X326937Y504954D01*
X327039Y504976D01*
X327141Y504992D01*
X327158Y505002D01*
X327178Y505006D01*
X327267Y505059D01*
X327358Y505108D01*
X327372Y505122D01*
X327389Y505132D01*
X327456Y505211D01*
X327528Y505286D01*
X327536Y505304D01*
X327549Y505319D01*
X327588Y505415D01*
X327631Y505509D01*
X327633Y505529D01*
X327641Y505547D01*
X327659Y505714D01*
X327659Y561086D01*
X327656Y561106D01*
X327658Y561125D01*
X327636Y561227D01*
X327620Y561329D01*
X327610Y561346D01*
X327606Y561366D01*
X327553Y561455D01*
X327504Y561546D01*
X327490Y561560D01*
X327480Y561577D01*
X327401Y561644D01*
X327326Y561716D01*
X327308Y561724D01*
X327293Y561737D01*
X327197Y561776D01*
X327103Y561819D01*
X327083Y561821D01*
X327065Y561829D01*
X326898Y561847D01*
X326202Y561847D01*
X323372Y564677D01*
X323314Y564719D01*
X323262Y564768D01*
X323215Y564790D01*
X323173Y564820D01*
X323104Y564841D01*
X323039Y564872D01*
X322987Y564877D01*
X322937Y564893D01*
X322866Y564891D01*
X322795Y564899D01*
X322744Y564888D01*
X322692Y564886D01*
X322624Y564862D01*
X322554Y564846D01*
X322509Y564820D01*
X322461Y564802D01*
X322405Y564757D01*
X322343Y564720D01*
X322309Y564681D01*
X322269Y564648D01*
X322230Y564588D01*
X322183Y564533D01*
X322164Y564485D01*
X322136Y564441D01*
X322118Y564372D01*
X322091Y564305D01*
X322083Y564234D01*
X322075Y564203D01*
X322077Y564179D01*
X322073Y564138D01*
X322073Y531506D01*
X306694Y516127D01*
X297434Y516127D01*
X297414Y516124D01*
X297395Y516126D01*
X297293Y516104D01*
X297191Y516088D01*
X297174Y516078D01*
X297154Y516074D01*
X297065Y516021D01*
X296974Y515972D01*
X296960Y515958D01*
X296943Y515948D01*
X296876Y515869D01*
X296804Y515794D01*
X296796Y515776D01*
X296783Y515761D01*
X296744Y515665D01*
X296701Y515571D01*
X296699Y515551D01*
X296691Y515533D01*
X296673Y515366D01*
X296673Y442606D01*
X293994Y439927D01*
X276987Y439927D01*
X276967Y439924D01*
X276948Y439926D01*
X276846Y439904D01*
X276744Y439888D01*
X276727Y439878D01*
X276707Y439874D01*
X276618Y439821D01*
X276527Y439772D01*
X276513Y439758D01*
X276496Y439748D01*
X276429Y439669D01*
X276357Y439594D01*
X276349Y439576D01*
X276336Y439561D01*
X276297Y439465D01*
X276254Y439371D01*
X276252Y439351D01*
X276244Y439333D01*
X276226Y439166D01*
X276226Y436760D01*
X274440Y434974D01*
X269544Y434974D01*
X269454Y434960D01*
X269363Y434952D01*
X269334Y434940D01*
X269302Y434935D01*
X269221Y434892D01*
X269137Y434856D01*
X269105Y434830D01*
X269084Y434819D01*
X269062Y434796D01*
X269006Y434751D01*
X249906Y415651D01*
X249859Y415586D01*
X249848Y415574D01*
X249845Y415568D01*
X249793Y415507D01*
X249781Y415477D01*
X249762Y415451D01*
X249735Y415364D01*
X249701Y415279D01*
X249697Y415238D01*
X249690Y415216D01*
X249691Y415184D01*
X249683Y415113D01*
X249683Y392908D01*
X249697Y392818D01*
X249705Y392727D01*
X249717Y392697D01*
X249722Y392665D01*
X249765Y392585D01*
X249801Y392501D01*
X249827Y392469D01*
X249838Y392448D01*
X249861Y392426D01*
X249906Y392370D01*
X255367Y386909D01*
X255383Y386897D01*
X255395Y386882D01*
X255483Y386825D01*
X255566Y386765D01*
X255585Y386759D01*
X255602Y386749D01*
X255703Y386723D01*
X255802Y386693D01*
X255821Y386693D01*
X255841Y386689D01*
X255944Y386697D01*
X256047Y386699D01*
X256066Y386706D01*
X256086Y386708D01*
X256181Y386748D01*
X256278Y386784D01*
X256294Y386796D01*
X256312Y386804D01*
X256443Y386909D01*
X261965Y392431D01*
X271435Y392431D01*
X271773Y392092D01*
X271789Y392081D01*
X271802Y392065D01*
X271889Y392009D01*
X271973Y391949D01*
X271992Y391943D01*
X272009Y391932D01*
X272109Y391907D01*
X272208Y391877D01*
X272228Y391877D01*
X272247Y391872D01*
X272350Y391880D01*
X272454Y391883D01*
X272473Y391890D01*
X272492Y391891D01*
X272587Y391932D01*
X272685Y391967D01*
X272700Y391980D01*
X272719Y391988D01*
X272850Y392092D01*
X281570Y400813D01*
X332994Y400813D01*
X333014Y400816D01*
X333033Y400814D01*
X333135Y400836D01*
X333237Y400852D01*
X333254Y400862D01*
X333274Y400866D01*
X333363Y400919D01*
X333454Y400968D01*
X333468Y400982D01*
X333485Y400992D01*
X333552Y401071D01*
X333624Y401146D01*
X333632Y401164D01*
X333645Y401179D01*
X333684Y401275D01*
X333727Y401369D01*
X333729Y401389D01*
X333737Y401407D01*
X333755Y401574D01*
X333755Y440806D01*
X348772Y455823D01*
X348825Y455897D01*
X348885Y455967D01*
X348897Y455997D01*
X348916Y456023D01*
X348943Y456110D01*
X348977Y456195D01*
X348981Y456236D01*
X348988Y456258D01*
X348987Y456290D01*
X348995Y456361D01*
X348995Y487938D01*
X348981Y488029D01*
X348973Y488119D01*
X348961Y488149D01*
X348956Y488181D01*
X348913Y488262D01*
X348877Y488346D01*
X348851Y488378D01*
X348840Y488399D01*
X348817Y488421D01*
X348772Y488477D01*
X345947Y491302D01*
X345947Y499298D01*
X351602Y504953D01*
X359598Y504953D01*
X365253Y499298D01*
X365253Y491302D01*
X359598Y485647D01*
X358902Y485647D01*
X358882Y485644D01*
X358863Y485646D01*
X358761Y485624D01*
X358659Y485608D01*
X358642Y485598D01*
X358622Y485594D01*
X358533Y485541D01*
X358442Y485492D01*
X358428Y485478D01*
X358411Y485468D01*
X358344Y485389D01*
X358272Y485314D01*
X358264Y485296D01*
X358251Y485281D01*
X358212Y485185D01*
X358169Y485091D01*
X358167Y485071D01*
X358159Y485053D01*
X358141Y484886D01*
X358141Y452258D01*
X351931Y446048D01*
X351889Y445990D01*
X351840Y445938D01*
X351818Y445891D01*
X351788Y445849D01*
X351766Y445780D01*
X351736Y445715D01*
X351731Y445663D01*
X351715Y445613D01*
X351717Y445542D01*
X351709Y445471D01*
X351720Y445420D01*
X351722Y445368D01*
X351746Y445300D01*
X351761Y445230D01*
X351788Y445185D01*
X351806Y445137D01*
X351851Y445081D01*
X351888Y445019D01*
X351927Y444985D01*
X351960Y444945D01*
X352020Y444906D01*
X352074Y444859D01*
X352123Y444840D01*
X352167Y444812D01*
X352236Y444794D01*
X352303Y444767D01*
X352374Y444759D01*
X352405Y444751D01*
X352428Y444753D01*
X352469Y444749D01*
X358733Y444749D01*
X364521Y442351D01*
X368951Y437921D01*
X371349Y432133D01*
X371349Y425867D01*
X368951Y420079D01*
X364521Y415649D01*
X358733Y413251D01*
X352467Y413251D01*
X346679Y415649D01*
X344200Y418128D01*
X344142Y418170D01*
X344090Y418219D01*
X344043Y418241D01*
X344001Y418271D01*
X343932Y418292D01*
X343867Y418323D01*
X343815Y418328D01*
X343765Y418344D01*
X343694Y418342D01*
X343623Y418350D01*
X343572Y418339D01*
X343520Y418337D01*
X343452Y418313D01*
X343382Y418297D01*
X343337Y418271D01*
X343289Y418253D01*
X343233Y418208D01*
X343171Y418171D01*
X343137Y418132D01*
X343097Y418099D01*
X343058Y418039D01*
X343011Y417984D01*
X342992Y417936D01*
X342964Y417892D01*
X342946Y417823D01*
X342919Y417756D01*
X342911Y417685D01*
X342903Y417654D01*
X342905Y417630D01*
X342901Y417589D01*
X342901Y398449D01*
X342915Y398359D01*
X342923Y398268D01*
X342935Y398239D01*
X342940Y398207D01*
X342983Y398126D01*
X343019Y398042D01*
X343045Y398010D01*
X343056Y397989D01*
X343079Y397967D01*
X343124Y397911D01*
X344418Y396616D01*
X344497Y396560D01*
X344573Y396497D01*
X344597Y396488D01*
X344618Y396473D01*
X344711Y396444D01*
X344802Y396409D01*
X344828Y396408D01*
X344853Y396400D01*
X344950Y396403D01*
X345048Y396399D01*
X345073Y396406D01*
X345099Y396407D01*
X345191Y396440D01*
X345284Y396467D01*
X345306Y396482D01*
X345330Y396491D01*
X345406Y396552D01*
X345486Y396608D01*
X345502Y396629D01*
X345522Y396645D01*
X345575Y396727D01*
X345633Y396805D01*
X345641Y396830D01*
X345655Y396852D01*
X345679Y396946D01*
X345709Y397039D01*
X345709Y397065D01*
X345715Y397090D01*
X345708Y397187D01*
X345707Y397285D01*
X345698Y397316D01*
X345696Y397336D01*
X345683Y397366D01*
X345660Y397446D01*
X345439Y397979D01*
X345439Y402021D01*
X346986Y405756D01*
X349844Y408614D01*
X353579Y410161D01*
X357621Y410161D01*
X361356Y408614D01*
X364214Y405756D01*
X365761Y402021D01*
X365761Y397979D01*
X364214Y394244D01*
X361356Y391386D01*
X360914Y391203D01*
X360853Y391166D01*
X360788Y391136D01*
X360749Y391101D01*
X360705Y391074D01*
X360659Y391019D01*
X360607Y390970D01*
X360581Y390924D01*
X360548Y390884D01*
X360523Y390817D01*
X360488Y390754D01*
X360479Y390703D01*
X360460Y390655D01*
X360457Y390583D01*
X360444Y390512D01*
X360452Y390461D01*
X360450Y390409D01*
X360470Y390340D01*
X360480Y390269D01*
X360504Y390223D01*
X360518Y390173D01*
X360559Y390114D01*
X360592Y390050D01*
X360629Y390013D01*
X360658Y389971D01*
X360716Y389928D01*
X360767Y389878D01*
X360830Y389843D01*
X360856Y389824D01*
X360878Y389817D01*
X360914Y389797D01*
X361356Y389614D01*
X364214Y386756D01*
X365761Y383021D01*
X365761Y378979D01*
X364214Y375244D01*
X361356Y372386D01*
X359707Y371703D01*
X359646Y371665D01*
X359581Y371636D01*
X359542Y371601D01*
X359498Y371574D01*
X359452Y371518D01*
X359399Y371470D01*
X359374Y371424D01*
X359341Y371384D01*
X359315Y371317D01*
X359281Y371254D01*
X359272Y371203D01*
X359253Y371155D01*
X359250Y371083D01*
X359237Y371012D01*
X359245Y370961D01*
X359243Y370909D01*
X359263Y370840D01*
X359273Y370769D01*
X359297Y370723D01*
X359311Y370673D01*
X359352Y370614D01*
X359384Y370550D01*
X359422Y370513D01*
X359451Y370471D01*
X359509Y370428D01*
X359560Y370378D01*
X359612Y370349D01*
X359620Y370342D01*
X359628Y370339D01*
X359649Y370324D01*
X359671Y370317D01*
X359707Y370297D01*
X361356Y369614D01*
X364214Y366756D01*
X365761Y363021D01*
X365761Y358979D01*
X364214Y355244D01*
X361356Y352386D01*
X357621Y350839D01*
X353579Y350839D01*
X352374Y351338D01*
X352260Y351365D01*
X352147Y351394D01*
X352140Y351393D01*
X352134Y351395D01*
X352018Y351384D01*
X351902Y351375D01*
X351896Y351372D01*
X351889Y351372D01*
X351782Y351324D01*
X351675Y351278D01*
X351669Y351274D01*
X351665Y351272D01*
X351651Y351259D01*
X351544Y351173D01*
X349458Y349088D01*
X349402Y349009D01*
X349339Y348933D01*
X349330Y348909D01*
X349315Y348888D01*
X349286Y348795D01*
X349251Y348704D01*
X349250Y348678D01*
X349242Y348653D01*
X349245Y348555D01*
X349241Y348458D01*
X349248Y348433D01*
X349249Y348407D01*
X349282Y348315D01*
X349309Y348222D01*
X349324Y348201D01*
X349333Y348176D01*
X349394Y348100D01*
X349450Y348020D01*
X349471Y348004D01*
X349487Y347984D01*
X349569Y347931D01*
X349647Y347873D01*
X349672Y347865D01*
X349694Y347851D01*
X349788Y347827D01*
X349881Y347797D01*
X349907Y347797D01*
X349932Y347791D01*
X350029Y347798D01*
X350127Y347799D01*
X350158Y347808D01*
X350178Y347810D01*
X350208Y347823D01*
X350288Y347846D01*
X352467Y348749D01*
X358733Y348749D01*
X364521Y346351D01*
X368951Y341921D01*
X371349Y336133D01*
X371349Y329867D01*
X368951Y324079D01*
X364521Y319649D01*
X358733Y317251D01*
X352467Y317251D01*
X346679Y319649D01*
X342249Y324079D01*
X339851Y329867D01*
X339851Y336133D01*
X340754Y338312D01*
X340776Y338407D01*
X340805Y338500D01*
X340804Y338526D01*
X340810Y338551D01*
X340801Y338648D01*
X340799Y338746D01*
X340790Y338770D01*
X340787Y338796D01*
X340747Y338885D01*
X340714Y338977D01*
X340698Y338997D01*
X340687Y339021D01*
X340621Y339093D01*
X340560Y339169D01*
X340538Y339183D01*
X340521Y339202D01*
X340435Y339249D01*
X340353Y339302D01*
X340328Y339308D01*
X340305Y339321D01*
X340209Y339338D01*
X340115Y339362D01*
X340089Y339360D01*
X340063Y339364D01*
X339967Y339350D01*
X339870Y339343D01*
X339846Y339333D01*
X339820Y339329D01*
X339733Y339284D01*
X339643Y339246D01*
X339618Y339226D01*
X339601Y339217D01*
X339577Y339194D01*
X339512Y339142D01*
X336774Y336403D01*
X336721Y336329D01*
X336661Y336259D01*
X336649Y336229D01*
X336630Y336203D01*
X336603Y336116D01*
X336569Y336031D01*
X336565Y335990D01*
X336558Y335968D01*
X336559Y335936D01*
X336551Y335865D01*
X336551Y304474D01*
X336565Y304384D01*
X336573Y304293D01*
X336585Y304263D01*
X336590Y304231D01*
X336633Y304151D01*
X336669Y304067D01*
X336695Y304035D01*
X336706Y304014D01*
X336729Y303992D01*
X336774Y303936D01*
X337169Y303540D01*
X337169Y303352D01*
X337174Y303324D01*
X337171Y303296D01*
X337193Y303203D01*
X337209Y303110D01*
X337222Y303085D01*
X337229Y303057D01*
X337310Y302911D01*
X337419Y302757D01*
X337180Y301328D01*
X337179Y301295D01*
X337169Y301202D01*
X337169Y300632D01*
X337184Y300542D01*
X337191Y300451D01*
X337204Y300421D01*
X337209Y300389D01*
X337252Y300309D01*
X337287Y300225D01*
X337313Y300193D01*
X337324Y300172D01*
X337347Y300150D01*
X337392Y300094D01*
X338983Y298503D01*
X340704Y294348D01*
X340704Y289852D01*
X338983Y285697D01*
X335803Y282517D01*
X334443Y281954D01*
X334343Y281892D01*
X334243Y281832D01*
X334239Y281827D01*
X334234Y281824D01*
X334159Y281734D01*
X334083Y281645D01*
X334081Y281639D01*
X334077Y281635D01*
X334035Y281527D01*
X333991Y281417D01*
X333990Y281410D01*
X333989Y281405D01*
X333988Y281387D01*
X333973Y281250D01*
X333973Y277129D01*
X333975Y277116D01*
X333973Y277103D01*
X333995Y276995D01*
X334012Y276886D01*
X334019Y276875D01*
X334021Y276862D01*
X334076Y276766D01*
X334128Y276669D01*
X334137Y276660D01*
X334144Y276648D01*
X334226Y276575D01*
X334306Y276499D01*
X334318Y276494D01*
X334328Y276485D01*
X334478Y276412D01*
X335946Y275889D01*
X335992Y275881D01*
X336035Y275863D01*
X336169Y275848D01*
X336188Y275845D01*
X336194Y275846D01*
X336202Y275845D01*
X337174Y275845D01*
X337664Y275355D01*
X337732Y275306D01*
X337796Y275250D01*
X337842Y275227D01*
X337864Y275212D01*
X337892Y275203D01*
X337947Y275176D01*
X338599Y274944D01*
X339016Y274065D01*
X339042Y274027D01*
X339060Y273984D01*
X339145Y273879D01*
X339156Y273863D01*
X339160Y273860D01*
X339165Y273854D01*
X339853Y273166D01*
X339853Y272474D01*
X339866Y272390D01*
X339871Y272306D01*
X339888Y272258D01*
X339892Y272231D01*
X339907Y272204D01*
X339926Y272147D01*
X340223Y271521D01*
X339897Y270606D01*
X339889Y270560D01*
X339871Y270517D01*
X339856Y270383D01*
X339853Y270364D01*
X339854Y270358D01*
X339853Y270350D01*
X339853Y265430D01*
X339856Y265410D01*
X339854Y265391D01*
X339876Y265289D01*
X339892Y265187D01*
X339902Y265170D01*
X339906Y265150D01*
X339959Y265061D01*
X340008Y264970D01*
X340022Y264956D01*
X340032Y264939D01*
X340111Y264872D01*
X340186Y264800D01*
X340204Y264792D01*
X340219Y264779D01*
X340315Y264740D01*
X340409Y264697D01*
X340429Y264695D01*
X340447Y264687D01*
X340614Y264669D01*
X349878Y264669D01*
X351664Y262883D01*
X351664Y240037D01*
X349878Y238251D01*
X283852Y238251D01*
X282066Y240037D01*
X282066Y262883D01*
X283852Y264669D01*
X329946Y264669D01*
X329966Y264672D01*
X329985Y264670D01*
X330087Y264692D01*
X330189Y264708D01*
X330206Y264718D01*
X330226Y264722D01*
X330315Y264775D01*
X330406Y264824D01*
X330420Y264838D01*
X330437Y264848D01*
X330504Y264927D01*
X330576Y265002D01*
X330584Y265020D01*
X330597Y265035D01*
X330636Y265131D01*
X330679Y265225D01*
X330681Y265245D01*
X330689Y265263D01*
X330707Y265430D01*
X330707Y267510D01*
X330705Y267523D01*
X330707Y267536D01*
X330685Y267644D01*
X330668Y267753D01*
X330661Y267764D01*
X330659Y267777D01*
X330604Y267873D01*
X330552Y267970D01*
X330543Y267979D01*
X330536Y267991D01*
X330454Y268064D01*
X330374Y268140D01*
X330362Y268145D01*
X330352Y268154D01*
X330202Y268227D01*
X328734Y268750D01*
X328688Y268758D01*
X328645Y268776D01*
X328511Y268791D01*
X328492Y268794D01*
X328486Y268793D01*
X328478Y268794D01*
X327506Y268794D01*
X327016Y269284D01*
X326948Y269333D01*
X326884Y269389D01*
X326838Y269412D01*
X326816Y269428D01*
X326788Y269436D01*
X326733Y269463D01*
X326081Y269695D01*
X325664Y270574D01*
X325638Y270612D01*
X325620Y270655D01*
X325535Y270760D01*
X325524Y270776D01*
X325520Y270779D01*
X325515Y270785D01*
X324827Y271473D01*
X324827Y272166D01*
X324814Y272249D01*
X324809Y272333D01*
X324792Y272381D01*
X324788Y272408D01*
X324773Y272435D01*
X324754Y272492D01*
X324457Y273118D01*
X324783Y274033D01*
X324791Y274079D01*
X324809Y274122D01*
X324824Y274256D01*
X324827Y274275D01*
X324826Y274281D01*
X324827Y274289D01*
X324827Y281250D01*
X324808Y281365D01*
X324791Y281481D01*
X324789Y281487D01*
X324788Y281493D01*
X324733Y281596D01*
X324680Y281701D01*
X324675Y281705D01*
X324672Y281710D01*
X324588Y281790D01*
X324504Y281873D01*
X324498Y281876D01*
X324494Y281880D01*
X324477Y281888D01*
X324357Y281954D01*
X322997Y282517D01*
X319817Y285697D01*
X318096Y289852D01*
X318096Y294348D01*
X319817Y298503D01*
X322997Y301683D01*
X326935Y303314D01*
X327035Y303376D01*
X327135Y303436D01*
X327139Y303440D01*
X327144Y303444D01*
X327219Y303533D01*
X327295Y303623D01*
X327297Y303628D01*
X327301Y303633D01*
X327343Y303741D01*
X327387Y303851D01*
X327388Y303858D01*
X327389Y303863D01*
X327390Y303881D01*
X327405Y304017D01*
X327405Y339968D01*
X345366Y357929D01*
X345433Y358023D01*
X345504Y358117D01*
X345506Y358123D01*
X345509Y358128D01*
X345544Y358240D01*
X345580Y358351D01*
X345580Y358357D01*
X345582Y358363D01*
X345579Y358480D01*
X345577Y358597D01*
X345575Y358604D01*
X345575Y358609D01*
X345569Y358627D01*
X345531Y358758D01*
X345439Y358979D01*
X345439Y363021D01*
X346986Y366756D01*
X349844Y369614D01*
X351493Y370297D01*
X351554Y370335D01*
X351619Y370364D01*
X351643Y370386D01*
X351645Y370387D01*
X351651Y370393D01*
X351658Y370399D01*
X351702Y370426D01*
X351748Y370482D01*
X351801Y370530D01*
X351826Y370576D01*
X351859Y370616D01*
X351885Y370683D01*
X351919Y370746D01*
X351928Y370797D01*
X351947Y370845D01*
X351950Y370917D01*
X351963Y370988D01*
X351955Y371039D01*
X351957Y371091D01*
X351937Y371160D01*
X351927Y371231D01*
X351903Y371277D01*
X351889Y371327D01*
X351848Y371386D01*
X351816Y371450D01*
X351778Y371487D01*
X351749Y371529D01*
X351691Y371572D01*
X351640Y371622D01*
X351577Y371657D01*
X351551Y371676D01*
X351529Y371683D01*
X351493Y371703D01*
X349844Y372386D01*
X346986Y375244D01*
X345439Y378979D01*
X345439Y382347D01*
X345425Y382437D01*
X345417Y382528D01*
X345405Y382557D01*
X345400Y382589D01*
X345357Y382670D01*
X345321Y382754D01*
X345295Y382786D01*
X345284Y382807D01*
X345261Y382829D01*
X345216Y382885D01*
X336657Y391444D01*
X336583Y391497D01*
X336513Y391557D01*
X336483Y391569D01*
X336457Y391588D01*
X336370Y391615D01*
X336285Y391649D01*
X336244Y391653D01*
X336222Y391660D01*
X336190Y391659D01*
X336119Y391667D01*
X294908Y391667D01*
X294837Y391656D01*
X294765Y391654D01*
X294716Y391636D01*
X294665Y391628D01*
X294602Y391594D01*
X294534Y391569D01*
X294494Y391537D01*
X294447Y391512D01*
X294398Y391460D01*
X294342Y391416D01*
X294314Y391372D01*
X294278Y391334D01*
X294248Y391269D01*
X294209Y391209D01*
X294196Y391158D01*
X294174Y391111D01*
X294167Y391040D01*
X294149Y390970D01*
X294153Y390918D01*
X294147Y390867D01*
X294163Y390796D01*
X294168Y390725D01*
X294189Y390677D01*
X294200Y390626D01*
X294236Y390565D01*
X294265Y390499D01*
X294309Y390443D01*
X294326Y390415D01*
X294344Y390400D01*
X294369Y390368D01*
X299213Y385524D01*
X299213Y382523D01*
X289052Y382523D01*
X289032Y382520D01*
X289013Y382522D01*
X288911Y382500D01*
X288809Y382483D01*
X288792Y382474D01*
X288772Y382470D01*
X288683Y382417D01*
X288592Y382368D01*
X288578Y382354D01*
X288561Y382344D01*
X288494Y382265D01*
X288423Y382190D01*
X288414Y382172D01*
X288401Y382157D01*
X288363Y382061D01*
X288319Y381967D01*
X288317Y381947D01*
X288309Y381929D01*
X288291Y381762D01*
X288291Y380999D01*
X287528Y380999D01*
X287508Y380996D01*
X287489Y380998D01*
X287387Y380976D01*
X287285Y380959D01*
X287268Y380950D01*
X287248Y380946D01*
X287159Y380893D01*
X287068Y380844D01*
X287054Y380830D01*
X287037Y380820D01*
X286970Y380741D01*
X286899Y380666D01*
X286890Y380648D01*
X286877Y380633D01*
X286838Y380537D01*
X286795Y380443D01*
X286793Y380423D01*
X286785Y380405D01*
X286767Y380238D01*
X286767Y370077D01*
X283766Y370077D01*
X278392Y375450D01*
X278376Y375462D01*
X278364Y375478D01*
X278277Y375534D01*
X278193Y375594D01*
X278174Y375600D01*
X278157Y375611D01*
X278056Y375636D01*
X277958Y375666D01*
X277938Y375666D01*
X277918Y375671D01*
X277815Y375663D01*
X277712Y375660D01*
X277693Y375653D01*
X277673Y375652D01*
X277578Y375611D01*
X277481Y375576D01*
X277465Y375563D01*
X277447Y375555D01*
X277316Y375450D01*
X273020Y371154D01*
X272967Y371080D01*
X272907Y371011D01*
X272895Y370981D01*
X272876Y370954D01*
X272849Y370868D01*
X272815Y370783D01*
X272811Y370742D01*
X272804Y370719D01*
X272805Y370687D01*
X272797Y370616D01*
X272797Y340584D01*
X272811Y340494D01*
X272819Y340403D01*
X272831Y340373D01*
X272836Y340341D01*
X272879Y340261D01*
X272915Y340177D01*
X272941Y340145D01*
X272952Y340124D01*
X272975Y340102D01*
X273020Y340046D01*
X277316Y335750D01*
X277332Y335738D01*
X277345Y335722D01*
X277432Y335666D01*
X277516Y335606D01*
X277535Y335600D01*
X277551Y335589D01*
X277652Y335564D01*
X277751Y335534D01*
X277771Y335534D01*
X277790Y335529D01*
X277893Y335537D01*
X277997Y335540D01*
X278015Y335547D01*
X278035Y335548D01*
X278130Y335589D01*
X278228Y335624D01*
X278243Y335637D01*
X278262Y335645D01*
X278392Y335750D01*
X283766Y341123D01*
X286767Y341123D01*
X286767Y330962D01*
X286770Y330942D01*
X286768Y330923D01*
X286790Y330821D01*
X286807Y330719D01*
X286816Y330702D01*
X286820Y330682D01*
X286873Y330593D01*
X286922Y330502D01*
X286936Y330488D01*
X286946Y330471D01*
X287025Y330404D01*
X287100Y330333D01*
X287118Y330324D01*
X287133Y330311D01*
X287229Y330273D01*
X287323Y330229D01*
X287343Y330227D01*
X287361Y330219D01*
X287528Y330201D01*
X288291Y330201D01*
X288291Y330199D01*
X287528Y330199D01*
X287508Y330196D01*
X287489Y330198D01*
X287387Y330176D01*
X287285Y330159D01*
X287268Y330150D01*
X287248Y330146D01*
X287159Y330093D01*
X287068Y330044D01*
X287054Y330030D01*
X287037Y330020D01*
X286970Y329941D01*
X286899Y329866D01*
X286890Y329848D01*
X286877Y329833D01*
X286838Y329737D01*
X286795Y329643D01*
X286793Y329623D01*
X286785Y329605D01*
X286767Y329438D01*
X286767Y319277D01*
X283766Y319277D01*
X278392Y324650D01*
X278376Y324662D01*
X278364Y324678D01*
X278277Y324734D01*
X278193Y324794D01*
X278174Y324800D01*
X278157Y324811D01*
X278056Y324836D01*
X277958Y324866D01*
X277938Y324866D01*
X277918Y324871D01*
X277815Y324863D01*
X277712Y324860D01*
X277693Y324853D01*
X277673Y324852D01*
X277578Y324811D01*
X277481Y324776D01*
X277465Y324763D01*
X277447Y324755D01*
X277316Y324650D01*
X271496Y318830D01*
X271443Y318756D01*
X271383Y318687D01*
X271371Y318657D01*
X271352Y318630D01*
X271325Y318544D01*
X271291Y318459D01*
X271287Y318418D01*
X271280Y318395D01*
X271281Y318363D01*
X271273Y318292D01*
X271273Y309256D01*
X268594Y306577D01*
X214884Y306577D01*
X214864Y306574D01*
X214845Y306576D01*
X214743Y306554D01*
X214641Y306538D01*
X214624Y306528D01*
X214604Y306524D01*
X214515Y306471D01*
X214424Y306422D01*
X214410Y306408D01*
X214393Y306398D01*
X214326Y306319D01*
X214254Y306244D01*
X214246Y306226D01*
X214233Y306211D01*
X214194Y306115D01*
X214151Y306021D01*
X214149Y306001D01*
X214141Y305983D01*
X214123Y305816D01*
X214123Y194956D01*
X205094Y185927D01*
X202862Y185927D01*
X202747Y185908D01*
X202631Y185891D01*
X202625Y185889D01*
X202619Y185888D01*
X202516Y185833D01*
X202412Y185780D01*
X202407Y185775D01*
X202402Y185772D01*
X202322Y185688D01*
X202239Y185604D01*
X202236Y185598D01*
X202232Y185594D01*
X202224Y185577D01*
X202158Y185457D01*
X201267Y183306D01*
X197694Y179733D01*
X194726Y178503D01*
X194665Y178465D01*
X194600Y178436D01*
X194561Y178401D01*
X194517Y178374D01*
X194471Y178318D01*
X194418Y178270D01*
X194393Y178224D01*
X194360Y178184D01*
X194334Y178117D01*
X194300Y178054D01*
X194291Y178003D01*
X194272Y177955D01*
X194269Y177883D01*
X194256Y177812D01*
X194264Y177761D01*
X194262Y177709D01*
X194281Y177640D01*
X194292Y177569D01*
X194316Y177523D01*
X194330Y177473D01*
X194371Y177414D01*
X194403Y177350D01*
X194441Y177313D01*
X194470Y177271D01*
X194528Y177228D01*
X194579Y177178D01*
X194642Y177143D01*
X194668Y177124D01*
X194690Y177117D01*
X194726Y177097D01*
X197694Y175867D01*
X201267Y172294D01*
X203201Y167626D01*
X203201Y162574D01*
X201267Y157906D01*
X197694Y154333D01*
X194726Y153103D01*
X194665Y153065D01*
X194600Y153036D01*
X194561Y153001D01*
X194517Y152974D01*
X194471Y152918D01*
X194418Y152870D01*
X194393Y152824D01*
X194360Y152784D01*
X194334Y152717D01*
X194300Y152654D01*
X194291Y152603D01*
X194272Y152555D01*
X194269Y152483D01*
X194256Y152412D01*
X194264Y152361D01*
X194262Y152309D01*
X194281Y152240D01*
X194292Y152169D01*
X194316Y152123D01*
X194330Y152073D01*
X194371Y152014D01*
X194403Y151950D01*
X194441Y151913D01*
X194470Y151871D01*
X194528Y151828D01*
X194579Y151778D01*
X194642Y151743D01*
X194668Y151724D01*
X194690Y151717D01*
X194726Y151697D01*
X197694Y150467D01*
X201267Y146894D01*
X203201Y142226D01*
X203201Y137174D01*
X201267Y132506D01*
X197694Y128933D01*
X194726Y127703D01*
X194665Y127665D01*
X194600Y127636D01*
X194561Y127601D01*
X194517Y127574D01*
X194471Y127518D01*
X194418Y127470D01*
X194393Y127424D01*
X194360Y127384D01*
X194334Y127317D01*
X194300Y127254D01*
X194291Y127203D01*
X194272Y127155D01*
X194269Y127083D01*
X194256Y127012D01*
X194264Y126961D01*
X194262Y126909D01*
X194281Y126840D01*
X194292Y126769D01*
X194316Y126723D01*
X194330Y126673D01*
X194371Y126614D01*
X194403Y126550D01*
X194441Y126513D01*
X194470Y126471D01*
X194528Y126428D01*
X194579Y126378D01*
X194642Y126343D01*
X194668Y126324D01*
X194690Y126317D01*
X194726Y126297D01*
X197694Y125067D01*
X201267Y121494D01*
X203201Y116826D01*
X203201Y111774D01*
X201267Y107106D01*
X197694Y103533D01*
X194726Y102303D01*
X194665Y102265D01*
X194600Y102236D01*
X194561Y102201D01*
X194517Y102174D01*
X194471Y102118D01*
X194418Y102070D01*
X194393Y102024D01*
X194360Y101984D01*
X194334Y101917D01*
X194300Y101854D01*
X194291Y101803D01*
X194272Y101755D01*
X194269Y101683D01*
X194256Y101612D01*
X194264Y101561D01*
X194262Y101509D01*
X194281Y101440D01*
X194292Y101369D01*
X194316Y101323D01*
X194330Y101273D01*
X194371Y101214D01*
X194403Y101150D01*
X194441Y101113D01*
X194470Y101071D01*
X194528Y101028D01*
X194579Y100978D01*
X194642Y100943D01*
X194668Y100924D01*
X194690Y100917D01*
X194726Y100897D01*
X197694Y99667D01*
X201267Y96094D01*
X203201Y91426D01*
X203201Y86374D01*
X201267Y81706D01*
X197694Y78133D01*
X194726Y76903D01*
X194665Y76865D01*
X194600Y76836D01*
X194561Y76801D01*
X194517Y76774D01*
X194471Y76718D01*
X194418Y76670D01*
X194393Y76624D01*
X194360Y76584D01*
X194334Y76517D01*
X194300Y76454D01*
X194291Y76403D01*
X194272Y76355D01*
X194269Y76283D01*
X194256Y76212D01*
X194264Y76161D01*
X194262Y76109D01*
X194281Y76040D01*
X194292Y75969D01*
X194316Y75923D01*
X194330Y75873D01*
X194371Y75814D01*
X194403Y75750D01*
X194441Y75713D01*
X194470Y75671D01*
X194528Y75628D01*
X194579Y75578D01*
X194642Y75543D01*
X194668Y75524D01*
X194690Y75517D01*
X194726Y75497D01*
X197694Y74267D01*
X201267Y70694D01*
X203201Y66026D01*
X203201Y60974D01*
X201267Y56306D01*
X197694Y52733D01*
X194726Y51503D01*
X194665Y51465D01*
X194600Y51436D01*
X194561Y51401D01*
X194517Y51374D01*
X194471Y51318D01*
X194418Y51270D01*
X194393Y51224D01*
X194360Y51184D01*
X194334Y51117D01*
X194300Y51054D01*
X194291Y51003D01*
X194272Y50955D01*
X194269Y50883D01*
X194256Y50812D01*
X194264Y50761D01*
X194262Y50709D01*
X194281Y50640D01*
X194292Y50569D01*
X194316Y50523D01*
X194330Y50473D01*
X194371Y50414D01*
X194403Y50350D01*
X194441Y50313D01*
X194470Y50271D01*
X194528Y50228D01*
X194579Y50178D01*
X194642Y50143D01*
X194668Y50124D01*
X194690Y50117D01*
X194726Y50097D01*
X197694Y48867D01*
X201267Y45294D01*
X203201Y40626D01*
X203201Y35574D01*
X201267Y30906D01*
X197694Y27333D01*
X193026Y25399D01*
X187974Y25399D01*
X183306Y27333D01*
X179733Y30906D01*
X177799Y35574D01*
X177799Y40626D01*
X179733Y45294D01*
X183306Y48867D01*
X186274Y50097D01*
X186335Y50135D01*
X186400Y50164D01*
X186439Y50199D01*
X186483Y50226D01*
X186529Y50282D01*
X186582Y50330D01*
X186607Y50376D01*
X186640Y50416D01*
X186666Y50483D01*
X186700Y50546D01*
X186709Y50597D01*
X186728Y50645D01*
X186731Y50717D01*
X186744Y50788D01*
X186736Y50839D01*
X186738Y50891D01*
X186719Y50960D01*
X186708Y51031D01*
X186684Y51077D01*
X186670Y51127D01*
X186629Y51186D01*
X186597Y51250D01*
X186559Y51287D01*
X186530Y51329D01*
X186472Y51372D01*
X186421Y51422D01*
X186358Y51457D01*
X186332Y51476D01*
X186310Y51483D01*
X186274Y51503D01*
X183306Y52733D01*
X179733Y56306D01*
X177799Y60974D01*
X177799Y66026D01*
X179733Y70694D01*
X183306Y74267D01*
X186274Y75497D01*
X186335Y75535D01*
X186400Y75564D01*
X186439Y75599D01*
X186483Y75626D01*
X186529Y75682D01*
X186582Y75730D01*
X186607Y75776D01*
X186640Y75816D01*
X186666Y75883D01*
X186700Y75946D01*
X186709Y75997D01*
X186728Y76045D01*
X186731Y76117D01*
X186744Y76188D01*
X186736Y76239D01*
X186738Y76291D01*
X186719Y76360D01*
X186708Y76431D01*
X186684Y76477D01*
X186670Y76527D01*
X186629Y76586D01*
X186597Y76650D01*
X186559Y76687D01*
X186530Y76729D01*
X186472Y76772D01*
X186421Y76822D01*
X186358Y76857D01*
X186332Y76876D01*
X186310Y76883D01*
X186274Y76903D01*
X183306Y78133D01*
X179733Y81706D01*
X177799Y86374D01*
X177799Y91426D01*
X179733Y96094D01*
X183306Y99667D01*
X186274Y100897D01*
X186335Y100935D01*
X186400Y100964D01*
X186439Y100999D01*
X186483Y101026D01*
X186529Y101082D01*
X186582Y101130D01*
X186607Y101176D01*
X186640Y101216D01*
X186666Y101283D01*
X186700Y101346D01*
X186709Y101397D01*
X186728Y101445D01*
X186731Y101517D01*
X186744Y101588D01*
X186736Y101639D01*
X186738Y101691D01*
X186719Y101760D01*
X186708Y101831D01*
X186684Y101877D01*
X186670Y101927D01*
X186629Y101986D01*
X186597Y102050D01*
X186559Y102087D01*
X186530Y102129D01*
X186472Y102172D01*
X186421Y102222D01*
X186358Y102257D01*
X186332Y102276D01*
X186310Y102283D01*
X186274Y102303D01*
X183306Y103533D01*
X179733Y107106D01*
X177799Y111774D01*
X177799Y116826D01*
X179733Y121494D01*
X183306Y125067D01*
X186274Y126297D01*
X186335Y126335D01*
X186400Y126364D01*
X186439Y126399D01*
X186483Y126426D01*
X186529Y126482D01*
X186582Y126530D01*
X186607Y126576D01*
X186640Y126616D01*
X186666Y126683D01*
X186700Y126746D01*
X186709Y126797D01*
X186728Y126845D01*
X186731Y126917D01*
X186744Y126988D01*
X186736Y127039D01*
X186738Y127091D01*
X186719Y127160D01*
X186708Y127231D01*
X186684Y127277D01*
X186670Y127327D01*
X186629Y127386D01*
X186597Y127450D01*
X186559Y127487D01*
X186530Y127529D01*
X186472Y127572D01*
X186421Y127622D01*
X186358Y127657D01*
X186332Y127676D01*
X186310Y127683D01*
X186274Y127703D01*
X183306Y128933D01*
X179733Y132506D01*
X178631Y135165D01*
X178570Y135265D01*
X178510Y135365D01*
X178505Y135369D01*
X178502Y135374D01*
X178411Y135449D01*
X178323Y135525D01*
X178317Y135527D01*
X178312Y135531D01*
X178204Y135573D01*
X178095Y135617D01*
X178087Y135618D01*
X178082Y135619D01*
X178064Y135620D01*
X177928Y135635D01*
X163791Y135635D01*
X163677Y135616D01*
X163560Y135599D01*
X163555Y135597D01*
X163549Y135596D01*
X163446Y135541D01*
X163341Y135488D01*
X163337Y135483D01*
X163331Y135480D01*
X163251Y135396D01*
X163169Y135312D01*
X163165Y135306D01*
X163162Y135302D01*
X163154Y135285D01*
X163088Y135165D01*
X161983Y132497D01*
X158803Y129317D01*
X154648Y127596D01*
X150152Y127596D01*
X145997Y129317D01*
X142817Y132497D01*
X141096Y136652D01*
X141096Y141148D01*
X141660Y142509D01*
X141686Y142622D01*
X141715Y142736D01*
X141714Y142742D01*
X141716Y142748D01*
X141705Y142865D01*
X141696Y142981D01*
X141693Y142987D01*
X141693Y142993D01*
X141645Y143100D01*
X141600Y143207D01*
X141595Y143213D01*
X141593Y143218D01*
X141580Y143232D01*
X141495Y143338D01*
X141477Y143356D01*
X141477Y197866D01*
X141474Y197886D01*
X141476Y197905D01*
X141454Y198007D01*
X141438Y198109D01*
X141428Y198126D01*
X141424Y198146D01*
X141371Y198235D01*
X141322Y198326D01*
X141308Y198340D01*
X141298Y198357D01*
X141219Y198424D01*
X141144Y198496D01*
X141126Y198504D01*
X141111Y198517D01*
X141015Y198556D01*
X140921Y198599D01*
X140901Y198601D01*
X140883Y198609D01*
X140716Y198627D01*
X130044Y198627D01*
X129953Y198613D01*
X129863Y198605D01*
X129833Y198593D01*
X129801Y198588D01*
X129720Y198545D01*
X129636Y198509D01*
X129604Y198483D01*
X129583Y198472D01*
X129561Y198449D01*
X129505Y198404D01*
X124648Y193547D01*
X116652Y193547D01*
X110997Y199202D01*
X110997Y207198D01*
X116652Y212853D01*
X124648Y212853D01*
X129505Y207996D01*
X129579Y207943D01*
X129649Y207883D01*
X129679Y207871D01*
X129705Y207852D01*
X129792Y207825D01*
X129877Y207791D01*
X129918Y207787D01*
X129940Y207780D01*
X129972Y207781D01*
X130044Y207773D01*
X147944Y207773D01*
X150623Y205094D01*
X150623Y150965D01*
X150624Y150956D01*
X150624Y150953D01*
X150626Y150943D01*
X150624Y150926D01*
X150646Y150824D01*
X150662Y150722D01*
X150672Y150705D01*
X150676Y150685D01*
X150729Y150596D01*
X150778Y150505D01*
X150792Y150491D01*
X150802Y150474D01*
X150881Y150407D01*
X150956Y150335D01*
X150974Y150327D01*
X150989Y150314D01*
X151085Y150275D01*
X151179Y150232D01*
X151199Y150230D01*
X151217Y150222D01*
X151384Y150204D01*
X154648Y150204D01*
X158803Y148483D01*
X161983Y145303D01*
X162004Y145251D01*
X162066Y145151D01*
X162126Y145051D01*
X162131Y145047D01*
X162134Y145042D01*
X162224Y144967D01*
X162313Y144891D01*
X162319Y144889D01*
X162324Y144885D01*
X162432Y144843D01*
X162541Y144799D01*
X162549Y144798D01*
X162553Y144797D01*
X162572Y144796D01*
X162708Y144781D01*
X178349Y144781D01*
X178463Y144800D01*
X178580Y144817D01*
X178585Y144819D01*
X178591Y144820D01*
X178694Y144875D01*
X178799Y144928D01*
X178803Y144933D01*
X178809Y144936D01*
X178889Y145020D01*
X178971Y145104D01*
X178975Y145110D01*
X178978Y145114D01*
X178986Y145131D01*
X179052Y145251D01*
X179733Y146894D01*
X183306Y150467D01*
X186274Y151697D01*
X186335Y151735D01*
X186400Y151764D01*
X186439Y151799D01*
X186483Y151826D01*
X186529Y151882D01*
X186582Y151930D01*
X186607Y151976D01*
X186640Y152016D01*
X186666Y152083D01*
X186700Y152146D01*
X186709Y152197D01*
X186728Y152245D01*
X186731Y152317D01*
X186744Y152388D01*
X186736Y152439D01*
X186738Y152491D01*
X186719Y152560D01*
X186708Y152631D01*
X186684Y152677D01*
X186670Y152727D01*
X186629Y152786D01*
X186597Y152850D01*
X186559Y152887D01*
X186530Y152929D01*
X186472Y152972D01*
X186421Y153022D01*
X186358Y153057D01*
X186332Y153076D01*
X186310Y153083D01*
X186274Y153103D01*
X183306Y154333D01*
X179733Y157906D01*
X177799Y162574D01*
X177799Y167626D01*
X179733Y172294D01*
X183306Y175867D01*
X186274Y177097D01*
X186335Y177135D01*
X186400Y177164D01*
X186439Y177199D01*
X186483Y177226D01*
X186529Y177282D01*
X186582Y177330D01*
X186607Y177376D01*
X186640Y177416D01*
X186666Y177483D01*
X186700Y177546D01*
X186709Y177597D01*
X186728Y177645D01*
X186731Y177717D01*
X186744Y177788D01*
X186736Y177839D01*
X186738Y177891D01*
X186719Y177960D01*
X186708Y178031D01*
X186684Y178077D01*
X186670Y178127D01*
X186629Y178186D01*
X186597Y178250D01*
X186559Y178287D01*
X186530Y178329D01*
X186472Y178372D01*
X186421Y178422D01*
X186358Y178457D01*
X186332Y178476D01*
X186310Y178483D01*
X186274Y178503D01*
X183306Y179733D01*
X179733Y183306D01*
X177799Y187974D01*
X177799Y193026D01*
X179733Y197694D01*
X183306Y201267D01*
X186274Y202497D01*
X186335Y202535D01*
X186400Y202564D01*
X186439Y202599D01*
X186483Y202626D01*
X186529Y202682D01*
X186582Y202730D01*
X186607Y202776D01*
X186640Y202816D01*
X186666Y202883D01*
X186700Y202946D01*
X186709Y202997D01*
X186728Y203045D01*
X186731Y203117D01*
X186744Y203188D01*
X186736Y203239D01*
X186738Y203291D01*
X186719Y203360D01*
X186708Y203431D01*
X186684Y203477D01*
X186670Y203527D01*
X186629Y203586D01*
X186597Y203650D01*
X186559Y203687D01*
X186530Y203729D01*
X186472Y203772D01*
X186421Y203822D01*
X186358Y203857D01*
X186332Y203876D01*
X186310Y203883D01*
X186274Y203903D01*
X183306Y205133D01*
X179733Y208706D01*
X177799Y213374D01*
X177799Y218426D01*
X179733Y223094D01*
X183306Y226667D01*
X186274Y227897D01*
X186335Y227935D01*
X186400Y227964D01*
X186439Y227999D01*
X186483Y228026D01*
X186529Y228082D01*
X186582Y228130D01*
X186607Y228176D01*
X186640Y228216D01*
X186666Y228283D01*
X186700Y228346D01*
X186709Y228397D01*
X186728Y228445D01*
X186731Y228517D01*
X186744Y228588D01*
X186736Y228639D01*
X186738Y228691D01*
X186719Y228760D01*
X186708Y228831D01*
X186684Y228877D01*
X186670Y228927D01*
X186629Y228986D01*
X186597Y229050D01*
X186559Y229087D01*
X186530Y229129D01*
X186472Y229172D01*
X186421Y229222D01*
X186358Y229257D01*
X186332Y229276D01*
X186310Y229283D01*
X186274Y229303D01*
X183306Y230533D01*
X179733Y234106D01*
X177799Y238774D01*
X177799Y243826D01*
X179733Y248494D01*
X183306Y252067D01*
X186274Y253297D01*
X186335Y253334D01*
X186400Y253364D01*
X186439Y253399D01*
X186483Y253426D01*
X186529Y253481D01*
X186582Y253530D01*
X186607Y253576D01*
X186640Y253616D01*
X186666Y253683D01*
X186700Y253746D01*
X186709Y253797D01*
X186728Y253845D01*
X186731Y253917D01*
X186744Y253988D01*
X186736Y254039D01*
X186738Y254091D01*
X186718Y254160D01*
X186708Y254231D01*
X186684Y254277D01*
X186670Y254327D01*
X186629Y254386D01*
X186597Y254450D01*
X186559Y254487D01*
X186530Y254529D01*
X186472Y254572D01*
X186421Y254622D01*
X186358Y254657D01*
X186332Y254676D01*
X186310Y254683D01*
X186274Y254703D01*
X183306Y255933D01*
X179733Y259506D01*
X177799Y264174D01*
X177799Y269226D01*
X179733Y273894D01*
X183306Y277467D01*
X186274Y278697D01*
X186335Y278735D01*
X186400Y278764D01*
X186439Y278799D01*
X186483Y278826D01*
X186529Y278882D01*
X186582Y278930D01*
X186607Y278976D01*
X186640Y279016D01*
X186666Y279083D01*
X186700Y279146D01*
X186709Y279197D01*
X186728Y279245D01*
X186731Y279317D01*
X186744Y279388D01*
X186736Y279439D01*
X186738Y279491D01*
X186718Y279560D01*
X186708Y279631D01*
X186684Y279677D01*
X186670Y279727D01*
X186629Y279786D01*
X186597Y279850D01*
X186559Y279887D01*
X186530Y279929D01*
X186472Y279972D01*
X186421Y280022D01*
X186358Y280057D01*
X186332Y280076D01*
X186310Y280083D01*
X186274Y280103D01*
X183306Y281333D01*
X179733Y284906D01*
X177799Y289574D01*
X177799Y294626D01*
X179674Y299152D01*
X179684Y299195D01*
X179701Y299231D01*
X179706Y299279D01*
X179725Y299340D01*
X179724Y299366D01*
X179730Y299391D01*
X179725Y299448D01*
X179728Y299475D01*
X179720Y299509D01*
X179718Y299586D01*
X179709Y299610D01*
X179707Y299636D01*
X179679Y299698D01*
X179675Y299716D01*
X179663Y299736D01*
X179634Y299817D01*
X179617Y299837D01*
X179607Y299861D01*
X179555Y299918D01*
X179549Y299927D01*
X179538Y299936D01*
X179480Y300009D01*
X179458Y300023D01*
X179440Y300042D01*
X179368Y300082D01*
X179362Y300087D01*
X179353Y300090D01*
X179273Y300142D01*
X179248Y300148D01*
X179225Y300161D01*
X179141Y300176D01*
X179134Y300179D01*
X179120Y300180D01*
X179035Y300202D01*
X179009Y300200D01*
X178983Y300204D01*
X178886Y300190D01*
X178789Y300182D01*
X178765Y300172D01*
X178740Y300168D01*
X178653Y300124D01*
X178563Y300086D01*
X178538Y300066D01*
X178520Y300057D01*
X178509Y300045D01*
X178503Y300042D01*
X178487Y300025D01*
X178432Y299981D01*
X100046Y221595D01*
X99993Y221521D01*
X99933Y221451D01*
X99921Y221421D01*
X99902Y221395D01*
X99875Y221308D01*
X99841Y221223D01*
X99837Y221182D01*
X99830Y221160D01*
X99831Y221128D01*
X99823Y221057D01*
X99823Y131456D01*
X86076Y117709D01*
X86023Y117635D01*
X85963Y117565D01*
X85951Y117535D01*
X85932Y117509D01*
X85905Y117422D01*
X85871Y117337D01*
X85867Y117296D01*
X85860Y117274D01*
X85861Y117242D01*
X85853Y117171D01*
X85853Y110302D01*
X80198Y104647D01*
X72202Y104647D01*
X66547Y110302D01*
X66547Y118298D01*
X72202Y123953D01*
X79071Y123953D01*
X79161Y123967D01*
X79252Y123975D01*
X79281Y123987D01*
X79313Y123992D01*
X79394Y124035D01*
X79478Y124071D01*
X79510Y124097D01*
X79531Y124108D01*
X79553Y124131D01*
X79609Y124176D01*
X90454Y135021D01*
X90507Y135095D01*
X90567Y135165D01*
X90579Y135195D01*
X90598Y135221D01*
X90625Y135308D01*
X90659Y135393D01*
X90663Y135434D01*
X90670Y135456D01*
X90669Y135488D01*
X90677Y135559D01*
X90677Y225160D01*
X178228Y312711D01*
X178296Y312806D01*
X178366Y312899D01*
X178368Y312905D01*
X178371Y312911D01*
X178406Y313022D01*
X178442Y313133D01*
X178442Y313140D01*
X178444Y313146D01*
X178441Y313262D01*
X178440Y313379D01*
X178438Y313386D01*
X178437Y313391D01*
X178431Y313409D01*
X178393Y313540D01*
X177799Y314974D01*
X177799Y320026D01*
X179733Y324694D01*
X183306Y328267D01*
X186274Y329497D01*
X186335Y329535D01*
X186400Y329564D01*
X186439Y329599D01*
X186483Y329626D01*
X186529Y329682D01*
X186582Y329730D01*
X186607Y329776D01*
X186640Y329816D01*
X186666Y329883D01*
X186700Y329946D01*
X186709Y329997D01*
X186728Y330045D01*
X186731Y330117D01*
X186744Y330188D01*
X186736Y330239D01*
X186738Y330291D01*
X186718Y330360D01*
X186708Y330431D01*
X186684Y330477D01*
X186670Y330527D01*
X186629Y330586D01*
X186597Y330650D01*
X186559Y330687D01*
X186530Y330729D01*
X186472Y330772D01*
X186421Y330822D01*
X186358Y330857D01*
X186332Y330876D01*
X186310Y330883D01*
X186274Y330903D01*
X183306Y332133D01*
X179733Y335706D01*
X177799Y340374D01*
X177799Y345426D01*
X179733Y350094D01*
X183306Y353667D01*
X187014Y355203D01*
X187101Y355257D01*
X187189Y355305D01*
X187204Y355321D01*
X187223Y355333D01*
X187288Y355411D01*
X187357Y355485D01*
X187366Y355505D01*
X187380Y355522D01*
X187416Y355617D01*
X187458Y355709D01*
X187460Y355731D01*
X187468Y355752D01*
X187473Y355853D01*
X187483Y355954D01*
X187478Y355976D01*
X187479Y355998D01*
X187450Y356095D01*
X187428Y356194D01*
X187416Y356213D01*
X187410Y356234D01*
X187352Y356317D01*
X187300Y356404D01*
X187283Y356418D01*
X187270Y356436D01*
X187189Y356496D01*
X187111Y356562D01*
X187086Y356573D01*
X187073Y356583D01*
X187041Y356593D01*
X186958Y356631D01*
X185820Y357001D01*
X184110Y357872D01*
X182557Y359000D01*
X181200Y360357D01*
X180072Y361910D01*
X179201Y363620D01*
X178607Y365445D01*
X178397Y366777D01*
X188977Y366777D01*
X188977Y356362D01*
X188980Y356342D01*
X188978Y356323D01*
X189000Y356221D01*
X189017Y356119D01*
X189026Y356102D01*
X189030Y356082D01*
X189083Y355993D01*
X189132Y355902D01*
X189146Y355888D01*
X189156Y355871D01*
X189235Y355804D01*
X189310Y355732D01*
X189328Y355724D01*
X189343Y355711D01*
X189439Y355672D01*
X189533Y355629D01*
X189553Y355627D01*
X189571Y355619D01*
X189738Y355601D01*
X191262Y355601D01*
X191282Y355604D01*
X191301Y355602D01*
X191403Y355624D01*
X191505Y355640D01*
X191522Y355650D01*
X191542Y355654D01*
X191631Y355707D01*
X191722Y355756D01*
X191736Y355770D01*
X191753Y355780D01*
X191820Y355859D01*
X191891Y355934D01*
X191900Y355952D01*
X191913Y355967D01*
X191952Y356063D01*
X191995Y356157D01*
X191997Y356177D01*
X192005Y356195D01*
X192023Y356362D01*
X192023Y366777D01*
X202603Y366777D01*
X202393Y365445D01*
X201799Y363620D01*
X200928Y361910D01*
X199800Y360357D01*
X198443Y359000D01*
X196890Y357872D01*
X195180Y357001D01*
X194042Y356631D01*
X193952Y356584D01*
X193859Y356543D01*
X193843Y356528D01*
X193823Y356518D01*
X193753Y356445D01*
X193678Y356377D01*
X193667Y356357D01*
X193652Y356341D01*
X193608Y356250D01*
X193560Y356161D01*
X193556Y356139D01*
X193546Y356119D01*
X193534Y356019D01*
X193516Y355919D01*
X193519Y355897D01*
X193516Y355875D01*
X193537Y355776D01*
X193552Y355676D01*
X193562Y355656D01*
X193566Y355634D01*
X193617Y355547D01*
X193663Y355456D01*
X193679Y355441D01*
X193690Y355422D01*
X193766Y355355D01*
X193839Y355284D01*
X193863Y355271D01*
X193875Y355260D01*
X193906Y355247D01*
X193986Y355203D01*
X197694Y353667D01*
X201267Y350094D01*
X203201Y345426D01*
X203201Y340374D01*
X201267Y335706D01*
X200618Y335056D01*
X200576Y334998D01*
X200527Y334946D01*
X200505Y334899D01*
X200474Y334857D01*
X200453Y334788D01*
X200423Y334723D01*
X200417Y334671D01*
X200402Y334621D01*
X200404Y334550D01*
X200396Y334479D01*
X200407Y334428D01*
X200408Y334376D01*
X200433Y334308D01*
X200448Y334238D01*
X200475Y334193D01*
X200493Y334145D01*
X200538Y334089D01*
X200574Y334027D01*
X200614Y333993D01*
X200646Y333953D01*
X200707Y333914D01*
X200761Y333867D01*
X200810Y333848D01*
X200853Y333820D01*
X200923Y333802D01*
X200989Y333775D01*
X201061Y333767D01*
X201092Y333759D01*
X201115Y333761D01*
X201156Y333757D01*
X232918Y333757D01*
X232938Y333760D01*
X232957Y333758D01*
X233059Y333780D01*
X233161Y333796D01*
X233178Y333806D01*
X233198Y333810D01*
X233287Y333863D01*
X233378Y333912D01*
X233392Y333926D01*
X233409Y333936D01*
X233476Y334015D01*
X233548Y334090D01*
X233556Y334108D01*
X233569Y334123D01*
X233608Y334219D01*
X233651Y334313D01*
X233653Y334333D01*
X233661Y334351D01*
X233679Y334518D01*
X233679Y334935D01*
X240375Y341631D01*
X249845Y341631D01*
X255367Y336109D01*
X255383Y336097D01*
X255395Y336082D01*
X255483Y336025D01*
X255566Y335965D01*
X255585Y335959D01*
X255602Y335949D01*
X255703Y335923D01*
X255802Y335893D01*
X255821Y335893D01*
X255841Y335889D01*
X255944Y335897D01*
X256047Y335899D01*
X256066Y335906D01*
X256086Y335908D01*
X256181Y335948D01*
X256278Y335984D01*
X256294Y335996D01*
X256312Y336004D01*
X256443Y336109D01*
X261965Y341631D01*
X262890Y341631D01*
X262910Y341634D01*
X262929Y341632D01*
X263031Y341654D01*
X263133Y341670D01*
X263150Y341680D01*
X263170Y341684D01*
X263259Y341737D01*
X263350Y341786D01*
X263364Y341800D01*
X263381Y341810D01*
X263448Y341889D01*
X263520Y341964D01*
X263528Y341982D01*
X263541Y341997D01*
X263580Y342093D01*
X263623Y342187D01*
X263625Y342207D01*
X263633Y342225D01*
X263651Y342392D01*
X263651Y368808D01*
X263648Y368828D01*
X263650Y368847D01*
X263628Y368949D01*
X263612Y369051D01*
X263602Y369068D01*
X263598Y369088D01*
X263545Y369177D01*
X263496Y369268D01*
X263482Y369282D01*
X263472Y369299D01*
X263393Y369366D01*
X263318Y369438D01*
X263300Y369446D01*
X263285Y369459D01*
X263189Y369498D01*
X263095Y369541D01*
X263075Y369543D01*
X263057Y369551D01*
X262890Y369569D01*
X261965Y369569D01*
X256443Y375091D01*
X256427Y375103D01*
X256415Y375118D01*
X256327Y375174D01*
X256244Y375235D01*
X256225Y375241D01*
X256208Y375251D01*
X256107Y375277D01*
X256008Y375307D01*
X255989Y375307D01*
X255969Y375311D01*
X255866Y375303D01*
X255763Y375301D01*
X255744Y375294D01*
X255724Y375292D01*
X255629Y375252D01*
X255532Y375216D01*
X255516Y375204D01*
X255498Y375196D01*
X255367Y375091D01*
X249845Y369569D01*
X240375Y369569D01*
X233679Y376265D01*
X233679Y385735D01*
X240314Y392370D01*
X240367Y392444D01*
X240427Y392513D01*
X240439Y392543D01*
X240458Y392570D01*
X240485Y392656D01*
X240519Y392741D01*
X240523Y392782D01*
X240530Y392805D01*
X240529Y392837D01*
X240537Y392908D01*
X240537Y419216D01*
X243439Y422118D01*
X257090Y435768D01*
X257101Y435784D01*
X257117Y435797D01*
X257173Y435884D01*
X257233Y435968D01*
X257239Y435987D01*
X257250Y436004D01*
X257275Y436104D01*
X257305Y436203D01*
X257305Y436223D01*
X257310Y436242D01*
X257302Y436345D01*
X257299Y436449D01*
X257292Y436468D01*
X257291Y436488D01*
X257250Y436582D01*
X257215Y436680D01*
X257202Y436696D01*
X257194Y436714D01*
X257174Y436739D01*
X257174Y452240D01*
X258960Y454026D01*
X274440Y454026D01*
X276226Y452240D01*
X276226Y449834D01*
X276229Y449814D01*
X276227Y449795D01*
X276249Y449693D01*
X276265Y449591D01*
X276275Y449574D01*
X276279Y449554D01*
X276332Y449465D01*
X276381Y449374D01*
X276395Y449360D01*
X276405Y449343D01*
X276484Y449276D01*
X276559Y449204D01*
X276577Y449196D01*
X276592Y449183D01*
X276688Y449144D01*
X276782Y449101D01*
X276802Y449099D01*
X276820Y449091D01*
X276987Y449073D01*
X286766Y449073D01*
X286786Y449076D01*
X286805Y449074D01*
X286907Y449096D01*
X287009Y449112D01*
X287026Y449122D01*
X287046Y449126D01*
X287135Y449179D01*
X287226Y449228D01*
X287240Y449242D01*
X287257Y449252D01*
X287324Y449331D01*
X287396Y449406D01*
X287404Y449424D01*
X287417Y449439D01*
X287456Y449535D01*
X287499Y449629D01*
X287501Y449649D01*
X287509Y449667D01*
X287527Y449834D01*
X287527Y462718D01*
X287516Y462789D01*
X287514Y462860D01*
X287496Y462909D01*
X287488Y462961D01*
X287454Y463024D01*
X287429Y463091D01*
X287397Y463132D01*
X287372Y463178D01*
X287320Y463228D01*
X287276Y463284D01*
X287232Y463312D01*
X287194Y463348D01*
X287129Y463378D01*
X287069Y463417D01*
X287018Y463429D01*
X286971Y463451D01*
X286900Y463459D01*
X286830Y463477D01*
X286778Y463473D01*
X286727Y463478D01*
X286656Y463463D01*
X286585Y463457D01*
X286537Y463437D01*
X286486Y463426D01*
X286425Y463389D01*
X286359Y463361D01*
X286303Y463316D01*
X286275Y463300D01*
X286260Y463282D01*
X286228Y463256D01*
X284796Y461824D01*
X281295Y460374D01*
X277505Y460374D01*
X274004Y461824D01*
X271324Y464504D01*
X269874Y468005D01*
X269874Y471795D01*
X271324Y475296D01*
X274004Y477976D01*
X275373Y478543D01*
X275473Y478604D01*
X275573Y478664D01*
X275577Y478669D01*
X275582Y478672D01*
X275657Y478762D01*
X275733Y478851D01*
X275735Y478857D01*
X275739Y478862D01*
X275781Y478970D01*
X275825Y479079D01*
X275826Y479087D01*
X275827Y479091D01*
X275828Y479110D01*
X275843Y479246D01*
X275843Y491490D01*
X275840Y491510D01*
X275842Y491529D01*
X275820Y491631D01*
X275804Y491733D01*
X275794Y491750D01*
X275790Y491770D01*
X275737Y491859D01*
X275688Y491950D01*
X275674Y491964D01*
X275664Y491981D01*
X275585Y492048D01*
X275510Y492120D01*
X275492Y492128D01*
X275477Y492141D01*
X275381Y492180D01*
X275287Y492223D01*
X275267Y492225D01*
X275249Y492233D01*
X275082Y492251D01*
X250582Y492251D01*
X236727Y506106D01*
X236727Y670891D01*
X236713Y670981D01*
X236705Y671072D01*
X236693Y671101D01*
X236688Y671133D01*
X236645Y671214D01*
X236609Y671298D01*
X236583Y671330D01*
X236572Y671351D01*
X236549Y671373D01*
X236504Y671429D01*
X226929Y681004D01*
X226855Y681057D01*
X226785Y681117D01*
X226755Y681129D01*
X226729Y681148D01*
X226642Y681175D01*
X226557Y681209D01*
X226516Y681213D01*
X226494Y681220D01*
X226462Y681219D01*
X226391Y681227D01*
X65385Y681227D01*
X65295Y681213D01*
X65204Y681205D01*
X65175Y681193D01*
X65143Y681188D01*
X65062Y681145D01*
X64978Y681109D01*
X64946Y681083D01*
X64925Y681072D01*
X64903Y681049D01*
X64847Y681004D01*
X52802Y668959D01*
X52749Y668885D01*
X52689Y668815D01*
X52677Y668785D01*
X52658Y668759D01*
X52631Y668672D01*
X52597Y668587D01*
X52593Y668546D01*
X52586Y668524D01*
X52587Y668492D01*
X52579Y668421D01*
X52579Y668149D01*
X52570Y668070D01*
X52563Y668038D01*
X52564Y668019D01*
X52561Y667986D01*
X52561Y667979D01*
X51014Y664244D01*
X48156Y661386D01*
X46760Y660808D01*
X46699Y660770D01*
X46633Y660741D01*
X46595Y660706D01*
X46551Y660678D01*
X46505Y660623D01*
X46452Y660575D01*
X46427Y660529D01*
X46394Y660489D01*
X46368Y660422D01*
X46334Y660359D01*
X46324Y660308D01*
X46306Y660259D01*
X46303Y660188D01*
X46290Y660117D01*
X46298Y660066D01*
X46295Y660014D01*
X46315Y659945D01*
X46326Y659874D01*
X46349Y659827D01*
X46364Y659777D01*
X46405Y659719D01*
X46437Y659655D01*
X46474Y659618D01*
X46504Y659575D01*
X46562Y659533D01*
X46613Y659482D01*
X46676Y659448D01*
X46702Y659429D01*
X46724Y659421D01*
X46760Y659401D01*
X48174Y658816D01*
X51032Y655958D01*
X52579Y652223D01*
X52579Y648149D01*
X52570Y648070D01*
X52563Y648038D01*
X52564Y648019D01*
X52561Y647986D01*
X52561Y647979D01*
X52118Y646910D01*
X52091Y646796D01*
X52063Y646682D01*
X52063Y646676D01*
X52062Y646670D01*
X52073Y646554D01*
X52082Y646437D01*
X52084Y646432D01*
X52085Y646425D01*
X52133Y646318D01*
X52178Y646211D01*
X52183Y646205D01*
X52185Y646201D01*
X52197Y646187D01*
X52283Y646080D01*
X77871Y620492D01*
X80773Y617590D01*
X80773Y466594D01*
X80787Y466504D01*
X80795Y466413D01*
X80807Y466383D01*
X80812Y466351D01*
X80855Y466270D01*
X80891Y466186D01*
X80917Y466154D01*
X80928Y466133D01*
X80951Y466111D01*
X80996Y466055D01*
X85055Y461996D01*
X85129Y461943D01*
X85199Y461883D01*
X85229Y461871D01*
X85255Y461852D01*
X85342Y461825D01*
X85427Y461791D01*
X85468Y461787D01*
X85490Y461780D01*
X85522Y461781D01*
X85594Y461773D01*
X130306Y461773D01*
X130396Y461787D01*
X130487Y461795D01*
X130517Y461807D01*
X130549Y461812D01*
X130630Y461855D01*
X130714Y461891D01*
X130746Y461917D01*
X130767Y461928D01*
X130789Y461951D01*
X130845Y461996D01*
X135702Y466853D01*
X143698Y466853D01*
X149353Y461198D01*
X149353Y453202D01*
X143698Y447547D01*
X135702Y447547D01*
X130845Y452404D01*
X130771Y452457D01*
X130701Y452517D01*
X130671Y452529D01*
X130645Y452548D01*
X130558Y452575D01*
X130473Y452609D01*
X130432Y452613D01*
X130410Y452620D01*
X130378Y452619D01*
X130306Y452627D01*
X85594Y452627D01*
X85504Y452613D01*
X85413Y452605D01*
X85383Y452593D01*
X85351Y452588D01*
X85270Y452545D01*
X85186Y452509D01*
X85154Y452483D01*
X85133Y452472D01*
X85111Y452449D01*
X85055Y452404D01*
X80198Y447547D01*
X72202Y447547D01*
X66547Y453202D01*
X66547Y461198D01*
X71404Y466055D01*
X71457Y466129D01*
X71517Y466199D01*
X71529Y466229D01*
X71548Y466255D01*
X71575Y466342D01*
X71609Y466427D01*
X71613Y466468D01*
X71620Y466490D01*
X71619Y466522D01*
X71627Y466594D01*
X71627Y613487D01*
X71613Y613577D01*
X71605Y613668D01*
X71593Y613697D01*
X71588Y613729D01*
X71545Y613810D01*
X71509Y613894D01*
X71483Y613926D01*
X71472Y613947D01*
X71449Y613969D01*
X71404Y614025D01*
X53878Y631551D01*
X53820Y631593D01*
X53768Y631642D01*
X53721Y631664D01*
X53679Y631694D01*
X53610Y631716D01*
X53545Y631746D01*
X53493Y631752D01*
X53443Y631767D01*
X53372Y631765D01*
X53301Y631773D01*
X53250Y631762D01*
X53198Y631760D01*
X53130Y631736D01*
X53060Y631721D01*
X53015Y631694D01*
X52967Y631676D01*
X52911Y631631D01*
X52849Y631594D01*
X52815Y631555D01*
X52775Y631522D01*
X52736Y631462D01*
X52689Y631408D01*
X52670Y631359D01*
X52642Y631315D01*
X52624Y631246D01*
X52597Y631179D01*
X52589Y631108D01*
X52581Y631077D01*
X52583Y631054D01*
X52579Y631013D01*
X52579Y628149D01*
X52570Y628070D01*
X52563Y628038D01*
X52564Y628019D01*
X52561Y627986D01*
X52561Y627979D01*
X51014Y624244D01*
X48156Y621386D01*
X46760Y620808D01*
X46699Y620770D01*
X46633Y620741D01*
X46595Y620706D01*
X46551Y620678D01*
X46505Y620623D01*
X46452Y620575D01*
X46427Y620529D01*
X46394Y620489D01*
X46368Y620422D01*
X46334Y620359D01*
X46324Y620308D01*
X46306Y620259D01*
X46303Y620188D01*
X46290Y620117D01*
X46298Y620066D01*
X46295Y620014D01*
X46315Y619945D01*
X46326Y619874D01*
X46349Y619827D01*
X46364Y619777D01*
X46405Y619719D01*
X46437Y619655D01*
X46474Y619618D01*
X46504Y619575D01*
X46562Y619533D01*
X46613Y619482D01*
X46676Y619448D01*
X46702Y619429D01*
X46724Y619421D01*
X46760Y619401D01*
X48174Y618816D01*
X51032Y615958D01*
X52579Y612223D01*
X52579Y608149D01*
X52570Y608070D01*
X52563Y608038D01*
X52564Y608019D01*
X52561Y607986D01*
X52561Y607979D01*
X51014Y604244D01*
X48156Y601386D01*
X46760Y600808D01*
X46699Y600770D01*
X46633Y600741D01*
X46595Y600706D01*
X46551Y600678D01*
X46505Y600623D01*
X46452Y600575D01*
X46427Y600529D01*
X46394Y600489D01*
X46368Y600422D01*
X46334Y600359D01*
X46324Y600308D01*
X46306Y600259D01*
X46303Y600188D01*
X46290Y600117D01*
X46298Y600066D01*
X46295Y600014D01*
X46315Y599945D01*
X46326Y599874D01*
X46349Y599827D01*
X46364Y599777D01*
X46405Y599719D01*
X46437Y599655D01*
X46474Y599618D01*
X46504Y599575D01*
X46562Y599533D01*
X46613Y599482D01*
X46676Y599448D01*
X46702Y599429D01*
X46724Y599421D01*
X46760Y599401D01*
X48174Y598816D01*
X51032Y595958D01*
X52579Y592223D01*
X52579Y588149D01*
X52570Y588070D01*
X52563Y588038D01*
X52564Y588019D01*
X52561Y587986D01*
X52561Y587979D01*
X51014Y584244D01*
X48156Y581386D01*
X46760Y580808D01*
X46699Y580770D01*
X46633Y580741D01*
X46595Y580706D01*
X46551Y580678D01*
X46505Y580623D01*
X46452Y580575D01*
X46427Y580529D01*
X46394Y580489D01*
X46368Y580422D01*
X46334Y580359D01*
X46324Y580308D01*
X46306Y580259D01*
X46303Y580188D01*
X46290Y580117D01*
X46298Y580066D01*
X46295Y580014D01*
X46315Y579945D01*
X46326Y579874D01*
X46349Y579827D01*
X46364Y579777D01*
X46405Y579719D01*
X46437Y579655D01*
X46474Y579618D01*
X46504Y579575D01*
X46562Y579533D01*
X46613Y579482D01*
X46676Y579448D01*
X46702Y579429D01*
X46724Y579421D01*
X46760Y579401D01*
X48174Y578816D01*
X51032Y575958D01*
X52579Y572223D01*
X52579Y568149D01*
X52570Y568070D01*
X52563Y568038D01*
X52564Y568019D01*
X52561Y567986D01*
X52561Y567979D01*
X51014Y564244D01*
X48156Y561386D01*
X46760Y560808D01*
X46699Y560770D01*
X46633Y560741D01*
X46595Y560706D01*
X46551Y560678D01*
X46505Y560623D01*
X46452Y560575D01*
X46427Y560529D01*
X46394Y560489D01*
X46368Y560422D01*
X46334Y560359D01*
X46324Y560308D01*
X46306Y560259D01*
X46303Y560188D01*
X46290Y560117D01*
X46298Y560066D01*
X46295Y560014D01*
X46315Y559945D01*
X46326Y559874D01*
X46349Y559827D01*
X46364Y559777D01*
X46405Y559719D01*
X46437Y559655D01*
X46474Y559618D01*
X46504Y559575D01*
X46562Y559533D01*
X46613Y559482D01*
X46676Y559448D01*
X46702Y559429D01*
X46724Y559421D01*
X46760Y559401D01*
X48174Y558816D01*
X51032Y555958D01*
X52579Y552223D01*
X52579Y548149D01*
X52570Y548070D01*
X52563Y548038D01*
X52564Y548019D01*
X52561Y547986D01*
X52561Y547979D01*
X51014Y544244D01*
X48156Y541386D01*
X46760Y540808D01*
X46699Y540770D01*
X46633Y540741D01*
X46595Y540706D01*
X46551Y540678D01*
X46505Y540623D01*
X46452Y540575D01*
X46427Y540529D01*
X46394Y540489D01*
X46368Y540422D01*
X46334Y540359D01*
X46324Y540308D01*
X46306Y540259D01*
X46303Y540188D01*
X46290Y540117D01*
X46298Y540066D01*
X46295Y540014D01*
X46315Y539945D01*
X46326Y539874D01*
X46349Y539827D01*
X46364Y539777D01*
X46405Y539719D01*
X46437Y539655D01*
X46474Y539618D01*
X46504Y539575D01*
X46562Y539533D01*
X46613Y539482D01*
X46676Y539448D01*
X46702Y539429D01*
X46724Y539421D01*
X46760Y539401D01*
X48174Y538816D01*
X51032Y535958D01*
X52579Y532223D01*
X52579Y528149D01*
X52570Y528070D01*
X52563Y528038D01*
X52564Y528019D01*
X52561Y527986D01*
X52561Y527979D01*
X51014Y524244D01*
X48156Y521386D01*
X47994Y521319D01*
X47911Y521268D01*
X47825Y521222D01*
X47807Y521204D01*
X47785Y521190D01*
X47723Y521115D01*
X47656Y521044D01*
X47645Y521020D01*
X47628Y521000D01*
X47593Y520909D01*
X47552Y520821D01*
X47549Y520795D01*
X47540Y520771D01*
X47536Y520673D01*
X47525Y520577D01*
X47531Y520551D01*
X47530Y520525D01*
X47557Y520431D01*
X47577Y520336D01*
X47591Y520314D01*
X47598Y520289D01*
X47654Y520209D01*
X47704Y520125D01*
X47724Y520108D01*
X47738Y520087D01*
X47816Y520029D01*
X47891Y519965D01*
X47915Y519955D01*
X47936Y519940D01*
X48028Y519910D01*
X48119Y519873D01*
X48151Y519870D01*
X48170Y519864D01*
X48202Y519864D01*
X48285Y519855D01*
X49864Y519855D01*
X50511Y519682D01*
X51090Y519347D01*
X51563Y518874D01*
X51898Y518295D01*
X52071Y517648D01*
X52071Y511523D01*
X43923Y511523D01*
X43923Y519078D01*
X43920Y519098D01*
X43922Y519117D01*
X43900Y519219D01*
X43883Y519321D01*
X43874Y519338D01*
X43870Y519358D01*
X43817Y519447D01*
X43768Y519538D01*
X43754Y519552D01*
X43744Y519569D01*
X43665Y519636D01*
X43590Y519708D01*
X43572Y519716D01*
X43557Y519729D01*
X43461Y519768D01*
X43367Y519811D01*
X43347Y519813D01*
X43329Y519821D01*
X43162Y519839D01*
X41656Y519839D01*
X41636Y519836D01*
X41617Y519838D01*
X41515Y519816D01*
X41413Y519800D01*
X41396Y519790D01*
X41376Y519786D01*
X41287Y519733D01*
X41196Y519684D01*
X41182Y519670D01*
X41165Y519660D01*
X41098Y519581D01*
X41027Y519506D01*
X41018Y519488D01*
X41005Y519473D01*
X40966Y519377D01*
X40923Y519283D01*
X40921Y519263D01*
X40913Y519245D01*
X40895Y519078D01*
X40895Y511523D01*
X32765Y511523D01*
X32765Y517648D01*
X32938Y518295D01*
X33273Y518874D01*
X33746Y519347D01*
X34325Y519682D01*
X34972Y519855D01*
X36515Y519855D01*
X36611Y519870D01*
X36708Y519880D01*
X36732Y519890D01*
X36757Y519894D01*
X36843Y519940D01*
X36932Y519980D01*
X36952Y519997D01*
X36975Y520010D01*
X37042Y520080D01*
X37113Y520146D01*
X37126Y520169D01*
X37144Y520188D01*
X37185Y520276D01*
X37232Y520362D01*
X37237Y520387D01*
X37248Y520411D01*
X37258Y520508D01*
X37276Y520604D01*
X37272Y520630D01*
X37275Y520655D01*
X37254Y520751D01*
X37240Y520847D01*
X37228Y520870D01*
X37223Y520896D01*
X37172Y520980D01*
X37128Y521066D01*
X37110Y521085D01*
X37096Y521107D01*
X37022Y521170D01*
X36953Y521238D01*
X36924Y521254D01*
X36909Y521267D01*
X36879Y521279D01*
X36806Y521319D01*
X36644Y521386D01*
X33786Y524244D01*
X32239Y527979D01*
X32239Y532053D01*
X32248Y532132D01*
X32255Y532164D01*
X32254Y532183D01*
X32257Y532216D01*
X32257Y532223D01*
X33804Y535958D01*
X36662Y538816D01*
X38058Y539394D01*
X38119Y539432D01*
X38185Y539461D01*
X38223Y539496D01*
X38267Y539524D01*
X38313Y539579D01*
X38366Y539627D01*
X38391Y539673D01*
X38424Y539713D01*
X38450Y539780D01*
X38484Y539843D01*
X38494Y539894D01*
X38512Y539943D01*
X38515Y540014D01*
X38528Y540085D01*
X38520Y540136D01*
X38523Y540188D01*
X38503Y540257D01*
X38492Y540328D01*
X38469Y540375D01*
X38454Y540425D01*
X38413Y540483D01*
X38381Y540547D01*
X38344Y540584D01*
X38314Y540627D01*
X38256Y540669D01*
X38205Y540720D01*
X38142Y540754D01*
X38116Y540773D01*
X38094Y540781D01*
X38058Y540801D01*
X36644Y541386D01*
X33786Y544244D01*
X32239Y547979D01*
X32239Y552053D01*
X32248Y552132D01*
X32255Y552164D01*
X32254Y552183D01*
X32257Y552216D01*
X32257Y552223D01*
X33804Y555958D01*
X36662Y558816D01*
X38058Y559394D01*
X38119Y559432D01*
X38185Y559461D01*
X38223Y559496D01*
X38267Y559524D01*
X38313Y559579D01*
X38366Y559627D01*
X38391Y559673D01*
X38424Y559713D01*
X38450Y559780D01*
X38484Y559843D01*
X38494Y559894D01*
X38512Y559943D01*
X38515Y560014D01*
X38528Y560085D01*
X38520Y560136D01*
X38523Y560188D01*
X38503Y560257D01*
X38492Y560328D01*
X38469Y560375D01*
X38454Y560425D01*
X38413Y560483D01*
X38381Y560547D01*
X38344Y560584D01*
X38314Y560627D01*
X38256Y560669D01*
X38205Y560720D01*
X38142Y560754D01*
X38116Y560773D01*
X38094Y560781D01*
X38058Y560801D01*
X36644Y561386D01*
X33786Y564244D01*
X32239Y567979D01*
X32239Y572053D01*
X32248Y572132D01*
X32255Y572164D01*
X32254Y572183D01*
X32257Y572216D01*
X32257Y572223D01*
X32354Y572456D01*
X32363Y572495D01*
X32374Y572519D01*
X32379Y572559D01*
X32404Y572643D01*
X32404Y572670D01*
X32410Y572695D01*
X32401Y572792D01*
X32398Y572889D01*
X32389Y572914D01*
X32387Y572940D01*
X32347Y573029D01*
X32314Y573120D01*
X32297Y573141D01*
X32287Y573165D01*
X32221Y573236D01*
X32160Y573312D01*
X32138Y573327D01*
X32120Y573346D01*
X32035Y573393D01*
X31953Y573445D01*
X31928Y573452D01*
X31905Y573464D01*
X31809Y573482D01*
X31715Y573505D01*
X31689Y573503D01*
X31663Y573508D01*
X31566Y573494D01*
X31469Y573486D01*
X31445Y573476D01*
X31419Y573472D01*
X31332Y573428D01*
X31243Y573390D01*
X31218Y573370D01*
X31200Y573361D01*
X31177Y573337D01*
X31172Y573333D01*
X31168Y573331D01*
X31163Y573326D01*
X31112Y573285D01*
X26132Y568305D01*
X26079Y568231D01*
X26019Y568161D01*
X26007Y568131D01*
X25988Y568105D01*
X25961Y568018D01*
X25927Y567933D01*
X25923Y567892D01*
X25916Y567870D01*
X25917Y567838D01*
X25909Y567767D01*
X25909Y452083D01*
X25924Y451987D01*
X25934Y451890D01*
X25944Y451866D01*
X25948Y451841D01*
X25994Y451754D01*
X26034Y451665D01*
X26051Y451646D01*
X26064Y451623D01*
X26134Y451556D01*
X26200Y451484D01*
X26223Y451472D01*
X26242Y451454D01*
X26330Y451413D01*
X26416Y451366D01*
X26441Y451361D01*
X26465Y451350D01*
X26562Y451339D01*
X26658Y451322D01*
X26684Y451326D01*
X26709Y451323D01*
X26805Y451344D01*
X26901Y451358D01*
X26924Y451370D01*
X26950Y451375D01*
X27034Y451425D01*
X27120Y451470D01*
X27139Y451488D01*
X27161Y451502D01*
X27224Y451576D01*
X27293Y451645D01*
X27303Y451665D01*
X30906Y455267D01*
X35574Y457201D01*
X40626Y457201D01*
X45294Y455267D01*
X48867Y451694D01*
X50801Y447026D01*
X50801Y441974D01*
X48867Y437306D01*
X45294Y433733D01*
X42326Y432503D01*
X42265Y432465D01*
X42200Y432436D01*
X42161Y432401D01*
X42117Y432374D01*
X42071Y432318D01*
X42018Y432270D01*
X41993Y432224D01*
X41960Y432184D01*
X41934Y432117D01*
X41900Y432054D01*
X41891Y432003D01*
X41872Y431955D01*
X41869Y431883D01*
X41856Y431812D01*
X41864Y431761D01*
X41862Y431709D01*
X41882Y431640D01*
X41892Y431569D01*
X41916Y431523D01*
X41930Y431473D01*
X41971Y431414D01*
X42003Y431350D01*
X42041Y431313D01*
X42070Y431271D01*
X42128Y431228D01*
X42179Y431178D01*
X42242Y431143D01*
X42268Y431124D01*
X42290Y431117D01*
X42326Y431097D01*
X45294Y429867D01*
X48867Y426294D01*
X50801Y421626D01*
X50801Y416574D01*
X48867Y411906D01*
X45294Y408333D01*
X42326Y407103D01*
X42265Y407065D01*
X42200Y407036D01*
X42161Y407001D01*
X42117Y406974D01*
X42071Y406918D01*
X42018Y406870D01*
X41993Y406824D01*
X41960Y406784D01*
X41934Y406717D01*
X41900Y406654D01*
X41891Y406603D01*
X41872Y406555D01*
X41869Y406483D01*
X41856Y406412D01*
X41864Y406361D01*
X41862Y406309D01*
X41882Y406240D01*
X41892Y406169D01*
X41916Y406123D01*
X41930Y406073D01*
X41971Y406014D01*
X42003Y405950D01*
X42041Y405913D01*
X42070Y405871D01*
X42128Y405828D01*
X42179Y405778D01*
X42242Y405743D01*
X42268Y405724D01*
X42290Y405717D01*
X42326Y405697D01*
X45294Y404467D01*
X48867Y400894D01*
X50801Y396226D01*
X50801Y391174D01*
X50207Y389740D01*
X50180Y389627D01*
X50152Y389513D01*
X50152Y389507D01*
X50151Y389501D01*
X50162Y389384D01*
X50171Y389268D01*
X50173Y389262D01*
X50174Y389256D01*
X50222Y389148D01*
X50267Y389042D01*
X50272Y389036D01*
X50274Y389031D01*
X50287Y389018D01*
X50372Y388911D01*
X80773Y358510D01*
X80773Y339594D01*
X80787Y339504D01*
X80795Y339413D01*
X80807Y339383D01*
X80812Y339351D01*
X80855Y339270D01*
X80891Y339186D01*
X80917Y339154D01*
X80928Y339133D01*
X80951Y339111D01*
X80996Y339055D01*
X82520Y337531D01*
X82578Y337489D01*
X82630Y337440D01*
X82677Y337418D01*
X82719Y337388D01*
X82788Y337367D01*
X82853Y337336D01*
X82905Y337331D01*
X82955Y337315D01*
X83026Y337317D01*
X83097Y337309D01*
X83148Y337320D01*
X83200Y337322D01*
X83268Y337346D01*
X83338Y337362D01*
X83383Y337388D01*
X83431Y337406D01*
X83487Y337451D01*
X83549Y337488D01*
X83583Y337527D01*
X83623Y337560D01*
X83662Y337620D01*
X83709Y337675D01*
X83728Y337723D01*
X83756Y337767D01*
X83774Y337836D01*
X83801Y337903D01*
X83809Y337974D01*
X83817Y338005D01*
X83815Y338029D01*
X83819Y338070D01*
X83819Y364606D01*
X86721Y367508D01*
X190276Y471063D01*
X193178Y473965D01*
X243713Y473965D01*
X243733Y473968D01*
X243752Y473966D01*
X243854Y473988D01*
X243956Y474004D01*
X243973Y474014D01*
X243993Y474018D01*
X244082Y474071D01*
X244173Y474120D01*
X244187Y474134D01*
X244204Y474144D01*
X244271Y474223D01*
X244343Y474298D01*
X244351Y474316D01*
X244364Y474331D01*
X244403Y474427D01*
X244446Y474521D01*
X244448Y474541D01*
X244456Y474559D01*
X244474Y474726D01*
X244474Y477640D01*
X246260Y479426D01*
X261740Y479426D01*
X263526Y477640D01*
X263526Y462160D01*
X261740Y460374D01*
X246260Y460374D01*
X244474Y462160D01*
X244474Y464058D01*
X244471Y464078D01*
X244473Y464097D01*
X244451Y464199D01*
X244435Y464301D01*
X244425Y464318D01*
X244421Y464338D01*
X244368Y464427D01*
X244319Y464518D01*
X244305Y464532D01*
X244295Y464549D01*
X244216Y464616D01*
X244141Y464688D01*
X244123Y464696D01*
X244108Y464709D01*
X244012Y464748D01*
X243918Y464791D01*
X243898Y464793D01*
X243880Y464801D01*
X243713Y464819D01*
X197281Y464819D01*
X197191Y464805D01*
X197100Y464797D01*
X197071Y464785D01*
X197039Y464780D01*
X196958Y464737D01*
X196874Y464701D01*
X196842Y464675D01*
X196821Y464664D01*
X196799Y464641D01*
X196743Y464596D01*
X190647Y458500D01*
X190605Y458442D01*
X190556Y458390D01*
X190534Y458343D01*
X190504Y458301D01*
X190482Y458232D01*
X190452Y458167D01*
X190446Y458115D01*
X190431Y458065D01*
X190433Y457994D01*
X190425Y457923D01*
X190436Y457872D01*
X190438Y457820D01*
X190462Y457752D01*
X190477Y457682D01*
X190504Y457638D01*
X190522Y457589D01*
X190567Y457533D01*
X190604Y457471D01*
X190643Y457437D01*
X190676Y457397D01*
X190736Y457358D01*
X190790Y457311D01*
X190839Y457292D01*
X190883Y457264D01*
X190952Y457246D01*
X191019Y457219D01*
X191090Y457211D01*
X191121Y457203D01*
X191144Y457205D01*
X191185Y457201D01*
X193026Y457201D01*
X197694Y455267D01*
X201267Y451694D01*
X203201Y447026D01*
X203201Y441974D01*
X201267Y437306D01*
X197694Y433733D01*
X194726Y432503D01*
X194665Y432466D01*
X194600Y432436D01*
X194561Y432401D01*
X194517Y432374D01*
X194471Y432319D01*
X194418Y432270D01*
X194393Y432224D01*
X194360Y432184D01*
X194334Y432117D01*
X194300Y432054D01*
X194291Y432003D01*
X194272Y431955D01*
X194269Y431883D01*
X194256Y431812D01*
X194264Y431761D01*
X194262Y431709D01*
X194282Y431640D01*
X194292Y431569D01*
X194316Y431523D01*
X194330Y431473D01*
X194371Y431414D01*
X194403Y431350D01*
X194441Y431313D01*
X194470Y431271D01*
X194528Y431228D01*
X194579Y431178D01*
X194642Y431143D01*
X194668Y431124D01*
X194690Y431117D01*
X194726Y431097D01*
X197694Y429867D01*
X201267Y426294D01*
X203201Y421626D01*
X203201Y416574D01*
X201267Y411906D01*
X197694Y408333D01*
X194726Y407103D01*
X194665Y407066D01*
X194600Y407036D01*
X194561Y407001D01*
X194517Y406974D01*
X194471Y406919D01*
X194418Y406870D01*
X194393Y406824D01*
X194360Y406784D01*
X194334Y406717D01*
X194300Y406654D01*
X194291Y406603D01*
X194272Y406555D01*
X194269Y406483D01*
X194256Y406412D01*
X194264Y406361D01*
X194262Y406309D01*
X194282Y406240D01*
X194292Y406169D01*
X194316Y406123D01*
X194330Y406073D01*
X194371Y406014D01*
X194403Y405950D01*
X194441Y405913D01*
X194470Y405871D01*
X194528Y405828D01*
X194579Y405778D01*
X194642Y405743D01*
X194668Y405724D01*
X194690Y405717D01*
X194726Y405697D01*
X197694Y404467D01*
X201267Y400894D01*
X203201Y396226D01*
X203201Y391174D01*
X201267Y386506D01*
X197694Y382933D01*
X193986Y381397D01*
X193899Y381343D01*
X193811Y381295D01*
X193796Y381279D01*
X193777Y381267D01*
X193712Y381189D01*
X193643Y381115D01*
X193634Y381095D01*
X193620Y381078D01*
X193584Y380983D01*
X193542Y380891D01*
X193540Y380869D01*
X193532Y380848D01*
X193527Y380747D01*
X193517Y380646D01*
X193522Y380624D01*
X193521Y380602D01*
X193550Y380505D01*
X193572Y380406D01*
X193584Y380387D01*
X193590Y380366D01*
X193648Y380283D01*
X193700Y380196D01*
X193717Y380182D01*
X193730Y380164D01*
X193811Y380104D01*
X193889Y380038D01*
X193914Y380027D01*
X193927Y380017D01*
X193959Y380007D01*
X194042Y379969D01*
X195180Y379599D01*
X196890Y378728D01*
X198443Y377600D01*
X199800Y376243D01*
X200928Y374690D01*
X201799Y372980D01*
X202393Y371155D01*
X202603Y369823D01*
X192023Y369823D01*
X192023Y380238D01*
X192020Y380258D01*
X192022Y380277D01*
X192000Y380379D01*
X191983Y380481D01*
X191974Y380498D01*
X191970Y380518D01*
X191917Y380607D01*
X191868Y380698D01*
X191854Y380712D01*
X191844Y380729D01*
X191765Y380796D01*
X191690Y380868D01*
X191672Y380876D01*
X191657Y380889D01*
X191561Y380928D01*
X191467Y380971D01*
X191447Y380973D01*
X191429Y380981D01*
X191262Y380999D01*
X189738Y380999D01*
X189718Y380996D01*
X189699Y380998D01*
X189597Y380976D01*
X189495Y380960D01*
X189478Y380950D01*
X189458Y380946D01*
X189369Y380893D01*
X189278Y380844D01*
X189264Y380830D01*
X189247Y380820D01*
X189180Y380741D01*
X189109Y380666D01*
X189100Y380648D01*
X189087Y380633D01*
X189048Y380537D01*
X189005Y380443D01*
X189003Y380423D01*
X188995Y380405D01*
X188977Y380238D01*
X188977Y369823D01*
X178397Y369823D01*
X178607Y371155D01*
X179201Y372980D01*
X180072Y374690D01*
X181200Y376243D01*
X182557Y377600D01*
X184110Y378728D01*
X185820Y379599D01*
X186958Y379969D01*
X187048Y380016D01*
X187141Y380057D01*
X187157Y380072D01*
X187177Y380082D01*
X187247Y380155D01*
X187322Y380223D01*
X187333Y380243D01*
X187348Y380259D01*
X187392Y380350D01*
X187440Y380439D01*
X187444Y380461D01*
X187454Y380481D01*
X187466Y380581D01*
X187484Y380681D01*
X187481Y380703D01*
X187484Y380725D01*
X187463Y380824D01*
X187448Y380924D01*
X187438Y380944D01*
X187434Y380966D01*
X187383Y381053D01*
X187337Y381144D01*
X187321Y381159D01*
X187310Y381178D01*
X187234Y381245D01*
X187161Y381316D01*
X187137Y381329D01*
X187125Y381340D01*
X187094Y381353D01*
X187014Y381397D01*
X183306Y382933D01*
X179733Y386506D01*
X177799Y391174D01*
X177799Y396226D01*
X179733Y400894D01*
X183306Y404467D01*
X186274Y405697D01*
X186335Y405735D01*
X186400Y405764D01*
X186439Y405799D01*
X186483Y405826D01*
X186529Y405882D01*
X186582Y405930D01*
X186607Y405976D01*
X186640Y406016D01*
X186666Y406083D01*
X186700Y406146D01*
X186709Y406197D01*
X186728Y406245D01*
X186731Y406317D01*
X186744Y406388D01*
X186736Y406439D01*
X186738Y406491D01*
X186718Y406560D01*
X186708Y406631D01*
X186684Y406677D01*
X186670Y406727D01*
X186629Y406786D01*
X186597Y406850D01*
X186559Y406887D01*
X186530Y406929D01*
X186472Y406972D01*
X186421Y407022D01*
X186358Y407057D01*
X186332Y407076D01*
X186310Y407083D01*
X186274Y407103D01*
X183306Y408333D01*
X179733Y411906D01*
X177799Y416574D01*
X177799Y421626D01*
X179733Y426294D01*
X183306Y429867D01*
X186274Y431097D01*
X186335Y431135D01*
X186400Y431164D01*
X186439Y431199D01*
X186483Y431226D01*
X186529Y431282D01*
X186582Y431330D01*
X186607Y431376D01*
X186640Y431416D01*
X186666Y431483D01*
X186700Y431546D01*
X186709Y431597D01*
X186728Y431645D01*
X186731Y431717D01*
X186744Y431788D01*
X186736Y431839D01*
X186738Y431891D01*
X186718Y431960D01*
X186708Y432031D01*
X186684Y432077D01*
X186670Y432127D01*
X186629Y432186D01*
X186597Y432250D01*
X186559Y432287D01*
X186530Y432329D01*
X186472Y432372D01*
X186421Y432422D01*
X186358Y432457D01*
X186332Y432476D01*
X186310Y432483D01*
X186274Y432503D01*
X183306Y433733D01*
X179733Y437306D01*
X177799Y441974D01*
X177799Y443815D01*
X177788Y443885D01*
X177786Y443957D01*
X177768Y444006D01*
X177760Y444057D01*
X177726Y444121D01*
X177701Y444188D01*
X177669Y444229D01*
X177644Y444275D01*
X177593Y444324D01*
X177548Y444380D01*
X177504Y444408D01*
X177466Y444444D01*
X177401Y444474D01*
X177341Y444513D01*
X177290Y444526D01*
X177243Y444548D01*
X177172Y444556D01*
X177102Y444573D01*
X177050Y444569D01*
X176999Y444575D01*
X176928Y444560D01*
X176857Y444554D01*
X176809Y444534D01*
X176758Y444523D01*
X176697Y444486D01*
X176631Y444458D01*
X176575Y444413D01*
X176547Y444396D01*
X176532Y444379D01*
X176500Y444353D01*
X93188Y361041D01*
X93135Y360967D01*
X93075Y360897D01*
X93063Y360867D01*
X93044Y360841D01*
X93017Y360754D01*
X92983Y360669D01*
X92979Y360628D01*
X92972Y360606D01*
X92973Y360574D01*
X92965Y360503D01*
X92965Y254138D01*
X85527Y246700D01*
X85516Y246684D01*
X85500Y246672D01*
X85444Y246585D01*
X85384Y246501D01*
X85378Y246482D01*
X85367Y246465D01*
X85342Y246364D01*
X85311Y246266D01*
X85312Y246246D01*
X85307Y246226D01*
X85315Y246123D01*
X85318Y246020D01*
X85325Y246001D01*
X85326Y245981D01*
X85366Y245886D01*
X85369Y245879D01*
X85371Y245868D01*
X85375Y245862D01*
X85402Y245789D01*
X85415Y245773D01*
X85422Y245755D01*
X85489Y245671D01*
X85498Y245657D01*
X85507Y245650D01*
X85527Y245624D01*
X85853Y245298D01*
X85853Y237302D01*
X80198Y231647D01*
X72202Y231647D01*
X66547Y237302D01*
X66547Y245298D01*
X72202Y250953D01*
X76531Y250953D01*
X76621Y250967D01*
X76712Y250975D01*
X76741Y250987D01*
X76773Y250992D01*
X76854Y251035D01*
X76938Y251071D01*
X76970Y251097D01*
X76991Y251108D01*
X77013Y251131D01*
X77069Y251176D01*
X83596Y257703D01*
X83649Y257777D01*
X83709Y257847D01*
X83721Y257877D01*
X83740Y257903D01*
X83767Y257990D01*
X83801Y258075D01*
X83805Y258116D01*
X83812Y258138D01*
X83811Y258170D01*
X83819Y258241D01*
X83819Y311658D01*
X83816Y311678D01*
X83818Y311697D01*
X83796Y311799D01*
X83780Y311901D01*
X83770Y311918D01*
X83766Y311938D01*
X83713Y312027D01*
X83664Y312118D01*
X83650Y312132D01*
X83640Y312149D01*
X83561Y312216D01*
X83486Y312288D01*
X83468Y312296D01*
X83453Y312309D01*
X83357Y312348D01*
X83263Y312391D01*
X83243Y312393D01*
X83225Y312401D01*
X83058Y312419D01*
X71258Y312419D01*
X59435Y324242D01*
X59435Y339167D01*
X59421Y339257D01*
X59413Y339348D01*
X59401Y339377D01*
X59396Y339409D01*
X59353Y339490D01*
X59317Y339574D01*
X59291Y339606D01*
X59280Y339627D01*
X59257Y339649D01*
X59212Y339705D01*
X51605Y347313D01*
X51526Y347369D01*
X51451Y347431D01*
X51426Y347441D01*
X51405Y347456D01*
X51312Y347485D01*
X51221Y347520D01*
X51195Y347521D01*
X51170Y347528D01*
X51073Y347526D01*
X50975Y347530D01*
X50950Y347523D01*
X50924Y347522D01*
X50832Y347489D01*
X50739Y347461D01*
X50718Y347447D01*
X50693Y347438D01*
X50617Y347377D01*
X50537Y347321D01*
X50521Y347300D01*
X50501Y347284D01*
X50448Y347202D01*
X50390Y347124D01*
X50382Y347099D01*
X50368Y347077D01*
X50344Y346982D01*
X50314Y346890D01*
X50314Y346864D01*
X50308Y346838D01*
X50315Y346742D01*
X50316Y346644D01*
X50325Y346613D01*
X50327Y346593D01*
X50340Y346563D01*
X50363Y346483D01*
X50801Y345426D01*
X50801Y340374D01*
X48867Y335706D01*
X45294Y332133D01*
X41586Y330597D01*
X41500Y330543D01*
X41411Y330495D01*
X41396Y330479D01*
X41377Y330467D01*
X41312Y330389D01*
X41243Y330315D01*
X41234Y330295D01*
X41220Y330278D01*
X41184Y330183D01*
X41142Y330091D01*
X41140Y330069D01*
X41132Y330048D01*
X41127Y329947D01*
X41117Y329846D01*
X41122Y329824D01*
X41121Y329802D01*
X41150Y329705D01*
X41172Y329606D01*
X41184Y329587D01*
X41190Y329566D01*
X41248Y329483D01*
X41300Y329396D01*
X41317Y329382D01*
X41330Y329364D01*
X41411Y329304D01*
X41489Y329238D01*
X41514Y329227D01*
X41527Y329217D01*
X41559Y329207D01*
X41642Y329169D01*
X42780Y328799D01*
X44490Y327928D01*
X46043Y326800D01*
X47400Y325443D01*
X48528Y323890D01*
X49399Y322180D01*
X49993Y320355D01*
X50203Y319023D01*
X39623Y319023D01*
X39623Y329438D01*
X39620Y329458D01*
X39622Y329477D01*
X39600Y329579D01*
X39583Y329681D01*
X39574Y329698D01*
X39570Y329718D01*
X39517Y329807D01*
X39468Y329898D01*
X39454Y329912D01*
X39444Y329929D01*
X39365Y329996D01*
X39290Y330068D01*
X39272Y330076D01*
X39257Y330089D01*
X39161Y330128D01*
X39067Y330171D01*
X39047Y330173D01*
X39029Y330181D01*
X38862Y330199D01*
X37338Y330199D01*
X37318Y330196D01*
X37299Y330198D01*
X37197Y330176D01*
X37095Y330160D01*
X37078Y330150D01*
X37058Y330146D01*
X36969Y330093D01*
X36878Y330044D01*
X36864Y330030D01*
X36847Y330020D01*
X36780Y329941D01*
X36709Y329866D01*
X36700Y329848D01*
X36687Y329833D01*
X36648Y329737D01*
X36605Y329643D01*
X36603Y329623D01*
X36595Y329605D01*
X36577Y329438D01*
X36577Y319023D01*
X26670Y319023D01*
X26650Y319020D01*
X26631Y319022D01*
X26529Y319000D01*
X26427Y318983D01*
X26410Y318974D01*
X26390Y318970D01*
X26301Y318917D01*
X26210Y318868D01*
X26196Y318854D01*
X26179Y318844D01*
X26112Y318765D01*
X26040Y318690D01*
X26032Y318672D01*
X26019Y318657D01*
X25980Y318561D01*
X25937Y318467D01*
X25935Y318447D01*
X25927Y318429D01*
X25909Y318262D01*
X25909Y316738D01*
X25912Y316718D01*
X25910Y316699D01*
X25932Y316597D01*
X25948Y316495D01*
X25958Y316478D01*
X25962Y316458D01*
X26015Y316369D01*
X26064Y316278D01*
X26078Y316264D01*
X26088Y316247D01*
X26167Y316180D01*
X26242Y316109D01*
X26260Y316100D01*
X26275Y316087D01*
X26371Y316048D01*
X26465Y316005D01*
X26485Y316003D01*
X26503Y315995D01*
X26670Y315977D01*
X36577Y315977D01*
X36577Y305562D01*
X36580Y305542D01*
X36578Y305523D01*
X36600Y305421D01*
X36617Y305319D01*
X36626Y305302D01*
X36630Y305282D01*
X36683Y305193D01*
X36732Y305102D01*
X36746Y305088D01*
X36756Y305071D01*
X36835Y305004D01*
X36910Y304932D01*
X36928Y304924D01*
X36943Y304911D01*
X37039Y304872D01*
X37133Y304829D01*
X37153Y304827D01*
X37171Y304819D01*
X37338Y304801D01*
X38862Y304801D01*
X38882Y304804D01*
X38901Y304802D01*
X39003Y304824D01*
X39105Y304840D01*
X39122Y304850D01*
X39142Y304854D01*
X39231Y304907D01*
X39322Y304956D01*
X39336Y304970D01*
X39353Y304980D01*
X39420Y305059D01*
X39491Y305134D01*
X39500Y305152D01*
X39513Y305167D01*
X39552Y305263D01*
X39595Y305357D01*
X39597Y305377D01*
X39605Y305395D01*
X39623Y305562D01*
X39623Y315977D01*
X50203Y315977D01*
X49993Y314645D01*
X49399Y312820D01*
X48528Y311110D01*
X47400Y309557D01*
X46043Y308200D01*
X44490Y307072D01*
X42780Y306201D01*
X41642Y305831D01*
X41552Y305784D01*
X41459Y305743D01*
X41443Y305728D01*
X41423Y305718D01*
X41353Y305645D01*
X41278Y305577D01*
X41267Y305557D01*
X41252Y305541D01*
X41208Y305450D01*
X41160Y305361D01*
X41156Y305339D01*
X41146Y305319D01*
X41134Y305219D01*
X41116Y305119D01*
X41119Y305097D01*
X41116Y305075D01*
X41137Y304976D01*
X41152Y304876D01*
X41162Y304856D01*
X41166Y304834D01*
X41217Y304747D01*
X41263Y304656D01*
X41279Y304641D01*
X41290Y304622D01*
X41367Y304555D01*
X41439Y304484D01*
X41463Y304471D01*
X41475Y304460D01*
X41506Y304447D01*
X41586Y304403D01*
X45294Y302867D01*
X48867Y299294D01*
X50801Y294626D01*
X50801Y289574D01*
X48867Y284906D01*
X45294Y281333D01*
X42326Y280103D01*
X42265Y280065D01*
X42200Y280036D01*
X42161Y280001D01*
X42117Y279974D01*
X42071Y279918D01*
X42018Y279870D01*
X41993Y279824D01*
X41960Y279784D01*
X41934Y279717D01*
X41900Y279654D01*
X41891Y279603D01*
X41872Y279555D01*
X41869Y279483D01*
X41856Y279412D01*
X41864Y279361D01*
X41862Y279309D01*
X41882Y279240D01*
X41892Y279169D01*
X41916Y279123D01*
X41930Y279073D01*
X41971Y279014D01*
X42003Y278950D01*
X42041Y278913D01*
X42070Y278871D01*
X42128Y278828D01*
X42179Y278778D01*
X42242Y278743D01*
X42268Y278724D01*
X42290Y278717D01*
X42326Y278697D01*
X45294Y277467D01*
X48867Y273894D01*
X50801Y269226D01*
X50801Y264174D01*
X48867Y259506D01*
X45294Y255933D01*
X42326Y254703D01*
X42265Y254665D01*
X42200Y254636D01*
X42161Y254601D01*
X42117Y254574D01*
X42071Y254518D01*
X42018Y254470D01*
X41993Y254424D01*
X41960Y254384D01*
X41934Y254317D01*
X41900Y254254D01*
X41891Y254203D01*
X41872Y254155D01*
X41869Y254083D01*
X41856Y254012D01*
X41864Y253961D01*
X41862Y253909D01*
X41881Y253840D01*
X41892Y253769D01*
X41916Y253723D01*
X41930Y253673D01*
X41971Y253614D01*
X42003Y253550D01*
X42041Y253513D01*
X42070Y253471D01*
X42128Y253428D01*
X42179Y253378D01*
X42242Y253343D01*
X42268Y253324D01*
X42290Y253317D01*
X42326Y253297D01*
X45294Y252067D01*
X48867Y248494D01*
X50801Y243826D01*
X50801Y238774D01*
X48867Y234106D01*
X45294Y230533D01*
X42326Y229303D01*
X42265Y229265D01*
X42200Y229236D01*
X42161Y229201D01*
X42117Y229174D01*
X42071Y229118D01*
X42018Y229070D01*
X41993Y229024D01*
X41960Y228984D01*
X41934Y228917D01*
X41900Y228854D01*
X41891Y228803D01*
X41872Y228755D01*
X41869Y228683D01*
X41856Y228612D01*
X41864Y228561D01*
X41862Y228509D01*
X41881Y228440D01*
X41892Y228369D01*
X41916Y228323D01*
X41930Y228273D01*
X41971Y228214D01*
X42003Y228150D01*
X42041Y228113D01*
X42070Y228071D01*
X42128Y228028D01*
X42179Y227978D01*
X42242Y227943D01*
X42268Y227924D01*
X42290Y227917D01*
X42326Y227897D01*
X45294Y226667D01*
X48867Y223094D01*
X50801Y218426D01*
X50801Y213374D01*
X48867Y208706D01*
X45294Y205133D01*
X42326Y203903D01*
X42265Y203865D01*
X42200Y203836D01*
X42161Y203801D01*
X42117Y203774D01*
X42071Y203718D01*
X42018Y203670D01*
X41993Y203624D01*
X41960Y203584D01*
X41934Y203517D01*
X41900Y203454D01*
X41891Y203403D01*
X41872Y203355D01*
X41869Y203283D01*
X41856Y203212D01*
X41864Y203161D01*
X41862Y203109D01*
X41881Y203040D01*
X41892Y202969D01*
X41916Y202923D01*
X41930Y202873D01*
X41971Y202814D01*
X42003Y202750D01*
X42041Y202713D01*
X42070Y202671D01*
X42128Y202628D01*
X42179Y202578D01*
X42242Y202543D01*
X42268Y202524D01*
X42290Y202517D01*
X42326Y202497D01*
X45294Y201267D01*
X48867Y197694D01*
X50801Y193026D01*
X50801Y187974D01*
X48867Y183306D01*
X45294Y179733D01*
X42326Y178503D01*
X42265Y178465D01*
X42200Y178436D01*
X42161Y178401D01*
X42117Y178374D01*
X42071Y178318D01*
X42018Y178270D01*
X41993Y178224D01*
X41960Y178184D01*
X41934Y178117D01*
X41900Y178054D01*
X41891Y178003D01*
X41872Y177955D01*
X41869Y177883D01*
X41856Y177812D01*
X41864Y177761D01*
X41862Y177709D01*
X41881Y177640D01*
X41892Y177569D01*
X41916Y177523D01*
X41930Y177473D01*
X41971Y177414D01*
X42003Y177350D01*
X42041Y177313D01*
X42070Y177271D01*
X42128Y177228D01*
X42179Y177178D01*
X42242Y177143D01*
X42268Y177124D01*
X42290Y177117D01*
X42326Y177097D01*
X45294Y175867D01*
X48867Y172294D01*
X50801Y167626D01*
X50801Y162574D01*
X48867Y157906D01*
X45294Y154333D01*
X42326Y153103D01*
X42265Y153065D01*
X42200Y153036D01*
X42161Y153001D01*
X42117Y152974D01*
X42071Y152918D01*
X42018Y152870D01*
X41993Y152824D01*
X41960Y152784D01*
X41934Y152717D01*
X41900Y152654D01*
X41891Y152603D01*
X41872Y152555D01*
X41869Y152483D01*
X41856Y152412D01*
X41864Y152361D01*
X41862Y152309D01*
X41881Y152240D01*
X41892Y152169D01*
X41916Y152123D01*
X41930Y152073D01*
X41971Y152014D01*
X42003Y151950D01*
X42041Y151913D01*
X42070Y151871D01*
X42128Y151828D01*
X42179Y151778D01*
X42242Y151743D01*
X42268Y151724D01*
X42290Y151717D01*
X42326Y151697D01*
X45294Y150467D01*
X48867Y146894D01*
X50801Y142226D01*
X50801Y137174D01*
X48867Y132506D01*
X45294Y128933D01*
X42326Y127703D01*
X42265Y127665D01*
X42200Y127636D01*
X42161Y127601D01*
X42117Y127574D01*
X42071Y127518D01*
X42018Y127470D01*
X41993Y127424D01*
X41960Y127384D01*
X41934Y127317D01*
X41900Y127254D01*
X41891Y127203D01*
X41872Y127155D01*
X41869Y127083D01*
X41856Y127012D01*
X41864Y126961D01*
X41862Y126909D01*
X41881Y126840D01*
X41892Y126769D01*
X41916Y126723D01*
X41930Y126673D01*
X41971Y126614D01*
X42003Y126550D01*
X42041Y126513D01*
X42070Y126471D01*
X42128Y126428D01*
X42179Y126378D01*
X42242Y126343D01*
X42268Y126324D01*
X42290Y126317D01*
X42326Y126297D01*
X45294Y125067D01*
X48867Y121494D01*
X50801Y116826D01*
X50801Y111774D01*
X48867Y107106D01*
X45294Y103533D01*
X42326Y102303D01*
X42265Y102265D01*
X42200Y102236D01*
X42161Y102201D01*
X42117Y102174D01*
X42071Y102118D01*
X42018Y102070D01*
X41993Y102024D01*
X41960Y101984D01*
X41934Y101917D01*
X41900Y101854D01*
X41891Y101803D01*
X41872Y101755D01*
X41869Y101683D01*
X41856Y101612D01*
X41864Y101561D01*
X41862Y101509D01*
X41881Y101440D01*
X41892Y101369D01*
X41916Y101323D01*
X41930Y101273D01*
X41971Y101214D01*
X42003Y101150D01*
X42041Y101113D01*
X42070Y101071D01*
X42128Y101028D01*
X42179Y100978D01*
X42242Y100943D01*
X42268Y100924D01*
X42290Y100917D01*
X42326Y100897D01*
X45294Y99667D01*
X48867Y96094D01*
X50801Y91426D01*
X50801Y86374D01*
X48867Y81706D01*
X45294Y78133D01*
X42326Y76903D01*
X42265Y76865D01*
X42200Y76836D01*
X42161Y76801D01*
X42117Y76774D01*
X42071Y76718D01*
X42018Y76670D01*
X41993Y76624D01*
X41960Y76584D01*
X41934Y76517D01*
X41900Y76454D01*
X41891Y76403D01*
X41872Y76355D01*
X41869Y76283D01*
X41856Y76212D01*
X41864Y76161D01*
X41862Y76109D01*
X41881Y76040D01*
X41892Y75969D01*
X41916Y75923D01*
X41930Y75873D01*
X41971Y75814D01*
X42003Y75750D01*
X42041Y75713D01*
X42070Y75671D01*
X42128Y75628D01*
X42179Y75578D01*
X42242Y75543D01*
X42268Y75524D01*
X42290Y75517D01*
X42326Y75497D01*
X45294Y74267D01*
X48867Y70694D01*
X50801Y66026D01*
X50801Y60974D01*
X48867Y56306D01*
X45294Y52733D01*
X42326Y51503D01*
X42265Y51465D01*
X42200Y51436D01*
X42161Y51401D01*
X42117Y51374D01*
X42071Y51318D01*
X42018Y51270D01*
X41993Y51224D01*
X41960Y51184D01*
X41934Y51117D01*
X41900Y51054D01*
X41891Y51003D01*
X41872Y50955D01*
X41869Y50883D01*
X41856Y50812D01*
X41864Y50761D01*
X41862Y50709D01*
X41881Y50640D01*
X41892Y50569D01*
X41916Y50523D01*
X41930Y50473D01*
X41971Y50414D01*
X42003Y50350D01*
X42041Y50313D01*
X42070Y50271D01*
X42128Y50228D01*
X42179Y50178D01*
X42242Y50143D01*
X42268Y50124D01*
X42290Y50117D01*
X42326Y50097D01*
X45294Y48867D01*
X48867Y45294D01*
X50801Y40626D01*
X50801Y35574D01*
X48867Y30906D01*
X45255Y27293D01*
X45223Y27276D01*
X45205Y27258D01*
X45183Y27244D01*
X45121Y27169D01*
X45054Y27098D01*
X45043Y27075D01*
X45026Y27055D01*
X44991Y26963D01*
X44950Y26875D01*
X44947Y26849D01*
X44938Y26825D01*
X44934Y26727D01*
X44923Y26631D01*
X44929Y26605D01*
X44927Y26579D01*
X44955Y26486D01*
X44975Y26390D01*
X44989Y26368D01*
X44996Y26343D01*
X45052Y26263D01*
X45102Y26179D01*
X45121Y26162D01*
X45136Y26141D01*
X45214Y26083D01*
X45288Y26019D01*
X45313Y26009D01*
X45333Y25994D01*
X45426Y25964D01*
X45517Y25927D01*
X45549Y25924D01*
X45567Y25918D01*
X45600Y25918D01*
X45683Y25909D01*
X56494Y25909D01*
X56584Y25923D01*
X56675Y25931D01*
X56705Y25943D01*
X56737Y25948D01*
X56818Y25991D01*
X56902Y26027D01*
X56934Y26053D01*
X56954Y26064D01*
X56977Y26087D01*
X57032Y26132D01*
X57972Y27071D01*
X58025Y27145D01*
X58084Y27215D01*
X58097Y27245D01*
X58115Y27271D01*
X58142Y27358D01*
X58176Y27443D01*
X58181Y27484D01*
X58188Y27506D01*
X58187Y27538D01*
X58195Y27609D01*
X58195Y90794D01*
X60874Y93473D01*
X109844Y93473D01*
X117241Y86076D01*
X117315Y86023D01*
X117385Y85963D01*
X117415Y85951D01*
X117441Y85932D01*
X117528Y85905D01*
X117613Y85871D01*
X117654Y85867D01*
X117676Y85860D01*
X117708Y85861D01*
X117779Y85853D01*
X124648Y85853D01*
X130303Y80198D01*
X130303Y72202D01*
X124648Y66547D01*
X116652Y66547D01*
X110997Y72202D01*
X110997Y79071D01*
X110983Y79161D01*
X110975Y79252D01*
X110963Y79281D01*
X110958Y79313D01*
X110915Y79394D01*
X110879Y79478D01*
X110853Y79510D01*
X110842Y79531D01*
X110819Y79553D01*
X110774Y79609D01*
X106279Y84104D01*
X106205Y84157D01*
X106135Y84217D01*
X106105Y84229D01*
X106079Y84248D01*
X105992Y84275D01*
X105907Y84309D01*
X105866Y84313D01*
X105844Y84320D01*
X105812Y84319D01*
X105741Y84327D01*
X68102Y84327D01*
X68082Y84324D01*
X68062Y84326D01*
X67961Y84304D01*
X67859Y84288D01*
X67841Y84278D01*
X67822Y84274D01*
X67733Y84221D01*
X67641Y84172D01*
X67628Y84158D01*
X67611Y84148D01*
X67543Y84069D01*
X67472Y83994D01*
X67464Y83976D01*
X67451Y83961D01*
X67412Y83865D01*
X67368Y83771D01*
X67366Y83751D01*
X67359Y83733D01*
X67340Y83566D01*
X67340Y23506D01*
X60598Y16763D01*
X31634Y16763D01*
G37*
%LPD*%
%LPC*%
G36*
X319023Y141223D02*
X319023Y141223D01*
X319023Y207241D01*
X319357Y207241D01*
X323058Y206917D01*
X326716Y206272D01*
X330304Y205310D01*
X333795Y204040D01*
X337162Y202470D01*
X340379Y200613D01*
X343422Y198482D01*
X346268Y196094D01*
X348894Y193468D01*
X351282Y190622D01*
X353413Y187579D01*
X355270Y184362D01*
X356840Y180995D01*
X358110Y177504D01*
X359072Y173916D01*
X359717Y170258D01*
X360041Y166557D01*
X360041Y141223D01*
X319023Y141223D01*
G37*
%LPD*%
%LPC*%
G36*
X319023Y72159D02*
X319023Y72159D01*
X319023Y138177D01*
X360041Y138177D01*
X360041Y112843D01*
X359717Y109142D01*
X359072Y105484D01*
X358110Y101896D01*
X356840Y98405D01*
X355270Y95038D01*
X353413Y91821D01*
X351282Y88778D01*
X348894Y85932D01*
X346268Y83306D01*
X343422Y80918D01*
X340379Y78787D01*
X337162Y76930D01*
X333795Y75360D01*
X330304Y74090D01*
X326716Y73128D01*
X323058Y72483D01*
X319357Y72159D01*
X319023Y72159D01*
G37*
%LPD*%
%LPC*%
G36*
X274959Y141223D02*
X274959Y141223D01*
X274959Y166557D01*
X275283Y170258D01*
X275928Y173916D01*
X276890Y177504D01*
X278160Y180995D01*
X279730Y184362D01*
X281587Y187579D01*
X283718Y190622D01*
X286106Y193468D01*
X288732Y196094D01*
X291578Y198482D01*
X294621Y200613D01*
X297838Y202470D01*
X301205Y204040D01*
X304696Y205310D01*
X308284Y206272D01*
X311942Y206917D01*
X315643Y207241D01*
X315977Y207241D01*
X315977Y141223D01*
X274959Y141223D01*
G37*
%LPD*%
%LPC*%
G36*
X315643Y72159D02*
X315643Y72159D01*
X311942Y72483D01*
X308284Y73128D01*
X304696Y74090D01*
X301205Y75360D01*
X297838Y76930D01*
X294621Y78787D01*
X291578Y80918D01*
X288732Y83306D01*
X286106Y85932D01*
X283718Y88778D01*
X281587Y91821D01*
X279730Y95038D01*
X278160Y98405D01*
X276890Y101896D01*
X275928Y105484D01*
X275283Y109142D01*
X274959Y112843D01*
X274959Y138177D01*
X315977Y138177D01*
X315977Y72159D01*
X315643Y72159D01*
G37*
%LPD*%
%LPC*%
G36*
X285122Y14731D02*
X285122Y14731D01*
X283336Y16517D01*
X283336Y39363D01*
X285122Y41149D01*
X351148Y41149D01*
X352934Y39363D01*
X352934Y16517D01*
X351148Y14731D01*
X285122Y14731D01*
G37*
%LPD*%
%LPC*%
G36*
X174743Y645035D02*
X174743Y645035D01*
X172253Y648770D01*
X172221Y648804D01*
X172197Y648844D01*
X172138Y648894D01*
X172085Y648950D01*
X172044Y648972D01*
X172008Y649002D01*
X171936Y649030D01*
X171869Y649067D01*
X171823Y649075D01*
X171779Y649092D01*
X171702Y649096D01*
X171626Y649109D01*
X171580Y649102D01*
X171534Y649104D01*
X171459Y649083D01*
X171383Y649071D01*
X171342Y649050D01*
X171297Y649037D01*
X171233Y648994D01*
X171165Y648958D01*
X171132Y648925D01*
X171094Y648899D01*
X171008Y648796D01*
X170994Y648782D01*
X170991Y648777D01*
X170986Y648770D01*
X168496Y645035D01*
X165400Y644416D01*
X163514Y645673D01*
X163452Y645701D01*
X163395Y645738D01*
X163341Y645752D01*
X163290Y645775D01*
X163222Y645782D01*
X163156Y645798D01*
X163101Y645794D01*
X163045Y645800D01*
X162979Y645784D01*
X162911Y645779D01*
X162860Y645757D01*
X162806Y645745D01*
X162747Y645710D01*
X162684Y645683D01*
X162624Y645634D01*
X162596Y645617D01*
X162582Y645601D01*
X162554Y645578D01*
X161627Y644651D01*
X153786Y644651D01*
X150760Y646398D01*
X150358Y647094D01*
X150298Y647168D01*
X150243Y647246D01*
X150220Y647262D01*
X150202Y647284D01*
X150122Y647335D01*
X150045Y647391D01*
X150018Y647400D01*
X149994Y647415D01*
X149902Y647437D01*
X149811Y647466D01*
X149782Y647466D01*
X149755Y647472D01*
X149660Y647464D01*
X149565Y647462D01*
X149538Y647453D01*
X149510Y647451D01*
X149423Y647412D01*
X149333Y647380D01*
X149311Y647363D01*
X149285Y647352D01*
X149214Y647288D01*
X149139Y647229D01*
X149118Y647200D01*
X149103Y647186D01*
X149087Y647158D01*
X149040Y647094D01*
X148638Y646398D01*
X145612Y644651D01*
X137771Y644651D01*
X136096Y646327D01*
X136060Y646352D01*
X136031Y646385D01*
X135961Y646424D01*
X135896Y646470D01*
X135854Y646483D01*
X135816Y646505D01*
X135737Y646519D01*
X135661Y646543D01*
X135617Y646542D01*
X135574Y646550D01*
X135495Y646538D01*
X135415Y646536D01*
X135374Y646521D01*
X135330Y646515D01*
X135197Y646457D01*
X135184Y646452D01*
X135181Y646450D01*
X135177Y646448D01*
X132065Y644651D01*
X124224Y644651D01*
X121992Y646884D01*
X121992Y650040D01*
X122584Y650633D01*
X122596Y650649D01*
X122612Y650662D01*
X122668Y650749D01*
X122728Y650833D01*
X122734Y650852D01*
X122745Y650869D01*
X122770Y650969D01*
X122800Y651068D01*
X122800Y651088D01*
X122805Y651107D01*
X122797Y651210D01*
X122794Y651314D01*
X122787Y651333D01*
X122786Y651352D01*
X122745Y651447D01*
X122710Y651545D01*
X122697Y651560D01*
X122689Y651579D01*
X122584Y651710D01*
X121992Y652302D01*
X121992Y657676D01*
X123981Y661121D01*
X127426Y663110D01*
X131404Y663110D01*
X134849Y661121D01*
X135529Y659943D01*
X135590Y659869D01*
X135644Y659791D01*
X135667Y659775D01*
X135685Y659753D01*
X135766Y659702D01*
X135843Y659646D01*
X135869Y659637D01*
X135893Y659622D01*
X135986Y659600D01*
X136077Y659571D01*
X136105Y659571D01*
X136133Y659564D01*
X136227Y659573D01*
X136323Y659574D01*
X136349Y659584D01*
X136378Y659586D01*
X136465Y659625D01*
X136555Y659656D01*
X136577Y659674D01*
X136603Y659685D01*
X136673Y659749D01*
X136748Y659808D01*
X136769Y659836D01*
X136785Y659850D01*
X136801Y659879D01*
X136848Y659943D01*
X137528Y661121D01*
X140973Y663110D01*
X144951Y663110D01*
X148396Y661121D01*
X148849Y660337D01*
X148909Y660263D01*
X148964Y660185D01*
X148987Y660168D01*
X149005Y660147D01*
X149085Y660096D01*
X149162Y660040D01*
X149189Y660031D01*
X149213Y660016D01*
X149306Y659994D01*
X149396Y659965D01*
X149425Y659965D01*
X149452Y659958D01*
X149547Y659967D01*
X149642Y659968D01*
X149669Y659978D01*
X149697Y659980D01*
X149784Y660018D01*
X149874Y660050D01*
X149897Y660068D01*
X149922Y660079D01*
X149993Y660143D01*
X150068Y660202D01*
X150089Y660230D01*
X150104Y660244D01*
X150120Y660273D01*
X150167Y660337D01*
X150760Y661363D01*
X153786Y663110D01*
X155354Y663110D01*
X155476Y663110D01*
X155496Y663113D01*
X155516Y663111D01*
X155617Y663133D01*
X155719Y663150D01*
X155737Y663159D01*
X155756Y663163D01*
X155845Y663217D01*
X155936Y663265D01*
X155950Y663279D01*
X155967Y663290D01*
X156035Y663368D01*
X156106Y663443D01*
X156114Y663461D01*
X156127Y663476D01*
X156166Y663573D01*
X156209Y663666D01*
X156212Y663686D01*
X156219Y663705D01*
X156238Y663871D01*
X156238Y666296D01*
X158470Y668529D01*
X161627Y668529D01*
X162554Y667602D01*
X162609Y667562D01*
X162658Y667515D01*
X162708Y667491D01*
X162753Y667458D01*
X162818Y667438D01*
X162880Y667409D01*
X162935Y667402D01*
X162988Y667386D01*
X163057Y667388D01*
X163124Y667380D01*
X163179Y667391D01*
X163234Y667392D01*
X163298Y667416D01*
X163365Y667430D01*
X163434Y667466D01*
X163465Y667477D01*
X163482Y667490D01*
X163514Y667507D01*
X165400Y668764D01*
X168496Y668145D01*
X170986Y664410D01*
X171015Y664379D01*
X171035Y664345D01*
X171038Y664342D01*
X171042Y664336D01*
X171101Y664286D01*
X171154Y664230D01*
X171195Y664208D01*
X171230Y664178D01*
X171302Y664150D01*
X171370Y664113D01*
X171416Y664105D01*
X171459Y664088D01*
X171524Y664085D01*
X171548Y664082D01*
X171612Y664071D01*
X171658Y664078D01*
X171705Y664076D01*
X171779Y664097D01*
X171855Y664109D01*
X171897Y664130D01*
X171942Y664143D01*
X172005Y664186D01*
X172074Y664222D01*
X172081Y664229D01*
X172082Y664229D01*
X172106Y664255D01*
X172145Y664281D01*
X172231Y664384D01*
X172245Y664398D01*
X172247Y664403D01*
X172248Y664404D01*
X172251Y664408D01*
X172252Y664409D01*
X172253Y664410D01*
X174743Y668145D01*
X177838Y668764D01*
X180465Y667013D01*
X181084Y663918D01*
X176481Y657012D01*
X176433Y656907D01*
X176383Y656802D01*
X176382Y656795D01*
X176379Y656788D01*
X176368Y656673D01*
X176354Y656558D01*
X176355Y656551D01*
X176354Y656544D01*
X176380Y656430D01*
X176404Y656317D01*
X176408Y656309D01*
X176409Y656304D01*
X176419Y656287D01*
X176481Y656168D01*
X181084Y649262D01*
X180465Y646167D01*
X177838Y644416D01*
X174743Y645035D01*
G37*
%LPD*%
%LPC*%
G36*
X123122Y23459D02*
X123122Y23459D01*
X122310Y25895D01*
X122300Y25913D01*
X122296Y25934D01*
X122243Y26022D01*
X122196Y26112D01*
X122181Y26127D01*
X122170Y26145D01*
X122092Y26212D01*
X122018Y26282D01*
X121999Y26291D01*
X121983Y26305D01*
X121888Y26343D01*
X121795Y26387D01*
X121774Y26389D01*
X121755Y26397D01*
X121588Y26415D01*
X120051Y26415D01*
X120030Y26412D01*
X120009Y26414D01*
X119909Y26392D01*
X119808Y26376D01*
X119789Y26366D01*
X119769Y26361D01*
X119681Y26308D01*
X119591Y26260D01*
X119576Y26245D01*
X119558Y26234D01*
X119492Y26156D01*
X119421Y26082D01*
X119412Y26063D01*
X119399Y26047D01*
X119328Y25895D01*
X118517Y23459D01*
X115693Y22048D01*
X112688Y23049D01*
X112643Y23105D01*
X112582Y23190D01*
X112566Y23201D01*
X112555Y23216D01*
X112467Y23272D01*
X112382Y23333D01*
X112363Y23338D01*
X112348Y23349D01*
X112247Y23374D01*
X112146Y23405D01*
X112127Y23404D01*
X112109Y23409D01*
X112005Y23401D01*
X111900Y23398D01*
X111883Y23391D01*
X111864Y23390D01*
X111768Y23349D01*
X111670Y23312D01*
X111655Y23301D01*
X111638Y23293D01*
X111507Y23188D01*
X110670Y22351D01*
X107513Y22351D01*
X105280Y24584D01*
X105280Y24857D01*
X105269Y24927D01*
X105267Y24997D01*
X105249Y25047D01*
X105241Y25100D01*
X105208Y25162D01*
X105183Y25229D01*
X105150Y25270D01*
X105125Y25317D01*
X105074Y25366D01*
X105030Y25421D01*
X104986Y25450D01*
X104947Y25486D01*
X104883Y25516D01*
X104824Y25555D01*
X104772Y25568D01*
X104724Y25590D01*
X104654Y25598D01*
X104585Y25615D01*
X104532Y25611D01*
X104480Y25617D01*
X104410Y25602D01*
X104340Y25597D01*
X104291Y25576D01*
X104239Y25565D01*
X104178Y25529D01*
X104114Y25501D01*
X104074Y25466D01*
X104028Y25439D01*
X103982Y25385D01*
X103929Y25338D01*
X103889Y25277D01*
X103868Y25252D01*
X103860Y25231D01*
X103838Y25197D01*
X102762Y23046D01*
X99768Y22048D01*
X96830Y23517D01*
X96814Y23536D01*
X96771Y23563D01*
X96735Y23598D01*
X96669Y23629D01*
X96607Y23669D01*
X96558Y23681D01*
X96512Y23703D01*
X96440Y23711D01*
X96369Y23729D01*
X96318Y23725D01*
X96268Y23731D01*
X96196Y23716D01*
X96124Y23710D01*
X96077Y23690D01*
X96027Y23679D01*
X95964Y23642D01*
X95897Y23614D01*
X95843Y23570D01*
X95816Y23554D01*
X95800Y23536D01*
X95766Y23509D01*
X94609Y22351D01*
X90409Y22351D01*
X90408Y22351D01*
X86284Y22351D01*
X82420Y24582D01*
X80188Y28446D01*
X80188Y40133D01*
X82420Y43998D01*
X86284Y46229D01*
X94609Y46229D01*
X96842Y43996D01*
X96849Y43952D01*
X96847Y43904D01*
X96869Y43832D01*
X96881Y43757D01*
X96903Y43714D01*
X96917Y43668D01*
X96960Y43606D01*
X96996Y43539D01*
X97031Y43506D01*
X97058Y43467D01*
X97119Y43422D01*
X97174Y43370D01*
X97218Y43350D01*
X97256Y43321D01*
X97329Y43298D01*
X97397Y43266D01*
X97445Y43261D01*
X97491Y43247D01*
X97567Y43248D01*
X97642Y43239D01*
X97689Y43250D01*
X97737Y43250D01*
X97808Y43275D01*
X97882Y43292D01*
X97923Y43316D01*
X97969Y43332D01*
X98028Y43379D01*
X98093Y43418D01*
X98124Y43454D01*
X98162Y43484D01*
X98239Y43588D01*
X98253Y43605D01*
X98256Y43611D01*
X98262Y43619D01*
X98480Y43998D01*
X102344Y46229D01*
X110670Y46229D01*
X112902Y43996D01*
X112902Y35407D01*
X112902Y35406D01*
X112902Y35405D01*
X112923Y35280D01*
X112942Y35164D01*
X112942Y35163D01*
X112942Y35162D01*
X113001Y35052D01*
X113057Y34947D01*
X113057Y34946D01*
X113058Y34945D01*
X113147Y34861D01*
X113235Y34777D01*
X113236Y34777D01*
X113237Y34776D01*
X113347Y34725D01*
X113458Y34674D01*
X113459Y34674D01*
X113460Y34673D01*
X113584Y34660D01*
X113702Y34647D01*
X113703Y34647D01*
X113705Y34647D01*
X113827Y34674D01*
X113943Y34699D01*
X113944Y34699D01*
X113945Y34700D01*
X114049Y34762D01*
X114154Y34825D01*
X114155Y34826D01*
X114156Y34826D01*
X114235Y34919D01*
X114314Y35012D01*
X114314Y35013D01*
X114315Y35014D01*
X114385Y35166D01*
X116722Y42177D01*
X116728Y42214D01*
X116742Y42249D01*
X116748Y42335D01*
X116761Y42420D01*
X116755Y42457D01*
X116757Y42495D01*
X116722Y42659D01*
X116705Y42710D01*
X117266Y43832D01*
X117275Y43863D01*
X117307Y43931D01*
X117703Y45121D01*
X117752Y45145D01*
X117782Y45167D01*
X117817Y45182D01*
X117882Y45239D01*
X117951Y45289D01*
X117973Y45320D01*
X118001Y45344D01*
X118092Y45485D01*
X118094Y45489D01*
X118117Y45534D01*
X119306Y45930D01*
X119335Y45946D01*
X119406Y45972D01*
X120527Y46532D01*
X120579Y46515D01*
X120616Y46509D01*
X120651Y46495D01*
X120737Y46490D01*
X120821Y46476D01*
X120859Y46482D01*
X120896Y46480D01*
X121060Y46515D01*
X121112Y46532D01*
X122233Y45972D01*
X122264Y45962D01*
X122333Y45930D01*
X123522Y45534D01*
X123546Y45485D01*
X123568Y45455D01*
X123583Y45420D01*
X123640Y45356D01*
X123690Y45286D01*
X123721Y45264D01*
X123746Y45236D01*
X123887Y45145D01*
X123890Y45143D01*
X123891Y45143D01*
X123935Y45121D01*
X124332Y43931D01*
X124347Y43902D01*
X124373Y43832D01*
X124934Y42710D01*
X124916Y42659D01*
X124910Y42622D01*
X124896Y42587D01*
X124891Y42501D01*
X124877Y42416D01*
X124884Y42379D01*
X124881Y42341D01*
X124916Y42177D01*
X128157Y32455D01*
X128200Y32373D01*
X128236Y32288D01*
X128261Y32257D01*
X128272Y32237D01*
X128295Y32215D01*
X128341Y32157D01*
X128694Y31804D01*
X128694Y30968D01*
X128700Y30930D01*
X128698Y30891D01*
X128733Y30727D01*
X130352Y25870D01*
X128941Y23046D01*
X125946Y22048D01*
X123122Y23459D01*
G37*
%LPD*%
%LPC*%
G36*
X357952Y663447D02*
X357952Y663447D01*
X352297Y669102D01*
X352297Y671145D01*
X352283Y671235D01*
X352275Y671326D01*
X352263Y671355D01*
X352258Y671387D01*
X352215Y671468D01*
X352179Y671552D01*
X352153Y671584D01*
X352142Y671605D01*
X352119Y671627D01*
X352074Y671683D01*
X335092Y688665D01*
X335076Y688676D01*
X335064Y688692D01*
X334976Y688748D01*
X334893Y688808D01*
X334874Y688814D01*
X334857Y688825D01*
X334756Y688850D01*
X334658Y688881D01*
X334638Y688880D01*
X334618Y688885D01*
X334515Y688877D01*
X334412Y688874D01*
X334393Y688867D01*
X334373Y688866D01*
X334329Y688847D01*
X326202Y688847D01*
X320547Y694502D01*
X320547Y702498D01*
X326202Y708153D01*
X334198Y708153D01*
X339853Y702498D01*
X339853Y697153D01*
X339867Y697063D01*
X339875Y696972D01*
X339887Y696943D01*
X339892Y696911D01*
X339935Y696830D01*
X339971Y696746D01*
X339997Y696714D01*
X340008Y696693D01*
X340031Y696671D01*
X340076Y696615D01*
X355407Y681284D01*
X355423Y681273D01*
X355435Y681257D01*
X355523Y681201D01*
X355606Y681141D01*
X355625Y681135D01*
X355642Y681124D01*
X355743Y681099D01*
X355841Y681068D01*
X355861Y681069D01*
X355881Y681064D01*
X355984Y681072D01*
X356087Y681075D01*
X356106Y681082D01*
X356126Y681083D01*
X356221Y681123D01*
X356318Y681159D01*
X356334Y681172D01*
X356352Y681179D01*
X356483Y681284D01*
X357952Y682753D01*
X365948Y682753D01*
X371603Y677098D01*
X371603Y669102D01*
X365948Y663447D01*
X357952Y663447D01*
G37*
%LPD*%
%LPC*%
G36*
X289813Y331723D02*
X289813Y331723D01*
X289813Y341123D01*
X292814Y341123D01*
X299213Y334724D01*
X299213Y331723D01*
X289813Y331723D01*
G37*
%LPD*%
%LPC*%
G36*
X289813Y370077D02*
X289813Y370077D01*
X289813Y379477D01*
X299213Y379477D01*
X299213Y376476D01*
X292814Y370077D01*
X289813Y370077D01*
G37*
%LPD*%
%LPC*%
G36*
X289813Y319277D02*
X289813Y319277D01*
X289813Y328677D01*
X299213Y328677D01*
X299213Y325676D01*
X292814Y319277D01*
X289813Y319277D01*
G37*
%LPD*%
%LPC*%
G36*
X43923Y508679D02*
X43923Y508679D01*
X52071Y508679D01*
X52071Y502756D01*
X51898Y502109D01*
X51563Y501530D01*
X51090Y501057D01*
X50511Y500722D01*
X49864Y500549D01*
X44495Y500549D01*
X44462Y500544D01*
X44376Y500540D01*
X43923Y500468D01*
X43923Y508679D01*
G37*
%LPD*%
%LPC*%
G36*
X40424Y500540D02*
X40424Y500540D01*
X40391Y500540D01*
X40305Y500549D01*
X34972Y500549D01*
X34325Y500722D01*
X33746Y501057D01*
X33273Y501530D01*
X32938Y502109D01*
X32765Y502756D01*
X32765Y508679D01*
X40895Y508679D01*
X40895Y500465D01*
X40424Y500540D01*
G37*
%LPD*%
%LPC*%
G36*
X153923Y40423D02*
X153923Y40423D01*
X153923Y49589D01*
X154928Y49430D01*
X156544Y48905D01*
X158058Y48133D01*
X159433Y47134D01*
X160634Y45933D01*
X161633Y44558D01*
X162405Y43044D01*
X162930Y41428D01*
X163089Y40423D01*
X153923Y40423D01*
G37*
%LPD*%
%LPC*%
G36*
X230923Y293623D02*
X230923Y293623D01*
X230923Y302789D01*
X231928Y302630D01*
X233544Y302105D01*
X235058Y301333D01*
X236433Y300334D01*
X237634Y299133D01*
X238633Y297758D01*
X239405Y296244D01*
X239930Y294628D01*
X240089Y293623D01*
X230923Y293623D01*
G37*
%LPD*%
%LPC*%
G36*
X141711Y40423D02*
X141711Y40423D01*
X141870Y41428D01*
X142395Y43044D01*
X143167Y44558D01*
X144166Y45933D01*
X145367Y47134D01*
X146742Y48133D01*
X148256Y48905D01*
X149872Y49430D01*
X150877Y49589D01*
X150877Y40423D01*
X141711Y40423D01*
G37*
%LPD*%
%LPC*%
G36*
X230923Y290577D02*
X230923Y290577D01*
X240089Y290577D01*
X239930Y289572D01*
X239405Y287956D01*
X238633Y286442D01*
X237634Y285067D01*
X236433Y283866D01*
X235058Y282867D01*
X233544Y282095D01*
X231928Y281570D01*
X230923Y281411D01*
X230923Y290577D01*
G37*
%LPD*%
%LPC*%
G36*
X218711Y293623D02*
X218711Y293623D01*
X218870Y294628D01*
X219395Y296244D01*
X220167Y297758D01*
X221166Y299133D01*
X222367Y300334D01*
X223742Y301333D01*
X225256Y302105D01*
X226872Y302630D01*
X227877Y302789D01*
X227877Y293623D01*
X218711Y293623D01*
G37*
%LPD*%
%LPC*%
G36*
X153923Y37377D02*
X153923Y37377D01*
X163089Y37377D01*
X162930Y36372D01*
X162405Y34756D01*
X161633Y33242D01*
X160634Y31867D01*
X159433Y30666D01*
X158058Y29667D01*
X156544Y28895D01*
X154928Y28370D01*
X153923Y28211D01*
X153923Y37377D01*
G37*
%LPD*%
%LPC*%
G36*
X149872Y28370D02*
X149872Y28370D01*
X148256Y28895D01*
X146742Y29667D01*
X145367Y30666D01*
X144166Y31867D01*
X143167Y33242D01*
X142395Y34756D01*
X141870Y36372D01*
X141711Y37377D01*
X150877Y37377D01*
X150877Y28211D01*
X149872Y28370D01*
G37*
%LPD*%
%LPC*%
G36*
X226872Y281570D02*
X226872Y281570D01*
X225256Y282095D01*
X223742Y282867D01*
X222367Y283866D01*
X221166Y285067D01*
X220167Y286442D01*
X219395Y287956D01*
X218870Y289572D01*
X218711Y290577D01*
X227877Y290577D01*
X227877Y281411D01*
X226872Y281570D01*
G37*
%LPD*%
%LPC*%
G36*
X141223Y331723D02*
X141223Y331723D01*
X141223Y339345D01*
X143488Y339345D01*
X148845Y333988D01*
X148845Y331723D01*
X141223Y331723D01*
G37*
%LPD*%
%LPC*%
G36*
X363473Y547623D02*
X363473Y547623D01*
X363473Y555245D01*
X365738Y555245D01*
X371095Y549888D01*
X371095Y547623D01*
X363473Y547623D01*
G37*
%LPD*%
%LPC*%
G36*
X130555Y331723D02*
X130555Y331723D01*
X130555Y333988D01*
X135912Y339345D01*
X138177Y339345D01*
X138177Y331723D01*
X130555Y331723D01*
G37*
%LPD*%
%LPC*%
G36*
X363473Y536955D02*
X363473Y536955D01*
X363473Y544577D01*
X371095Y544577D01*
X371095Y542312D01*
X365738Y536955D01*
X363473Y536955D01*
G37*
%LPD*%
%LPC*%
G36*
X352805Y547623D02*
X352805Y547623D01*
X352805Y549888D01*
X358162Y555245D01*
X360427Y555245D01*
X360427Y547623D01*
X352805Y547623D01*
G37*
%LPD*%
%LPC*%
G36*
X141223Y321055D02*
X141223Y321055D01*
X141223Y328677D01*
X148845Y328677D01*
X148845Y326412D01*
X143488Y321055D01*
X141223Y321055D01*
G37*
%LPD*%
%LPC*%
G36*
X135912Y321055D02*
X135912Y321055D01*
X130555Y326412D01*
X130555Y328677D01*
X138177Y328677D01*
X138177Y321055D01*
X135912Y321055D01*
G37*
%LPD*%
%LPC*%
G36*
X358162Y536955D02*
X358162Y536955D01*
X352805Y542312D01*
X352805Y544577D01*
X360427Y544577D01*
X360427Y536955D01*
X358162Y536955D01*
G37*
%LPD*%
%LPC*%
G36*
X42399Y509999D02*
X42399Y509999D01*
X42399Y510203D01*
X42419Y510203D01*
X42419Y509999D01*
X42399Y509999D01*
G37*
%LPD*%
%LPC*%
G36*
X229399Y292099D02*
X229399Y292099D01*
X229399Y292101D01*
X229401Y292101D01*
X229401Y292099D01*
X229399Y292099D01*
G37*
%LPD*%
%LPC*%
G36*
X190499Y368299D02*
X190499Y368299D01*
X190499Y368301D01*
X190501Y368301D01*
X190501Y368299D01*
X190499Y368299D01*
G37*
%LPD*%
%LPC*%
G36*
X361949Y546099D02*
X361949Y546099D01*
X361949Y546101D01*
X361951Y546101D01*
X361951Y546099D01*
X361949Y546099D01*
G37*
%LPD*%
%LPC*%
G36*
X38099Y317499D02*
X38099Y317499D01*
X38099Y317501D01*
X38101Y317501D01*
X38101Y317499D01*
X38099Y317499D01*
G37*
%LPD*%
%LPC*%
G36*
X152399Y38899D02*
X152399Y38899D01*
X152399Y38901D01*
X152401Y38901D01*
X152401Y38899D01*
X152399Y38899D01*
G37*
%LPD*%
%LPC*%
G36*
X139699Y330199D02*
X139699Y330199D01*
X139699Y330201D01*
X139701Y330201D01*
X139701Y330199D01*
X139699Y330199D01*
G37*
%LPD*%
%LPC*%
G36*
X317499Y139699D02*
X317499Y139699D01*
X317499Y139701D01*
X317501Y139701D01*
X317501Y139699D01*
X317499Y139699D01*
G37*
%LPD*%
D10*
X177038Y648462D02*
X166201Y664718D01*
X177038Y664718D02*
X166201Y648462D01*
X160048Y648462D02*
X160048Y664718D01*
X160048Y648462D02*
X155533Y648462D01*
X155429Y648464D01*
X155326Y648470D01*
X155222Y648480D01*
X155119Y648494D01*
X155017Y648512D01*
X154916Y648533D01*
X154815Y648559D01*
X154716Y648588D01*
X154617Y648621D01*
X154520Y648658D01*
X154425Y648699D01*
X154331Y648743D01*
X154239Y648791D01*
X154149Y648842D01*
X154060Y648897D01*
X153974Y648955D01*
X153891Y649017D01*
X153809Y649081D01*
X153731Y649149D01*
X153655Y649219D01*
X153581Y649292D01*
X153511Y649369D01*
X153443Y649447D01*
X153379Y649529D01*
X153317Y649612D01*
X153259Y649698D01*
X153204Y649787D01*
X153153Y649877D01*
X153105Y649969D01*
X153061Y650063D01*
X153020Y650158D01*
X152983Y650255D01*
X152950Y650354D01*
X152921Y650453D01*
X152895Y650554D01*
X152874Y650655D01*
X152856Y650757D01*
X152842Y650860D01*
X152832Y650964D01*
X152826Y651067D01*
X152824Y651171D01*
X152823Y651171D02*
X152823Y656590D01*
X152824Y656590D02*
X152826Y656691D01*
X152832Y656792D01*
X152841Y656893D01*
X152854Y656994D01*
X152871Y657094D01*
X152892Y657193D01*
X152916Y657291D01*
X152944Y657388D01*
X152976Y657485D01*
X153011Y657580D01*
X153050Y657673D01*
X153092Y657765D01*
X153138Y657856D01*
X153187Y657945D01*
X153239Y658031D01*
X153295Y658116D01*
X153353Y658199D01*
X153415Y658279D01*
X153480Y658357D01*
X153547Y658433D01*
X153617Y658506D01*
X153690Y658576D01*
X153766Y658643D01*
X153844Y658708D01*
X153924Y658770D01*
X154007Y658828D01*
X154092Y658884D01*
X154179Y658936D01*
X154267Y658985D01*
X154358Y659031D01*
X154450Y659073D01*
X154543Y659112D01*
X154638Y659147D01*
X154735Y659179D01*
X154832Y659207D01*
X154930Y659231D01*
X155029Y659252D01*
X155129Y659269D01*
X155230Y659282D01*
X155331Y659291D01*
X155432Y659297D01*
X155533Y659299D01*
X160048Y659299D01*
X143865Y648462D02*
X139350Y648462D01*
X143865Y648462D02*
X143966Y648464D01*
X144067Y648470D01*
X144168Y648479D01*
X144269Y648492D01*
X144369Y648509D01*
X144468Y648530D01*
X144566Y648554D01*
X144663Y648582D01*
X144760Y648614D01*
X144855Y648649D01*
X144948Y648688D01*
X145040Y648730D01*
X145131Y648776D01*
X145220Y648825D01*
X145306Y648877D01*
X145391Y648933D01*
X145474Y648991D01*
X145554Y649053D01*
X145632Y649118D01*
X145708Y649185D01*
X145781Y649255D01*
X145851Y649328D01*
X145918Y649404D01*
X145983Y649482D01*
X146045Y649562D01*
X146103Y649645D01*
X146159Y649730D01*
X146211Y649817D01*
X146260Y649905D01*
X146306Y649996D01*
X146348Y650088D01*
X146387Y650181D01*
X146422Y650276D01*
X146454Y650373D01*
X146482Y650470D01*
X146506Y650568D01*
X146527Y650667D01*
X146544Y650767D01*
X146557Y650868D01*
X146566Y650969D01*
X146572Y651070D01*
X146574Y651171D01*
X146575Y651171D02*
X146575Y655687D01*
X146574Y655687D02*
X146572Y655806D01*
X146566Y655926D01*
X146556Y656045D01*
X146542Y656163D01*
X146525Y656282D01*
X146503Y656399D01*
X146478Y656516D01*
X146448Y656631D01*
X146415Y656746D01*
X146378Y656860D01*
X146338Y656972D01*
X146293Y657083D01*
X146245Y657192D01*
X146194Y657300D01*
X146139Y657406D01*
X146080Y657510D01*
X146018Y657612D01*
X145953Y657712D01*
X145884Y657810D01*
X145812Y657906D01*
X145737Y657999D01*
X145660Y658089D01*
X145579Y658177D01*
X145495Y658262D01*
X145408Y658344D01*
X145319Y658424D01*
X145227Y658500D01*
X145133Y658574D01*
X145036Y658644D01*
X144938Y658711D01*
X144837Y658775D01*
X144733Y658835D01*
X144628Y658892D01*
X144521Y658945D01*
X144413Y658995D01*
X144303Y659041D01*
X144191Y659083D01*
X144078Y659122D01*
X143964Y659157D01*
X143849Y659188D01*
X143732Y659216D01*
X143615Y659239D01*
X143498Y659259D01*
X143379Y659275D01*
X143260Y659287D01*
X143141Y659295D01*
X143022Y659299D01*
X142902Y659299D01*
X142783Y659295D01*
X142664Y659287D01*
X142545Y659275D01*
X142426Y659259D01*
X142309Y659239D01*
X142192Y659216D01*
X142075Y659188D01*
X141960Y659157D01*
X141846Y659122D01*
X141733Y659083D01*
X141621Y659041D01*
X141511Y658995D01*
X141403Y658945D01*
X141296Y658892D01*
X141191Y658835D01*
X141087Y658775D01*
X140986Y658711D01*
X140888Y658644D01*
X140791Y658574D01*
X140697Y658500D01*
X140605Y658424D01*
X140516Y658344D01*
X140429Y658262D01*
X140345Y658177D01*
X140264Y658089D01*
X140187Y657999D01*
X140112Y657906D01*
X140040Y657810D01*
X139971Y657712D01*
X139906Y657612D01*
X139844Y657510D01*
X139785Y657406D01*
X139730Y657300D01*
X139679Y657192D01*
X139631Y657083D01*
X139586Y656972D01*
X139546Y656860D01*
X139509Y656746D01*
X139476Y656631D01*
X139446Y656516D01*
X139421Y656399D01*
X139399Y656282D01*
X139382Y656163D01*
X139368Y656045D01*
X139358Y655926D01*
X139352Y655806D01*
X139350Y655687D01*
X139350Y653881D01*
X146575Y653881D01*
X130318Y648462D02*
X125803Y648462D01*
X130318Y648462D02*
X130419Y648464D01*
X130520Y648470D01*
X130621Y648479D01*
X130722Y648492D01*
X130822Y648509D01*
X130921Y648530D01*
X131019Y648554D01*
X131116Y648582D01*
X131213Y648614D01*
X131308Y648649D01*
X131401Y648688D01*
X131493Y648730D01*
X131584Y648776D01*
X131673Y648825D01*
X131759Y648877D01*
X131844Y648933D01*
X131927Y648991D01*
X132007Y649053D01*
X132085Y649118D01*
X132161Y649185D01*
X132234Y649255D01*
X132304Y649328D01*
X132371Y649404D01*
X132436Y649482D01*
X132498Y649562D01*
X132556Y649645D01*
X132612Y649730D01*
X132664Y649817D01*
X132713Y649905D01*
X132759Y649996D01*
X132801Y650088D01*
X132840Y650181D01*
X132875Y650276D01*
X132907Y650373D01*
X132935Y650470D01*
X132959Y650568D01*
X132980Y650667D01*
X132997Y650767D01*
X133010Y650868D01*
X133019Y650969D01*
X133025Y651070D01*
X133027Y651171D01*
X133027Y655687D01*
X133025Y655806D01*
X133019Y655926D01*
X133009Y656045D01*
X132995Y656163D01*
X132978Y656282D01*
X132956Y656399D01*
X132931Y656516D01*
X132901Y656631D01*
X132868Y656746D01*
X132831Y656860D01*
X132791Y656972D01*
X132746Y657083D01*
X132698Y657192D01*
X132647Y657300D01*
X132592Y657406D01*
X132533Y657510D01*
X132471Y657612D01*
X132406Y657712D01*
X132337Y657810D01*
X132265Y657906D01*
X132190Y657999D01*
X132113Y658089D01*
X132032Y658177D01*
X131948Y658262D01*
X131861Y658344D01*
X131772Y658424D01*
X131680Y658500D01*
X131586Y658574D01*
X131489Y658644D01*
X131391Y658711D01*
X131290Y658775D01*
X131186Y658835D01*
X131081Y658892D01*
X130974Y658945D01*
X130866Y658995D01*
X130756Y659041D01*
X130644Y659083D01*
X130531Y659122D01*
X130417Y659157D01*
X130302Y659188D01*
X130185Y659216D01*
X130068Y659239D01*
X129951Y659259D01*
X129832Y659275D01*
X129713Y659287D01*
X129594Y659295D01*
X129475Y659299D01*
X129355Y659299D01*
X129236Y659295D01*
X129117Y659287D01*
X128998Y659275D01*
X128879Y659259D01*
X128762Y659239D01*
X128645Y659216D01*
X128528Y659188D01*
X128413Y659157D01*
X128299Y659122D01*
X128186Y659083D01*
X128074Y659041D01*
X127964Y658995D01*
X127856Y658945D01*
X127749Y658892D01*
X127644Y658835D01*
X127540Y658775D01*
X127439Y658711D01*
X127341Y658644D01*
X127244Y658574D01*
X127150Y658500D01*
X127058Y658424D01*
X126969Y658344D01*
X126882Y658262D01*
X126798Y658177D01*
X126717Y658089D01*
X126640Y657999D01*
X126565Y657906D01*
X126493Y657810D01*
X126424Y657712D01*
X126359Y657612D01*
X126297Y657510D01*
X126238Y657406D01*
X126183Y657300D01*
X126132Y657192D01*
X126084Y657083D01*
X126039Y656972D01*
X125999Y656860D01*
X125962Y656746D01*
X125929Y656631D01*
X125899Y656516D01*
X125874Y656399D01*
X125852Y656282D01*
X125835Y656163D01*
X125821Y656045D01*
X125811Y655926D01*
X125805Y655806D01*
X125803Y655687D01*
X125803Y653881D01*
X133027Y653881D01*
X120819Y42418D02*
X126238Y26162D01*
X115401Y26162D02*
X120819Y42418D01*
X116755Y30226D02*
X124883Y30226D01*
X109091Y26162D02*
X109091Y42418D01*
X104576Y42418D01*
X104443Y42416D01*
X104311Y42410D01*
X104179Y42400D01*
X104047Y42387D01*
X103915Y42369D01*
X103785Y42348D01*
X103654Y42323D01*
X103525Y42294D01*
X103397Y42261D01*
X103269Y42225D01*
X103143Y42185D01*
X103018Y42141D01*
X102894Y42093D01*
X102772Y42042D01*
X102651Y41987D01*
X102532Y41929D01*
X102414Y41867D01*
X102299Y41802D01*
X102185Y41733D01*
X102074Y41662D01*
X101965Y41586D01*
X101858Y41508D01*
X101753Y41427D01*
X101651Y41342D01*
X101551Y41255D01*
X101454Y41165D01*
X101359Y41072D01*
X101268Y40976D01*
X101179Y40878D01*
X101093Y40777D01*
X101010Y40673D01*
X100930Y40567D01*
X100854Y40459D01*
X100780Y40349D01*
X100710Y40236D01*
X100643Y40122D01*
X100580Y40005D01*
X100520Y39887D01*
X100463Y39767D01*
X100410Y39645D01*
X100361Y39522D01*
X100315Y39398D01*
X100273Y39272D01*
X100235Y39145D01*
X100200Y39017D01*
X100169Y38888D01*
X100142Y38759D01*
X100119Y38628D01*
X100099Y38497D01*
X100084Y38365D01*
X100072Y38233D01*
X100064Y38101D01*
X100060Y37968D01*
X100060Y37836D01*
X100064Y37703D01*
X100072Y37571D01*
X100084Y37439D01*
X100099Y37307D01*
X100119Y37176D01*
X100142Y37045D01*
X100169Y36916D01*
X100200Y36787D01*
X100235Y36659D01*
X100273Y36532D01*
X100315Y36406D01*
X100361Y36282D01*
X100410Y36159D01*
X100463Y36037D01*
X100520Y35917D01*
X100580Y35799D01*
X100643Y35682D01*
X100710Y35568D01*
X100780Y35455D01*
X100854Y35345D01*
X100930Y35237D01*
X101010Y35131D01*
X101093Y35027D01*
X101179Y34926D01*
X101268Y34828D01*
X101359Y34732D01*
X101454Y34639D01*
X101551Y34549D01*
X101651Y34462D01*
X101753Y34377D01*
X101858Y34296D01*
X101965Y34218D01*
X102074Y34142D01*
X102185Y34071D01*
X102299Y34002D01*
X102414Y33937D01*
X102532Y33875D01*
X102651Y33817D01*
X102772Y33762D01*
X102894Y33711D01*
X103018Y33663D01*
X103143Y33619D01*
X103269Y33579D01*
X103397Y33543D01*
X103525Y33510D01*
X103654Y33481D01*
X103785Y33456D01*
X103915Y33435D01*
X104047Y33417D01*
X104179Y33404D01*
X104311Y33394D01*
X104443Y33388D01*
X104576Y33386D01*
X104576Y33387D02*
X109091Y33387D01*
X103672Y33387D02*
X100060Y26162D01*
X93030Y26162D02*
X93030Y42418D01*
X88515Y42418D01*
X88384Y42416D01*
X88252Y42410D01*
X88121Y42401D01*
X87991Y42387D01*
X87860Y42370D01*
X87731Y42349D01*
X87602Y42325D01*
X87474Y42296D01*
X87346Y42264D01*
X87220Y42228D01*
X87095Y42189D01*
X86970Y42146D01*
X86848Y42099D01*
X86726Y42049D01*
X86606Y41995D01*
X86488Y41938D01*
X86372Y41877D01*
X86257Y41813D01*
X86144Y41746D01*
X86033Y41675D01*
X85925Y41601D01*
X85818Y41524D01*
X85714Y41444D01*
X85612Y41361D01*
X85513Y41276D01*
X85416Y41187D01*
X85322Y41095D01*
X85230Y41001D01*
X85141Y40904D01*
X85056Y40805D01*
X84973Y40703D01*
X84893Y40599D01*
X84816Y40492D01*
X84742Y40384D01*
X84671Y40273D01*
X84604Y40160D01*
X84540Y40045D01*
X84479Y39929D01*
X84422Y39811D01*
X84368Y39691D01*
X84318Y39569D01*
X84271Y39447D01*
X84228Y39322D01*
X84189Y39197D01*
X84153Y39071D01*
X84121Y38943D01*
X84092Y38815D01*
X84068Y38686D01*
X84047Y38557D01*
X84030Y38426D01*
X84016Y38296D01*
X84007Y38165D01*
X84001Y38033D01*
X83999Y37902D01*
X83999Y30678D01*
X84001Y30547D01*
X84007Y30415D01*
X84016Y30284D01*
X84030Y30154D01*
X84047Y30023D01*
X84068Y29894D01*
X84092Y29765D01*
X84121Y29637D01*
X84153Y29509D01*
X84189Y29383D01*
X84228Y29258D01*
X84271Y29133D01*
X84318Y29011D01*
X84368Y28889D01*
X84422Y28769D01*
X84479Y28651D01*
X84540Y28535D01*
X84604Y28420D01*
X84671Y28307D01*
X84742Y28196D01*
X84816Y28088D01*
X84893Y27981D01*
X84973Y27877D01*
X85056Y27775D01*
X85141Y27676D01*
X85230Y27579D01*
X85322Y27485D01*
X85416Y27393D01*
X85513Y27304D01*
X85612Y27219D01*
X85714Y27136D01*
X85818Y27056D01*
X85925Y26979D01*
X86033Y26905D01*
X86144Y26834D01*
X86257Y26767D01*
X86372Y26703D01*
X86488Y26642D01*
X86606Y26585D01*
X86726Y26531D01*
X86848Y26481D01*
X86970Y26434D01*
X87095Y26391D01*
X87220Y26352D01*
X87346Y26316D01*
X87474Y26284D01*
X87602Y26255D01*
X87731Y26231D01*
X87860Y26210D01*
X87991Y26193D01*
X88121Y26179D01*
X88252Y26170D01*
X88384Y26164D01*
X88515Y26162D01*
X93030Y26162D01*
D11*
X300990Y251460D03*
D12*
X317500Y164700D02*
X317500Y114700D01*
D11*
X334010Y27940D03*
X332740Y251460D03*
X302260Y27940D03*
D13*
X229400Y292100D03*
X329400Y292100D03*
X152400Y138900D03*
X152400Y38900D03*
D14*
X288290Y330200D03*
X266700Y330200D03*
X245110Y330200D03*
X288290Y381000D03*
X266700Y381000D03*
X245110Y381000D03*
D15*
X190500Y444500D03*
X190500Y419100D03*
X190500Y393700D03*
X190500Y368300D03*
X190500Y342900D03*
X190500Y317500D03*
X190500Y292100D03*
X190500Y266700D03*
X190500Y241300D03*
X190500Y215900D03*
X190500Y190500D03*
X190500Y165100D03*
X190500Y139700D03*
X190500Y114300D03*
X190500Y88900D03*
X190500Y63500D03*
X190500Y38100D03*
X38100Y38100D03*
X38100Y63500D03*
X38100Y88900D03*
X38100Y114300D03*
X38100Y139700D03*
X38100Y165100D03*
X38100Y190500D03*
X38100Y215900D03*
X38100Y241300D03*
X38100Y266700D03*
X38100Y292100D03*
X38100Y317500D03*
X38100Y342900D03*
X38100Y368300D03*
X38100Y393700D03*
X38100Y419100D03*
X38100Y444500D03*
D16*
X262382Y689948D03*
D17*
X262382Y669948D03*
X262382Y649948D03*
X262382Y629948D03*
X262382Y609948D03*
X262382Y589948D03*
X262382Y569948D03*
X262382Y549948D03*
X262382Y529948D03*
X262382Y509948D03*
D16*
X42418Y510202D03*
D17*
X42418Y530202D03*
X42418Y550202D03*
X42418Y570202D03*
X42418Y590202D03*
X42418Y610202D03*
X42418Y630202D03*
X42418Y650202D03*
X42418Y670202D03*
X42418Y690202D03*
D18*
X355600Y495300D03*
X330200Y495300D03*
D19*
X76200Y241300D03*
X76200Y114300D03*
D20*
X304800Y546100D03*
X304800Y673100D03*
X361950Y546100D03*
X361950Y673100D03*
D19*
X330200Y698500D03*
X330200Y571500D03*
X76200Y457200D03*
X76200Y330200D03*
D20*
X139700Y330200D03*
X139700Y457200D03*
D17*
X355600Y381000D03*
D21*
X355600Y429000D03*
X355600Y333000D03*
D17*
X355600Y361000D03*
X355600Y400000D03*
D22*
X38100Y38100D03*
X38100Y63500D03*
X38100Y88900D03*
X38100Y114300D03*
X38100Y139700D03*
X38100Y165100D03*
X38100Y190500D03*
X38100Y215900D03*
X38100Y241300D03*
X38100Y266700D03*
X38100Y292100D03*
X190500Y368300D03*
X190500Y342900D03*
X38100Y368300D03*
X38100Y393700D03*
X38100Y419100D03*
X38100Y444500D03*
X190500Y444500D03*
X190500Y419100D03*
X190500Y393700D03*
X38100Y317500D03*
X38100Y342900D03*
X190500Y317500D03*
X190500Y292100D03*
X190500Y266700D03*
X190500Y241300D03*
X190500Y215900D03*
X190500Y190500D03*
X190500Y165100D03*
X190500Y139700D03*
X190500Y114300D03*
X190500Y88900D03*
X190500Y63500D03*
X190500Y38100D03*
D17*
X42400Y510000D03*
X42400Y530000D03*
X42400Y550000D03*
X42400Y570000D03*
X42400Y590000D03*
X42400Y610000D03*
X42400Y630000D03*
X42400Y650000D03*
X42400Y670000D03*
D16*
X42400Y690000D03*
D17*
X262400Y510000D03*
X262400Y530000D03*
X262400Y550000D03*
X262400Y570000D03*
X262400Y590000D03*
X262400Y610000D03*
X262400Y630000D03*
X262400Y650000D03*
X262400Y670000D03*
X262400Y690000D03*
D23*
X279400Y469900D03*
D24*
X266700Y444500D03*
X254000Y469900D03*
D20*
X120650Y76200D03*
X120650Y203200D03*
D25*
X42400Y650000D02*
X42672Y652272D01*
X42418Y650202D01*
X76200Y457200D02*
X139700Y457200D01*
X76200Y615696D02*
X42672Y649224D01*
X76200Y615696D02*
X76200Y457200D01*
X42672Y649224D02*
X42400Y650000D01*
X76200Y356616D02*
X76200Y330200D01*
X76200Y356616D02*
X39624Y393192D01*
X38100Y393700D01*
X95250Y223266D02*
X95250Y133350D01*
X76200Y114300D01*
X95250Y223266D02*
X188976Y316992D01*
X190500Y317500D01*
X201168Y329184D02*
X243840Y329184D01*
X201168Y329184D02*
X192024Y320040D01*
X243840Y329184D02*
X245110Y330200D01*
X192024Y320040D02*
X190500Y317500D01*
X192024Y316992D01*
X42418Y690202D02*
X42672Y691896D01*
X265176Y441960D02*
X265176Y437388D01*
X245110Y417322D01*
X245110Y381000D01*
X265176Y441960D02*
X266700Y444500D01*
X279400Y614680D02*
X279400Y647700D01*
X304800Y673100D01*
X266700Y444500D02*
X268224Y441960D01*
X240792Y691896D02*
X42672Y691896D01*
X240792Y691896D02*
X252984Y704088D01*
X274320Y704088D01*
X304800Y673608D01*
X42672Y691896D02*
X42400Y690000D01*
X304800Y673608D02*
X304800Y673100D01*
X317500Y576580D02*
X317500Y533400D01*
X304800Y520700D01*
X292100Y520700D01*
X292100Y444500D01*
X266700Y444500D01*
X317500Y576580D02*
X279400Y614680D01*
X332232Y569976D02*
X332232Y496824D01*
X330200Y495300D01*
X332232Y569976D02*
X330200Y571500D01*
X360341Y669883D02*
X332232Y697992D01*
X330200Y698500D01*
X361950Y673100D02*
X360341Y669883D01*
X42672Y670560D02*
X42400Y670000D01*
X42418Y670202D02*
X42672Y670560D01*
X280416Y521208D02*
X280416Y496824D01*
X280416Y472440D01*
X280416Y521208D02*
X304800Y545592D01*
X280416Y472440D02*
X279400Y469900D01*
X304800Y545592D02*
X304800Y546100D01*
X44888Y667512D02*
X42400Y670000D01*
X241300Y508000D02*
X252476Y496824D01*
X241300Y508000D02*
X241300Y673100D01*
X252476Y496824D02*
X280416Y496824D01*
X241300Y673100D02*
X228600Y685800D01*
X63176Y685800D02*
X44888Y667512D01*
X63176Y685800D02*
X228600Y685800D01*
X262382Y689948D02*
X262128Y691896D01*
X262400Y690000D01*
X262128Y670560D02*
X262382Y669948D01*
X262400Y670000D02*
X262128Y670560D01*
X262128Y652272D02*
X262382Y649948D01*
X262400Y650000D02*
X262128Y652272D01*
X262128Y630936D02*
X262382Y629948D01*
X262400Y630000D02*
X262128Y630936D01*
X262382Y609948D02*
X262128Y609600D01*
X262400Y610000D01*
X262128Y591312D02*
X262382Y589948D01*
X262400Y590000D02*
X262128Y591312D01*
X262128Y569976D02*
X262382Y569948D01*
X262400Y570000D02*
X262128Y569976D01*
X262128Y551688D02*
X262382Y549948D01*
X262400Y550000D02*
X262128Y551688D01*
X262128Y530352D02*
X262382Y529948D01*
X262400Y530000D02*
X262128Y530352D01*
X262128Y512064D02*
X262382Y509948D01*
X262400Y510000D02*
X262128Y512064D01*
X42672Y530352D02*
X42400Y530000D01*
X42418Y530202D02*
X42672Y530352D01*
X42672Y569976D02*
X42400Y570000D01*
X42418Y570202D02*
X42672Y569976D01*
X190500Y139700D02*
X192024Y140208D01*
X42400Y590000D02*
X42672Y591312D01*
X42418Y590202D01*
X39624Y588264D02*
X21336Y569976D01*
X21336Y33528D01*
X33528Y21336D01*
X39624Y588264D02*
X42400Y590000D01*
X152400Y140208D02*
X188976Y140208D01*
X190500Y139700D01*
X152400Y140208D02*
X152400Y138900D01*
X62768Y88900D02*
X62768Y25400D01*
X58704Y21336D01*
X33528Y21336D01*
X107950Y88900D02*
X120650Y76200D01*
X107950Y88900D02*
X62768Y88900D01*
X146050Y145250D02*
X152400Y138900D01*
X146050Y145250D02*
X146050Y203200D01*
X120650Y203200D01*
X42672Y609600D02*
X42400Y610000D01*
X42418Y610202D02*
X42672Y609600D01*
X42400Y630000D02*
X42672Y630936D01*
X42418Y630202D01*
X39624Y368808D02*
X38100Y368300D01*
X195072Y469392D02*
X252984Y469392D01*
X195072Y469392D02*
X88392Y362712D01*
X88392Y316992D02*
X88392Y256032D01*
X88392Y316992D02*
X88392Y362712D01*
X88392Y256032D02*
X76200Y243840D01*
X252984Y469392D02*
X254000Y469900D01*
X76200Y243840D02*
X76200Y241300D01*
X64008Y341376D02*
X39624Y365760D01*
X64008Y341376D02*
X64008Y326136D01*
X73152Y316992D01*
X88392Y316992D01*
X39624Y365760D02*
X38100Y368300D01*
X304800Y27432D02*
X332232Y27432D01*
X304800Y27432D02*
X302260Y27940D01*
X332232Y27432D02*
X334010Y27940D01*
X332232Y252984D02*
X301752Y252984D01*
X300990Y251460D01*
X332232Y252984D02*
X332740Y251460D01*
X331978Y338074D02*
X353568Y359664D01*
X331978Y338074D02*
X331978Y302514D01*
X353568Y359664D02*
X355600Y361000D01*
X332596Y301646D02*
X329400Y298450D01*
X329400Y292100D01*
X332596Y301646D02*
X331978Y302514D01*
X335280Y271272D02*
X335280Y252984D01*
X332740Y251460D01*
X329400Y273367D02*
X329400Y292100D01*
X329400Y273367D02*
X335280Y271272D01*
X335280Y30480D02*
X334010Y27940D01*
X335280Y249936D02*
X332740Y251460D01*
X353568Y454152D02*
X353568Y493776D01*
X353568Y454152D02*
X338328Y438912D01*
X338328Y396240D01*
X353568Y381000D01*
X353568Y493776D02*
X355600Y495300D01*
X355600Y381000D02*
X353568Y381000D01*
X268224Y381000D02*
X268224Y332232D01*
X266700Y330200D01*
X265176Y329184D01*
X283464Y396240D02*
X338328Y396240D01*
X283464Y396240D02*
X268224Y381000D01*
X266700Y381000D01*
X266700Y330200D02*
X266700Y311150D01*
X209550Y311150D01*
X209550Y196850D01*
X203200Y190500D01*
X190500Y190500D01*
X42400Y550000D02*
X42672Y551688D01*
X42418Y550202D01*
M02*
