M48
;GenerationSoftware,Autodesk,EAGLE,9.5.1*%
;CreationDate,2020-02-10T05:52:24Z*%
FMAT,2
ICI,OFF
METRIC,TZ,000.000
T8C0.700
T7C0.787
T6C0.813
T5C0.900
T4C0.914
T3C1.016
T2C1.100
T1C1.400
%
G90
M71
T1
X35560Y33300
X35560Y42900
T2
X3810Y24130
X3810Y41910
X3810Y39370
X3810Y36830
X19050Y34290
X19050Y36830
X3810Y29210
X3810Y26670
X19050Y24130
X3810Y21590
X3810Y19050
X3810Y6350
X3810Y3810
X3810Y16510
X3810Y13970
X3810Y11430
X3810Y8890
X3810Y44450
X19050Y44450
X19050Y41910
X19050Y39370
X3810Y31750
X3810Y34290
X19050Y31750
X19050Y29210
X19050Y26670
X19050Y21590
X19050Y19050
X19050Y16510
X19050Y13970
X19050Y11430
X19050Y8890
X19050Y6350
X19050Y3810
T3
X3810Y26670
X3810Y29210
X3810Y31750
X3810Y34290
X3810Y36830
X3810Y39370
X3810Y41910
X3810Y44450
X19050Y44450
X19050Y41910
X19050Y39370
X19050Y36830
X19050Y34290
X19050Y31750
X19050Y29210
X3810Y21590
X19050Y24130
X19050Y21590
X19050Y19050
X19050Y16510
X19050Y13970
X19050Y11430
X19050Y8890
X19050Y6350
X19050Y3810
X3810Y24130
X3810Y3810
X3810Y6350
X3810Y8890
X3810Y11430
X3810Y13970
X3810Y16510
X3810Y19050
X19050Y26670
T4
X4242Y69020
X4242Y51020
X26238Y68995
X26238Y66995
X26238Y64995
X26238Y62995
X26238Y60995
X26238Y58995
X26238Y56995
X26238Y54995
X26238Y52995
X26238Y50995
X4242Y53020
X4242Y55020
X4242Y57020
X4242Y59020
X4242Y61020
X4242Y63020
X4242Y65020
X4242Y67020
T5
X15240Y3890
X15240Y13890
X32940Y29210
X22940Y29210
T6
X26670Y38100
X28829Y38100
X24511Y33020
X26670Y33020
X28829Y33020
X24511Y38100
X33020Y69850
X33020Y57150
X7620Y45720
X7620Y33020
X13970Y33020
X13970Y45720
X30480Y54610
X36195Y54610
X30480Y67310
X12065Y20320
X12065Y7620
X7620Y11430
X7620Y24130
X33020Y49530
X35560Y49530
X36195Y67310
T7
X27940Y46990
X26670Y44450
X25400Y46990
T8
X35560Y38100
X35560Y36100
X35560Y40000
X4240Y55000
X4240Y57000
X4240Y59000
X4240Y61000
X4240Y63000
X4240Y51000
X4240Y67000
X4240Y69000
X26240Y51000
X26240Y53000
X26240Y55000
X26240Y57000
X26240Y59000
X26240Y61000
X26240Y63000
X26240Y65000
X26240Y67000
X26240Y69000
X4240Y53000
X4240Y65000
M30