G04 EAGLE Gerber RS-274X export*
G75*
%MOIN*%
%FSLAX34Y34*%
%LPD*%
%INBottom Copper*%
%IPPOS*%
%AMOC8*
5,1,8,0,0,1.08239X$1,22.5*%
G01*
%ADD10C,0.006000*%
%ADD11R,0.125000X0.080000*%
%ADD12C,0.314961*%
%ADD13C,0.065000*%
%ADD14P,0.071438X8X202.500000*%
%ADD15C,0.074000*%
%ADD16R,0.056000X0.056000*%
%ADD17C,0.056000*%
%ADD18P,0.056284X8X202.500000*%
%ADD19P,0.056284X8X292.500000*%
%ADD20P,0.056284X8X112.500000*%
%ADD21C,0.100000*%
%ADD22C,0.076000*%
%ADD23C,0.051000*%
%ADD24R,0.051000X0.051000*%
%ADD25C,0.012000*%

G36*
X15001Y401D02*
X15001Y401D01*
X15002Y401D01*
X15006Y402D01*
X15009Y402D01*
X15010Y403D01*
X15011Y403D01*
X15015Y405D01*
X15018Y407D01*
X15019Y408D01*
X15022Y411D01*
X15024Y414D01*
X15025Y415D01*
X15025Y416D01*
X15027Y419D01*
X15028Y423D01*
X15028Y424D01*
X15029Y425D01*
X15029Y430D01*
X15029Y28000D01*
X15029Y28001D01*
X15029Y28002D01*
X15028Y28006D01*
X15028Y28009D01*
X15027Y28010D01*
X15027Y28011D01*
X15025Y28015D01*
X15023Y28018D01*
X15022Y28019D01*
X15019Y28022D01*
X15016Y28024D01*
X15015Y28025D01*
X15014Y28025D01*
X15011Y28027D01*
X15007Y28028D01*
X15006Y28028D01*
X15005Y28029D01*
X15000Y28029D01*
X430Y28029D01*
X429Y28029D01*
X428Y28029D01*
X424Y28028D01*
X421Y28028D01*
X420Y28027D01*
X419Y28027D01*
X415Y28025D01*
X412Y28023D01*
X411Y28022D01*
X408Y28019D01*
X406Y28016D01*
X405Y28015D01*
X405Y28014D01*
X403Y28011D01*
X402Y28007D01*
X402Y28006D01*
X401Y28005D01*
X401Y28000D01*
X401Y430D01*
X401Y429D01*
X401Y428D01*
X402Y424D01*
X402Y421D01*
X403Y420D01*
X403Y419D01*
X405Y415D01*
X407Y412D01*
X408Y411D01*
X411Y408D01*
X414Y406D01*
X415Y405D01*
X416Y405D01*
X419Y403D01*
X423Y402D01*
X424Y402D01*
X425Y401D01*
X430Y401D01*
X15000Y401D01*
X15001Y401D01*
G37*
%LPC*%
G36*
X1245Y659D02*
X1245Y659D01*
X659Y1245D01*
X659Y22515D01*
X774Y22629D01*
X1262Y23118D01*
X1265Y23122D01*
X1267Y23125D01*
X1268Y23125D01*
X1269Y23130D01*
X1270Y23134D01*
X1270Y23135D01*
X1270Y23139D01*
X1270Y23144D01*
X1269Y23148D01*
X1269Y23310D01*
X1269Y23313D01*
X1269Y23314D01*
X1269Y23316D01*
X1330Y23463D01*
X1443Y23576D01*
X1498Y23599D01*
X1501Y23600D01*
X1503Y23602D01*
X1505Y23603D01*
X1506Y23604D01*
X1508Y23606D01*
X1510Y23608D01*
X1511Y23610D01*
X1512Y23611D01*
X1513Y23614D01*
X1515Y23617D01*
X1515Y23619D01*
X1516Y23620D01*
X1516Y23623D01*
X1516Y23626D01*
X1516Y23628D01*
X1516Y23630D01*
X1515Y23633D01*
X1514Y23636D01*
X1514Y23637D01*
X1513Y23639D01*
X1511Y23641D01*
X1510Y23644D01*
X1509Y23645D01*
X1507Y23647D01*
X1505Y23648D01*
X1503Y23650D01*
X1500Y23652D01*
X1499Y23652D01*
X1498Y23653D01*
X1442Y23676D01*
X1330Y23789D01*
X1269Y23936D01*
X1269Y24097D01*
X1269Y24098D01*
X1269Y24100D01*
X1269Y24101D01*
X1269Y24102D01*
X1269Y24103D01*
X1330Y24251D01*
X1443Y24363D01*
X1498Y24386D01*
X1501Y24388D01*
X1503Y24389D01*
X1505Y24390D01*
X1506Y24391D01*
X1508Y24394D01*
X1510Y24396D01*
X1511Y24397D01*
X1512Y24399D01*
X1513Y24401D01*
X1515Y24404D01*
X1515Y24406D01*
X1516Y24408D01*
X1516Y24411D01*
X1516Y24413D01*
X1516Y24415D01*
X1516Y24417D01*
X1515Y24420D01*
X1514Y24423D01*
X1514Y24425D01*
X1513Y24426D01*
X1511Y24429D01*
X1510Y24431D01*
X1509Y24433D01*
X1507Y24434D01*
X1505Y24436D01*
X1503Y24438D01*
X1500Y24439D01*
X1500Y24440D01*
X1499Y24440D01*
X1498Y24440D01*
X1442Y24463D01*
X1330Y24576D01*
X1269Y24723D01*
X1269Y24884D01*
X1269Y24885D01*
X1269Y24888D01*
X1269Y24889D01*
X1269Y24890D01*
X1269Y24891D01*
X1330Y25038D01*
X1443Y25151D01*
X1498Y25174D01*
X1501Y25175D01*
X1503Y25176D01*
X1505Y25178D01*
X1506Y25179D01*
X1508Y25181D01*
X1510Y25183D01*
X1511Y25185D01*
X1512Y25186D01*
X1513Y25189D01*
X1515Y25191D01*
X1515Y25193D01*
X1516Y25195D01*
X1516Y25198D01*
X1516Y25201D01*
X1516Y25203D01*
X1516Y25205D01*
X1515Y25207D01*
X1514Y25210D01*
X1514Y25212D01*
X1513Y25214D01*
X1511Y25216D01*
X1510Y25219D01*
X1509Y25220D01*
X1507Y25222D01*
X1505Y25223D01*
X1503Y25225D01*
X1500Y25227D01*
X1499Y25227D01*
X1498Y25228D01*
X1442Y25251D01*
X1330Y25364D01*
X1269Y25511D01*
X1269Y25672D01*
X1269Y25675D01*
X1269Y25676D01*
X1269Y25678D01*
X1330Y25826D01*
X1443Y25938D01*
X1498Y25961D01*
X1501Y25963D01*
X1503Y25964D01*
X1505Y25965D01*
X1506Y25966D01*
X1508Y25968D01*
X1510Y25970D01*
X1511Y25972D01*
X1512Y25974D01*
X1513Y25976D01*
X1515Y25979D01*
X1515Y25981D01*
X1516Y25982D01*
X1516Y25985D01*
X1516Y25988D01*
X1516Y25990D01*
X1516Y25992D01*
X1515Y25995D01*
X1514Y25998D01*
X1514Y25999D01*
X1513Y26001D01*
X1511Y26004D01*
X1510Y26006D01*
X1509Y26007D01*
X1507Y26009D01*
X1505Y26011D01*
X1503Y26013D01*
X1500Y26014D01*
X1499Y26015D01*
X1498Y26015D01*
X1442Y26038D01*
X1330Y26151D01*
X1269Y26298D01*
X1269Y26459D01*
X1269Y26460D01*
X1269Y26463D01*
X1269Y26464D01*
X1269Y26465D01*
X1269Y26466D01*
X1330Y26613D01*
X1432Y26715D01*
X1434Y26717D01*
X1436Y26719D01*
X1436Y26721D01*
X1438Y26722D01*
X1438Y26725D01*
X1440Y26728D01*
X1440Y26730D01*
X1440Y26732D01*
X1440Y26735D01*
X1441Y26737D01*
X1440Y26739D01*
X1440Y26741D01*
X1439Y26744D01*
X1438Y26747D01*
X1437Y26748D01*
X1437Y26750D01*
X1435Y26752D01*
X1433Y26755D01*
X1432Y26756D01*
X1430Y26757D01*
X1428Y26759D01*
X1426Y26761D01*
X1424Y26761D01*
X1422Y26762D01*
X1419Y26763D01*
X1417Y26764D01*
X1414Y26764D01*
X1413Y26765D01*
X1412Y26765D01*
X1411Y26765D01*
X1339Y26765D01*
X1269Y26835D01*
X1269Y27495D01*
X1339Y27566D01*
X1565Y27566D01*
X1568Y27567D01*
X1571Y27567D01*
X1574Y27568D01*
X1575Y27568D01*
X1576Y27568D01*
X1590Y27574D01*
X1750Y27574D01*
X1764Y27568D01*
X1766Y27568D01*
X1769Y27567D01*
X1772Y27566D01*
X1773Y27566D01*
X1775Y27566D01*
X1999Y27566D01*
X2070Y27495D01*
X2070Y27450D01*
X2070Y27449D01*
X2070Y27448D01*
X2071Y27444D01*
X2072Y27441D01*
X2072Y27440D01*
X2072Y27439D01*
X2074Y27435D01*
X2076Y27432D01*
X2077Y27431D01*
X2080Y27428D01*
X2083Y27426D01*
X2084Y27425D01*
X2085Y27425D01*
X2088Y27423D01*
X2092Y27422D01*
X2093Y27422D01*
X2094Y27421D01*
X2099Y27421D01*
X9393Y27421D01*
X9397Y27421D01*
X9401Y27422D01*
X9402Y27422D01*
X9406Y27424D01*
X9410Y27426D01*
X9410Y27427D01*
X9411Y27427D01*
X9414Y27429D01*
X9885Y27901D01*
X10875Y27901D01*
X11886Y26889D01*
X11890Y26887D01*
X11893Y26885D01*
X11893Y26884D01*
X11894Y26884D01*
X11898Y26883D01*
X11902Y26881D01*
X11903Y26881D01*
X11904Y26881D01*
X11907Y26881D01*
X12158Y26881D01*
X12381Y26658D01*
X12381Y26342D01*
X12158Y26119D01*
X11887Y26119D01*
X11883Y26119D01*
X11879Y26118D01*
X11878Y26118D01*
X11874Y26116D01*
X11870Y26114D01*
X11870Y26113D01*
X11869Y26113D01*
X11866Y26111D01*
X11189Y25434D01*
X11187Y25430D01*
X11185Y25427D01*
X11184Y25427D01*
X11184Y25426D01*
X11183Y25422D01*
X11181Y25418D01*
X11181Y25417D01*
X11181Y25416D01*
X11181Y25413D01*
X11181Y24287D01*
X11181Y24283D01*
X11182Y24279D01*
X11182Y24278D01*
X11184Y24274D01*
X11186Y24270D01*
X11187Y24270D01*
X11187Y24269D01*
X11189Y24266D01*
X12566Y22889D01*
X12688Y22768D01*
X12689Y22767D01*
X12689Y22766D01*
X12693Y22764D01*
X12696Y22762D01*
X12697Y22762D01*
X12698Y22761D01*
X12701Y22760D01*
X12705Y22759D01*
X12706Y22759D01*
X12707Y22759D01*
X12711Y22760D01*
X12714Y22760D01*
X12715Y22760D01*
X12716Y22760D01*
X12720Y22762D01*
X12723Y22763D01*
X12724Y22764D01*
X12725Y22764D01*
X12729Y22768D01*
X12842Y22881D01*
X13158Y22881D01*
X13381Y22658D01*
X13381Y22342D01*
X13269Y22231D01*
X13267Y22228D01*
X13265Y22225D01*
X13264Y22224D01*
X13264Y22223D01*
X13263Y22219D01*
X13261Y22216D01*
X13261Y22214D01*
X13261Y22213D01*
X13261Y22210D01*
X13261Y19790D01*
X13261Y19786D01*
X13262Y19782D01*
X13262Y19781D01*
X13262Y19780D01*
X13264Y19777D01*
X13266Y19773D01*
X13267Y19772D01*
X13267Y19771D01*
X13269Y19769D01*
X13381Y19658D01*
X13381Y19342D01*
X13158Y19119D01*
X12842Y19119D01*
X12619Y19342D01*
X12619Y19658D01*
X12842Y19881D01*
X12870Y19881D01*
X12871Y19881D01*
X12872Y19881D01*
X12876Y19882D01*
X12879Y19882D01*
X12880Y19883D01*
X12881Y19883D01*
X12885Y19885D01*
X12888Y19887D01*
X12889Y19888D01*
X12892Y19891D01*
X12894Y19894D01*
X12895Y19895D01*
X12895Y19896D01*
X12897Y19899D01*
X12898Y19903D01*
X12898Y19904D01*
X12899Y19905D01*
X12899Y19910D01*
X12899Y22090D01*
X12899Y22091D01*
X12899Y22092D01*
X12898Y22096D01*
X12898Y22099D01*
X12897Y22100D01*
X12897Y22101D01*
X12895Y22105D01*
X12893Y22108D01*
X12892Y22109D01*
X12889Y22112D01*
X12886Y22114D01*
X12885Y22115D01*
X12884Y22115D01*
X12881Y22117D01*
X12877Y22118D01*
X12876Y22118D01*
X12875Y22119D01*
X12870Y22119D01*
X12842Y22119D01*
X12731Y22231D01*
X12728Y22233D01*
X12726Y22235D01*
X12724Y22235D01*
X12723Y22236D01*
X12720Y22237D01*
X12717Y22238D01*
X12716Y22239D01*
X12714Y22239D01*
X12711Y22239D01*
X12708Y22239D01*
X12706Y22239D01*
X12704Y22239D01*
X12701Y22238D01*
X12699Y22237D01*
X12697Y22236D01*
X12695Y22235D01*
X12693Y22234D01*
X12691Y22232D01*
X12689Y22231D01*
X12688Y22229D01*
X12686Y22227D01*
X12685Y22225D01*
X12684Y22223D01*
X12683Y22221D01*
X12682Y22218D01*
X12681Y22216D01*
X12681Y22213D01*
X12681Y22212D01*
X12681Y22211D01*
X12681Y22210D01*
X12681Y20925D01*
X12075Y20319D01*
X11710Y20319D01*
X11709Y20319D01*
X11708Y20319D01*
X11704Y20318D01*
X11701Y20318D01*
X11700Y20317D01*
X11699Y20317D01*
X11695Y20315D01*
X11692Y20313D01*
X11691Y20312D01*
X11688Y20309D01*
X11686Y20306D01*
X11685Y20305D01*
X11685Y20304D01*
X11683Y20301D01*
X11682Y20297D01*
X11682Y20296D01*
X11681Y20295D01*
X11681Y20290D01*
X11681Y17425D01*
X11575Y17319D01*
X10905Y17319D01*
X10904Y17319D01*
X10903Y17319D01*
X10899Y17318D01*
X10896Y17318D01*
X10895Y17317D01*
X10894Y17317D01*
X10890Y17315D01*
X10887Y17313D01*
X10886Y17312D01*
X10883Y17309D01*
X10881Y17306D01*
X10880Y17305D01*
X10880Y17304D01*
X10878Y17301D01*
X10877Y17297D01*
X10877Y17296D01*
X10876Y17295D01*
X10876Y17290D01*
X10876Y17195D01*
X10805Y17124D01*
X10612Y17124D01*
X10608Y17124D01*
X10604Y17123D01*
X10603Y17123D01*
X10599Y17121D01*
X10595Y17119D01*
X10595Y17118D01*
X10594Y17118D01*
X10591Y17116D01*
X9839Y16364D01*
X9837Y16360D01*
X9835Y16357D01*
X9834Y16357D01*
X9834Y16356D01*
X9833Y16352D01*
X9831Y16348D01*
X9831Y16347D01*
X9831Y16346D01*
X9831Y16343D01*
X9831Y15469D01*
X9831Y15465D01*
X9832Y15461D01*
X9832Y15460D01*
X9832Y15459D01*
X9834Y15456D01*
X9836Y15452D01*
X9837Y15451D01*
X9837Y15450D01*
X9839Y15448D01*
X10054Y15233D01*
X10055Y15233D01*
X10056Y15232D01*
X10059Y15230D01*
X10062Y15228D01*
X10063Y15227D01*
X10064Y15227D01*
X10068Y15226D01*
X10071Y15225D01*
X10072Y15225D01*
X10073Y15225D01*
X10077Y15225D01*
X10081Y15225D01*
X10082Y15226D01*
X10083Y15226D01*
X10086Y15227D01*
X10090Y15229D01*
X10091Y15229D01*
X10092Y15230D01*
X10096Y15233D01*
X10313Y15451D01*
X10687Y15451D01*
X10700Y15437D01*
X10701Y15437D01*
X10702Y15436D01*
X10705Y15434D01*
X10708Y15432D01*
X10709Y15431D01*
X10710Y15431D01*
X10714Y15430D01*
X10717Y15429D01*
X10718Y15429D01*
X10719Y15429D01*
X10723Y15429D01*
X10727Y15429D01*
X10728Y15430D01*
X10729Y15430D01*
X10732Y15431D01*
X10736Y15433D01*
X10737Y15434D01*
X10742Y15437D01*
X11085Y15781D01*
X13110Y15781D01*
X13111Y15781D01*
X13112Y15781D01*
X13116Y15782D01*
X13119Y15782D01*
X13120Y15783D01*
X13121Y15783D01*
X13125Y15785D01*
X13128Y15787D01*
X13129Y15788D01*
X13132Y15791D01*
X13134Y15794D01*
X13135Y15795D01*
X13135Y15796D01*
X13137Y15799D01*
X13138Y15803D01*
X13138Y15804D01*
X13139Y15805D01*
X13139Y15810D01*
X13139Y17355D01*
X13731Y17946D01*
X13733Y17950D01*
X13735Y17953D01*
X13736Y17953D01*
X13736Y17954D01*
X13737Y17958D01*
X13739Y17962D01*
X13739Y17963D01*
X13739Y17964D01*
X13739Y17967D01*
X13739Y19210D01*
X13739Y19214D01*
X13738Y19218D01*
X13738Y19219D01*
X13738Y19220D01*
X13736Y19223D01*
X13734Y19227D01*
X13733Y19228D01*
X13733Y19229D01*
X13731Y19231D01*
X13619Y19342D01*
X13619Y19658D01*
X13842Y19881D01*
X14158Y19881D01*
X14381Y19658D01*
X14381Y19342D01*
X14158Y19119D01*
X14130Y19119D01*
X14129Y19119D01*
X14128Y19119D01*
X14124Y19118D01*
X14121Y19118D01*
X14120Y19117D01*
X14119Y19117D01*
X14115Y19115D01*
X14112Y19113D01*
X14111Y19112D01*
X14108Y19109D01*
X14106Y19106D01*
X14105Y19105D01*
X14105Y19104D01*
X14103Y19101D01*
X14102Y19097D01*
X14102Y19096D01*
X14101Y19095D01*
X14101Y19090D01*
X14101Y17805D01*
X13856Y17560D01*
X13854Y17558D01*
X13852Y17556D01*
X13852Y17554D01*
X13850Y17553D01*
X13850Y17550D01*
X13848Y17547D01*
X13848Y17545D01*
X13848Y17544D01*
X13848Y17541D01*
X13848Y17538D01*
X13848Y17536D01*
X13848Y17534D01*
X13849Y17531D01*
X13850Y17528D01*
X13851Y17527D01*
X13851Y17525D01*
X13853Y17523D01*
X13855Y17520D01*
X13856Y17519D01*
X13858Y17518D01*
X13860Y17516D01*
X13862Y17514D01*
X13864Y17514D01*
X13866Y17513D01*
X13869Y17512D01*
X13871Y17511D01*
X13874Y17511D01*
X13875Y17511D01*
X13876Y17511D01*
X13877Y17511D01*
X14123Y17511D01*
X14352Y17416D01*
X14526Y17241D01*
X14621Y17013D01*
X14621Y16766D01*
X14526Y16538D01*
X14352Y16364D01*
X14123Y16269D01*
X13877Y16269D01*
X13648Y16364D01*
X13551Y16461D01*
X13548Y16463D01*
X13546Y16465D01*
X13544Y16466D01*
X13543Y16467D01*
X13540Y16468D01*
X13537Y16469D01*
X13536Y16469D01*
X13534Y16470D01*
X13531Y16469D01*
X13528Y16470D01*
X13526Y16469D01*
X13524Y16469D01*
X13521Y16468D01*
X13519Y16467D01*
X13517Y16466D01*
X13515Y16466D01*
X13513Y16464D01*
X13511Y16462D01*
X13509Y16461D01*
X13508Y16460D01*
X13506Y16457D01*
X13505Y16455D01*
X13504Y16453D01*
X13503Y16452D01*
X13502Y16449D01*
X13501Y16446D01*
X13501Y16443D01*
X13501Y16442D01*
X13501Y16441D01*
X13501Y15687D01*
X13501Y15683D01*
X13502Y15679D01*
X13502Y15678D01*
X13504Y15674D01*
X13506Y15670D01*
X13507Y15670D01*
X13507Y15669D01*
X13509Y15666D01*
X13560Y15615D01*
X13563Y15613D01*
X13566Y15611D01*
X13567Y15610D01*
X13568Y15610D01*
X13572Y15609D01*
X13575Y15607D01*
X13576Y15607D01*
X13577Y15607D01*
X13581Y15607D01*
X13585Y15607D01*
X13586Y15607D01*
X13587Y15607D01*
X13590Y15609D01*
X13594Y15610D01*
X13595Y15610D01*
X13596Y15611D01*
X13599Y15613D01*
X13602Y15615D01*
X13602Y15616D01*
X13603Y15617D01*
X13605Y15620D01*
X13607Y15623D01*
X13608Y15624D01*
X13608Y15625D01*
X13609Y15629D01*
X13610Y15632D01*
X13610Y15633D01*
X13610Y15634D01*
X13610Y15638D01*
X13610Y15642D01*
X13609Y15643D01*
X13609Y15644D01*
X13609Y15645D01*
X13608Y15647D01*
X13599Y15668D01*
X13599Y15828D01*
X13660Y15975D01*
X13773Y16088D01*
X13920Y16149D01*
X14080Y16149D01*
X14227Y16088D01*
X14340Y15975D01*
X14401Y15828D01*
X14401Y15668D01*
X14340Y15521D01*
X14227Y15408D01*
X14209Y15401D01*
X14207Y15399D01*
X14204Y15398D01*
X14203Y15397D01*
X14201Y15396D01*
X14200Y15394D01*
X14197Y15392D01*
X14197Y15390D01*
X14195Y15389D01*
X14194Y15386D01*
X14193Y15383D01*
X14193Y15381D01*
X14192Y15380D01*
X14192Y15377D01*
X14191Y15374D01*
X14192Y15372D01*
X14192Y15370D01*
X14193Y15367D01*
X14193Y15364D01*
X14194Y15363D01*
X14195Y15361D01*
X14196Y15359D01*
X14198Y15356D01*
X14199Y15355D01*
X14200Y15353D01*
X14203Y15351D01*
X14205Y15350D01*
X14207Y15348D01*
X14208Y15348D01*
X14209Y15347D01*
X14227Y15340D01*
X14340Y15227D01*
X14401Y15080D01*
X14401Y14920D01*
X14340Y14773D01*
X14227Y14660D01*
X14162Y14633D01*
X14159Y14632D01*
X14157Y14631D01*
X14155Y14629D01*
X14154Y14628D01*
X14152Y14626D01*
X14150Y14624D01*
X14149Y14622D01*
X14148Y14621D01*
X14147Y14618D01*
X14145Y14616D01*
X14145Y14614D01*
X14144Y14612D01*
X14144Y14609D01*
X14144Y14606D01*
X14144Y14604D01*
X14144Y14602D01*
X14145Y14600D01*
X14146Y14597D01*
X14146Y14595D01*
X14147Y14593D01*
X14149Y14591D01*
X14150Y14588D01*
X14152Y14587D01*
X14153Y14585D01*
X14155Y14584D01*
X14157Y14582D01*
X14160Y14580D01*
X14161Y14580D01*
X14162Y14579D01*
X14227Y14552D01*
X14340Y14440D01*
X14401Y14292D01*
X14401Y14133D01*
X14340Y13986D01*
X14227Y13873D01*
X14080Y13812D01*
X13920Y13812D01*
X13873Y13832D01*
X13868Y13833D01*
X13863Y13834D01*
X13859Y13833D01*
X13854Y13833D01*
X13849Y13831D01*
X13845Y13829D01*
X13841Y13825D01*
X13759Y13743D01*
X13756Y13740D01*
X13754Y13737D01*
X13754Y13736D01*
X13753Y13735D01*
X13752Y13732D01*
X13751Y13728D01*
X13751Y13727D01*
X13750Y13726D01*
X13751Y13722D01*
X13750Y13718D01*
X13751Y13718D01*
X13751Y13717D01*
X13752Y13713D01*
X13753Y13709D01*
X13754Y13709D01*
X13754Y13708D01*
X13757Y13705D01*
X13759Y13702D01*
X13760Y13701D01*
X13760Y13700D01*
X13764Y13698D01*
X13767Y13696D01*
X13768Y13696D01*
X13768Y13695D01*
X13772Y13694D01*
X13776Y13693D01*
X13777Y13693D01*
X13778Y13693D01*
X13782Y13694D01*
X13785Y13694D01*
X13787Y13694D01*
X13788Y13695D01*
X13791Y13695D01*
X13877Y13731D01*
X14123Y13731D01*
X14352Y13636D01*
X14526Y13462D01*
X14621Y13234D01*
X14621Y12987D01*
X14526Y12759D01*
X14352Y12584D01*
X14123Y12489D01*
X13877Y12489D01*
X13648Y12584D01*
X13474Y12759D01*
X13379Y12987D01*
X13379Y13234D01*
X13415Y13320D01*
X13415Y13321D01*
X13415Y13322D01*
X13416Y13323D01*
X13417Y13327D01*
X13417Y13328D01*
X13417Y13329D01*
X13417Y13333D01*
X13416Y13337D01*
X13416Y13338D01*
X13414Y13342D01*
X13413Y13346D01*
X13412Y13346D01*
X13412Y13347D01*
X13409Y13350D01*
X13407Y13353D01*
X13406Y13353D01*
X13406Y13354D01*
X13402Y13356D01*
X13399Y13358D01*
X13398Y13358D01*
X13397Y13359D01*
X13393Y13359D01*
X13389Y13360D01*
X13388Y13360D01*
X13384Y13359D01*
X13380Y13359D01*
X13379Y13359D01*
X13378Y13358D01*
X13375Y13357D01*
X13371Y13355D01*
X13370Y13354D01*
X13369Y13353D01*
X13367Y13352D01*
X13259Y13244D01*
X13257Y13240D01*
X13255Y13237D01*
X13254Y13237D01*
X13254Y13236D01*
X13253Y13232D01*
X13251Y13228D01*
X13251Y13227D01*
X13251Y13226D01*
X13251Y13223D01*
X13251Y11987D01*
X13251Y11983D01*
X13252Y11979D01*
X13252Y11978D01*
X13254Y11974D01*
X13256Y11971D01*
X13257Y11970D01*
X13257Y11969D01*
X13259Y11966D01*
X13275Y11951D01*
X13275Y11943D01*
X13275Y11941D01*
X13275Y11940D01*
X13276Y11937D01*
X13277Y11934D01*
X13277Y11932D01*
X13278Y11931D01*
X13281Y11926D01*
X13285Y11920D01*
X13275Y11863D01*
X13275Y11858D01*
X13275Y11836D01*
X13275Y11835D01*
X13276Y11832D01*
X13276Y11828D01*
X13277Y11827D01*
X13277Y11826D01*
X13279Y11823D01*
X13280Y11819D01*
X13281Y11819D01*
X13281Y11818D01*
X13282Y11817D01*
X13284Y11815D01*
X13346Y11752D01*
X13414Y11589D01*
X13414Y11411D01*
X13346Y11248D01*
X13221Y11122D01*
X13167Y11100D01*
X13163Y11097D01*
X13159Y11095D01*
X13156Y11091D01*
X13153Y11087D01*
X13151Y11083D01*
X13150Y11078D01*
X13149Y11073D01*
X13149Y10911D01*
X13149Y10910D01*
X13149Y10909D01*
X13150Y10905D01*
X13151Y10901D01*
X13151Y10900D01*
X13153Y10896D01*
X13155Y10893D01*
X13156Y10892D01*
X13156Y10891D01*
X13159Y10889D01*
X13162Y10886D01*
X13163Y10886D01*
X13164Y10885D01*
X13169Y10883D01*
X13226Y10862D01*
X13229Y10862D01*
X13231Y10861D01*
X13235Y10861D01*
X13236Y10861D01*
X13275Y10861D01*
X13294Y10841D01*
X13297Y10839D01*
X13300Y10837D01*
X13302Y10836D01*
X13303Y10835D01*
X13305Y10834D01*
X13331Y10825D01*
X13348Y10790D01*
X13349Y10788D01*
X13350Y10786D01*
X13353Y10783D01*
X13353Y10782D01*
X13381Y10755D01*
X13381Y10727D01*
X13381Y10724D01*
X13382Y10720D01*
X13382Y10718D01*
X13383Y10717D01*
X13384Y10715D01*
X13395Y10690D01*
X13382Y10654D01*
X13382Y10651D01*
X13381Y10649D01*
X13381Y10645D01*
X13381Y10644D01*
X13381Y10450D01*
X13381Y10449D01*
X13381Y10448D01*
X13382Y10444D01*
X13382Y10441D01*
X13383Y10440D01*
X13383Y10439D01*
X13385Y10435D01*
X13387Y10432D01*
X13388Y10431D01*
X13391Y10428D01*
X13394Y10426D01*
X13395Y10425D01*
X13396Y10425D01*
X13399Y10423D01*
X13403Y10422D01*
X13404Y10422D01*
X13405Y10421D01*
X13410Y10421D01*
X13775Y10421D01*
X13846Y10350D01*
X13846Y9450D01*
X13775Y9379D01*
X11175Y9379D01*
X11104Y9450D01*
X11104Y10350D01*
X11175Y10421D01*
X12990Y10421D01*
X12991Y10421D01*
X12992Y10421D01*
X12996Y10422D01*
X12999Y10422D01*
X13000Y10423D01*
X13001Y10423D01*
X13005Y10425D01*
X13008Y10427D01*
X13009Y10428D01*
X13012Y10431D01*
X13014Y10434D01*
X13015Y10435D01*
X13015Y10436D01*
X13017Y10439D01*
X13018Y10443D01*
X13018Y10444D01*
X13019Y10445D01*
X13019Y10450D01*
X13019Y10532D01*
X13019Y10533D01*
X13019Y10534D01*
X13018Y10537D01*
X13018Y10541D01*
X13017Y10542D01*
X13017Y10543D01*
X13015Y10546D01*
X13013Y10550D01*
X13012Y10551D01*
X13009Y10554D01*
X13006Y10556D01*
X13005Y10557D01*
X13000Y10559D01*
X12942Y10580D01*
X12940Y10580D01*
X12938Y10581D01*
X12933Y10582D01*
X12932Y10582D01*
X12894Y10582D01*
X12874Y10601D01*
X12871Y10603D01*
X12868Y10606D01*
X12867Y10606D01*
X12866Y10607D01*
X12863Y10608D01*
X12837Y10617D01*
X12821Y10652D01*
X12819Y10654D01*
X12818Y10656D01*
X12816Y10660D01*
X12815Y10660D01*
X12788Y10688D01*
X12788Y10715D01*
X12787Y10719D01*
X12787Y10723D01*
X12786Y10724D01*
X12786Y10725D01*
X12785Y10728D01*
X12773Y10753D01*
X12786Y10789D01*
X12786Y10791D01*
X12787Y10793D01*
X12788Y10798D01*
X12788Y10799D01*
X12788Y11073D01*
X12787Y11078D01*
X12786Y11082D01*
X12784Y11087D01*
X12782Y11091D01*
X12778Y11094D01*
X12775Y11097D01*
X12774Y11097D01*
X12770Y11100D01*
X12716Y11122D01*
X12591Y11248D01*
X12523Y11411D01*
X12523Y11589D01*
X12591Y11752D01*
X12716Y11878D01*
X12871Y11942D01*
X12875Y11945D01*
X12879Y11947D01*
X12882Y11951D01*
X12885Y11955D01*
X12887Y11959D01*
X12889Y11964D01*
X12889Y11969D01*
X12889Y13385D01*
X13597Y14092D01*
X13599Y14096D01*
X13602Y14100D01*
X13604Y14105D01*
X13605Y14109D01*
X13605Y14114D01*
X13605Y14119D01*
X13603Y14124D01*
X13599Y14133D01*
X13599Y14292D01*
X13660Y14440D01*
X13773Y14552D01*
X13838Y14579D01*
X13841Y14581D01*
X13843Y14582D01*
X13845Y14583D01*
X13846Y14584D01*
X13848Y14587D01*
X13850Y14589D01*
X13851Y14590D01*
X13852Y14592D01*
X13853Y14594D01*
X13855Y14597D01*
X13855Y14599D01*
X13856Y14601D01*
X13856Y14604D01*
X13856Y14607D01*
X13856Y14608D01*
X13856Y14610D01*
X13855Y14613D01*
X13854Y14616D01*
X13854Y14618D01*
X13853Y14619D01*
X13851Y14622D01*
X13850Y14624D01*
X13848Y14626D01*
X13847Y14627D01*
X13845Y14629D01*
X13843Y14631D01*
X13840Y14632D01*
X13840Y14633D01*
X13839Y14633D01*
X13838Y14633D01*
X13773Y14660D01*
X13660Y14773D01*
X13599Y14920D01*
X13599Y15053D01*
X13599Y15057D01*
X13598Y15061D01*
X13598Y15062D01*
X13596Y15066D01*
X13594Y15070D01*
X13593Y15070D01*
X13593Y15071D01*
X13591Y15074D01*
X13254Y15411D01*
X13250Y15413D01*
X13247Y15415D01*
X13247Y15416D01*
X13246Y15416D01*
X13242Y15417D01*
X13238Y15419D01*
X13237Y15419D01*
X13236Y15419D01*
X13233Y15419D01*
X11611Y15419D01*
X11608Y15419D01*
X11605Y15419D01*
X11603Y15418D01*
X11601Y15418D01*
X11599Y15416D01*
X11596Y15415D01*
X11594Y15414D01*
X11593Y15413D01*
X11591Y15411D01*
X11588Y15409D01*
X11587Y15408D01*
X11586Y15406D01*
X11585Y15403D01*
X11583Y15401D01*
X11583Y15399D01*
X11582Y15397D01*
X11582Y15395D01*
X11581Y15392D01*
X11582Y15390D01*
X11581Y15388D01*
X11582Y15385D01*
X11582Y15382D01*
X11583Y15380D01*
X11584Y15379D01*
X11585Y15376D01*
X11586Y15373D01*
X11588Y15371D01*
X11589Y15371D01*
X11589Y15370D01*
X11590Y15369D01*
X11781Y15178D01*
X11781Y15059D01*
X11380Y15059D01*
X11379Y15059D01*
X11378Y15059D01*
X11374Y15058D01*
X11371Y15058D01*
X11370Y15057D01*
X11369Y15057D01*
X11365Y15055D01*
X11362Y15053D01*
X11361Y15052D01*
X11358Y15049D01*
X11356Y15046D01*
X11355Y15045D01*
X11355Y15044D01*
X11353Y15041D01*
X11352Y15037D01*
X11352Y15036D01*
X11351Y15035D01*
X11351Y15030D01*
X11351Y14999D01*
X11320Y14999D01*
X11319Y14999D01*
X11318Y14999D01*
X11314Y14998D01*
X11311Y14998D01*
X11310Y14997D01*
X11309Y14997D01*
X11305Y14995D01*
X11302Y14993D01*
X11301Y14992D01*
X11298Y14989D01*
X11296Y14986D01*
X11295Y14985D01*
X11295Y14984D01*
X11293Y14981D01*
X11292Y14977D01*
X11292Y14976D01*
X11291Y14975D01*
X11291Y14970D01*
X11291Y14569D01*
X11172Y14569D01*
X10960Y14781D01*
X10959Y14782D01*
X10958Y14782D01*
X10955Y14784D01*
X10952Y14787D01*
X10951Y14787D01*
X10950Y14787D01*
X10946Y14788D01*
X10943Y14789D01*
X10942Y14789D01*
X10941Y14790D01*
X10937Y14789D01*
X10933Y14789D01*
X10932Y14789D01*
X10931Y14788D01*
X10928Y14787D01*
X10924Y14786D01*
X10924Y14785D01*
X10923Y14784D01*
X10918Y14781D01*
X10749Y14612D01*
X10747Y14609D01*
X10745Y14606D01*
X10744Y14605D01*
X10744Y14604D01*
X10743Y14600D01*
X10741Y14597D01*
X10741Y14595D01*
X10741Y14594D01*
X10741Y14591D01*
X10741Y13409D01*
X10741Y13405D01*
X10742Y13401D01*
X10742Y13400D01*
X10742Y13399D01*
X10744Y13396D01*
X10746Y13392D01*
X10747Y13391D01*
X10747Y13390D01*
X10749Y13388D01*
X10918Y13219D01*
X10919Y13218D01*
X10920Y13218D01*
X10923Y13216D01*
X10926Y13213D01*
X10927Y13213D01*
X10928Y13213D01*
X10932Y13212D01*
X10935Y13211D01*
X10936Y13211D01*
X10937Y13210D01*
X10941Y13211D01*
X10945Y13211D01*
X10946Y13211D01*
X10947Y13212D01*
X10950Y13213D01*
X10954Y13214D01*
X10955Y13215D01*
X10956Y13216D01*
X10960Y13219D01*
X11172Y13431D01*
X11291Y13431D01*
X11291Y13030D01*
X11291Y13029D01*
X11291Y13028D01*
X11292Y13024D01*
X11292Y13021D01*
X11293Y13020D01*
X11293Y13019D01*
X11295Y13015D01*
X11297Y13012D01*
X11298Y13011D01*
X11301Y13008D01*
X11304Y13006D01*
X11305Y13005D01*
X11306Y13005D01*
X11309Y13003D01*
X11313Y13002D01*
X11314Y13002D01*
X11315Y13001D01*
X11320Y13001D01*
X11351Y13001D01*
X11351Y12999D01*
X11320Y12999D01*
X11319Y12999D01*
X11318Y12999D01*
X11314Y12998D01*
X11311Y12998D01*
X11310Y12997D01*
X11309Y12997D01*
X11305Y12995D01*
X11302Y12993D01*
X11301Y12992D01*
X11298Y12989D01*
X11296Y12986D01*
X11295Y12985D01*
X11295Y12984D01*
X11293Y12981D01*
X11292Y12977D01*
X11292Y12976D01*
X11291Y12975D01*
X11291Y12970D01*
X11291Y12569D01*
X11172Y12569D01*
X10960Y12781D01*
X10959Y12782D01*
X10958Y12782D01*
X10955Y12784D01*
X10952Y12787D01*
X10951Y12787D01*
X10950Y12787D01*
X10946Y12788D01*
X10943Y12789D01*
X10942Y12789D01*
X10941Y12790D01*
X10937Y12789D01*
X10933Y12789D01*
X10932Y12789D01*
X10931Y12788D01*
X10928Y12787D01*
X10924Y12786D01*
X10924Y12785D01*
X10923Y12784D01*
X10918Y12781D01*
X10689Y12552D01*
X10687Y12549D01*
X10685Y12546D01*
X10684Y12545D01*
X10684Y12544D01*
X10683Y12540D01*
X10681Y12537D01*
X10681Y12535D01*
X10681Y12534D01*
X10681Y12531D01*
X10681Y12175D01*
X10575Y12069D01*
X8460Y12069D01*
X8459Y12069D01*
X8458Y12069D01*
X8454Y12068D01*
X8451Y12068D01*
X8450Y12067D01*
X8449Y12067D01*
X8445Y12065D01*
X8442Y12063D01*
X8441Y12062D01*
X8438Y12059D01*
X8436Y12056D01*
X8435Y12055D01*
X8435Y12054D01*
X8433Y12051D01*
X8432Y12047D01*
X8432Y12046D01*
X8431Y12045D01*
X8431Y12040D01*
X8431Y7675D01*
X8075Y7319D01*
X7987Y7319D01*
X7986Y7319D01*
X7982Y7318D01*
X7977Y7318D01*
X7973Y7315D01*
X7969Y7313D01*
X7965Y7310D01*
X7962Y7306D01*
X7960Y7301D01*
X7925Y7216D01*
X7784Y7075D01*
X7667Y7027D01*
X7664Y7025D01*
X7662Y7024D01*
X7660Y7023D01*
X7659Y7022D01*
X7657Y7020D01*
X7655Y7018D01*
X7654Y7016D01*
X7652Y7015D01*
X7651Y7012D01*
X7650Y7009D01*
X7650Y7007D01*
X7649Y7006D01*
X7649Y7003D01*
X7649Y7000D01*
X7649Y6998D01*
X7649Y6996D01*
X7650Y6993D01*
X7650Y6990D01*
X7651Y6989D01*
X7652Y6987D01*
X7653Y6985D01*
X7655Y6982D01*
X7656Y6981D01*
X7657Y6979D01*
X7660Y6977D01*
X7662Y6975D01*
X7664Y6974D01*
X7665Y6974D01*
X7666Y6974D01*
X7667Y6973D01*
X7784Y6925D01*
X7925Y6784D01*
X8001Y6600D01*
X8001Y6400D01*
X7925Y6216D01*
X7784Y6075D01*
X7667Y6027D01*
X7664Y6025D01*
X7662Y6024D01*
X7660Y6023D01*
X7659Y6022D01*
X7657Y6020D01*
X7655Y6018D01*
X7654Y6016D01*
X7652Y6015D01*
X7651Y6012D01*
X7650Y6009D01*
X7650Y6007D01*
X7649Y6006D01*
X7649Y6003D01*
X7649Y6000D01*
X7649Y5998D01*
X7649Y5996D01*
X7650Y5993D01*
X7650Y5990D01*
X7651Y5989D01*
X7652Y5987D01*
X7653Y5985D01*
X7655Y5982D01*
X7656Y5981D01*
X7657Y5979D01*
X7660Y5977D01*
X7662Y5975D01*
X7664Y5974D01*
X7665Y5974D01*
X7666Y5974D01*
X7667Y5973D01*
X7784Y5925D01*
X7925Y5784D01*
X8001Y5600D01*
X8001Y5400D01*
X7925Y5216D01*
X7784Y5075D01*
X7667Y5027D01*
X7664Y5025D01*
X7662Y5024D01*
X7660Y5023D01*
X7659Y5022D01*
X7657Y5020D01*
X7655Y5018D01*
X7654Y5016D01*
X7652Y5015D01*
X7651Y5012D01*
X7650Y5009D01*
X7650Y5007D01*
X7649Y5006D01*
X7649Y5003D01*
X7649Y5000D01*
X7649Y4998D01*
X7649Y4996D01*
X7650Y4993D01*
X7650Y4990D01*
X7651Y4989D01*
X7652Y4987D01*
X7653Y4985D01*
X7655Y4982D01*
X7656Y4981D01*
X7657Y4979D01*
X7660Y4977D01*
X7662Y4975D01*
X7664Y4974D01*
X7665Y4974D01*
X7666Y4974D01*
X7667Y4973D01*
X7784Y4925D01*
X7925Y4784D01*
X8001Y4600D01*
X8001Y4400D01*
X7925Y4216D01*
X7784Y4075D01*
X7667Y4027D01*
X7664Y4025D01*
X7662Y4024D01*
X7660Y4023D01*
X7659Y4022D01*
X7657Y4020D01*
X7655Y4018D01*
X7654Y4016D01*
X7652Y4015D01*
X7651Y4012D01*
X7650Y4009D01*
X7650Y4007D01*
X7649Y4006D01*
X7649Y4003D01*
X7649Y4000D01*
X7649Y3998D01*
X7649Y3996D01*
X7650Y3993D01*
X7650Y3990D01*
X7651Y3989D01*
X7652Y3987D01*
X7653Y3985D01*
X7655Y3982D01*
X7656Y3981D01*
X7657Y3979D01*
X7660Y3977D01*
X7662Y3975D01*
X7664Y3974D01*
X7665Y3974D01*
X7666Y3974D01*
X7667Y3973D01*
X7784Y3925D01*
X7925Y3784D01*
X8001Y3600D01*
X8001Y3400D01*
X7925Y3216D01*
X7784Y3075D01*
X7667Y3027D01*
X7664Y3025D01*
X7662Y3024D01*
X7660Y3023D01*
X7659Y3022D01*
X7657Y3020D01*
X7655Y3018D01*
X7654Y3016D01*
X7652Y3015D01*
X7651Y3012D01*
X7650Y3009D01*
X7650Y3007D01*
X7649Y3006D01*
X7649Y3003D01*
X7649Y3000D01*
X7649Y2998D01*
X7649Y2996D01*
X7650Y2993D01*
X7650Y2990D01*
X7651Y2989D01*
X7652Y2987D01*
X7653Y2985D01*
X7655Y2982D01*
X7656Y2981D01*
X7657Y2979D01*
X7660Y2977D01*
X7662Y2975D01*
X7664Y2974D01*
X7665Y2974D01*
X7666Y2974D01*
X7667Y2973D01*
X7784Y2925D01*
X7925Y2784D01*
X8001Y2600D01*
X8001Y2400D01*
X7925Y2216D01*
X7784Y2075D01*
X7667Y2027D01*
X7664Y2025D01*
X7662Y2024D01*
X7660Y2023D01*
X7659Y2022D01*
X7657Y2020D01*
X7655Y2018D01*
X7654Y2016D01*
X7652Y2015D01*
X7651Y2012D01*
X7650Y2009D01*
X7650Y2007D01*
X7649Y2006D01*
X7649Y2003D01*
X7649Y2000D01*
X7649Y1998D01*
X7649Y1996D01*
X7650Y1993D01*
X7650Y1990D01*
X7651Y1989D01*
X7652Y1987D01*
X7653Y1985D01*
X7655Y1982D01*
X7656Y1981D01*
X7657Y1979D01*
X7660Y1977D01*
X7662Y1975D01*
X7664Y1974D01*
X7665Y1974D01*
X7666Y1974D01*
X7667Y1973D01*
X7784Y1925D01*
X7925Y1784D01*
X8001Y1600D01*
X8001Y1400D01*
X7925Y1216D01*
X7784Y1075D01*
X7600Y999D01*
X7400Y999D01*
X7216Y1075D01*
X7075Y1216D01*
X6999Y1400D01*
X6999Y1600D01*
X7075Y1784D01*
X7216Y1925D01*
X7333Y1973D01*
X7336Y1975D01*
X7338Y1976D01*
X7340Y1977D01*
X7341Y1978D01*
X7343Y1980D01*
X7345Y1982D01*
X7346Y1984D01*
X7348Y1985D01*
X7349Y1988D01*
X7350Y1991D01*
X7350Y1993D01*
X7351Y1994D01*
X7351Y1997D01*
X7351Y2000D01*
X7351Y2002D01*
X7351Y2004D01*
X7350Y2007D01*
X7350Y2010D01*
X7349Y2011D01*
X7348Y2013D01*
X7347Y2015D01*
X7345Y2018D01*
X7344Y2019D01*
X7343Y2021D01*
X7340Y2023D01*
X7338Y2025D01*
X7336Y2026D01*
X7335Y2026D01*
X7334Y2026D01*
X7333Y2027D01*
X7216Y2075D01*
X7075Y2216D01*
X6999Y2400D01*
X6999Y2600D01*
X7075Y2784D01*
X7216Y2925D01*
X7333Y2973D01*
X7336Y2975D01*
X7338Y2976D01*
X7340Y2977D01*
X7341Y2978D01*
X7343Y2980D01*
X7345Y2982D01*
X7346Y2984D01*
X7348Y2985D01*
X7349Y2988D01*
X7350Y2991D01*
X7350Y2993D01*
X7351Y2994D01*
X7351Y2997D01*
X7351Y3000D01*
X7351Y3002D01*
X7351Y3004D01*
X7350Y3007D01*
X7350Y3010D01*
X7349Y3011D01*
X7348Y3013D01*
X7347Y3015D01*
X7345Y3018D01*
X7344Y3019D01*
X7343Y3021D01*
X7340Y3023D01*
X7338Y3025D01*
X7336Y3026D01*
X7335Y3026D01*
X7334Y3026D01*
X7333Y3027D01*
X7216Y3075D01*
X7075Y3216D01*
X6999Y3400D01*
X6999Y3600D01*
X7075Y3784D01*
X7216Y3925D01*
X7333Y3973D01*
X7336Y3975D01*
X7338Y3976D01*
X7340Y3977D01*
X7341Y3978D01*
X7343Y3980D01*
X7345Y3982D01*
X7346Y3984D01*
X7348Y3985D01*
X7349Y3988D01*
X7350Y3991D01*
X7350Y3993D01*
X7351Y3994D01*
X7351Y3997D01*
X7351Y4000D01*
X7351Y4002D01*
X7351Y4004D01*
X7350Y4007D01*
X7350Y4010D01*
X7349Y4011D01*
X7348Y4013D01*
X7347Y4015D01*
X7345Y4018D01*
X7344Y4019D01*
X7343Y4021D01*
X7340Y4023D01*
X7338Y4025D01*
X7336Y4026D01*
X7335Y4026D01*
X7334Y4026D01*
X7333Y4027D01*
X7216Y4075D01*
X7075Y4216D01*
X6999Y4400D01*
X6999Y4600D01*
X7075Y4784D01*
X7216Y4925D01*
X7333Y4973D01*
X7336Y4975D01*
X7338Y4976D01*
X7340Y4977D01*
X7341Y4978D01*
X7343Y4980D01*
X7345Y4982D01*
X7346Y4984D01*
X7348Y4985D01*
X7349Y4988D01*
X7350Y4991D01*
X7350Y4993D01*
X7351Y4994D01*
X7351Y4997D01*
X7351Y5000D01*
X7351Y5002D01*
X7351Y5004D01*
X7350Y5007D01*
X7350Y5010D01*
X7349Y5011D01*
X7348Y5013D01*
X7347Y5015D01*
X7345Y5018D01*
X7344Y5019D01*
X7343Y5021D01*
X7340Y5023D01*
X7338Y5025D01*
X7336Y5026D01*
X7335Y5026D01*
X7334Y5026D01*
X7333Y5027D01*
X7216Y5075D01*
X7075Y5216D01*
X7032Y5321D01*
X7030Y5325D01*
X7027Y5329D01*
X7023Y5332D01*
X7020Y5335D01*
X7019Y5335D01*
X7015Y5337D01*
X7011Y5339D01*
X7010Y5339D01*
X7005Y5339D01*
X6448Y5339D01*
X6444Y5338D01*
X6439Y5338D01*
X6435Y5335D01*
X6431Y5333D01*
X6430Y5333D01*
X6427Y5330D01*
X6424Y5326D01*
X6421Y5321D01*
X6378Y5216D01*
X6252Y5091D01*
X6089Y5023D01*
X5911Y5023D01*
X5748Y5091D01*
X5622Y5216D01*
X5554Y5380D01*
X5554Y5557D01*
X5576Y5611D01*
X5577Y5611D01*
X5578Y5616D01*
X5579Y5620D01*
X5578Y5625D01*
X5578Y5630D01*
X5576Y5634D01*
X5574Y5638D01*
X5574Y5639D01*
X5570Y5643D01*
X5569Y5644D01*
X5569Y7790D01*
X5569Y7791D01*
X5569Y7792D01*
X5568Y7796D01*
X5568Y7799D01*
X5567Y7800D01*
X5567Y7801D01*
X5565Y7805D01*
X5563Y7808D01*
X5562Y7809D01*
X5559Y7812D01*
X5556Y7814D01*
X5555Y7815D01*
X5554Y7815D01*
X5551Y7817D01*
X5547Y7818D01*
X5546Y7818D01*
X5545Y7819D01*
X5540Y7819D01*
X5120Y7819D01*
X5116Y7819D01*
X5112Y7818D01*
X5111Y7818D01*
X5110Y7818D01*
X5107Y7816D01*
X5103Y7814D01*
X5102Y7813D01*
X5101Y7813D01*
X5099Y7811D01*
X4908Y7619D01*
X4592Y7619D01*
X4369Y7842D01*
X4369Y8158D01*
X4592Y8381D01*
X4908Y8381D01*
X5099Y8189D01*
X5102Y8187D01*
X5105Y8185D01*
X5106Y8184D01*
X5107Y8184D01*
X5111Y8183D01*
X5114Y8181D01*
X5116Y8181D01*
X5117Y8181D01*
X5120Y8181D01*
X5825Y8181D01*
X5931Y8075D01*
X5931Y5944D01*
X5931Y5942D01*
X5931Y5941D01*
X5932Y5938D01*
X5932Y5934D01*
X5933Y5933D01*
X5933Y5932D01*
X5935Y5929D01*
X5937Y5926D01*
X5938Y5925D01*
X5938Y5924D01*
X5941Y5922D01*
X5944Y5919D01*
X5945Y5919D01*
X5946Y5918D01*
X5949Y5917D01*
X5953Y5915D01*
X5954Y5915D01*
X5955Y5915D01*
X5960Y5914D01*
X6089Y5914D01*
X6252Y5846D01*
X6378Y5721D01*
X6379Y5719D01*
X6381Y5715D01*
X6384Y5711D01*
X6388Y5708D01*
X6391Y5705D01*
X6396Y5703D01*
X6400Y5701D01*
X6406Y5701D01*
X7022Y5701D01*
X7026Y5702D01*
X7031Y5702D01*
X7035Y5705D01*
X7039Y5707D01*
X7040Y5707D01*
X7043Y5710D01*
X7046Y5714D01*
X7049Y5719D01*
X7075Y5784D01*
X7216Y5925D01*
X7333Y5973D01*
X7336Y5975D01*
X7338Y5976D01*
X7340Y5977D01*
X7341Y5978D01*
X7343Y5980D01*
X7345Y5982D01*
X7346Y5984D01*
X7348Y5985D01*
X7349Y5988D01*
X7350Y5991D01*
X7350Y5993D01*
X7351Y5994D01*
X7351Y5997D01*
X7351Y6000D01*
X7351Y6002D01*
X7351Y6004D01*
X7350Y6007D01*
X7350Y6010D01*
X7349Y6011D01*
X7348Y6013D01*
X7347Y6015D01*
X7345Y6018D01*
X7344Y6019D01*
X7343Y6021D01*
X7340Y6023D01*
X7338Y6025D01*
X7336Y6026D01*
X7335Y6026D01*
X7334Y6026D01*
X7333Y6027D01*
X7216Y6075D01*
X7075Y6216D01*
X6999Y6400D01*
X6999Y6600D01*
X7075Y6784D01*
X7216Y6925D01*
X7333Y6973D01*
X7336Y6975D01*
X7338Y6976D01*
X7340Y6977D01*
X7341Y6978D01*
X7343Y6980D01*
X7345Y6982D01*
X7346Y6984D01*
X7348Y6985D01*
X7349Y6988D01*
X7350Y6991D01*
X7350Y6993D01*
X7351Y6994D01*
X7351Y6997D01*
X7351Y7000D01*
X7351Y7002D01*
X7351Y7004D01*
X7350Y7007D01*
X7350Y7010D01*
X7349Y7011D01*
X7348Y7013D01*
X7347Y7015D01*
X7345Y7018D01*
X7344Y7019D01*
X7343Y7021D01*
X7340Y7023D01*
X7338Y7025D01*
X7336Y7026D01*
X7335Y7026D01*
X7334Y7026D01*
X7333Y7027D01*
X7216Y7075D01*
X7075Y7216D01*
X6999Y7400D01*
X6999Y7600D01*
X7075Y7784D01*
X7216Y7925D01*
X7333Y7973D01*
X7336Y7975D01*
X7338Y7976D01*
X7340Y7977D01*
X7341Y7978D01*
X7343Y7980D01*
X7345Y7982D01*
X7346Y7984D01*
X7348Y7985D01*
X7349Y7988D01*
X7350Y7991D01*
X7350Y7993D01*
X7351Y7994D01*
X7351Y7997D01*
X7351Y8000D01*
X7351Y8002D01*
X7351Y8004D01*
X7350Y8007D01*
X7350Y8010D01*
X7349Y8011D01*
X7348Y8013D01*
X7347Y8015D01*
X7345Y8018D01*
X7344Y8019D01*
X7343Y8021D01*
X7340Y8023D01*
X7338Y8025D01*
X7336Y8026D01*
X7335Y8026D01*
X7334Y8026D01*
X7333Y8027D01*
X7216Y8075D01*
X7075Y8216D01*
X6999Y8400D01*
X6999Y8600D01*
X7075Y8784D01*
X7216Y8925D01*
X7333Y8973D01*
X7336Y8975D01*
X7338Y8976D01*
X7340Y8977D01*
X7341Y8978D01*
X7343Y8980D01*
X7345Y8982D01*
X7346Y8984D01*
X7348Y8985D01*
X7349Y8988D01*
X7350Y8991D01*
X7350Y8993D01*
X7351Y8994D01*
X7351Y8997D01*
X7351Y9000D01*
X7351Y9002D01*
X7351Y9004D01*
X7350Y9007D01*
X7350Y9010D01*
X7349Y9011D01*
X7349Y9012D01*
X7348Y9013D01*
X7347Y9015D01*
X7345Y9018D01*
X7344Y9019D01*
X7344Y9020D01*
X7343Y9020D01*
X7343Y9021D01*
X7340Y9023D01*
X7338Y9025D01*
X7337Y9025D01*
X7336Y9026D01*
X7335Y9026D01*
X7334Y9026D01*
X7333Y9027D01*
X7216Y9075D01*
X7075Y9216D01*
X6999Y9400D01*
X6999Y9600D01*
X7075Y9784D01*
X7216Y9925D01*
X7333Y9973D01*
X7336Y9975D01*
X7338Y9976D01*
X7340Y9977D01*
X7341Y9978D01*
X7343Y9980D01*
X7345Y9982D01*
X7346Y9984D01*
X7348Y9985D01*
X7349Y9988D01*
X7350Y9991D01*
X7350Y9993D01*
X7351Y9994D01*
X7351Y9997D01*
X7351Y10000D01*
X7351Y10002D01*
X7351Y10004D01*
X7350Y10007D01*
X7350Y10010D01*
X7349Y10011D01*
X7348Y10013D01*
X7347Y10015D01*
X7345Y10018D01*
X7344Y10019D01*
X7343Y10021D01*
X7340Y10023D01*
X7338Y10025D01*
X7336Y10026D01*
X7335Y10026D01*
X7334Y10026D01*
X7333Y10027D01*
X7216Y10075D01*
X7075Y10216D01*
X6999Y10400D01*
X6999Y10600D01*
X7075Y10784D01*
X7216Y10925D01*
X7333Y10973D01*
X7336Y10975D01*
X7338Y10976D01*
X7340Y10977D01*
X7341Y10978D01*
X7343Y10980D01*
X7345Y10982D01*
X7346Y10984D01*
X7348Y10985D01*
X7349Y10988D01*
X7350Y10991D01*
X7350Y10993D01*
X7351Y10994D01*
X7351Y10997D01*
X7351Y11000D01*
X7351Y11002D01*
X7351Y11004D01*
X7350Y11007D01*
X7350Y11010D01*
X7349Y11011D01*
X7348Y11013D01*
X7347Y11015D01*
X7345Y11018D01*
X7344Y11019D01*
X7343Y11021D01*
X7340Y11023D01*
X7338Y11025D01*
X7336Y11026D01*
X7335Y11026D01*
X7334Y11026D01*
X7333Y11027D01*
X7216Y11075D01*
X7075Y11216D01*
X6999Y11400D01*
X6999Y11600D01*
X7073Y11778D01*
X7074Y11782D01*
X7075Y11785D01*
X7075Y11786D01*
X7075Y11787D01*
X7075Y11791D01*
X7075Y11795D01*
X7074Y11796D01*
X7074Y11797D01*
X7073Y11800D01*
X7071Y11804D01*
X7071Y11805D01*
X7070Y11805D01*
X7068Y11808D01*
X7065Y11811D01*
X7064Y11812D01*
X7060Y11814D01*
X7057Y11816D01*
X7056Y11816D01*
X7055Y11817D01*
X7051Y11817D01*
X7048Y11818D01*
X7047Y11818D01*
X7046Y11818D01*
X7042Y11818D01*
X7038Y11817D01*
X7037Y11817D01*
X7036Y11817D01*
X7033Y11815D01*
X7030Y11813D01*
X7029Y11812D01*
X7028Y11812D01*
X7027Y11812D01*
X7025Y11810D01*
X3939Y8724D01*
X3937Y8720D01*
X3935Y8717D01*
X3934Y8717D01*
X3934Y8716D01*
X3933Y8712D01*
X3931Y8708D01*
X3931Y8707D01*
X3931Y8706D01*
X3931Y8703D01*
X3931Y5175D01*
X3389Y4634D01*
X3387Y4630D01*
X3386Y4629D01*
X3385Y4627D01*
X3384Y4627D01*
X3384Y4626D01*
X3383Y4622D01*
X3382Y4620D01*
X3381Y4618D01*
X3381Y4617D01*
X3381Y4616D01*
X3381Y4613D01*
X3381Y4342D01*
X3158Y4119D01*
X2842Y4119D01*
X2619Y4342D01*
X2619Y4658D01*
X2842Y4881D01*
X3113Y4881D01*
X3117Y4881D01*
X3121Y4882D01*
X3122Y4882D01*
X3126Y4884D01*
X3130Y4886D01*
X3130Y4887D01*
X3131Y4887D01*
X3134Y4889D01*
X3561Y5316D01*
X3563Y5320D01*
X3565Y5323D01*
X3566Y5323D01*
X3566Y5324D01*
X3567Y5328D01*
X3569Y5332D01*
X3569Y5333D01*
X3569Y5334D01*
X3569Y5337D01*
X3569Y8865D01*
X7016Y12312D01*
X7019Y12316D01*
X7022Y12320D01*
X7023Y12324D01*
X7025Y12329D01*
X7024Y12334D01*
X7024Y12338D01*
X7024Y12339D01*
X7023Y12344D01*
X6999Y12400D01*
X6999Y12600D01*
X7075Y12784D01*
X7216Y12925D01*
X7333Y12973D01*
X7336Y12975D01*
X7338Y12976D01*
X7340Y12977D01*
X7341Y12978D01*
X7343Y12980D01*
X7345Y12982D01*
X7346Y12984D01*
X7348Y12985D01*
X7349Y12988D01*
X7350Y12991D01*
X7350Y12993D01*
X7351Y12994D01*
X7351Y12997D01*
X7351Y13000D01*
X7351Y13002D01*
X7351Y13004D01*
X7350Y13007D01*
X7350Y13010D01*
X7349Y13011D01*
X7348Y13013D01*
X7347Y13015D01*
X7345Y13018D01*
X7344Y13019D01*
X7343Y13021D01*
X7340Y13023D01*
X7338Y13025D01*
X7336Y13026D01*
X7335Y13026D01*
X7334Y13026D01*
X7333Y13027D01*
X7216Y13075D01*
X7075Y13216D01*
X6999Y13400D01*
X6999Y13600D01*
X7075Y13784D01*
X7216Y13925D01*
X7362Y13985D01*
X7366Y13987D01*
X7369Y13989D01*
X7370Y13990D01*
X7371Y13990D01*
X7373Y13993D01*
X7376Y13996D01*
X7376Y13997D01*
X7377Y13998D01*
X7378Y14001D01*
X7380Y14005D01*
X7380Y14006D01*
X7380Y14011D01*
X7380Y14015D01*
X7380Y14016D01*
X7379Y14020D01*
X7378Y14024D01*
X7377Y14025D01*
X7375Y14028D01*
X7373Y14032D01*
X7372Y14032D01*
X7372Y14033D01*
X7369Y14035D01*
X7365Y14038D01*
X7364Y14038D01*
X7363Y14039D01*
X7360Y14040D01*
X7315Y14054D01*
X7248Y14089D01*
X7187Y14133D01*
X7133Y14187D01*
X7089Y14248D01*
X7054Y14315D01*
X7031Y14387D01*
X7023Y14441D01*
X7441Y14441D01*
X7441Y14030D01*
X7441Y14029D01*
X7441Y14028D01*
X7442Y14024D01*
X7442Y14021D01*
X7443Y14020D01*
X7443Y14019D01*
X7445Y14015D01*
X7447Y14012D01*
X7448Y14011D01*
X7451Y14008D01*
X7454Y14006D01*
X7455Y14005D01*
X7456Y14005D01*
X7459Y14003D01*
X7463Y14002D01*
X7464Y14002D01*
X7465Y14001D01*
X7470Y14001D01*
X7530Y14001D01*
X7531Y14001D01*
X7532Y14001D01*
X7536Y14002D01*
X7539Y14002D01*
X7540Y14003D01*
X7541Y14003D01*
X7545Y14005D01*
X7548Y14007D01*
X7549Y14008D01*
X7552Y14011D01*
X7554Y14014D01*
X7555Y14015D01*
X7555Y14016D01*
X7557Y14019D01*
X7558Y14023D01*
X7558Y14024D01*
X7559Y14025D01*
X7559Y14030D01*
X7559Y14441D01*
X7977Y14441D01*
X7969Y14387D01*
X7946Y14315D01*
X7911Y14248D01*
X7867Y14187D01*
X7813Y14133D01*
X7752Y14089D01*
X7685Y14054D01*
X7640Y14040D01*
X7636Y14038D01*
X7632Y14036D01*
X7631Y14035D01*
X7628Y14033D01*
X7625Y14030D01*
X7625Y14029D01*
X7623Y14025D01*
X7621Y14021D01*
X7621Y14020D01*
X7620Y14016D01*
X7619Y14012D01*
X7620Y14011D01*
X7620Y14010D01*
X7620Y14006D01*
X7621Y14002D01*
X7622Y14001D01*
X7624Y13998D01*
X7626Y13994D01*
X7627Y13993D01*
X7630Y13990D01*
X7633Y13988D01*
X7634Y13987D01*
X7635Y13987D01*
X7638Y13985D01*
X7784Y13925D01*
X7925Y13784D01*
X8001Y13600D01*
X8001Y13400D01*
X7925Y13216D01*
X7899Y13191D01*
X7897Y13188D01*
X7895Y13186D01*
X7894Y13184D01*
X7893Y13183D01*
X7892Y13180D01*
X7891Y13177D01*
X7891Y13176D01*
X7891Y13174D01*
X7891Y13171D01*
X7890Y13168D01*
X7891Y13166D01*
X7891Y13164D01*
X7892Y13161D01*
X7893Y13159D01*
X7894Y13157D01*
X7894Y13155D01*
X7896Y13153D01*
X7898Y13151D01*
X7899Y13149D01*
X7900Y13148D01*
X7903Y13146D01*
X7905Y13145D01*
X7907Y13144D01*
X7909Y13143D01*
X7911Y13142D01*
X7914Y13141D01*
X7917Y13141D01*
X7918Y13141D01*
X7920Y13141D01*
X9170Y13141D01*
X9171Y13141D01*
X9172Y13141D01*
X9176Y13142D01*
X9179Y13142D01*
X9180Y13143D01*
X9181Y13143D01*
X9185Y13145D01*
X9188Y13147D01*
X9189Y13148D01*
X9192Y13151D01*
X9194Y13154D01*
X9195Y13155D01*
X9195Y13156D01*
X9197Y13159D01*
X9198Y13163D01*
X9198Y13164D01*
X9199Y13165D01*
X9199Y13170D01*
X9199Y13187D01*
X9463Y13451D01*
X9837Y13451D01*
X10054Y13233D01*
X10055Y13233D01*
X10056Y13232D01*
X10059Y13230D01*
X10062Y13228D01*
X10063Y13227D01*
X10064Y13227D01*
X10068Y13226D01*
X10071Y13225D01*
X10072Y13225D01*
X10073Y13225D01*
X10077Y13225D01*
X10081Y13225D01*
X10082Y13226D01*
X10083Y13226D01*
X10086Y13227D01*
X10090Y13229D01*
X10091Y13229D01*
X10092Y13230D01*
X10096Y13233D01*
X10313Y13451D01*
X10350Y13451D01*
X10351Y13451D01*
X10352Y13451D01*
X10356Y13452D01*
X10359Y13452D01*
X10360Y13453D01*
X10361Y13453D01*
X10365Y13455D01*
X10368Y13457D01*
X10369Y13458D01*
X10372Y13461D01*
X10374Y13464D01*
X10375Y13465D01*
X10375Y13466D01*
X10377Y13469D01*
X10378Y13473D01*
X10378Y13474D01*
X10379Y13475D01*
X10379Y13480D01*
X10379Y14520D01*
X10379Y14521D01*
X10379Y14522D01*
X10378Y14526D01*
X10378Y14529D01*
X10377Y14530D01*
X10377Y14531D01*
X10375Y14535D01*
X10373Y14538D01*
X10372Y14539D01*
X10369Y14542D01*
X10366Y14544D01*
X10365Y14545D01*
X10364Y14545D01*
X10361Y14547D01*
X10357Y14548D01*
X10356Y14548D01*
X10355Y14549D01*
X10350Y14549D01*
X10313Y14549D01*
X10096Y14767D01*
X10095Y14767D01*
X10094Y14768D01*
X10091Y14770D01*
X10088Y14772D01*
X10087Y14773D01*
X10086Y14773D01*
X10082Y14774D01*
X10079Y14775D01*
X10078Y14775D01*
X10077Y14775D01*
X10073Y14775D01*
X10069Y14775D01*
X10068Y14774D01*
X10067Y14774D01*
X10064Y14773D01*
X10060Y14771D01*
X10059Y14771D01*
X10058Y14770D01*
X10054Y14767D01*
X9837Y14549D01*
X9463Y14549D01*
X9199Y14813D01*
X9199Y15187D01*
X9461Y15448D01*
X9463Y15451D01*
X9465Y15454D01*
X9466Y15455D01*
X9466Y15456D01*
X9467Y15460D01*
X9469Y15463D01*
X9469Y15465D01*
X9469Y15466D01*
X9469Y15469D01*
X9469Y16505D01*
X9584Y16619D01*
X10121Y17157D01*
X10122Y17158D01*
X10123Y17158D01*
X10125Y17161D01*
X10127Y17165D01*
X10127Y17166D01*
X10128Y17166D01*
X10128Y17170D01*
X10129Y17174D01*
X10129Y17175D01*
X10130Y17176D01*
X10129Y17179D01*
X10129Y17183D01*
X10129Y17184D01*
X10129Y17185D01*
X10127Y17189D01*
X10126Y17192D01*
X10125Y17193D01*
X10125Y17194D01*
X10124Y17194D01*
X10124Y17805D01*
X10195Y17876D01*
X10805Y17876D01*
X10876Y17805D01*
X10876Y17710D01*
X10876Y17709D01*
X10876Y17708D01*
X10877Y17704D01*
X10877Y17701D01*
X10878Y17700D01*
X10878Y17699D01*
X10880Y17695D01*
X10882Y17692D01*
X10883Y17691D01*
X10886Y17688D01*
X10889Y17686D01*
X10890Y17685D01*
X10891Y17685D01*
X10894Y17683D01*
X10898Y17682D01*
X10899Y17682D01*
X10900Y17681D01*
X10905Y17681D01*
X11290Y17681D01*
X11291Y17681D01*
X11292Y17681D01*
X11296Y17682D01*
X11299Y17682D01*
X11300Y17683D01*
X11301Y17683D01*
X11305Y17685D01*
X11308Y17687D01*
X11309Y17688D01*
X11312Y17691D01*
X11314Y17694D01*
X11315Y17695D01*
X11315Y17696D01*
X11317Y17699D01*
X11318Y17703D01*
X11318Y17704D01*
X11319Y17705D01*
X11319Y17710D01*
X11319Y18217D01*
X11319Y18220D01*
X11319Y18223D01*
X11318Y18225D01*
X11318Y18227D01*
X11316Y18229D01*
X11315Y18232D01*
X11314Y18233D01*
X11313Y18235D01*
X11311Y18237D01*
X11309Y18239D01*
X11308Y18240D01*
X11306Y18242D01*
X11303Y18243D01*
X11301Y18244D01*
X11299Y18245D01*
X11297Y18246D01*
X11295Y18246D01*
X11292Y18246D01*
X11290Y18246D01*
X11288Y18246D01*
X11285Y18246D01*
X11282Y18245D01*
X11280Y18245D01*
X11279Y18244D01*
X11276Y18243D01*
X11273Y18241D01*
X11271Y18240D01*
X11271Y18239D01*
X11270Y18239D01*
X11269Y18238D01*
X11213Y18181D01*
X11075Y18124D01*
X10925Y18124D01*
X10787Y18181D01*
X10681Y18287D01*
X10624Y18425D01*
X10624Y18575D01*
X10681Y18713D01*
X10787Y18819D01*
X10841Y18841D01*
X10845Y18843D01*
X10849Y18846D01*
X10852Y18850D01*
X10855Y18853D01*
X10855Y18854D01*
X10857Y18858D01*
X10859Y18862D01*
X10859Y18863D01*
X10859Y18868D01*
X10859Y19350D01*
X10859Y19351D01*
X10859Y19352D01*
X10858Y19356D01*
X10858Y19359D01*
X10857Y19360D01*
X10857Y19361D01*
X10855Y19365D01*
X10853Y19368D01*
X10852Y19369D01*
X10849Y19372D01*
X10846Y19374D01*
X10845Y19375D01*
X10844Y19375D01*
X10841Y19377D01*
X10837Y19378D01*
X10836Y19378D01*
X10835Y19379D01*
X10830Y19379D01*
X9865Y19379D01*
X9319Y19925D01*
X9319Y26413D01*
X9319Y26417D01*
X9318Y26421D01*
X9318Y26422D01*
X9316Y26426D01*
X9314Y26430D01*
X9313Y26430D01*
X9313Y26431D01*
X9311Y26434D01*
X8934Y26811D01*
X8930Y26813D01*
X8927Y26815D01*
X8927Y26816D01*
X8926Y26816D01*
X8922Y26817D01*
X8918Y26819D01*
X8917Y26819D01*
X8916Y26819D01*
X8913Y26819D01*
X2574Y26819D01*
X2570Y26819D01*
X2566Y26818D01*
X2565Y26818D01*
X2561Y26816D01*
X2558Y26814D01*
X2557Y26813D01*
X2556Y26813D01*
X2554Y26811D01*
X2079Y26336D01*
X2078Y26334D01*
X2076Y26332D01*
X2075Y26331D01*
X2075Y26330D01*
X2074Y26329D01*
X2073Y26326D01*
X2072Y26323D01*
X2072Y26322D01*
X2071Y26321D01*
X2071Y26320D01*
X2071Y26319D01*
X2071Y26316D01*
X2071Y26305D01*
X2071Y26304D01*
X2070Y26301D01*
X2070Y26300D01*
X2070Y26299D01*
X2070Y26298D01*
X2009Y26151D01*
X1896Y26038D01*
X1841Y26015D01*
X1839Y26014D01*
X1836Y26013D01*
X1835Y26011D01*
X1833Y26010D01*
X1831Y26008D01*
X1829Y26006D01*
X1828Y26004D01*
X1827Y26003D01*
X1826Y26000D01*
X1825Y25998D01*
X1824Y25996D01*
X1824Y25994D01*
X1824Y25991D01*
X1823Y25988D01*
X1823Y25986D01*
X1823Y25984D01*
X1824Y25982D01*
X1825Y25979D01*
X1826Y25977D01*
X1826Y25975D01*
X1828Y25973D01*
X1829Y25970D01*
X1831Y25969D01*
X1832Y25968D01*
X1834Y25966D01*
X1836Y25964D01*
X1839Y25963D01*
X1840Y25962D01*
X1841Y25961D01*
X1897Y25938D01*
X2010Y25826D01*
X2071Y25678D01*
X2071Y25517D01*
X2070Y25514D01*
X2070Y25513D01*
X2070Y25511D01*
X2053Y25469D01*
X2053Y25468D01*
X2052Y25468D01*
X2051Y25464D01*
X2050Y25459D01*
X2051Y25454D01*
X2051Y25450D01*
X2053Y25445D01*
X2055Y25441D01*
X2059Y25437D01*
X3066Y24429D01*
X3181Y24315D01*
X3181Y18370D01*
X3181Y18366D01*
X3182Y18362D01*
X3182Y18361D01*
X3182Y18360D01*
X3184Y18357D01*
X3186Y18353D01*
X3187Y18352D01*
X3187Y18351D01*
X3189Y18349D01*
X3349Y18189D01*
X3352Y18187D01*
X3355Y18185D01*
X3356Y18184D01*
X3357Y18184D01*
X3361Y18183D01*
X3364Y18181D01*
X3366Y18181D01*
X3367Y18181D01*
X3370Y18181D01*
X5130Y18181D01*
X5134Y18181D01*
X5138Y18182D01*
X5139Y18182D01*
X5140Y18182D01*
X5143Y18184D01*
X5147Y18186D01*
X5148Y18187D01*
X5149Y18187D01*
X5151Y18189D01*
X5342Y18381D01*
X5658Y18381D01*
X5881Y18158D01*
X5881Y17842D01*
X5658Y17619D01*
X5342Y17619D01*
X5151Y17811D01*
X5148Y17813D01*
X5145Y17815D01*
X5144Y17816D01*
X5143Y17816D01*
X5139Y17817D01*
X5136Y17819D01*
X5134Y17819D01*
X5133Y17819D01*
X5130Y17819D01*
X3370Y17819D01*
X3366Y17819D01*
X3362Y17818D01*
X3361Y17818D01*
X3360Y17818D01*
X3357Y17816D01*
X3353Y17814D01*
X3352Y17813D01*
X3351Y17813D01*
X3349Y17811D01*
X3158Y17619D01*
X2842Y17619D01*
X2619Y17842D01*
X2619Y18158D01*
X2811Y18349D01*
X2813Y18352D01*
X2815Y18355D01*
X2816Y18356D01*
X2816Y18357D01*
X2817Y18361D01*
X2819Y18364D01*
X2819Y18366D01*
X2819Y18367D01*
X2819Y18370D01*
X2819Y24153D01*
X2819Y24157D01*
X2818Y24161D01*
X2818Y24162D01*
X2816Y24166D01*
X2814Y24170D01*
X2813Y24170D01*
X2813Y24171D01*
X2811Y24174D01*
X2121Y24864D01*
X2118Y24865D01*
X2116Y24867D01*
X2114Y24868D01*
X2113Y24869D01*
X2110Y24870D01*
X2107Y24871D01*
X2106Y24871D01*
X2104Y24872D01*
X2101Y24872D01*
X2098Y24872D01*
X2096Y24872D01*
X2094Y24872D01*
X2091Y24871D01*
X2089Y24870D01*
X2087Y24869D01*
X2085Y24868D01*
X2083Y24866D01*
X2081Y24865D01*
X2079Y24863D01*
X2078Y24862D01*
X2076Y24860D01*
X2075Y24857D01*
X2074Y24856D01*
X2073Y24854D01*
X2072Y24851D01*
X2071Y24848D01*
X2071Y24845D01*
X2071Y24844D01*
X2071Y24843D01*
X2071Y24730D01*
X2071Y24729D01*
X2070Y24727D01*
X2070Y24726D01*
X2070Y24725D01*
X2070Y24724D01*
X2070Y24723D01*
X2009Y24576D01*
X1896Y24463D01*
X1841Y24441D01*
X1839Y24439D01*
X1836Y24438D01*
X1835Y24437D01*
X1833Y24436D01*
X1831Y24433D01*
X1829Y24431D01*
X1828Y24430D01*
X1827Y24428D01*
X1826Y24425D01*
X1825Y24423D01*
X1824Y24421D01*
X1824Y24419D01*
X1824Y24416D01*
X1823Y24413D01*
X1823Y24411D01*
X1823Y24410D01*
X1824Y24407D01*
X1825Y24404D01*
X1826Y24402D01*
X1826Y24400D01*
X1828Y24398D01*
X1829Y24396D01*
X1831Y24394D01*
X1832Y24393D01*
X1834Y24391D01*
X1836Y24389D01*
X1839Y24388D01*
X1840Y24387D01*
X1841Y24387D01*
X1897Y24363D01*
X2010Y24251D01*
X2071Y24103D01*
X2071Y23942D01*
X2070Y23939D01*
X2070Y23938D01*
X2070Y23936D01*
X2009Y23789D01*
X1896Y23676D01*
X1841Y23653D01*
X1839Y23652D01*
X1836Y23650D01*
X1835Y23649D01*
X1833Y23648D01*
X1831Y23646D01*
X1829Y23644D01*
X1828Y23642D01*
X1827Y23641D01*
X1826Y23638D01*
X1825Y23635D01*
X1824Y23634D01*
X1824Y23632D01*
X1824Y23629D01*
X1823Y23626D01*
X1823Y23624D01*
X1823Y23622D01*
X1824Y23619D01*
X1825Y23617D01*
X1826Y23615D01*
X1826Y23613D01*
X1828Y23611D01*
X1829Y23608D01*
X1831Y23607D01*
X1832Y23605D01*
X1834Y23604D01*
X1836Y23602D01*
X1839Y23600D01*
X1840Y23600D01*
X1841Y23599D01*
X1897Y23576D01*
X2010Y23463D01*
X2071Y23316D01*
X2071Y23155D01*
X2071Y23154D01*
X2070Y23152D01*
X2070Y23151D01*
X2070Y23150D01*
X2070Y23149D01*
X2009Y23001D01*
X1896Y22889D01*
X1841Y22866D01*
X1839Y22864D01*
X1836Y22863D01*
X1835Y22862D01*
X1833Y22861D01*
X1831Y22858D01*
X1829Y22856D01*
X1828Y22855D01*
X1827Y22853D01*
X1826Y22851D01*
X1825Y22848D01*
X1824Y22846D01*
X1824Y22844D01*
X1824Y22841D01*
X1823Y22839D01*
X1823Y22837D01*
X1823Y22835D01*
X1824Y22832D01*
X1825Y22829D01*
X1826Y22827D01*
X1826Y22826D01*
X1828Y22823D01*
X1829Y22821D01*
X1831Y22819D01*
X1832Y22818D01*
X1834Y22816D01*
X1836Y22814D01*
X1839Y22813D01*
X1840Y22812D01*
X1841Y22812D01*
X1897Y22789D01*
X2010Y22676D01*
X2071Y22529D01*
X2071Y22368D01*
X2071Y22367D01*
X2070Y22364D01*
X2070Y22363D01*
X2070Y22362D01*
X2070Y22361D01*
X2009Y22214D01*
X1896Y22101D01*
X1841Y22078D01*
X1839Y22077D01*
X1836Y22076D01*
X1835Y22074D01*
X1833Y22073D01*
X1831Y22071D01*
X1829Y22069D01*
X1828Y22067D01*
X1827Y22066D01*
X1826Y22063D01*
X1825Y22061D01*
X1824Y22059D01*
X1824Y22057D01*
X1824Y22054D01*
X1823Y22051D01*
X1823Y22049D01*
X1823Y22047D01*
X1824Y22045D01*
X1825Y22042D01*
X1826Y22040D01*
X1826Y22038D01*
X1828Y22036D01*
X1829Y22033D01*
X1831Y22032D01*
X1832Y22031D01*
X1834Y22029D01*
X1836Y22027D01*
X1839Y22025D01*
X1840Y22025D01*
X1841Y22024D01*
X1897Y22001D01*
X2010Y21889D01*
X2071Y21741D01*
X2071Y21580D01*
X2070Y21577D01*
X2070Y21576D01*
X2070Y21574D01*
X2009Y21427D01*
X1896Y21314D01*
X1841Y21291D01*
X1839Y21289D01*
X1836Y21288D01*
X1835Y21287D01*
X1833Y21286D01*
X1831Y21284D01*
X1829Y21282D01*
X1828Y21280D01*
X1827Y21279D01*
X1826Y21276D01*
X1825Y21273D01*
X1824Y21271D01*
X1824Y21270D01*
X1824Y21267D01*
X1823Y21264D01*
X1823Y21262D01*
X1823Y21260D01*
X1824Y21257D01*
X1825Y21254D01*
X1826Y21253D01*
X1826Y21251D01*
X1828Y21248D01*
X1829Y21246D01*
X1831Y21245D01*
X1832Y21243D01*
X1834Y21241D01*
X1836Y21239D01*
X1839Y21238D01*
X1840Y21238D01*
X1840Y21237D01*
X1841Y21237D01*
X1897Y21214D01*
X2010Y21101D01*
X2071Y20954D01*
X2071Y20793D01*
X2071Y20792D01*
X2070Y20790D01*
X2070Y20789D01*
X2070Y20788D01*
X2070Y20787D01*
X2070Y20786D01*
X2009Y20639D01*
X1896Y20526D01*
X1890Y20524D01*
X1887Y20522D01*
X1883Y20520D01*
X1882Y20519D01*
X1879Y20516D01*
X1877Y20513D01*
X1876Y20512D01*
X1876Y20511D01*
X1874Y20508D01*
X1873Y20504D01*
X1873Y20503D01*
X1872Y20502D01*
X1872Y20498D01*
X1872Y20495D01*
X1872Y20494D01*
X1872Y20493D01*
X1873Y20489D01*
X1874Y20485D01*
X1875Y20484D01*
X1877Y20480D01*
X1879Y20477D01*
X1880Y20477D01*
X1880Y20476D01*
X1884Y20474D01*
X1887Y20471D01*
X1888Y20471D01*
X1888Y20470D01*
X1892Y20469D01*
X1896Y20468D01*
X1897Y20468D01*
X1898Y20468D01*
X1901Y20467D01*
X1963Y20467D01*
X1989Y20461D01*
X2012Y20447D01*
X2031Y20429D01*
X2044Y20406D01*
X2051Y20380D01*
X2051Y20138D01*
X1729Y20138D01*
X1729Y20436D01*
X1728Y20437D01*
X1728Y20438D01*
X1728Y20442D01*
X1727Y20446D01*
X1726Y20447D01*
X1726Y20448D01*
X1724Y20451D01*
X1722Y20454D01*
X1722Y20455D01*
X1721Y20456D01*
X1718Y20458D01*
X1715Y20461D01*
X1714Y20461D01*
X1714Y20462D01*
X1710Y20463D01*
X1707Y20464D01*
X1706Y20465D01*
X1705Y20465D01*
X1699Y20465D01*
X1640Y20465D01*
X1639Y20465D01*
X1638Y20465D01*
X1634Y20464D01*
X1631Y20464D01*
X1630Y20463D01*
X1629Y20463D01*
X1625Y20461D01*
X1622Y20459D01*
X1621Y20459D01*
X1621Y20458D01*
X1618Y20455D01*
X1616Y20452D01*
X1615Y20451D01*
X1613Y20447D01*
X1612Y20444D01*
X1612Y20443D01*
X1611Y20442D01*
X1611Y20436D01*
X1611Y20138D01*
X1289Y20138D01*
X1289Y20380D01*
X1296Y20406D01*
X1309Y20429D01*
X1328Y20447D01*
X1351Y20461D01*
X1377Y20467D01*
X1438Y20467D01*
X1441Y20468D01*
X1445Y20468D01*
X1446Y20469D01*
X1447Y20469D01*
X1450Y20471D01*
X1454Y20472D01*
X1455Y20473D01*
X1455Y20474D01*
X1458Y20476D01*
X1461Y20479D01*
X1461Y20480D01*
X1462Y20481D01*
X1464Y20484D01*
X1465Y20487D01*
X1465Y20488D01*
X1466Y20489D01*
X1466Y20493D01*
X1467Y20497D01*
X1467Y20498D01*
X1467Y20499D01*
X1466Y20503D01*
X1465Y20506D01*
X1465Y20507D01*
X1465Y20508D01*
X1462Y20511D01*
X1461Y20515D01*
X1460Y20515D01*
X1459Y20516D01*
X1456Y20519D01*
X1454Y20521D01*
X1452Y20522D01*
X1451Y20522D01*
X1449Y20524D01*
X1442Y20526D01*
X1330Y20639D01*
X1269Y20786D01*
X1269Y20947D01*
X1269Y20948D01*
X1269Y20951D01*
X1269Y20952D01*
X1269Y20953D01*
X1269Y20954D01*
X1330Y21101D01*
X1443Y21214D01*
X1498Y21237D01*
X1501Y21238D01*
X1503Y21239D01*
X1505Y21241D01*
X1506Y21242D01*
X1508Y21244D01*
X1510Y21246D01*
X1511Y21248D01*
X1512Y21249D01*
X1513Y21252D01*
X1515Y21254D01*
X1515Y21256D01*
X1516Y21258D01*
X1516Y21261D01*
X1516Y21264D01*
X1516Y21266D01*
X1516Y21268D01*
X1515Y21270D01*
X1514Y21273D01*
X1514Y21275D01*
X1513Y21277D01*
X1511Y21279D01*
X1510Y21282D01*
X1509Y21283D01*
X1507Y21285D01*
X1505Y21286D01*
X1503Y21288D01*
X1500Y21290D01*
X1499Y21290D01*
X1498Y21291D01*
X1442Y21314D01*
X1330Y21427D01*
X1269Y21574D01*
X1269Y21735D01*
X1269Y21738D01*
X1269Y21739D01*
X1269Y21741D01*
X1330Y21889D01*
X1443Y22001D01*
X1498Y22024D01*
X1501Y22026D01*
X1503Y22027D01*
X1505Y22028D01*
X1506Y22029D01*
X1508Y22031D01*
X1510Y22033D01*
X1511Y22035D01*
X1512Y22037D01*
X1513Y22039D01*
X1515Y22042D01*
X1515Y22044D01*
X1516Y22045D01*
X1516Y22048D01*
X1516Y22051D01*
X1516Y22053D01*
X1516Y22055D01*
X1515Y22058D01*
X1514Y22061D01*
X1514Y22062D01*
X1513Y22064D01*
X1511Y22067D01*
X1510Y22069D01*
X1509Y22070D01*
X1507Y22072D01*
X1505Y22074D01*
X1503Y22076D01*
X1500Y22077D01*
X1499Y22078D01*
X1498Y22078D01*
X1442Y22101D01*
X1330Y22214D01*
X1269Y22361D01*
X1269Y22522D01*
X1269Y22523D01*
X1269Y22525D01*
X1269Y22526D01*
X1269Y22527D01*
X1269Y22528D01*
X1269Y22529D01*
X1273Y22538D01*
X1274Y22542D01*
X1275Y22545D01*
X1275Y22546D01*
X1275Y22547D01*
X1275Y22551D01*
X1275Y22555D01*
X1274Y22556D01*
X1274Y22557D01*
X1273Y22560D01*
X1271Y22564D01*
X1271Y22565D01*
X1270Y22565D01*
X1268Y22568D01*
X1265Y22571D01*
X1264Y22572D01*
X1260Y22574D01*
X1257Y22576D01*
X1256Y22576D01*
X1255Y22577D01*
X1251Y22577D01*
X1248Y22578D01*
X1247Y22578D01*
X1246Y22578D01*
X1242Y22578D01*
X1238Y22577D01*
X1237Y22577D01*
X1236Y22577D01*
X1233Y22575D01*
X1230Y22573D01*
X1229Y22572D01*
X1228Y22572D01*
X1227Y22571D01*
X1225Y22570D01*
X1029Y22374D01*
X1027Y22370D01*
X1025Y22367D01*
X1024Y22367D01*
X1024Y22366D01*
X1023Y22362D01*
X1021Y22358D01*
X1021Y22357D01*
X1021Y22356D01*
X1021Y22353D01*
X1021Y17799D01*
X1021Y17795D01*
X1022Y17791D01*
X1022Y17790D01*
X1022Y17789D01*
X1024Y17786D01*
X1026Y17782D01*
X1027Y17781D01*
X1030Y17778D01*
X1032Y17775D01*
X1033Y17775D01*
X1034Y17774D01*
X1037Y17773D01*
X1041Y17771D01*
X1042Y17771D01*
X1043Y17770D01*
X1046Y17770D01*
X1050Y17769D01*
X1051Y17769D01*
X1052Y17769D01*
X1056Y17770D01*
X1060Y17771D01*
X1061Y17772D01*
X1065Y17774D01*
X1068Y17776D01*
X1069Y17776D01*
X1069Y17777D01*
X1072Y17780D01*
X1075Y17783D01*
X1216Y17925D01*
X1400Y18001D01*
X1600Y18001D01*
X1784Y17925D01*
X1925Y17784D01*
X2001Y17600D01*
X2001Y17400D01*
X1925Y17216D01*
X1784Y17075D01*
X1667Y17027D01*
X1664Y17025D01*
X1662Y17024D01*
X1660Y17023D01*
X1659Y17022D01*
X1657Y17020D01*
X1655Y17018D01*
X1654Y17016D01*
X1652Y17015D01*
X1651Y17012D01*
X1650Y17009D01*
X1650Y17007D01*
X1649Y17006D01*
X1649Y17003D01*
X1649Y17000D01*
X1649Y16998D01*
X1649Y16996D01*
X1650Y16993D01*
X1650Y16990D01*
X1651Y16989D01*
X1652Y16987D01*
X1653Y16985D01*
X1655Y16982D01*
X1656Y16981D01*
X1657Y16979D01*
X1660Y16977D01*
X1662Y16975D01*
X1664Y16974D01*
X1665Y16974D01*
X1666Y16974D01*
X1667Y16973D01*
X1784Y16925D01*
X1925Y16784D01*
X2001Y16600D01*
X2001Y16400D01*
X1925Y16216D01*
X1784Y16075D01*
X1667Y16027D01*
X1664Y16025D01*
X1662Y16024D01*
X1660Y16023D01*
X1659Y16022D01*
X1657Y16020D01*
X1655Y16018D01*
X1654Y16016D01*
X1652Y16015D01*
X1651Y16012D01*
X1650Y16009D01*
X1650Y16007D01*
X1649Y16006D01*
X1649Y16003D01*
X1649Y16000D01*
X1649Y15998D01*
X1649Y15996D01*
X1650Y15993D01*
X1650Y15990D01*
X1651Y15989D01*
X1652Y15987D01*
X1653Y15985D01*
X1655Y15982D01*
X1656Y15981D01*
X1657Y15979D01*
X1660Y15977D01*
X1662Y15975D01*
X1664Y15974D01*
X1665Y15974D01*
X1666Y15974D01*
X1667Y15973D01*
X1784Y15925D01*
X1925Y15784D01*
X2001Y15600D01*
X2001Y15400D01*
X1977Y15344D01*
X1976Y15339D01*
X1975Y15335D01*
X1975Y15334D01*
X1976Y15330D01*
X1976Y15325D01*
X1978Y15321D01*
X1980Y15316D01*
X1984Y15312D01*
X3181Y14115D01*
X3181Y13370D01*
X3181Y13366D01*
X3182Y13362D01*
X3182Y13361D01*
X3182Y13360D01*
X3184Y13357D01*
X3186Y13353D01*
X3187Y13352D01*
X3187Y13351D01*
X3189Y13349D01*
X3249Y13289D01*
X3252Y13287D01*
X3254Y13285D01*
X3256Y13285D01*
X3257Y13284D01*
X3260Y13283D01*
X3263Y13282D01*
X3264Y13281D01*
X3266Y13281D01*
X3269Y13281D01*
X3272Y13281D01*
X3274Y13281D01*
X3276Y13281D01*
X3279Y13282D01*
X3281Y13283D01*
X3283Y13284D01*
X3285Y13285D01*
X3287Y13286D01*
X3289Y13288D01*
X3291Y13289D01*
X3292Y13291D01*
X3294Y13293D01*
X3295Y13295D01*
X3296Y13297D01*
X3297Y13299D01*
X3298Y13302D01*
X3299Y13304D01*
X3299Y13307D01*
X3299Y13308D01*
X3299Y13309D01*
X3299Y13310D01*
X3299Y14355D01*
X3414Y14469D01*
X7491Y18546D01*
X7605Y18661D01*
X9595Y18661D01*
X9596Y18661D01*
X9597Y18661D01*
X9601Y18662D01*
X9604Y18662D01*
X9605Y18663D01*
X9606Y18663D01*
X9610Y18665D01*
X9613Y18667D01*
X9614Y18668D01*
X9617Y18671D01*
X9619Y18674D01*
X9620Y18675D01*
X9620Y18676D01*
X9622Y18679D01*
X9623Y18683D01*
X9623Y18684D01*
X9624Y18685D01*
X9624Y18690D01*
X9624Y18805D01*
X9695Y18876D01*
X10305Y18876D01*
X10376Y18805D01*
X10376Y18195D01*
X10305Y18124D01*
X9695Y18124D01*
X9624Y18195D01*
X9624Y18270D01*
X9624Y18271D01*
X9624Y18272D01*
X9623Y18276D01*
X9623Y18279D01*
X9622Y18280D01*
X9622Y18281D01*
X9620Y18285D01*
X9618Y18288D01*
X9617Y18289D01*
X9614Y18292D01*
X9611Y18294D01*
X9610Y18295D01*
X9609Y18295D01*
X9606Y18297D01*
X9602Y18298D01*
X9601Y18298D01*
X9600Y18299D01*
X9595Y18299D01*
X7767Y18299D01*
X7763Y18299D01*
X7759Y18298D01*
X7758Y18298D01*
X7754Y18296D01*
X7750Y18294D01*
X7750Y18293D01*
X7749Y18293D01*
X7746Y18291D01*
X7506Y18051D01*
X7505Y18048D01*
X7503Y18046D01*
X7502Y18044D01*
X7501Y18043D01*
X7500Y18040D01*
X7499Y18037D01*
X7499Y18036D01*
X7498Y18034D01*
X7498Y18031D01*
X7498Y18028D01*
X7498Y18026D01*
X7498Y18024D01*
X7499Y18021D01*
X7500Y18019D01*
X7501Y18017D01*
X7502Y18015D01*
X7504Y18013D01*
X7505Y18011D01*
X7507Y18009D01*
X7508Y18008D01*
X7510Y18006D01*
X7513Y18005D01*
X7514Y18004D01*
X7516Y18003D01*
X7519Y18002D01*
X7522Y18001D01*
X7525Y18001D01*
X7526Y18001D01*
X7527Y18001D01*
X7600Y18001D01*
X7784Y17925D01*
X7925Y17784D01*
X8001Y17600D01*
X8001Y17400D01*
X7925Y17216D01*
X7784Y17075D01*
X7667Y17027D01*
X7664Y17025D01*
X7662Y17024D01*
X7660Y17023D01*
X7659Y17022D01*
X7657Y17020D01*
X7655Y17018D01*
X7654Y17016D01*
X7652Y17015D01*
X7651Y17012D01*
X7650Y17009D01*
X7650Y17007D01*
X7649Y17006D01*
X7649Y17003D01*
X7649Y17000D01*
X7649Y16998D01*
X7649Y16996D01*
X7650Y16993D01*
X7650Y16990D01*
X7651Y16989D01*
X7652Y16987D01*
X7653Y16985D01*
X7655Y16982D01*
X7656Y16981D01*
X7657Y16979D01*
X7660Y16977D01*
X7662Y16975D01*
X7664Y16974D01*
X7665Y16974D01*
X7666Y16974D01*
X7667Y16973D01*
X7784Y16925D01*
X7925Y16784D01*
X8001Y16600D01*
X8001Y16400D01*
X7925Y16216D01*
X7784Y16075D01*
X7667Y16027D01*
X7664Y16025D01*
X7662Y16024D01*
X7660Y16023D01*
X7659Y16022D01*
X7657Y16020D01*
X7655Y16018D01*
X7654Y16016D01*
X7652Y16015D01*
X7651Y16012D01*
X7650Y16009D01*
X7650Y16007D01*
X7649Y16006D01*
X7649Y16003D01*
X7649Y16000D01*
X7649Y15998D01*
X7649Y15996D01*
X7650Y15993D01*
X7650Y15990D01*
X7651Y15989D01*
X7652Y15987D01*
X7653Y15985D01*
X7655Y15982D01*
X7656Y15981D01*
X7657Y15979D01*
X7660Y15977D01*
X7662Y15975D01*
X7664Y15974D01*
X7665Y15974D01*
X7666Y15974D01*
X7667Y15973D01*
X7784Y15925D01*
X7925Y15784D01*
X8001Y15600D01*
X8001Y15400D01*
X7925Y15216D01*
X7784Y15075D01*
X7638Y15015D01*
X7634Y15013D01*
X7631Y15011D01*
X7630Y15010D01*
X7629Y15010D01*
X7627Y15007D01*
X7624Y15004D01*
X7624Y15003D01*
X7623Y15002D01*
X7622Y14999D01*
X7620Y14995D01*
X7620Y14994D01*
X7620Y14989D01*
X7620Y14985D01*
X7620Y14984D01*
X7621Y14980D01*
X7622Y14976D01*
X7623Y14975D01*
X7625Y14972D01*
X7627Y14968D01*
X7628Y14968D01*
X7628Y14967D01*
X7631Y14965D01*
X7635Y14962D01*
X7636Y14962D01*
X7637Y14961D01*
X7640Y14960D01*
X7685Y14946D01*
X7752Y14911D01*
X7813Y14867D01*
X7867Y14813D01*
X7911Y14752D01*
X7946Y14685D01*
X7969Y14613D01*
X7977Y14559D01*
X7559Y14559D01*
X7559Y14970D01*
X7559Y14971D01*
X7559Y14972D01*
X7558Y14976D01*
X7558Y14979D01*
X7557Y14980D01*
X7557Y14981D01*
X7555Y14985D01*
X7553Y14988D01*
X7552Y14989D01*
X7549Y14992D01*
X7546Y14994D01*
X7545Y14995D01*
X7544Y14995D01*
X7541Y14997D01*
X7537Y14998D01*
X7536Y14998D01*
X7535Y14999D01*
X7530Y14999D01*
X7470Y14999D01*
X7469Y14999D01*
X7468Y14999D01*
X7464Y14998D01*
X7461Y14998D01*
X7460Y14997D01*
X7459Y14997D01*
X7455Y14995D01*
X7452Y14993D01*
X7451Y14992D01*
X7448Y14989D01*
X7446Y14986D01*
X7445Y14985D01*
X7445Y14984D01*
X7443Y14981D01*
X7442Y14977D01*
X7442Y14976D01*
X7441Y14975D01*
X7441Y14970D01*
X7441Y14559D01*
X7023Y14559D01*
X7031Y14613D01*
X7054Y14685D01*
X7089Y14752D01*
X7133Y14813D01*
X7187Y14867D01*
X7248Y14911D01*
X7315Y14946D01*
X7360Y14960D01*
X7364Y14962D01*
X7368Y14964D01*
X7369Y14965D01*
X7372Y14967D01*
X7375Y14970D01*
X7375Y14971D01*
X7377Y14975D01*
X7379Y14979D01*
X7379Y14980D01*
X7380Y14984D01*
X7381Y14988D01*
X7380Y14989D01*
X7380Y14990D01*
X7380Y14994D01*
X7379Y14998D01*
X7378Y14999D01*
X7376Y15002D01*
X7374Y15006D01*
X7373Y15007D01*
X7370Y15010D01*
X7367Y15012D01*
X7366Y15013D01*
X7365Y15013D01*
X7362Y15015D01*
X7216Y15075D01*
X7075Y15216D01*
X6999Y15400D01*
X6999Y15600D01*
X7075Y15784D01*
X7216Y15925D01*
X7333Y15973D01*
X7336Y15975D01*
X7338Y15976D01*
X7340Y15977D01*
X7341Y15978D01*
X7343Y15980D01*
X7345Y15982D01*
X7346Y15984D01*
X7348Y15985D01*
X7349Y15988D01*
X7350Y15991D01*
X7350Y15993D01*
X7351Y15994D01*
X7351Y15997D01*
X7351Y16000D01*
X7351Y16002D01*
X7351Y16004D01*
X7350Y16007D01*
X7350Y16010D01*
X7349Y16011D01*
X7348Y16013D01*
X7347Y16015D01*
X7345Y16018D01*
X7344Y16019D01*
X7343Y16021D01*
X7340Y16023D01*
X7338Y16025D01*
X7336Y16026D01*
X7335Y16026D01*
X7334Y16026D01*
X7333Y16027D01*
X7216Y16075D01*
X7075Y16216D01*
X6999Y16400D01*
X6999Y16600D01*
X7075Y16784D01*
X7216Y16925D01*
X7333Y16973D01*
X7336Y16975D01*
X7338Y16976D01*
X7340Y16977D01*
X7341Y16978D01*
X7343Y16980D01*
X7345Y16982D01*
X7346Y16984D01*
X7348Y16985D01*
X7349Y16988D01*
X7350Y16991D01*
X7350Y16993D01*
X7351Y16994D01*
X7351Y16997D01*
X7351Y17000D01*
X7351Y17002D01*
X7351Y17004D01*
X7350Y17007D01*
X7350Y17010D01*
X7349Y17011D01*
X7348Y17013D01*
X7347Y17015D01*
X7345Y17018D01*
X7344Y17019D01*
X7343Y17021D01*
X7340Y17023D01*
X7338Y17025D01*
X7336Y17026D01*
X7335Y17026D01*
X7334Y17026D01*
X7333Y17027D01*
X7216Y17075D01*
X7075Y17216D01*
X6999Y17400D01*
X6999Y17473D01*
X6999Y17476D01*
X6999Y17479D01*
X6998Y17481D01*
X6998Y17482D01*
X6996Y17485D01*
X6995Y17488D01*
X6994Y17489D01*
X6993Y17491D01*
X6991Y17493D01*
X6989Y17495D01*
X6988Y17496D01*
X6986Y17497D01*
X6983Y17499D01*
X6981Y17500D01*
X6979Y17501D01*
X6977Y17501D01*
X6975Y17502D01*
X6972Y17502D01*
X6970Y17502D01*
X6968Y17502D01*
X6965Y17502D01*
X6962Y17501D01*
X6960Y17500D01*
X6959Y17500D01*
X6956Y17498D01*
X6953Y17497D01*
X6951Y17495D01*
X6950Y17494D01*
X6949Y17494D01*
X3669Y14214D01*
X3667Y14210D01*
X3665Y14207D01*
X3664Y14207D01*
X3664Y14206D01*
X3663Y14202D01*
X3661Y14198D01*
X3661Y14197D01*
X3661Y14196D01*
X3661Y14193D01*
X3661Y10005D01*
X3368Y9712D01*
X3367Y9711D01*
X3366Y9711D01*
X3364Y9707D01*
X3362Y9704D01*
X3362Y9703D01*
X3361Y9702D01*
X3360Y9699D01*
X3359Y9695D01*
X3359Y9694D01*
X3359Y9693D01*
X3360Y9689D01*
X3360Y9686D01*
X3360Y9685D01*
X3360Y9684D01*
X3362Y9680D01*
X3363Y9677D01*
X3364Y9676D01*
X3364Y9675D01*
X3368Y9671D01*
X3381Y9658D01*
X3381Y9342D01*
X3158Y9119D01*
X2842Y9119D01*
X2619Y9342D01*
X2619Y9658D01*
X2842Y9881D01*
X3013Y9881D01*
X3017Y9881D01*
X3021Y9882D01*
X3022Y9882D01*
X3026Y9884D01*
X3030Y9886D01*
X3030Y9887D01*
X3031Y9887D01*
X3034Y9889D01*
X3291Y10146D01*
X3293Y10150D01*
X3295Y10153D01*
X3296Y10153D01*
X3296Y10154D01*
X3297Y10158D01*
X3299Y10162D01*
X3299Y10163D01*
X3299Y10164D01*
X3299Y10167D01*
X3299Y12270D01*
X3299Y12271D01*
X3299Y12272D01*
X3298Y12276D01*
X3298Y12279D01*
X3297Y12280D01*
X3297Y12281D01*
X3295Y12285D01*
X3293Y12288D01*
X3292Y12289D01*
X3289Y12292D01*
X3286Y12294D01*
X3285Y12295D01*
X3284Y12295D01*
X3281Y12297D01*
X3277Y12298D01*
X3276Y12298D01*
X3275Y12299D01*
X3270Y12299D01*
X2805Y12299D01*
X2339Y12765D01*
X2339Y13353D01*
X2339Y13357D01*
X2338Y13361D01*
X2338Y13362D01*
X2336Y13366D01*
X2334Y13370D01*
X2333Y13370D01*
X2333Y13371D01*
X2331Y13374D01*
X2031Y13673D01*
X2028Y13675D01*
X2025Y13678D01*
X2024Y13678D01*
X2023Y13679D01*
X2020Y13680D01*
X2016Y13681D01*
X2015Y13681D01*
X2014Y13682D01*
X2010Y13681D01*
X2007Y13682D01*
X2006Y13681D01*
X2005Y13681D01*
X2001Y13680D01*
X1997Y13679D01*
X1997Y13678D01*
X1996Y13678D01*
X1993Y13675D01*
X1990Y13673D01*
X1989Y13672D01*
X1988Y13672D01*
X1986Y13668D01*
X1984Y13665D01*
X1984Y13664D01*
X1983Y13664D01*
X1983Y13660D01*
X1981Y13656D01*
X1981Y13655D01*
X1981Y13654D01*
X1982Y13650D01*
X1982Y13646D01*
X1982Y13645D01*
X1983Y13644D01*
X1983Y13641D01*
X2001Y13600D01*
X2001Y13400D01*
X1925Y13216D01*
X1784Y13075D01*
X1638Y13015D01*
X1634Y13013D01*
X1631Y13011D01*
X1630Y13010D01*
X1629Y13010D01*
X1627Y13007D01*
X1624Y13004D01*
X1624Y13003D01*
X1623Y13002D01*
X1622Y12999D01*
X1620Y12995D01*
X1620Y12994D01*
X1620Y12989D01*
X1620Y12985D01*
X1620Y12984D01*
X1621Y12980D01*
X1622Y12976D01*
X1623Y12975D01*
X1625Y12972D01*
X1627Y12968D01*
X1628Y12968D01*
X1628Y12967D01*
X1631Y12965D01*
X1635Y12962D01*
X1636Y12962D01*
X1637Y12961D01*
X1640Y12960D01*
X1685Y12946D01*
X1752Y12911D01*
X1813Y12867D01*
X1867Y12813D01*
X1911Y12752D01*
X1946Y12685D01*
X1969Y12613D01*
X1977Y12559D01*
X1559Y12559D01*
X1559Y12970D01*
X1559Y12971D01*
X1559Y12972D01*
X1558Y12976D01*
X1558Y12979D01*
X1557Y12980D01*
X1557Y12981D01*
X1555Y12985D01*
X1553Y12988D01*
X1552Y12989D01*
X1549Y12992D01*
X1546Y12994D01*
X1545Y12995D01*
X1544Y12995D01*
X1541Y12997D01*
X1537Y12998D01*
X1536Y12998D01*
X1535Y12999D01*
X1530Y12999D01*
X1470Y12999D01*
X1469Y12999D01*
X1468Y12999D01*
X1464Y12998D01*
X1461Y12998D01*
X1460Y12997D01*
X1459Y12997D01*
X1455Y12995D01*
X1452Y12993D01*
X1451Y12992D01*
X1448Y12989D01*
X1446Y12986D01*
X1445Y12985D01*
X1445Y12984D01*
X1443Y12981D01*
X1442Y12977D01*
X1442Y12976D01*
X1441Y12975D01*
X1441Y12970D01*
X1441Y12559D01*
X1050Y12559D01*
X1049Y12559D01*
X1048Y12559D01*
X1044Y12558D01*
X1041Y12558D01*
X1040Y12557D01*
X1039Y12557D01*
X1035Y12555D01*
X1032Y12553D01*
X1031Y12552D01*
X1028Y12549D01*
X1026Y12546D01*
X1025Y12545D01*
X1025Y12544D01*
X1023Y12541D01*
X1022Y12537D01*
X1022Y12536D01*
X1021Y12535D01*
X1021Y12530D01*
X1021Y12470D01*
X1021Y12469D01*
X1021Y12468D01*
X1022Y12464D01*
X1022Y12461D01*
X1023Y12460D01*
X1023Y12459D01*
X1025Y12455D01*
X1027Y12452D01*
X1028Y12451D01*
X1031Y12448D01*
X1034Y12446D01*
X1035Y12445D01*
X1036Y12445D01*
X1039Y12443D01*
X1043Y12442D01*
X1044Y12442D01*
X1045Y12441D01*
X1050Y12441D01*
X1441Y12441D01*
X1441Y12030D01*
X1441Y12029D01*
X1441Y12028D01*
X1442Y12024D01*
X1442Y12021D01*
X1443Y12020D01*
X1443Y12019D01*
X1445Y12015D01*
X1447Y12012D01*
X1448Y12011D01*
X1451Y12008D01*
X1454Y12006D01*
X1455Y12005D01*
X1456Y12005D01*
X1459Y12003D01*
X1463Y12002D01*
X1464Y12002D01*
X1465Y12001D01*
X1470Y12001D01*
X1530Y12001D01*
X1531Y12001D01*
X1532Y12001D01*
X1536Y12002D01*
X1539Y12002D01*
X1540Y12003D01*
X1541Y12003D01*
X1545Y12005D01*
X1548Y12007D01*
X1549Y12008D01*
X1552Y12011D01*
X1554Y12014D01*
X1555Y12015D01*
X1555Y12016D01*
X1557Y12019D01*
X1558Y12023D01*
X1558Y12024D01*
X1559Y12025D01*
X1559Y12030D01*
X1559Y12441D01*
X1977Y12441D01*
X1969Y12387D01*
X1946Y12315D01*
X1911Y12248D01*
X1867Y12187D01*
X1813Y12133D01*
X1752Y12089D01*
X1685Y12054D01*
X1640Y12040D01*
X1636Y12038D01*
X1632Y12036D01*
X1631Y12035D01*
X1628Y12033D01*
X1625Y12030D01*
X1625Y12029D01*
X1623Y12025D01*
X1621Y12021D01*
X1621Y12020D01*
X1620Y12016D01*
X1619Y12012D01*
X1620Y12011D01*
X1620Y12010D01*
X1620Y12006D01*
X1621Y12002D01*
X1622Y12001D01*
X1624Y11998D01*
X1626Y11994D01*
X1627Y11993D01*
X1630Y11990D01*
X1633Y11988D01*
X1634Y11987D01*
X1635Y11987D01*
X1638Y11985D01*
X1784Y11925D01*
X1925Y11784D01*
X2001Y11600D01*
X2001Y11400D01*
X1925Y11216D01*
X1784Y11075D01*
X1667Y11027D01*
X1664Y11025D01*
X1662Y11024D01*
X1660Y11023D01*
X1659Y11022D01*
X1657Y11020D01*
X1655Y11018D01*
X1654Y11016D01*
X1652Y11015D01*
X1651Y11012D01*
X1650Y11009D01*
X1650Y11007D01*
X1649Y11006D01*
X1649Y11003D01*
X1649Y11000D01*
X1649Y10998D01*
X1649Y10996D01*
X1650Y10993D01*
X1650Y10990D01*
X1651Y10989D01*
X1652Y10987D01*
X1653Y10985D01*
X1655Y10982D01*
X1656Y10981D01*
X1657Y10979D01*
X1660Y10977D01*
X1662Y10975D01*
X1664Y10974D01*
X1665Y10974D01*
X1666Y10974D01*
X1667Y10973D01*
X1784Y10925D01*
X1925Y10784D01*
X2001Y10600D01*
X2001Y10400D01*
X1925Y10216D01*
X1784Y10075D01*
X1667Y10027D01*
X1664Y10025D01*
X1662Y10024D01*
X1660Y10023D01*
X1659Y10022D01*
X1657Y10020D01*
X1655Y10018D01*
X1654Y10016D01*
X1652Y10015D01*
X1651Y10012D01*
X1650Y10009D01*
X1650Y10007D01*
X1649Y10006D01*
X1649Y10003D01*
X1649Y10000D01*
X1649Y9998D01*
X1649Y9996D01*
X1650Y9993D01*
X1650Y9990D01*
X1651Y9989D01*
X1652Y9987D01*
X1653Y9985D01*
X1655Y9982D01*
X1656Y9981D01*
X1657Y9979D01*
X1660Y9977D01*
X1662Y9975D01*
X1664Y9974D01*
X1665Y9974D01*
X1666Y9974D01*
X1667Y9973D01*
X1784Y9925D01*
X1925Y9784D01*
X2001Y9600D01*
X2001Y9400D01*
X1925Y9216D01*
X1784Y9075D01*
X1667Y9027D01*
X1664Y9025D01*
X1662Y9024D01*
X1661Y9024D01*
X1660Y9023D01*
X1659Y9022D01*
X1657Y9020D01*
X1655Y9018D01*
X1654Y9016D01*
X1652Y9015D01*
X1651Y9012D01*
X1650Y9009D01*
X1650Y9008D01*
X1650Y9007D01*
X1649Y9006D01*
X1649Y9003D01*
X1649Y9000D01*
X1649Y8998D01*
X1649Y8996D01*
X1650Y8993D01*
X1650Y8990D01*
X1651Y8989D01*
X1652Y8987D01*
X1653Y8985D01*
X1655Y8982D01*
X1656Y8981D01*
X1657Y8979D01*
X1660Y8977D01*
X1662Y8975D01*
X1664Y8974D01*
X1665Y8974D01*
X1666Y8974D01*
X1667Y8973D01*
X1784Y8925D01*
X1925Y8784D01*
X2001Y8600D01*
X2001Y8400D01*
X1925Y8216D01*
X1784Y8075D01*
X1667Y8027D01*
X1664Y8025D01*
X1662Y8024D01*
X1660Y8023D01*
X1659Y8022D01*
X1657Y8020D01*
X1655Y8018D01*
X1654Y8016D01*
X1652Y8015D01*
X1651Y8012D01*
X1650Y8009D01*
X1650Y8007D01*
X1649Y8006D01*
X1649Y8003D01*
X1649Y8000D01*
X1649Y7998D01*
X1649Y7996D01*
X1650Y7993D01*
X1650Y7990D01*
X1651Y7989D01*
X1652Y7987D01*
X1653Y7985D01*
X1655Y7982D01*
X1656Y7981D01*
X1657Y7979D01*
X1660Y7977D01*
X1662Y7975D01*
X1664Y7974D01*
X1665Y7974D01*
X1666Y7974D01*
X1667Y7973D01*
X1784Y7925D01*
X1925Y7784D01*
X2001Y7600D01*
X2001Y7400D01*
X1925Y7216D01*
X1784Y7075D01*
X1667Y7027D01*
X1664Y7025D01*
X1662Y7024D01*
X1660Y7023D01*
X1659Y7022D01*
X1657Y7020D01*
X1655Y7018D01*
X1654Y7016D01*
X1652Y7015D01*
X1651Y7012D01*
X1650Y7009D01*
X1650Y7007D01*
X1649Y7006D01*
X1649Y7003D01*
X1649Y7000D01*
X1649Y6998D01*
X1649Y6996D01*
X1650Y6993D01*
X1650Y6990D01*
X1651Y6989D01*
X1652Y6987D01*
X1653Y6985D01*
X1655Y6982D01*
X1656Y6981D01*
X1657Y6979D01*
X1660Y6977D01*
X1662Y6975D01*
X1664Y6974D01*
X1665Y6974D01*
X1666Y6974D01*
X1667Y6973D01*
X1784Y6925D01*
X1925Y6784D01*
X2001Y6600D01*
X2001Y6400D01*
X1925Y6216D01*
X1784Y6075D01*
X1667Y6027D01*
X1664Y6025D01*
X1662Y6024D01*
X1660Y6023D01*
X1659Y6022D01*
X1657Y6020D01*
X1655Y6018D01*
X1654Y6016D01*
X1652Y6015D01*
X1651Y6012D01*
X1650Y6009D01*
X1650Y6007D01*
X1649Y6006D01*
X1649Y6003D01*
X1649Y6000D01*
X1649Y5998D01*
X1649Y5996D01*
X1650Y5993D01*
X1650Y5990D01*
X1651Y5989D01*
X1652Y5987D01*
X1653Y5985D01*
X1655Y5982D01*
X1656Y5981D01*
X1657Y5979D01*
X1660Y5977D01*
X1662Y5975D01*
X1664Y5974D01*
X1665Y5974D01*
X1666Y5974D01*
X1667Y5973D01*
X1784Y5925D01*
X1925Y5784D01*
X2001Y5600D01*
X2001Y5400D01*
X1925Y5216D01*
X1784Y5075D01*
X1667Y5027D01*
X1664Y5025D01*
X1662Y5024D01*
X1660Y5023D01*
X1659Y5022D01*
X1657Y5020D01*
X1655Y5018D01*
X1654Y5016D01*
X1652Y5015D01*
X1651Y5012D01*
X1650Y5009D01*
X1650Y5007D01*
X1649Y5006D01*
X1649Y5003D01*
X1649Y5000D01*
X1649Y4998D01*
X1649Y4996D01*
X1650Y4993D01*
X1650Y4990D01*
X1651Y4989D01*
X1652Y4987D01*
X1653Y4985D01*
X1655Y4982D01*
X1656Y4981D01*
X1657Y4979D01*
X1660Y4977D01*
X1662Y4975D01*
X1664Y4974D01*
X1665Y4974D01*
X1666Y4974D01*
X1667Y4973D01*
X1784Y4925D01*
X1925Y4784D01*
X2001Y4600D01*
X2001Y4400D01*
X1925Y4216D01*
X1784Y4075D01*
X1667Y4027D01*
X1664Y4025D01*
X1662Y4024D01*
X1660Y4023D01*
X1659Y4022D01*
X1657Y4020D01*
X1655Y4018D01*
X1654Y4016D01*
X1652Y4015D01*
X1651Y4012D01*
X1650Y4009D01*
X1650Y4007D01*
X1649Y4006D01*
X1649Y4003D01*
X1649Y4000D01*
X1649Y3998D01*
X1649Y3996D01*
X1650Y3993D01*
X1650Y3990D01*
X1651Y3989D01*
X1652Y3987D01*
X1653Y3985D01*
X1655Y3982D01*
X1656Y3981D01*
X1657Y3979D01*
X1660Y3977D01*
X1662Y3975D01*
X1664Y3974D01*
X1665Y3974D01*
X1666Y3974D01*
X1667Y3973D01*
X1784Y3925D01*
X1925Y3784D01*
X2001Y3600D01*
X2001Y3400D01*
X1925Y3216D01*
X1784Y3075D01*
X1667Y3027D01*
X1664Y3025D01*
X1662Y3024D01*
X1660Y3023D01*
X1659Y3022D01*
X1657Y3020D01*
X1655Y3018D01*
X1654Y3016D01*
X1652Y3015D01*
X1651Y3012D01*
X1650Y3009D01*
X1650Y3007D01*
X1649Y3006D01*
X1649Y3003D01*
X1649Y3000D01*
X1649Y2998D01*
X1649Y2996D01*
X1650Y2993D01*
X1650Y2990D01*
X1651Y2989D01*
X1652Y2987D01*
X1653Y2985D01*
X1655Y2982D01*
X1656Y2981D01*
X1657Y2979D01*
X1660Y2977D01*
X1662Y2975D01*
X1664Y2974D01*
X1665Y2974D01*
X1666Y2974D01*
X1667Y2973D01*
X1784Y2925D01*
X1925Y2784D01*
X2001Y2600D01*
X2001Y2400D01*
X1925Y2216D01*
X1784Y2075D01*
X1667Y2027D01*
X1664Y2025D01*
X1662Y2024D01*
X1660Y2023D01*
X1659Y2022D01*
X1657Y2020D01*
X1655Y2018D01*
X1654Y2016D01*
X1652Y2015D01*
X1651Y2012D01*
X1650Y2009D01*
X1650Y2007D01*
X1649Y2006D01*
X1649Y2003D01*
X1649Y2000D01*
X1649Y1998D01*
X1649Y1996D01*
X1650Y1993D01*
X1650Y1990D01*
X1651Y1989D01*
X1652Y1987D01*
X1653Y1985D01*
X1655Y1982D01*
X1656Y1981D01*
X1657Y1979D01*
X1660Y1977D01*
X1662Y1975D01*
X1664Y1974D01*
X1665Y1974D01*
X1666Y1974D01*
X1667Y1973D01*
X1784Y1925D01*
X1925Y1784D01*
X2001Y1600D01*
X2001Y1400D01*
X1925Y1216D01*
X1782Y1074D01*
X1781Y1073D01*
X1780Y1072D01*
X1779Y1072D01*
X1777Y1069D01*
X1774Y1066D01*
X1774Y1065D01*
X1773Y1065D01*
X1772Y1061D01*
X1770Y1057D01*
X1770Y1056D01*
X1770Y1052D01*
X1769Y1048D01*
X1770Y1047D01*
X1770Y1046D01*
X1771Y1042D01*
X1772Y1039D01*
X1772Y1038D01*
X1772Y1037D01*
X1775Y1034D01*
X1777Y1031D01*
X1777Y1030D01*
X1778Y1029D01*
X1781Y1027D01*
X1784Y1025D01*
X1785Y1024D01*
X1786Y1024D01*
X1790Y1023D01*
X1793Y1021D01*
X1794Y1021D01*
X1795Y1021D01*
X1796Y1021D01*
X1799Y1021D01*
X2224Y1021D01*
X2228Y1021D01*
X2232Y1022D01*
X2233Y1022D01*
X2234Y1022D01*
X2237Y1024D01*
X2241Y1026D01*
X2242Y1027D01*
X2243Y1027D01*
X2245Y1029D01*
X2282Y1066D01*
X2284Y1070D01*
X2287Y1073D01*
X2287Y1074D01*
X2289Y1078D01*
X2290Y1082D01*
X2290Y1083D01*
X2290Y1084D01*
X2290Y1087D01*
X2290Y3575D01*
X2396Y3681D01*
X4325Y3681D01*
X4616Y3389D01*
X4620Y3387D01*
X4623Y3385D01*
X4623Y3384D01*
X4624Y3384D01*
X4628Y3383D01*
X4632Y3381D01*
X4633Y3381D01*
X4634Y3381D01*
X4637Y3381D01*
X4908Y3381D01*
X5131Y3158D01*
X5131Y2842D01*
X4908Y2619D01*
X4592Y2619D01*
X4369Y2842D01*
X4369Y3113D01*
X4369Y3117D01*
X4368Y3121D01*
X4368Y3122D01*
X4366Y3126D01*
X4364Y3130D01*
X4363Y3130D01*
X4363Y3131D01*
X4361Y3134D01*
X4184Y3311D01*
X4180Y3313D01*
X4177Y3315D01*
X4177Y3316D01*
X4176Y3316D01*
X4172Y3317D01*
X4168Y3319D01*
X4167Y3319D01*
X4166Y3319D01*
X4163Y3319D01*
X2681Y3319D01*
X2680Y3319D01*
X2679Y3319D01*
X2675Y3318D01*
X2672Y3318D01*
X2671Y3317D01*
X2670Y3317D01*
X2667Y3315D01*
X2663Y3313D01*
X2663Y3312D01*
X2662Y3312D01*
X2659Y3309D01*
X2657Y3306D01*
X2656Y3305D01*
X2656Y3304D01*
X2654Y3301D01*
X2653Y3297D01*
X2653Y3296D01*
X2652Y3295D01*
X2652Y3290D01*
X2652Y925D01*
X2386Y659D01*
X1245Y659D01*
G37*
%LPD*%
%LPC*%
G36*
X12559Y2840D02*
X12559Y2840D01*
X12559Y5441D01*
X14176Y5441D01*
X14176Y4443D01*
X14163Y4297D01*
X14137Y4153D01*
X14137Y4152D01*
X14114Y4064D01*
X14100Y4011D01*
X14049Y3874D01*
X13988Y3741D01*
X13914Y3615D01*
X13831Y3495D01*
X13737Y3383D01*
X13633Y3279D01*
X13521Y3185D01*
X13401Y3101D01*
X13274Y3028D01*
X13142Y2966D01*
X13004Y2916D01*
X12863Y2878D01*
X12719Y2853D01*
X12573Y2840D01*
X12559Y2840D01*
G37*
%LPD*%
%LPC*%
G36*
X12559Y5559D02*
X12559Y5559D01*
X12559Y8160D01*
X12573Y8160D01*
X12719Y8147D01*
X12863Y8122D01*
X13004Y8084D01*
X13142Y8034D01*
X13274Y7972D01*
X13401Y7899D01*
X13521Y7815D01*
X13633Y7721D01*
X13737Y7617D01*
X13831Y7505D01*
X13914Y7385D01*
X13988Y7259D01*
X14049Y7126D01*
X14100Y6989D01*
X14137Y6847D01*
X14163Y6703D01*
X14176Y6557D01*
X14176Y5559D01*
X12559Y5559D01*
G37*
%LPD*%
%LPC*%
G36*
X10824Y5559D02*
X10824Y5559D01*
X10824Y6557D01*
X10837Y6703D01*
X10863Y6847D01*
X10873Y6887D01*
X10881Y6916D01*
X10900Y6989D01*
X10951Y7126D01*
X11012Y7259D01*
X11086Y7385D01*
X11169Y7505D01*
X11263Y7617D01*
X11367Y7721D01*
X11479Y7815D01*
X11599Y7899D01*
X11726Y7972D01*
X11858Y8034D01*
X11996Y8084D01*
X12137Y8122D01*
X12281Y8147D01*
X12427Y8160D01*
X12441Y8160D01*
X12441Y5559D01*
X10824Y5559D01*
G37*
%LPD*%
%LPC*%
G36*
X12427Y2840D02*
X12427Y2840D01*
X12281Y2853D01*
X12137Y2878D01*
X11996Y2916D01*
X11858Y2966D01*
X11726Y3028D01*
X11599Y3101D01*
X11479Y3185D01*
X11367Y3279D01*
X11263Y3383D01*
X11169Y3495D01*
X11086Y3615D01*
X11012Y3741D01*
X10951Y3874D01*
X10900Y4011D01*
X10863Y4153D01*
X10837Y4297D01*
X10824Y4443D01*
X10824Y5441D01*
X12441Y5441D01*
X12441Y2840D01*
X12427Y2840D01*
G37*
%LPD*%
%LPC*%
G36*
X11225Y579D02*
X11225Y579D01*
X11154Y650D01*
X11154Y1550D01*
X11225Y1621D01*
X13825Y1621D01*
X13896Y1550D01*
X13896Y650D01*
X13825Y579D01*
X11225Y579D01*
G37*
%LPD*%
%LPC*%
G36*
X6879Y25394D02*
X6879Y25394D01*
X6781Y25542D01*
X6780Y25543D01*
X6779Y25545D01*
X6776Y25547D01*
X6774Y25549D01*
X6773Y25550D01*
X6771Y25551D01*
X6768Y25552D01*
X6766Y25553D01*
X6764Y25554D01*
X6762Y25554D01*
X6759Y25554D01*
X6757Y25555D01*
X6755Y25554D01*
X6753Y25554D01*
X6750Y25554D01*
X6747Y25553D01*
X6745Y25552D01*
X6743Y25552D01*
X6741Y25550D01*
X6739Y25549D01*
X6737Y25547D01*
X6736Y25546D01*
X6732Y25542D01*
X6634Y25394D01*
X6512Y25370D01*
X6437Y25420D01*
X6434Y25421D01*
X6432Y25422D01*
X6430Y25423D01*
X6428Y25424D01*
X6425Y25424D01*
X6423Y25424D01*
X6421Y25424D01*
X6419Y25424D01*
X6416Y25424D01*
X6413Y25423D01*
X6411Y25423D01*
X6410Y25422D01*
X6407Y25421D01*
X6404Y25419D01*
X6402Y25418D01*
X6402Y25417D01*
X6401Y25417D01*
X6400Y25416D01*
X6364Y25379D01*
X6054Y25379D01*
X5935Y25448D01*
X5919Y25476D01*
X5917Y25479D01*
X5914Y25482D01*
X5913Y25482D01*
X5913Y25483D01*
X5910Y25485D01*
X5906Y25487D01*
X5906Y25488D01*
X5905Y25488D01*
X5901Y25489D01*
X5897Y25490D01*
X5896Y25490D01*
X5895Y25490D01*
X5892Y25490D01*
X5888Y25490D01*
X5887Y25489D01*
X5886Y25489D01*
X5882Y25488D01*
X5879Y25486D01*
X5878Y25486D01*
X5877Y25485D01*
X5874Y25483D01*
X5871Y25480D01*
X5871Y25479D01*
X5870Y25479D01*
X5870Y25478D01*
X5868Y25476D01*
X5852Y25448D01*
X5733Y25379D01*
X5424Y25379D01*
X5358Y25445D01*
X5356Y25447D01*
X5355Y25448D01*
X5352Y25449D01*
X5350Y25451D01*
X5348Y25452D01*
X5346Y25453D01*
X5343Y25453D01*
X5341Y25454D01*
X5339Y25454D01*
X5337Y25454D01*
X5334Y25454D01*
X5331Y25453D01*
X5329Y25453D01*
X5327Y25452D01*
X5322Y25450D01*
X5200Y25379D01*
X4890Y25379D01*
X4802Y25468D01*
X4802Y25592D01*
X4826Y25616D01*
X4826Y25617D01*
X4827Y25618D01*
X4829Y25621D01*
X4831Y25624D01*
X4832Y25625D01*
X4832Y25626D01*
X4833Y25629D01*
X4834Y25633D01*
X4834Y25634D01*
X4834Y25635D01*
X4834Y25639D01*
X4834Y25642D01*
X4833Y25643D01*
X4833Y25645D01*
X4832Y25648D01*
X4830Y25651D01*
X4830Y25652D01*
X4829Y25653D01*
X4826Y25657D01*
X4802Y25681D01*
X4802Y25893D01*
X4881Y26029D01*
X5017Y26107D01*
X5174Y26107D01*
X5310Y26029D01*
X5336Y25982D01*
X5339Y25979D01*
X5341Y25976D01*
X5342Y25976D01*
X5342Y25975D01*
X5346Y25973D01*
X5349Y25971D01*
X5350Y25970D01*
X5351Y25970D01*
X5354Y25969D01*
X5358Y25968D01*
X5359Y25968D01*
X5360Y25968D01*
X5364Y25968D01*
X5368Y25968D01*
X5369Y25969D01*
X5373Y25970D01*
X5377Y25972D01*
X5378Y25973D01*
X5381Y25975D01*
X5384Y25978D01*
X5385Y25979D01*
X5385Y25980D01*
X5387Y25982D01*
X5414Y26029D01*
X5550Y26107D01*
X5707Y26107D01*
X5843Y26029D01*
X5861Y25998D01*
X5863Y25995D01*
X5866Y25992D01*
X5866Y25991D01*
X5867Y25990D01*
X5870Y25988D01*
X5873Y25986D01*
X5874Y25986D01*
X5875Y25985D01*
X5879Y25985D01*
X5883Y25983D01*
X5883Y25984D01*
X5884Y25983D01*
X5888Y25984D01*
X5892Y25984D01*
X5893Y25984D01*
X5894Y25984D01*
X5897Y25986D01*
X5901Y25987D01*
X5902Y25988D01*
X5903Y25988D01*
X5905Y25991D01*
X5908Y25993D01*
X5909Y25994D01*
X5909Y25995D01*
X5910Y25996D01*
X5911Y25998D01*
X5935Y26038D01*
X6054Y26107D01*
X6116Y26107D01*
X6121Y26107D01*
X6122Y26108D01*
X6123Y26107D01*
X6127Y26108D01*
X6131Y26109D01*
X6133Y26110D01*
X6136Y26112D01*
X6139Y26114D01*
X6140Y26114D01*
X6141Y26115D01*
X6143Y26118D01*
X6145Y26121D01*
X6146Y26121D01*
X6147Y26122D01*
X6148Y26126D01*
X6149Y26129D01*
X6150Y26130D01*
X6150Y26131D01*
X6150Y26137D01*
X6150Y26232D01*
X6239Y26321D01*
X6364Y26321D01*
X6400Y26284D01*
X6403Y26282D01*
X6405Y26280D01*
X6407Y26280D01*
X6408Y26278D01*
X6411Y26278D01*
X6414Y26276D01*
X6415Y26276D01*
X6417Y26276D01*
X6420Y26276D01*
X6423Y26276D01*
X6425Y26276D01*
X6427Y26276D01*
X6430Y26277D01*
X6432Y26278D01*
X6435Y26279D01*
X6436Y26279D01*
X6436Y26280D01*
X6437Y26280D01*
X6512Y26330D01*
X6634Y26306D01*
X6732Y26158D01*
X6734Y26157D01*
X6735Y26155D01*
X6737Y26153D01*
X6739Y26151D01*
X6741Y26150D01*
X6742Y26149D01*
X6745Y26148D01*
X6747Y26147D01*
X6749Y26146D01*
X6751Y26146D01*
X6754Y26146D01*
X6757Y26145D01*
X6759Y26146D01*
X6761Y26146D01*
X6763Y26146D01*
X6766Y26147D01*
X6768Y26148D01*
X6770Y26148D01*
X6772Y26150D01*
X6775Y26151D01*
X6776Y26153D01*
X6778Y26154D01*
X6781Y26158D01*
X6879Y26306D01*
X7002Y26330D01*
X7106Y26261D01*
X7130Y26138D01*
X6949Y25866D01*
X6947Y25862D01*
X6945Y25858D01*
X6945Y25857D01*
X6944Y25853D01*
X6944Y25848D01*
X6945Y25843D01*
X6946Y25839D01*
X6949Y25834D01*
X7130Y25562D01*
X7106Y25439D01*
X7002Y25370D01*
X6879Y25394D01*
G37*
%LPD*%
%LPC*%
G36*
X4847Y923D02*
X4847Y923D01*
X4815Y1019D01*
X4814Y1020D01*
X4814Y1021D01*
X4812Y1024D01*
X4810Y1028D01*
X4809Y1029D01*
X4806Y1032D01*
X4803Y1034D01*
X4802Y1035D01*
X4801Y1035D01*
X4798Y1037D01*
X4795Y1038D01*
X4793Y1038D01*
X4792Y1039D01*
X4787Y1039D01*
X4726Y1039D01*
X4725Y1039D01*
X4724Y1039D01*
X4721Y1038D01*
X4717Y1038D01*
X4716Y1037D01*
X4715Y1037D01*
X4712Y1035D01*
X4709Y1033D01*
X4708Y1032D01*
X4707Y1032D01*
X4705Y1029D01*
X4702Y1026D01*
X4702Y1025D01*
X4701Y1024D01*
X4699Y1019D01*
X4667Y923D01*
X4555Y867D01*
X4436Y907D01*
X4434Y909D01*
X4432Y913D01*
X4431Y913D01*
X4430Y914D01*
X4427Y916D01*
X4424Y918D01*
X4423Y918D01*
X4422Y919D01*
X4418Y920D01*
X4415Y921D01*
X4414Y921D01*
X4413Y921D01*
X4409Y921D01*
X4405Y920D01*
X4404Y920D01*
X4403Y920D01*
X4400Y918D01*
X4396Y917D01*
X4396Y916D01*
X4395Y916D01*
X4391Y912D01*
X4357Y879D01*
X4232Y879D01*
X4144Y968D01*
X4144Y979D01*
X4144Y981D01*
X4144Y984D01*
X4143Y986D01*
X4143Y988D01*
X4141Y991D01*
X4140Y993D01*
X4139Y995D01*
X4138Y996D01*
X4136Y998D01*
X4134Y1001D01*
X4133Y1002D01*
X4131Y1003D01*
X4128Y1004D01*
X4126Y1006D01*
X4124Y1006D01*
X4122Y1007D01*
X4120Y1007D01*
X4117Y1008D01*
X4115Y1008D01*
X4113Y1008D01*
X4110Y1007D01*
X4107Y1007D01*
X4105Y1006D01*
X4104Y1006D01*
X4101Y1004D01*
X4099Y1003D01*
X4097Y1001D01*
X4095Y1000D01*
X4094Y998D01*
X4092Y996D01*
X4090Y994D01*
X4089Y993D01*
X4089Y992D01*
X4046Y907D01*
X3928Y867D01*
X3812Y925D01*
X3811Y926D01*
X3809Y927D01*
X3808Y929D01*
X3805Y930D01*
X3803Y931D01*
X3801Y932D01*
X3799Y933D01*
X3796Y933D01*
X3793Y934D01*
X3791Y933D01*
X3790Y934D01*
X3787Y933D01*
X3784Y933D01*
X3782Y932D01*
X3780Y931D01*
X3778Y930D01*
X3775Y928D01*
X3773Y927D01*
X3772Y926D01*
X3771Y925D01*
X3725Y879D01*
X3559Y879D01*
X3397Y879D01*
X3244Y967D01*
X3156Y1120D01*
X3156Y1580D01*
X3244Y1733D01*
X3397Y1821D01*
X3725Y1821D01*
X3813Y1732D01*
X3814Y1730D01*
X3814Y1728D01*
X3814Y1726D01*
X3815Y1723D01*
X3816Y1721D01*
X3816Y1719D01*
X3818Y1717D01*
X3819Y1714D01*
X3821Y1713D01*
X3822Y1711D01*
X3824Y1710D01*
X3826Y1708D01*
X3828Y1707D01*
X3830Y1706D01*
X3833Y1705D01*
X3835Y1704D01*
X3837Y1704D01*
X3839Y1703D01*
X3842Y1703D01*
X3845Y1703D01*
X3847Y1704D01*
X3849Y1704D01*
X3851Y1705D01*
X3854Y1705D01*
X3856Y1706D01*
X3857Y1707D01*
X3860Y1709D01*
X3862Y1710D01*
X3863Y1712D01*
X3865Y1713D01*
X3868Y1718D01*
X3877Y1733D01*
X4029Y1821D01*
X4357Y1821D01*
X4446Y1732D01*
X4446Y1394D01*
X4446Y1393D01*
X4446Y1389D01*
X4447Y1385D01*
X4447Y1384D01*
X4450Y1380D01*
X4452Y1376D01*
X4455Y1373D01*
X4459Y1370D01*
X4459Y1369D01*
X4463Y1368D01*
X4467Y1366D01*
X4468Y1366D01*
X4472Y1365D01*
X4477Y1365D01*
X4482Y1366D01*
X4486Y1367D01*
X4487Y1367D01*
X4491Y1370D01*
X4494Y1372D01*
X4495Y1372D01*
X4497Y1376D01*
X4500Y1380D01*
X4503Y1385D01*
X4595Y1661D01*
X4595Y1663D01*
X4596Y1664D01*
X4596Y1667D01*
X4596Y1670D01*
X4596Y1672D01*
X4596Y1674D01*
X4595Y1679D01*
X4594Y1682D01*
X4616Y1726D01*
X4616Y1727D01*
X4618Y1730D01*
X4633Y1777D01*
X4636Y1778D01*
X4637Y1779D01*
X4639Y1780D01*
X4641Y1782D01*
X4643Y1784D01*
X4644Y1785D01*
X4646Y1786D01*
X4647Y1788D01*
X4647Y1789D01*
X4649Y1791D01*
X4650Y1793D01*
X4697Y1809D01*
X4698Y1809D01*
X4701Y1811D01*
X4745Y1833D01*
X4747Y1832D01*
X4749Y1832D01*
X4751Y1831D01*
X4754Y1831D01*
X4757Y1830D01*
X4759Y1831D01*
X4761Y1831D01*
X4766Y1832D01*
X4768Y1833D01*
X4813Y1811D01*
X4813Y1810D01*
X4816Y1809D01*
X4864Y1793D01*
X4865Y1791D01*
X4866Y1790D01*
X4867Y1788D01*
X4868Y1786D01*
X4869Y1785D01*
X4870Y1783D01*
X4872Y1782D01*
X4873Y1781D01*
X4878Y1778D01*
X4880Y1777D01*
X4896Y1730D01*
X4896Y1729D01*
X4897Y1726D01*
X4919Y1682D01*
X4919Y1679D01*
X4918Y1677D01*
X4918Y1676D01*
X4918Y1673D01*
X4917Y1670D01*
X4917Y1668D01*
X4917Y1666D01*
X4919Y1661D01*
X5046Y1278D01*
X5048Y1274D01*
X5050Y1271D01*
X5050Y1270D01*
X5051Y1270D01*
X5051Y1269D01*
X5053Y1267D01*
X5067Y1252D01*
X5067Y1219D01*
X5068Y1218D01*
X5067Y1218D01*
X5068Y1217D01*
X5068Y1215D01*
X5069Y1210D01*
X5133Y1018D01*
X5077Y907D01*
X4958Y867D01*
X4847Y923D01*
G37*
%LPD*%
%LPC*%
G36*
X14092Y26119D02*
X14092Y26119D01*
X13869Y26342D01*
X13869Y26423D01*
X13869Y26427D01*
X13868Y26431D01*
X13868Y26432D01*
X13866Y26436D01*
X13864Y26440D01*
X13863Y26440D01*
X13863Y26441D01*
X13861Y26444D01*
X13192Y27112D01*
X13191Y27113D01*
X13191Y27114D01*
X13187Y27116D01*
X13184Y27118D01*
X13183Y27118D01*
X13182Y27119D01*
X13179Y27120D01*
X13175Y27121D01*
X13174Y27121D01*
X13173Y27121D01*
X13169Y27120D01*
X13166Y27120D01*
X13165Y27120D01*
X13164Y27120D01*
X13162Y27119D01*
X12842Y27119D01*
X12619Y27342D01*
X12619Y27658D01*
X12842Y27881D01*
X13158Y27881D01*
X13381Y27658D01*
X13381Y27447D01*
X13381Y27443D01*
X13382Y27439D01*
X13382Y27438D01*
X13384Y27434D01*
X13386Y27430D01*
X13387Y27430D01*
X13387Y27429D01*
X13389Y27426D01*
X13993Y26823D01*
X13994Y26822D01*
X13994Y26821D01*
X13998Y26819D01*
X14001Y26817D01*
X14002Y26817D01*
X14003Y26816D01*
X14006Y26815D01*
X14010Y26814D01*
X14011Y26814D01*
X14012Y26814D01*
X14016Y26815D01*
X14019Y26815D01*
X14020Y26815D01*
X14021Y26815D01*
X14025Y26817D01*
X14028Y26818D01*
X14029Y26819D01*
X14030Y26819D01*
X14034Y26823D01*
X14092Y26881D01*
X14408Y26881D01*
X14631Y26658D01*
X14631Y26342D01*
X14408Y26119D01*
X14092Y26119D01*
G37*
%LPD*%
%LPC*%
G36*
X11409Y13059D02*
X11409Y13059D01*
X11409Y13431D01*
X11528Y13431D01*
X11781Y13178D01*
X11781Y13059D01*
X11409Y13059D01*
G37*
%LPD*%
%LPC*%
G36*
X11409Y12569D02*
X11409Y12569D01*
X11409Y12941D01*
X11781Y12941D01*
X11781Y12822D01*
X11528Y12569D01*
X11409Y12569D01*
G37*
%LPD*%
%LPC*%
G36*
X11409Y14569D02*
X11409Y14569D01*
X11409Y14941D01*
X11781Y14941D01*
X11781Y14822D01*
X11528Y14569D01*
X11409Y14569D01*
G37*
%LPD*%
%LPC*%
G36*
X1729Y20027D02*
X1729Y20027D01*
X2051Y20027D01*
X2051Y19793D01*
X2044Y19768D01*
X2031Y19745D01*
X2012Y19726D01*
X1989Y19713D01*
X1963Y19706D01*
X1752Y19706D01*
X1751Y19706D01*
X1747Y19706D01*
X1729Y19703D01*
X1729Y20027D01*
G37*
%LPD*%
%LPC*%
G36*
X1591Y19706D02*
X1591Y19706D01*
X1587Y19706D01*
X1377Y19706D01*
X1351Y19713D01*
X1328Y19726D01*
X1309Y19745D01*
X1296Y19768D01*
X1289Y19793D01*
X1289Y20027D01*
X1611Y20027D01*
X1611Y19703D01*
X1591Y19706D01*
G37*
%LPD*%
%LPC*%
G36*
X8932Y11085D02*
X8932Y11085D01*
X8868Y11105D01*
X8808Y11136D01*
X8754Y11175D01*
X8707Y11223D01*
X8667Y11277D01*
X8637Y11337D01*
X8616Y11400D01*
X8610Y11441D01*
X8972Y11441D01*
X8972Y11078D01*
X8932Y11085D01*
G37*
%LPD*%
%LPC*%
G36*
X6059Y1591D02*
X6059Y1591D01*
X6059Y1953D01*
X6100Y1947D01*
X6163Y1926D01*
X6223Y1896D01*
X6277Y1856D01*
X6325Y1809D01*
X6364Y1755D01*
X6395Y1695D01*
X6415Y1631D01*
X6422Y1591D01*
X6059Y1591D01*
G37*
%LPD*%
%LPC*%
G36*
X5578Y1591D02*
X5578Y1591D01*
X5585Y1631D01*
X5605Y1695D01*
X5636Y1755D01*
X5675Y1809D01*
X5723Y1856D01*
X5777Y1896D01*
X5837Y1926D01*
X5900Y1947D01*
X5941Y1953D01*
X5941Y1591D01*
X5578Y1591D01*
G37*
%LPD*%
%LPC*%
G36*
X6059Y1472D02*
X6059Y1472D01*
X6422Y1472D01*
X6415Y1432D01*
X6395Y1368D01*
X6364Y1308D01*
X6325Y1254D01*
X6277Y1207D01*
X6223Y1167D01*
X6163Y1137D01*
X6100Y1116D01*
X6059Y1110D01*
X6059Y1472D01*
G37*
%LPD*%
%LPC*%
G36*
X5900Y1116D02*
X5900Y1116D01*
X5837Y1137D01*
X5777Y1167D01*
X5723Y1207D01*
X5675Y1254D01*
X5636Y1308D01*
X5605Y1368D01*
X5585Y1432D01*
X5578Y1472D01*
X5941Y1472D01*
X5941Y1110D01*
X5900Y1116D01*
G37*
%LPD*%
%LPC*%
G36*
X9091Y11559D02*
X9091Y11559D01*
X9091Y11922D01*
X9131Y11915D01*
X9195Y11895D01*
X9255Y11864D01*
X9309Y11825D01*
X9356Y11777D01*
X9396Y11723D01*
X9426Y11663D01*
X9447Y11600D01*
X9453Y11559D01*
X9091Y11559D01*
G37*
%LPD*%
%LPC*%
G36*
X8610Y11559D02*
X8610Y11559D01*
X8616Y11600D01*
X8637Y11663D01*
X8667Y11723D01*
X8707Y11777D01*
X8754Y11825D01*
X8808Y11864D01*
X8868Y11895D01*
X8932Y11915D01*
X8972Y11922D01*
X8972Y11559D01*
X8610Y11559D01*
G37*
%LPD*%
%LPC*%
G36*
X9091Y11441D02*
X9091Y11441D01*
X9453Y11441D01*
X9447Y11400D01*
X9426Y11337D01*
X9396Y11277D01*
X9356Y11223D01*
X9309Y11175D01*
X9255Y11136D01*
X9195Y11105D01*
X9131Y11085D01*
X9091Y11078D01*
X9091Y11441D01*
G37*
%LPD*%
%LPC*%
G36*
X14309Y21559D02*
X14309Y21559D01*
X14309Y21861D01*
X14399Y21861D01*
X14611Y21649D01*
X14611Y21559D01*
X14309Y21559D01*
G37*
%LPD*%
%LPC*%
G36*
X5559Y13059D02*
X5559Y13059D01*
X5559Y13361D01*
X5649Y13361D01*
X5861Y13149D01*
X5861Y13059D01*
X5559Y13059D01*
G37*
%LPD*%
%LPC*%
G36*
X5351Y12639D02*
X5351Y12639D01*
X5139Y12851D01*
X5139Y12941D01*
X5441Y12941D01*
X5441Y12639D01*
X5351Y12639D01*
G37*
%LPD*%
%LPC*%
G36*
X14101Y21139D02*
X14101Y21139D01*
X13889Y21351D01*
X13889Y21441D01*
X14191Y21441D01*
X14191Y21139D01*
X14101Y21139D01*
G37*
%LPD*%
%LPC*%
G36*
X13889Y21559D02*
X13889Y21559D01*
X13889Y21649D01*
X14101Y21861D01*
X14191Y21861D01*
X14191Y21559D01*
X13889Y21559D01*
G37*
%LPD*%
%LPC*%
G36*
X14309Y21139D02*
X14309Y21139D01*
X14309Y21441D01*
X14611Y21441D01*
X14611Y21351D01*
X14399Y21139D01*
X14309Y21139D01*
G37*
%LPD*%
%LPC*%
G36*
X5139Y13059D02*
X5139Y13059D01*
X5139Y13149D01*
X5351Y13361D01*
X5441Y13361D01*
X5441Y13059D01*
X5139Y13059D01*
G37*
%LPD*%
%LPC*%
G36*
X5559Y12639D02*
X5559Y12639D01*
X5559Y12941D01*
X5861Y12941D01*
X5861Y12851D01*
X5649Y12639D01*
X5559Y12639D01*
G37*
%LPD*%
%LPC*%
G36*
X1669Y20078D02*
X1669Y20078D01*
X1669Y20087D01*
X1671Y20087D01*
X1671Y20078D01*
X1669Y20078D01*
G37*
%LPD*%
%LPC*%
G36*
X14249Y21499D02*
X14249Y21499D01*
X14249Y21501D01*
X14251Y21501D01*
X14251Y21499D01*
X14249Y21499D01*
G37*
%LPD*%
%LPC*%
G36*
X5499Y12999D02*
X5499Y12999D01*
X5499Y13001D01*
X5501Y13001D01*
X5501Y12999D01*
X5499Y12999D01*
G37*
%LPD*%
%LPC*%
G36*
X7499Y14499D02*
X7499Y14499D01*
X7499Y14501D01*
X7501Y14501D01*
X7501Y14499D01*
X7499Y14499D01*
G37*
%LPD*%
%LPC*%
G36*
X9031Y11499D02*
X9031Y11499D01*
X9031Y11501D01*
X9032Y11501D01*
X9032Y11499D01*
X9031Y11499D01*
G37*
%LPD*%
%LPC*%
G36*
X5999Y1531D02*
X5999Y1531D01*
X5999Y1532D01*
X6001Y1532D01*
X6001Y1531D01*
X5999Y1531D01*
G37*
%LPD*%
%LPC*%
G36*
X1499Y12499D02*
X1499Y12499D01*
X1499Y12501D01*
X1501Y12501D01*
X1501Y12499D01*
X1499Y12499D01*
G37*
%LPD*%
%LPC*%
G36*
X12499Y5499D02*
X12499Y5499D01*
X12499Y5501D01*
X12501Y5501D01*
X12501Y5499D01*
X12499Y5499D01*
G37*
%LPD*%
D10*
X6970Y25530D02*
X6543Y26170D01*
X6970Y26170D02*
X6543Y25530D01*
X6301Y25530D02*
X6301Y26170D01*
X6301Y25530D02*
X6123Y25530D01*
X6104Y25532D01*
X6086Y25536D01*
X6070Y25544D01*
X6054Y25555D01*
X6041Y25568D01*
X6030Y25583D01*
X6022Y25600D01*
X6018Y25618D01*
X6016Y25637D01*
X6017Y25637D02*
X6017Y25850D01*
X6016Y25850D02*
X6018Y25869D01*
X6022Y25887D01*
X6030Y25904D01*
X6041Y25919D01*
X6054Y25932D01*
X6070Y25943D01*
X6086Y25951D01*
X6104Y25955D01*
X6123Y25957D01*
X6301Y25957D01*
X5664Y25530D02*
X5486Y25530D01*
X5664Y25530D02*
X5683Y25532D01*
X5701Y25536D01*
X5718Y25544D01*
X5733Y25555D01*
X5746Y25568D01*
X5757Y25584D01*
X5765Y25600D01*
X5769Y25618D01*
X5771Y25637D01*
X5771Y25814D01*
X5770Y25814D02*
X5768Y25836D01*
X5763Y25858D01*
X5755Y25878D01*
X5743Y25897D01*
X5728Y25914D01*
X5711Y25929D01*
X5692Y25941D01*
X5672Y25949D01*
X5650Y25954D01*
X5628Y25956D01*
X5606Y25954D01*
X5584Y25949D01*
X5564Y25941D01*
X5545Y25929D01*
X5528Y25914D01*
X5513Y25897D01*
X5501Y25878D01*
X5493Y25858D01*
X5488Y25836D01*
X5486Y25814D01*
X5486Y25743D01*
X5771Y25743D01*
X5131Y25530D02*
X4953Y25530D01*
X5131Y25530D02*
X5150Y25532D01*
X5168Y25536D01*
X5185Y25544D01*
X5200Y25555D01*
X5213Y25568D01*
X5224Y25584D01*
X5232Y25600D01*
X5236Y25618D01*
X5238Y25637D01*
X5237Y25637D02*
X5237Y25814D01*
X5235Y25836D01*
X5230Y25858D01*
X5222Y25878D01*
X5210Y25897D01*
X5195Y25914D01*
X5178Y25929D01*
X5159Y25941D01*
X5139Y25949D01*
X5117Y25954D01*
X5095Y25956D01*
X5073Y25954D01*
X5051Y25949D01*
X5031Y25941D01*
X5012Y25929D01*
X4995Y25914D01*
X4980Y25897D01*
X4968Y25878D01*
X4960Y25858D01*
X4955Y25836D01*
X4953Y25814D01*
X4953Y25743D01*
X5237Y25743D01*
X4757Y1670D02*
X4970Y1030D01*
X4543Y1030D02*
X4757Y1670D01*
X4597Y1190D02*
X4917Y1190D01*
X4295Y1030D02*
X4295Y1670D01*
X4117Y1670D01*
X4092Y1668D01*
X4067Y1663D01*
X4043Y1654D01*
X4021Y1642D01*
X4000Y1627D01*
X3982Y1609D01*
X3967Y1588D01*
X3955Y1566D01*
X3946Y1542D01*
X3941Y1517D01*
X3939Y1492D01*
X3941Y1467D01*
X3946Y1442D01*
X3955Y1418D01*
X3967Y1396D01*
X3982Y1375D01*
X4000Y1357D01*
X4021Y1342D01*
X4043Y1330D01*
X4067Y1321D01*
X4092Y1316D01*
X4117Y1314D01*
X4295Y1314D01*
X4082Y1314D02*
X3939Y1030D01*
X3663Y1030D02*
X3663Y1670D01*
X3485Y1670D01*
X3460Y1668D01*
X3435Y1663D01*
X3411Y1654D01*
X3389Y1642D01*
X3368Y1627D01*
X3350Y1609D01*
X3335Y1588D01*
X3323Y1566D01*
X3314Y1542D01*
X3309Y1517D01*
X3307Y1492D01*
X3307Y1208D01*
X3309Y1183D01*
X3314Y1158D01*
X3323Y1134D01*
X3335Y1112D01*
X3350Y1091D01*
X3368Y1073D01*
X3389Y1058D01*
X3411Y1046D01*
X3435Y1037D01*
X3460Y1032D01*
X3485Y1030D01*
X3663Y1030D01*
D11*
X11850Y9900D03*
D12*
X12500Y6484D02*
X12500Y4516D01*
D11*
X13150Y1100D03*
X13100Y9900D03*
X11900Y1100D03*
D13*
X9031Y11500D03*
X12969Y11500D03*
X6000Y5469D03*
X6000Y1531D03*
D14*
X11350Y13000D03*
X10500Y13000D03*
X9650Y13000D03*
X11350Y15000D03*
X10500Y15000D03*
X9650Y15000D03*
D15*
X7500Y17500D03*
X7500Y16500D03*
X7500Y15500D03*
X7500Y14500D03*
X7500Y13500D03*
X7500Y12500D03*
X7500Y11500D03*
X7500Y10500D03*
X7500Y9500D03*
X7500Y8500D03*
X7500Y7500D03*
X7500Y6500D03*
X7500Y5500D03*
X7500Y4500D03*
X7500Y3500D03*
X7500Y2500D03*
X7500Y1500D03*
X1500Y1500D03*
X1500Y2500D03*
X1500Y3500D03*
X1500Y4500D03*
X1500Y5500D03*
X1500Y6500D03*
X1500Y7500D03*
X1500Y8500D03*
X1500Y9500D03*
X1500Y10500D03*
X1500Y11500D03*
X1500Y12500D03*
X1500Y13500D03*
X1500Y14500D03*
X1500Y15500D03*
X1500Y16500D03*
X1500Y17500D03*
D16*
X10330Y27163D03*
D17*
X10330Y26376D03*
X10330Y25589D03*
X10330Y24801D03*
X10330Y24014D03*
X10330Y23226D03*
X10330Y22439D03*
X10330Y21651D03*
X10330Y20864D03*
X10330Y20077D03*
D16*
X1670Y20087D03*
D17*
X1670Y20874D03*
X1670Y21661D03*
X1670Y22449D03*
X1670Y23236D03*
X1670Y24024D03*
X1670Y24811D03*
X1670Y25599D03*
X1670Y26386D03*
X1670Y27173D03*
D18*
X14000Y19500D03*
X13000Y19500D03*
D19*
X3000Y9500D03*
X3000Y4500D03*
D20*
X12000Y21500D03*
X12000Y26500D03*
X14250Y21500D03*
X14250Y26500D03*
D19*
X13000Y27500D03*
X13000Y22500D03*
X3000Y18000D03*
X3000Y13000D03*
D20*
X5500Y13000D03*
X5500Y18000D03*
D17*
X14000Y15000D03*
D21*
X14000Y16890D03*
X14000Y13110D03*
D17*
X14000Y14213D03*
X14000Y15748D03*
D22*
X1500Y1500D03*
X1500Y2500D03*
X1500Y3500D03*
X1500Y4500D03*
X1500Y5500D03*
X1500Y6500D03*
X1500Y7500D03*
X1500Y8500D03*
X1500Y9500D03*
X1500Y10500D03*
X1500Y11500D03*
X7500Y14500D03*
X7500Y13500D03*
X1500Y14500D03*
X1500Y15500D03*
X1500Y16500D03*
X1500Y17500D03*
X7500Y17500D03*
X7500Y16500D03*
X7500Y15500D03*
X1500Y12500D03*
X1500Y13500D03*
X7500Y12500D03*
X7500Y11500D03*
X7500Y10500D03*
X7500Y9500D03*
X7500Y8500D03*
X7500Y7500D03*
X7500Y6500D03*
X7500Y5500D03*
X7500Y4500D03*
X7500Y3500D03*
X7500Y2500D03*
X7500Y1500D03*
D17*
X1669Y20079D03*
X1669Y20866D03*
X1669Y21654D03*
X1669Y22441D03*
X1669Y23228D03*
X1669Y24016D03*
X1669Y24803D03*
X1669Y25591D03*
X1669Y26378D03*
D16*
X1669Y27165D03*
D17*
X10331Y20079D03*
X10331Y20866D03*
X10331Y21654D03*
X10331Y22441D03*
X10331Y23228D03*
X10331Y24016D03*
X10331Y24803D03*
X10331Y25591D03*
X10331Y26378D03*
X10331Y27165D03*
D23*
X11000Y18500D03*
D24*
X10500Y17500D03*
X10000Y18500D03*
D20*
X4750Y3000D03*
X4750Y8000D03*
D25*
X1669Y25591D02*
X1680Y25680D01*
X1670Y25599D01*
X3000Y18000D02*
X5500Y18000D01*
X3000Y24240D02*
X1680Y25560D01*
X3000Y24240D02*
X3000Y18000D01*
X1680Y25560D02*
X1669Y25591D01*
X3000Y14040D02*
X3000Y13000D01*
X3000Y14040D02*
X1560Y15480D01*
X1500Y15500D01*
X3750Y8790D02*
X3750Y5250D01*
X3000Y4500D01*
X3750Y8790D02*
X7440Y12480D01*
X7500Y12500D01*
X7920Y12960D02*
X9600Y12960D01*
X7920Y12960D02*
X7560Y12600D01*
X9600Y12960D02*
X9650Y13000D01*
X7560Y12600D02*
X7500Y12500D01*
X7560Y12480D01*
X1670Y27173D02*
X1680Y27240D01*
X10440Y17400D02*
X10440Y17220D01*
X9650Y16430D01*
X9650Y15000D01*
X10440Y17400D02*
X10500Y17500D01*
X11000Y24200D02*
X11000Y25500D01*
X12000Y26500D01*
X10500Y17500D02*
X10560Y17400D01*
X9480Y27240D02*
X1680Y27240D01*
X9480Y27240D02*
X9960Y27720D01*
X10800Y27720D01*
X12000Y26520D01*
X1680Y27240D02*
X1669Y27165D01*
X12000Y26520D02*
X12000Y26500D01*
X12500Y22700D02*
X12500Y21000D01*
X12000Y20500D01*
X11500Y20500D01*
X11500Y17500D01*
X10500Y17500D01*
X12500Y22700D02*
X11000Y24200D01*
X13080Y22440D02*
X13080Y19560D01*
X13000Y19500D01*
X13080Y22440D02*
X13000Y22500D01*
X14187Y26373D02*
X13080Y27480D01*
X13000Y27500D01*
X14250Y26500D02*
X14187Y26373D01*
X1680Y26400D02*
X1669Y26378D01*
X1670Y26386D02*
X1680Y26400D01*
X11040Y20520D02*
X11040Y19560D01*
X11040Y18600D01*
X11040Y20520D02*
X12000Y21480D01*
X11040Y18600D02*
X11000Y18500D01*
X12000Y21480D02*
X12000Y21500D01*
X1767Y26280D02*
X1669Y26378D01*
X9500Y20000D02*
X9940Y19560D01*
X9500Y20000D02*
X9500Y26500D01*
X9940Y19560D02*
X11040Y19560D01*
X9500Y26500D02*
X9000Y27000D01*
X2487Y27000D02*
X1767Y26280D01*
X2487Y27000D02*
X9000Y27000D01*
X10330Y27163D02*
X10320Y27240D01*
X10331Y27165D01*
X10320Y26400D02*
X10330Y26376D01*
X10331Y26378D02*
X10320Y26400D01*
X10320Y25680D02*
X10330Y25589D01*
X10331Y25591D02*
X10320Y25680D01*
X10320Y24840D02*
X10330Y24801D01*
X10331Y24803D02*
X10320Y24840D01*
X10330Y24014D02*
X10320Y24000D01*
X10331Y24016D01*
X10320Y23280D02*
X10330Y23226D01*
X10331Y23228D02*
X10320Y23280D01*
X10320Y22440D02*
X10330Y22439D01*
X10331Y22441D02*
X10320Y22440D01*
X10320Y21720D02*
X10330Y21651D01*
X10331Y21654D02*
X10320Y21720D01*
X10320Y20880D02*
X10330Y20864D01*
X10331Y20866D02*
X10320Y20880D01*
X10320Y20160D02*
X10330Y20077D01*
X10331Y20079D02*
X10320Y20160D01*
X1680Y20880D02*
X1669Y20866D01*
X1670Y20874D02*
X1680Y20880D01*
X1680Y22440D02*
X1669Y22441D01*
X1670Y22449D02*
X1680Y22440D01*
X7500Y5500D02*
X7560Y5520D01*
X1669Y23228D02*
X1680Y23280D01*
X1670Y23236D01*
X1560Y23160D02*
X840Y22440D01*
X840Y1320D01*
X1320Y840D01*
X1560Y23160D02*
X1669Y23228D01*
X6000Y5520D02*
X7440Y5520D01*
X7500Y5500D01*
X6000Y5520D02*
X6000Y5469D01*
X2471Y3500D02*
X2471Y1000D01*
X2311Y840D01*
X1320Y840D01*
X4250Y3500D02*
X4750Y3000D01*
X4250Y3500D02*
X2471Y3500D01*
X5750Y5719D02*
X6000Y5469D01*
X5750Y5719D02*
X5750Y8000D01*
X4750Y8000D01*
X1680Y24000D02*
X1669Y24016D01*
X1670Y24024D02*
X1680Y24000D01*
X1669Y24803D02*
X1680Y24840D01*
X1670Y24811D01*
X1560Y14520D02*
X1500Y14500D01*
X7680Y18480D02*
X9960Y18480D01*
X7680Y18480D02*
X3480Y14280D01*
X3480Y12480D02*
X3480Y10080D01*
X3480Y12480D02*
X3480Y14280D01*
X3480Y10080D02*
X3000Y9600D01*
X9960Y18480D02*
X10000Y18500D01*
X3000Y9600D02*
X3000Y9500D01*
X2520Y13440D02*
X1560Y14400D01*
X2520Y13440D02*
X2520Y12840D01*
X2880Y12480D01*
X3480Y12480D01*
X1560Y14400D02*
X1500Y14500D01*
X12000Y1080D02*
X13080Y1080D01*
X12000Y1080D02*
X11900Y1100D01*
X13080Y1080D02*
X13150Y1100D01*
X13080Y9960D02*
X11880Y9960D01*
X11850Y9900D01*
X13080Y9960D02*
X13100Y9900D01*
X13070Y13310D02*
X13920Y14160D01*
X13070Y13310D02*
X13070Y11910D01*
X13920Y14160D02*
X14000Y14213D01*
X13094Y11876D02*
X12969Y11750D01*
X12969Y11500D01*
X13094Y11876D02*
X13070Y11910D01*
X13200Y10680D02*
X13200Y9960D01*
X13100Y9900D01*
X12969Y10762D02*
X12969Y11500D01*
X12969Y10762D02*
X13200Y10680D01*
X13200Y1200D02*
X13150Y1100D01*
X13200Y9840D02*
X13100Y9900D01*
X13920Y17880D02*
X13920Y19440D01*
X13920Y17880D02*
X13320Y17280D01*
X13320Y15600D01*
X13920Y15000D01*
X13920Y19440D02*
X14000Y19500D01*
X13920Y15000D02*
X14000Y15000D01*
X10560Y15000D02*
X10560Y13080D01*
X10500Y13000D01*
X10440Y12960D01*
X11160Y15600D02*
X13320Y15600D01*
X11160Y15600D02*
X10560Y15000D01*
X10500Y15000D01*
X10500Y13000D02*
X10500Y12250D01*
X8250Y12250D01*
X8250Y7750D01*
X8000Y7500D01*
X7500Y7500D01*
X1669Y21654D02*
X1680Y21720D01*
X1670Y21661D01*
M02*
