M48
;GenerationSoftware,Autodesk,EAGLE,9.5.1*%
;CreationDate,2020-02-08T00:13:51Z*%
FMAT,2
ICI,OFF
INCH,TZ,000.000
T8C0.028
T7C0.031
T6C0.032
T5C0.035
T4C0.036
T3C0.040
T2C0.043
T1C0.055
%
G90
M72
T1
X1400Y1311
X1400Y1689
T2
X150Y950
X150Y1650
X150Y1550
X150Y1450
X750Y1350
X750Y1450
X150Y1150
X150Y1050
X750Y950
X150Y850
X150Y750
X150Y250
X150Y150
X150Y650
X150Y550
X150Y450
X150Y350
X150Y1750
X750Y1750
X750Y1650
X750Y1550
X150Y1250
X150Y1350
X750Y1250
X750Y1150
X750Y1050
X750Y850
X750Y750
X750Y650
X750Y550
X750Y450
X750Y350
X750Y250
X750Y150
T3
X150Y1050
X150Y1150
X150Y1250
X150Y1350
X150Y1450
X150Y1550
X150Y1650
X150Y1750
X750Y1750
X750Y1650
X750Y1550
X750Y1450
X750Y1350
X750Y1250
X750Y1150
X150Y850
X750Y950
X750Y850
X750Y750
X750Y650
X750Y550
X750Y450
X750Y350
X750Y250
X750Y150
X150Y950
X150Y150
X150Y250
X150Y350
X150Y450
X150Y550
X150Y650
X150Y750
X750Y1050
T4
X167Y2717
X167Y2009
X1033Y2716
X1033Y2638
X1033Y2559
X1033Y2480
X1033Y2401
X1033Y2323
X1033Y2244
X1033Y2165
X1033Y2086
X1033Y2008
X167Y2087
X167Y2166
X167Y2245
X167Y2324
X167Y2402
X167Y2481
X167Y2560
X167Y2639
T5
X600Y153
X600Y547
X1297Y1150
X903Y1150
T6
X1050Y1500
X1135Y1500
X965Y1300
X1050Y1300
X1135Y1300
X965Y1500
X1300Y2750
X1300Y2250
X300Y1800
X300Y1300
X550Y1300
X550Y1800
X1200Y2150
X1425Y2150
X1200Y2650
X475Y800
X475Y300
X300Y450
X300Y950
X1300Y1950
X1400Y1950
X1425Y2650
T7
X1100Y1850
X1050Y1750
X1000Y1850
T8
X1400Y1500
X1400Y1421
X1400Y1575
X167Y2165
X167Y2244
X167Y2323
X167Y2402
X167Y2480
X167Y2008
X167Y2638
X167Y2717
X1033Y2008
X1033Y2087
X1033Y2165
X1033Y2244
X1033Y2323
X1033Y2402
X1033Y2480
X1033Y2559
X1033Y2638
X1033Y2717
X167Y2087
X167Y2559
M30