G04 EAGLE Gerber RS-274X export*
G75*
%MOMM*%
%FSLAX34Y34*%
%LPD*%
%INOutline*%
%IPPOS*%
%AMOC8*
5,1,8,0,0,1.08239X$1,22.5*%
G01*
%ADD10C,0.000000*%
%ADD11C,0.254000*%


D10*
X241300Y0D02*
X1000000Y0D01*
X1000000Y444400D01*
X241300Y444400D01*
X241300Y0D01*
X965200Y-50800D02*
X965204Y-50488D01*
X965215Y-50177D01*
X965234Y-49866D01*
X965261Y-49555D01*
X965296Y-49245D01*
X965337Y-48937D01*
X965387Y-48629D01*
X965444Y-48322D01*
X965509Y-48017D01*
X965581Y-47714D01*
X965660Y-47413D01*
X965747Y-47113D01*
X965841Y-46816D01*
X965942Y-46521D01*
X966051Y-46229D01*
X966167Y-45940D01*
X966290Y-45653D01*
X966419Y-45370D01*
X966556Y-45090D01*
X966700Y-44813D01*
X966850Y-44540D01*
X967007Y-44271D01*
X967170Y-44006D01*
X967340Y-43744D01*
X967517Y-43487D01*
X967699Y-43235D01*
X967888Y-42987D01*
X968083Y-42743D01*
X968283Y-42505D01*
X968490Y-42271D01*
X968702Y-42043D01*
X968920Y-41820D01*
X969143Y-41602D01*
X969371Y-41390D01*
X969605Y-41183D01*
X969843Y-40983D01*
X970087Y-40788D01*
X970335Y-40599D01*
X970587Y-40417D01*
X970844Y-40240D01*
X971106Y-40070D01*
X971371Y-39907D01*
X971640Y-39750D01*
X971913Y-39600D01*
X972190Y-39456D01*
X972470Y-39319D01*
X972753Y-39190D01*
X973040Y-39067D01*
X973329Y-38951D01*
X973621Y-38842D01*
X973916Y-38741D01*
X974213Y-38647D01*
X974513Y-38560D01*
X974814Y-38481D01*
X975117Y-38409D01*
X975422Y-38344D01*
X975729Y-38287D01*
X976037Y-38237D01*
X976345Y-38196D01*
X976655Y-38161D01*
X976966Y-38134D01*
X977277Y-38115D01*
X977588Y-38104D01*
X977900Y-38100D01*
X978212Y-38104D01*
X978523Y-38115D01*
X978834Y-38134D01*
X979145Y-38161D01*
X979455Y-38196D01*
X979763Y-38237D01*
X980071Y-38287D01*
X980378Y-38344D01*
X980683Y-38409D01*
X980986Y-38481D01*
X981287Y-38560D01*
X981587Y-38647D01*
X981884Y-38741D01*
X982179Y-38842D01*
X982471Y-38951D01*
X982760Y-39067D01*
X983047Y-39190D01*
X983330Y-39319D01*
X983610Y-39456D01*
X983887Y-39600D01*
X984160Y-39750D01*
X984429Y-39907D01*
X984694Y-40070D01*
X984956Y-40240D01*
X985213Y-40417D01*
X985465Y-40599D01*
X985713Y-40788D01*
X985957Y-40983D01*
X986195Y-41183D01*
X986429Y-41390D01*
X986657Y-41602D01*
X986880Y-41820D01*
X987098Y-42043D01*
X987310Y-42271D01*
X987517Y-42505D01*
X987717Y-42743D01*
X987912Y-42987D01*
X988101Y-43235D01*
X988283Y-43487D01*
X988460Y-43744D01*
X988630Y-44006D01*
X988793Y-44271D01*
X988950Y-44540D01*
X989100Y-44813D01*
X989244Y-45090D01*
X989381Y-45370D01*
X989510Y-45653D01*
X989633Y-45940D01*
X989749Y-46229D01*
X989858Y-46521D01*
X989959Y-46816D01*
X990053Y-47113D01*
X990140Y-47413D01*
X990219Y-47714D01*
X990291Y-48017D01*
X990356Y-48322D01*
X990413Y-48629D01*
X990463Y-48937D01*
X990504Y-49245D01*
X990539Y-49555D01*
X990566Y-49866D01*
X990585Y-50177D01*
X990596Y-50488D01*
X990600Y-50800D01*
X990596Y-51112D01*
X990585Y-51423D01*
X990566Y-51734D01*
X990539Y-52045D01*
X990504Y-52355D01*
X990463Y-52663D01*
X990413Y-52971D01*
X990356Y-53278D01*
X990291Y-53583D01*
X990219Y-53886D01*
X990140Y-54187D01*
X990053Y-54487D01*
X989959Y-54784D01*
X989858Y-55079D01*
X989749Y-55371D01*
X989633Y-55660D01*
X989510Y-55947D01*
X989381Y-56230D01*
X989244Y-56510D01*
X989100Y-56787D01*
X988950Y-57060D01*
X988793Y-57329D01*
X988630Y-57594D01*
X988460Y-57856D01*
X988283Y-58113D01*
X988101Y-58365D01*
X987912Y-58613D01*
X987717Y-58857D01*
X987517Y-59095D01*
X987310Y-59329D01*
X987098Y-59557D01*
X986880Y-59780D01*
X986657Y-59998D01*
X986429Y-60210D01*
X986195Y-60417D01*
X985957Y-60617D01*
X985713Y-60812D01*
X985465Y-61001D01*
X985213Y-61183D01*
X984956Y-61360D01*
X984694Y-61530D01*
X984429Y-61693D01*
X984160Y-61850D01*
X983887Y-62000D01*
X983610Y-62144D01*
X983330Y-62281D01*
X983047Y-62410D01*
X982760Y-62533D01*
X982471Y-62649D01*
X982179Y-62758D01*
X981884Y-62859D01*
X981587Y-62953D01*
X981287Y-63040D01*
X980986Y-63119D01*
X980683Y-63191D01*
X980378Y-63256D01*
X980071Y-63313D01*
X979763Y-63363D01*
X979455Y-63404D01*
X979145Y-63439D01*
X978834Y-63466D01*
X978523Y-63485D01*
X978212Y-63496D01*
X977900Y-63500D01*
X977588Y-63496D01*
X977277Y-63485D01*
X976966Y-63466D01*
X976655Y-63439D01*
X976345Y-63404D01*
X976037Y-63363D01*
X975729Y-63313D01*
X975422Y-63256D01*
X975117Y-63191D01*
X974814Y-63119D01*
X974513Y-63040D01*
X974213Y-62953D01*
X973916Y-62859D01*
X973621Y-62758D01*
X973329Y-62649D01*
X973040Y-62533D01*
X972753Y-62410D01*
X972470Y-62281D01*
X972190Y-62144D01*
X971913Y-62000D01*
X971640Y-61850D01*
X971371Y-61693D01*
X971106Y-61530D01*
X970844Y-61360D01*
X970587Y-61183D01*
X970335Y-61001D01*
X970087Y-60812D01*
X969843Y-60617D01*
X969605Y-60417D01*
X969371Y-60210D01*
X969143Y-59998D01*
X968920Y-59780D01*
X968702Y-59557D01*
X968490Y-59329D01*
X968283Y-59095D01*
X968083Y-58857D01*
X967888Y-58613D01*
X967699Y-58365D01*
X967517Y-58113D01*
X967340Y-57856D01*
X967170Y-57594D01*
X967007Y-57329D01*
X966850Y-57060D01*
X966700Y-56787D01*
X966556Y-56510D01*
X966419Y-56230D01*
X966290Y-55947D01*
X966167Y-55660D01*
X966051Y-55371D01*
X965942Y-55079D01*
X965841Y-54784D01*
X965747Y-54487D01*
X965660Y-54187D01*
X965581Y-53886D01*
X965509Y-53583D01*
X965444Y-53278D01*
X965387Y-52971D01*
X965337Y-52663D01*
X965296Y-52355D01*
X965261Y-52045D01*
X965234Y-51734D01*
X965215Y-51423D01*
X965204Y-51112D01*
X965200Y-50800D01*
X1130300Y-50800D02*
X1130304Y-50488D01*
X1130315Y-50177D01*
X1130334Y-49866D01*
X1130361Y-49555D01*
X1130396Y-49245D01*
X1130437Y-48937D01*
X1130487Y-48629D01*
X1130544Y-48322D01*
X1130609Y-48017D01*
X1130681Y-47714D01*
X1130760Y-47413D01*
X1130847Y-47113D01*
X1130941Y-46816D01*
X1131042Y-46521D01*
X1131151Y-46229D01*
X1131267Y-45940D01*
X1131390Y-45653D01*
X1131519Y-45370D01*
X1131656Y-45090D01*
X1131800Y-44813D01*
X1131950Y-44540D01*
X1132107Y-44271D01*
X1132270Y-44006D01*
X1132440Y-43744D01*
X1132617Y-43487D01*
X1132799Y-43235D01*
X1132988Y-42987D01*
X1133183Y-42743D01*
X1133383Y-42505D01*
X1133590Y-42271D01*
X1133802Y-42043D01*
X1134020Y-41820D01*
X1134243Y-41602D01*
X1134471Y-41390D01*
X1134705Y-41183D01*
X1134943Y-40983D01*
X1135187Y-40788D01*
X1135435Y-40599D01*
X1135687Y-40417D01*
X1135944Y-40240D01*
X1136206Y-40070D01*
X1136471Y-39907D01*
X1136740Y-39750D01*
X1137013Y-39600D01*
X1137290Y-39456D01*
X1137570Y-39319D01*
X1137853Y-39190D01*
X1138140Y-39067D01*
X1138429Y-38951D01*
X1138721Y-38842D01*
X1139016Y-38741D01*
X1139313Y-38647D01*
X1139613Y-38560D01*
X1139914Y-38481D01*
X1140217Y-38409D01*
X1140522Y-38344D01*
X1140829Y-38287D01*
X1141137Y-38237D01*
X1141445Y-38196D01*
X1141755Y-38161D01*
X1142066Y-38134D01*
X1142377Y-38115D01*
X1142688Y-38104D01*
X1143000Y-38100D01*
X1143312Y-38104D01*
X1143623Y-38115D01*
X1143934Y-38134D01*
X1144245Y-38161D01*
X1144555Y-38196D01*
X1144863Y-38237D01*
X1145171Y-38287D01*
X1145478Y-38344D01*
X1145783Y-38409D01*
X1146086Y-38481D01*
X1146387Y-38560D01*
X1146687Y-38647D01*
X1146984Y-38741D01*
X1147279Y-38842D01*
X1147571Y-38951D01*
X1147860Y-39067D01*
X1148147Y-39190D01*
X1148430Y-39319D01*
X1148710Y-39456D01*
X1148987Y-39600D01*
X1149260Y-39750D01*
X1149529Y-39907D01*
X1149794Y-40070D01*
X1150056Y-40240D01*
X1150313Y-40417D01*
X1150565Y-40599D01*
X1150813Y-40788D01*
X1151057Y-40983D01*
X1151295Y-41183D01*
X1151529Y-41390D01*
X1151757Y-41602D01*
X1151980Y-41820D01*
X1152198Y-42043D01*
X1152410Y-42271D01*
X1152617Y-42505D01*
X1152817Y-42743D01*
X1153012Y-42987D01*
X1153201Y-43235D01*
X1153383Y-43487D01*
X1153560Y-43744D01*
X1153730Y-44006D01*
X1153893Y-44271D01*
X1154050Y-44540D01*
X1154200Y-44813D01*
X1154344Y-45090D01*
X1154481Y-45370D01*
X1154610Y-45653D01*
X1154733Y-45940D01*
X1154849Y-46229D01*
X1154958Y-46521D01*
X1155059Y-46816D01*
X1155153Y-47113D01*
X1155240Y-47413D01*
X1155319Y-47714D01*
X1155391Y-48017D01*
X1155456Y-48322D01*
X1155513Y-48629D01*
X1155563Y-48937D01*
X1155604Y-49245D01*
X1155639Y-49555D01*
X1155666Y-49866D01*
X1155685Y-50177D01*
X1155696Y-50488D01*
X1155700Y-50800D01*
X1155696Y-51112D01*
X1155685Y-51423D01*
X1155666Y-51734D01*
X1155639Y-52045D01*
X1155604Y-52355D01*
X1155563Y-52663D01*
X1155513Y-52971D01*
X1155456Y-53278D01*
X1155391Y-53583D01*
X1155319Y-53886D01*
X1155240Y-54187D01*
X1155153Y-54487D01*
X1155059Y-54784D01*
X1154958Y-55079D01*
X1154849Y-55371D01*
X1154733Y-55660D01*
X1154610Y-55947D01*
X1154481Y-56230D01*
X1154344Y-56510D01*
X1154200Y-56787D01*
X1154050Y-57060D01*
X1153893Y-57329D01*
X1153730Y-57594D01*
X1153560Y-57856D01*
X1153383Y-58113D01*
X1153201Y-58365D01*
X1153012Y-58613D01*
X1152817Y-58857D01*
X1152617Y-59095D01*
X1152410Y-59329D01*
X1152198Y-59557D01*
X1151980Y-59780D01*
X1151757Y-59998D01*
X1151529Y-60210D01*
X1151295Y-60417D01*
X1151057Y-60617D01*
X1150813Y-60812D01*
X1150565Y-61001D01*
X1150313Y-61183D01*
X1150056Y-61360D01*
X1149794Y-61530D01*
X1149529Y-61693D01*
X1149260Y-61850D01*
X1148987Y-62000D01*
X1148710Y-62144D01*
X1148430Y-62281D01*
X1148147Y-62410D01*
X1147860Y-62533D01*
X1147571Y-62649D01*
X1147279Y-62758D01*
X1146984Y-62859D01*
X1146687Y-62953D01*
X1146387Y-63040D01*
X1146086Y-63119D01*
X1145783Y-63191D01*
X1145478Y-63256D01*
X1145171Y-63313D01*
X1144863Y-63363D01*
X1144555Y-63404D01*
X1144245Y-63439D01*
X1143934Y-63466D01*
X1143623Y-63485D01*
X1143312Y-63496D01*
X1143000Y-63500D01*
X1142688Y-63496D01*
X1142377Y-63485D01*
X1142066Y-63466D01*
X1141755Y-63439D01*
X1141445Y-63404D01*
X1141137Y-63363D01*
X1140829Y-63313D01*
X1140522Y-63256D01*
X1140217Y-63191D01*
X1139914Y-63119D01*
X1139613Y-63040D01*
X1139313Y-62953D01*
X1139016Y-62859D01*
X1138721Y-62758D01*
X1138429Y-62649D01*
X1138140Y-62533D01*
X1137853Y-62410D01*
X1137570Y-62281D01*
X1137290Y-62144D01*
X1137013Y-62000D01*
X1136740Y-61850D01*
X1136471Y-61693D01*
X1136206Y-61530D01*
X1135944Y-61360D01*
X1135687Y-61183D01*
X1135435Y-61001D01*
X1135187Y-60812D01*
X1134943Y-60617D01*
X1134705Y-60417D01*
X1134471Y-60210D01*
X1134243Y-59998D01*
X1134020Y-59780D01*
X1133802Y-59557D01*
X1133590Y-59329D01*
X1133383Y-59095D01*
X1133183Y-58857D01*
X1132988Y-58613D01*
X1132799Y-58365D01*
X1132617Y-58113D01*
X1132440Y-57856D01*
X1132270Y-57594D01*
X1132107Y-57329D01*
X1131950Y-57060D01*
X1131800Y-56787D01*
X1131656Y-56510D01*
X1131519Y-56230D01*
X1131390Y-55947D01*
X1131267Y-55660D01*
X1131151Y-55371D01*
X1131042Y-55079D01*
X1130941Y-54784D01*
X1130847Y-54487D01*
X1130760Y-54187D01*
X1130681Y-53886D01*
X1130609Y-53583D01*
X1130544Y-53278D01*
X1130487Y-52971D01*
X1130437Y-52663D01*
X1130396Y-52355D01*
X1130361Y-52045D01*
X1130334Y-51734D01*
X1130315Y-51423D01*
X1130304Y-51112D01*
X1130300Y-50800D01*
X977900Y254000D02*
X977904Y254312D01*
X977915Y254623D01*
X977934Y254934D01*
X977961Y255245D01*
X977996Y255555D01*
X978037Y255863D01*
X978087Y256171D01*
X978144Y256478D01*
X978209Y256783D01*
X978281Y257086D01*
X978360Y257387D01*
X978447Y257687D01*
X978541Y257984D01*
X978642Y258279D01*
X978751Y258571D01*
X978867Y258860D01*
X978990Y259147D01*
X979119Y259430D01*
X979256Y259710D01*
X979400Y259987D01*
X979550Y260260D01*
X979707Y260529D01*
X979870Y260794D01*
X980040Y261056D01*
X980217Y261313D01*
X980399Y261565D01*
X980588Y261813D01*
X980783Y262057D01*
X980983Y262295D01*
X981190Y262529D01*
X981402Y262757D01*
X981620Y262980D01*
X981843Y263198D01*
X982071Y263410D01*
X982305Y263617D01*
X982543Y263817D01*
X982787Y264012D01*
X983035Y264201D01*
X983287Y264383D01*
X983544Y264560D01*
X983806Y264730D01*
X984071Y264893D01*
X984340Y265050D01*
X984613Y265200D01*
X984890Y265344D01*
X985170Y265481D01*
X985453Y265610D01*
X985740Y265733D01*
X986029Y265849D01*
X986321Y265958D01*
X986616Y266059D01*
X986913Y266153D01*
X987213Y266240D01*
X987514Y266319D01*
X987817Y266391D01*
X988122Y266456D01*
X988429Y266513D01*
X988737Y266563D01*
X989045Y266604D01*
X989355Y266639D01*
X989666Y266666D01*
X989977Y266685D01*
X990288Y266696D01*
X990600Y266700D01*
X990912Y266696D01*
X991223Y266685D01*
X991534Y266666D01*
X991845Y266639D01*
X992155Y266604D01*
X992463Y266563D01*
X992771Y266513D01*
X993078Y266456D01*
X993383Y266391D01*
X993686Y266319D01*
X993987Y266240D01*
X994287Y266153D01*
X994584Y266059D01*
X994879Y265958D01*
X995171Y265849D01*
X995460Y265733D01*
X995747Y265610D01*
X996030Y265481D01*
X996310Y265344D01*
X996587Y265200D01*
X996860Y265050D01*
X997129Y264893D01*
X997394Y264730D01*
X997656Y264560D01*
X997913Y264383D01*
X998165Y264201D01*
X998413Y264012D01*
X998657Y263817D01*
X998895Y263617D01*
X999129Y263410D01*
X999357Y263198D01*
X999580Y262980D01*
X999798Y262757D01*
X1000010Y262529D01*
X1000217Y262295D01*
X1000417Y262057D01*
X1000612Y261813D01*
X1000801Y261565D01*
X1000983Y261313D01*
X1001160Y261056D01*
X1001330Y260794D01*
X1001493Y260529D01*
X1001650Y260260D01*
X1001800Y259987D01*
X1001944Y259710D01*
X1002081Y259430D01*
X1002210Y259147D01*
X1002333Y258860D01*
X1002449Y258571D01*
X1002558Y258279D01*
X1002659Y257984D01*
X1002753Y257687D01*
X1002840Y257387D01*
X1002919Y257086D01*
X1002991Y256783D01*
X1003056Y256478D01*
X1003113Y256171D01*
X1003163Y255863D01*
X1003204Y255555D01*
X1003239Y255245D01*
X1003266Y254934D01*
X1003285Y254623D01*
X1003296Y254312D01*
X1003300Y254000D01*
X1003296Y253688D01*
X1003285Y253377D01*
X1003266Y253066D01*
X1003239Y252755D01*
X1003204Y252445D01*
X1003163Y252137D01*
X1003113Y251829D01*
X1003056Y251522D01*
X1002991Y251217D01*
X1002919Y250914D01*
X1002840Y250613D01*
X1002753Y250313D01*
X1002659Y250016D01*
X1002558Y249721D01*
X1002449Y249429D01*
X1002333Y249140D01*
X1002210Y248853D01*
X1002081Y248570D01*
X1001944Y248290D01*
X1001800Y248013D01*
X1001650Y247740D01*
X1001493Y247471D01*
X1001330Y247206D01*
X1001160Y246944D01*
X1000983Y246687D01*
X1000801Y246435D01*
X1000612Y246187D01*
X1000417Y245943D01*
X1000217Y245705D01*
X1000010Y245471D01*
X999798Y245243D01*
X999580Y245020D01*
X999357Y244802D01*
X999129Y244590D01*
X998895Y244383D01*
X998657Y244183D01*
X998413Y243988D01*
X998165Y243799D01*
X997913Y243617D01*
X997656Y243440D01*
X997394Y243270D01*
X997129Y243107D01*
X996860Y242950D01*
X996587Y242800D01*
X996310Y242656D01*
X996030Y242519D01*
X995747Y242390D01*
X995460Y242267D01*
X995171Y242151D01*
X994879Y242042D01*
X994584Y241941D01*
X994287Y241847D01*
X993987Y241760D01*
X993686Y241681D01*
X993383Y241609D01*
X993078Y241544D01*
X992771Y241487D01*
X992463Y241437D01*
X992155Y241396D01*
X991845Y241361D01*
X991534Y241334D01*
X991223Y241315D01*
X990912Y241304D01*
X990600Y241300D01*
X990288Y241304D01*
X989977Y241315D01*
X989666Y241334D01*
X989355Y241361D01*
X989045Y241396D01*
X988737Y241437D01*
X988429Y241487D01*
X988122Y241544D01*
X987817Y241609D01*
X987514Y241681D01*
X987213Y241760D01*
X986913Y241847D01*
X986616Y241941D01*
X986321Y242042D01*
X986029Y242151D01*
X985740Y242267D01*
X985453Y242390D01*
X985170Y242519D01*
X984890Y242656D01*
X984613Y242800D01*
X984340Y242950D01*
X984071Y243107D01*
X983806Y243270D01*
X983544Y243440D01*
X983287Y243617D01*
X983035Y243799D01*
X982787Y243988D01*
X982543Y244183D01*
X982305Y244383D01*
X982071Y244590D01*
X981843Y244802D01*
X981620Y245020D01*
X981402Y245243D01*
X981190Y245471D01*
X980983Y245705D01*
X980783Y245943D01*
X980588Y246187D01*
X980399Y246435D01*
X980217Y246687D01*
X980040Y246944D01*
X979870Y247206D01*
X979707Y247471D01*
X979550Y247740D01*
X979400Y248013D01*
X979256Y248290D01*
X979119Y248570D01*
X978990Y248853D01*
X978867Y249140D01*
X978751Y249429D01*
X978642Y249721D01*
X978541Y250016D01*
X978447Y250313D01*
X978360Y250613D01*
X978281Y250914D01*
X978209Y251217D01*
X978144Y251522D01*
X978087Y251829D01*
X978037Y252137D01*
X977996Y252445D01*
X977961Y252755D01*
X977934Y253066D01*
X977915Y253377D01*
X977904Y253688D01*
X977900Y254000D01*
X1117600Y254000D02*
X1117604Y254312D01*
X1117615Y254623D01*
X1117634Y254934D01*
X1117661Y255245D01*
X1117696Y255555D01*
X1117737Y255863D01*
X1117787Y256171D01*
X1117844Y256478D01*
X1117909Y256783D01*
X1117981Y257086D01*
X1118060Y257387D01*
X1118147Y257687D01*
X1118241Y257984D01*
X1118342Y258279D01*
X1118451Y258571D01*
X1118567Y258860D01*
X1118690Y259147D01*
X1118819Y259430D01*
X1118956Y259710D01*
X1119100Y259987D01*
X1119250Y260260D01*
X1119407Y260529D01*
X1119570Y260794D01*
X1119740Y261056D01*
X1119917Y261313D01*
X1120099Y261565D01*
X1120288Y261813D01*
X1120483Y262057D01*
X1120683Y262295D01*
X1120890Y262529D01*
X1121102Y262757D01*
X1121320Y262980D01*
X1121543Y263198D01*
X1121771Y263410D01*
X1122005Y263617D01*
X1122243Y263817D01*
X1122487Y264012D01*
X1122735Y264201D01*
X1122987Y264383D01*
X1123244Y264560D01*
X1123506Y264730D01*
X1123771Y264893D01*
X1124040Y265050D01*
X1124313Y265200D01*
X1124590Y265344D01*
X1124870Y265481D01*
X1125153Y265610D01*
X1125440Y265733D01*
X1125729Y265849D01*
X1126021Y265958D01*
X1126316Y266059D01*
X1126613Y266153D01*
X1126913Y266240D01*
X1127214Y266319D01*
X1127517Y266391D01*
X1127822Y266456D01*
X1128129Y266513D01*
X1128437Y266563D01*
X1128745Y266604D01*
X1129055Y266639D01*
X1129366Y266666D01*
X1129677Y266685D01*
X1129988Y266696D01*
X1130300Y266700D01*
X1130612Y266696D01*
X1130923Y266685D01*
X1131234Y266666D01*
X1131545Y266639D01*
X1131855Y266604D01*
X1132163Y266563D01*
X1132471Y266513D01*
X1132778Y266456D01*
X1133083Y266391D01*
X1133386Y266319D01*
X1133687Y266240D01*
X1133987Y266153D01*
X1134284Y266059D01*
X1134579Y265958D01*
X1134871Y265849D01*
X1135160Y265733D01*
X1135447Y265610D01*
X1135730Y265481D01*
X1136010Y265344D01*
X1136287Y265200D01*
X1136560Y265050D01*
X1136829Y264893D01*
X1137094Y264730D01*
X1137356Y264560D01*
X1137613Y264383D01*
X1137865Y264201D01*
X1138113Y264012D01*
X1138357Y263817D01*
X1138595Y263617D01*
X1138829Y263410D01*
X1139057Y263198D01*
X1139280Y262980D01*
X1139498Y262757D01*
X1139710Y262529D01*
X1139917Y262295D01*
X1140117Y262057D01*
X1140312Y261813D01*
X1140501Y261565D01*
X1140683Y261313D01*
X1140860Y261056D01*
X1141030Y260794D01*
X1141193Y260529D01*
X1141350Y260260D01*
X1141500Y259987D01*
X1141644Y259710D01*
X1141781Y259430D01*
X1141910Y259147D01*
X1142033Y258860D01*
X1142149Y258571D01*
X1142258Y258279D01*
X1142359Y257984D01*
X1142453Y257687D01*
X1142540Y257387D01*
X1142619Y257086D01*
X1142691Y256783D01*
X1142756Y256478D01*
X1142813Y256171D01*
X1142863Y255863D01*
X1142904Y255555D01*
X1142939Y255245D01*
X1142966Y254934D01*
X1142985Y254623D01*
X1142996Y254312D01*
X1143000Y254000D01*
X1142996Y253688D01*
X1142985Y253377D01*
X1142966Y253066D01*
X1142939Y252755D01*
X1142904Y252445D01*
X1142863Y252137D01*
X1142813Y251829D01*
X1142756Y251522D01*
X1142691Y251217D01*
X1142619Y250914D01*
X1142540Y250613D01*
X1142453Y250313D01*
X1142359Y250016D01*
X1142258Y249721D01*
X1142149Y249429D01*
X1142033Y249140D01*
X1141910Y248853D01*
X1141781Y248570D01*
X1141644Y248290D01*
X1141500Y248013D01*
X1141350Y247740D01*
X1141193Y247471D01*
X1141030Y247206D01*
X1140860Y246944D01*
X1140683Y246687D01*
X1140501Y246435D01*
X1140312Y246187D01*
X1140117Y245943D01*
X1139917Y245705D01*
X1139710Y245471D01*
X1139498Y245243D01*
X1139280Y245020D01*
X1139057Y244802D01*
X1138829Y244590D01*
X1138595Y244383D01*
X1138357Y244183D01*
X1138113Y243988D01*
X1137865Y243799D01*
X1137613Y243617D01*
X1137356Y243440D01*
X1137094Y243270D01*
X1136829Y243107D01*
X1136560Y242950D01*
X1136287Y242800D01*
X1136010Y242656D01*
X1135730Y242519D01*
X1135447Y242390D01*
X1135160Y242267D01*
X1134871Y242151D01*
X1134579Y242042D01*
X1134284Y241941D01*
X1133987Y241847D01*
X1133687Y241760D01*
X1133386Y241681D01*
X1133083Y241609D01*
X1132778Y241544D01*
X1132471Y241487D01*
X1132163Y241437D01*
X1131855Y241396D01*
X1131545Y241361D01*
X1131234Y241334D01*
X1130923Y241315D01*
X1130612Y241304D01*
X1130300Y241300D01*
X1129988Y241304D01*
X1129677Y241315D01*
X1129366Y241334D01*
X1129055Y241361D01*
X1128745Y241396D01*
X1128437Y241437D01*
X1128129Y241487D01*
X1127822Y241544D01*
X1127517Y241609D01*
X1127214Y241681D01*
X1126913Y241760D01*
X1126613Y241847D01*
X1126316Y241941D01*
X1126021Y242042D01*
X1125729Y242151D01*
X1125440Y242267D01*
X1125153Y242390D01*
X1124870Y242519D01*
X1124590Y242656D01*
X1124313Y242800D01*
X1124040Y242950D01*
X1123771Y243107D01*
X1123506Y243270D01*
X1123244Y243440D01*
X1122987Y243617D01*
X1122735Y243799D01*
X1122487Y243988D01*
X1122243Y244183D01*
X1122005Y244383D01*
X1121771Y244590D01*
X1121543Y244802D01*
X1121320Y245020D01*
X1121102Y245243D01*
X1120890Y245471D01*
X1120683Y245705D01*
X1120483Y245943D01*
X1120288Y246187D01*
X1120099Y246435D01*
X1119917Y246687D01*
X1119740Y246944D01*
X1119570Y247206D01*
X1119407Y247471D01*
X1119250Y247740D01*
X1119100Y248013D01*
X1118956Y248290D01*
X1118819Y248570D01*
X1118690Y248853D01*
X1118567Y249140D01*
X1118451Y249429D01*
X1118342Y249721D01*
X1118241Y250016D01*
X1118147Y250313D01*
X1118060Y250613D01*
X1117981Y250914D01*
X1117909Y251217D01*
X1117844Y251522D01*
X1117787Y251829D01*
X1117737Y252137D01*
X1117696Y252445D01*
X1117661Y252755D01*
X1117634Y253066D01*
X1117615Y253377D01*
X1117604Y253688D01*
X1117600Y254000D01*
D11*
X241300Y0D02*
X1000000Y0D01*
X1000000Y444400D01*
X241300Y444400D01*
X241300Y0D01*
M02*
