G04 EAGLE Gerber RS-274X export*
G75*
%MOMM*%
%FSLAX34Y34*%
%LPD*%
%INTop Copper*%
%IPPOS*%
%AMOC8*
5,1,8,0,0,1.08239X$1,22.5*%
G01*
%ADD10C,1.651000*%
%ADD11C,1.879600*%
%ADD12C,1.524000*%
%ADD13P,1.429621X8X292.500000*%
%ADD14P,1.429621X8X22.500000*%
%ADD15P,1.429621X8X112.500000*%
%ADD16P,1.429621X8X202.500000*%
%ADD17C,1.422400*%
%ADD18C,2.540000*%
%ADD19C,1.295400*%
%ADD20R,1.295400X1.295400*%


D10*
X355600Y367500D03*
X355600Y267500D03*
D11*
X330200Y63500D03*
X355600Y63500D03*
X381000Y63500D03*
X406400Y63500D03*
X431800Y63500D03*
X457200Y63500D03*
X482600Y63500D03*
X508000Y63500D03*
X533400Y63500D03*
X558800Y63500D03*
X584200Y63500D03*
X609600Y63500D03*
X635000Y63500D03*
X635000Y88900D03*
X609600Y88900D03*
X584200Y88900D03*
X558800Y88900D03*
X533400Y88900D03*
X508000Y88900D03*
X482600Y88900D03*
X457200Y88900D03*
X431800Y88900D03*
X406400Y88900D03*
X381000Y88900D03*
X355600Y88900D03*
X330200Y88900D03*
X660400Y63500D03*
X660400Y88900D03*
X685800Y63500D03*
X685800Y88900D03*
X711200Y63500D03*
X711200Y88900D03*
X736600Y63500D03*
X736600Y88900D03*
X762000Y63500D03*
X762000Y88900D03*
X787400Y63500D03*
X787400Y88900D03*
X812800Y63500D03*
X812800Y88900D03*
D12*
X299720Y292100D02*
X284480Y292100D01*
X284480Y317500D02*
X299720Y317500D01*
X299720Y342900D02*
X284480Y342900D01*
X284480Y368300D02*
X299720Y368300D01*
X584200Y386080D02*
X584200Y401320D01*
X609600Y401320D02*
X609600Y386080D01*
X635000Y386080D02*
X635000Y401320D01*
X660400Y401320D02*
X660400Y386080D01*
X584200Y350520D02*
X584200Y335280D01*
X609600Y335280D02*
X609600Y350520D01*
X635000Y350520D02*
X635000Y335280D01*
X660400Y335280D02*
X660400Y350520D01*
D13*
X901700Y317500D03*
X901700Y292100D03*
D14*
X342900Y203200D03*
X368300Y203200D03*
D13*
X533400Y279400D03*
X533400Y152400D03*
D15*
X584200Y139700D03*
X584200Y266700D03*
X812800Y190500D03*
X812800Y317500D03*
D13*
X622300Y266700D03*
X622300Y139700D03*
D14*
X762000Y152400D03*
X889000Y152400D03*
D15*
X914400Y139700D03*
X914400Y266700D03*
X419100Y152400D03*
X419100Y279400D03*
D16*
X520700Y342900D03*
X393700Y342900D03*
D15*
X736600Y190500D03*
X736600Y317500D03*
D17*
X965200Y355600D03*
D18*
X965200Y403600D03*
X965200Y307600D03*
D17*
X965200Y335600D03*
X965200Y374600D03*
X292100Y203200D03*
D18*
X292100Y155200D03*
X292100Y251200D03*
D17*
X292100Y223200D03*
X292100Y184200D03*
D19*
X482600Y190500D03*
D20*
X457200Y203200D03*
X482600Y215900D03*
D12*
X957580Y203200D02*
X972820Y203200D01*
X972820Y177800D02*
X957580Y177800D01*
X957580Y152400D02*
X972820Y152400D01*
X972820Y127000D02*
X957580Y127000D01*
X957580Y101600D02*
X972820Y101600D01*
X972820Y76200D02*
X957580Y76200D01*
X957580Y50800D02*
X972820Y50800D01*
X972820Y25400D02*
X957580Y25400D01*
X698500Y360680D02*
X698500Y375920D01*
X723900Y375920D02*
X723900Y360680D01*
X749300Y360680D02*
X749300Y375920D01*
X774700Y375920D02*
X774700Y360680D01*
X812800Y360680D02*
X812800Y375920D01*
X838200Y375920D02*
X838200Y360680D01*
X863600Y360680D02*
X863600Y375920D01*
X889000Y375920D02*
X889000Y360680D01*
M02*
