M48
;GenerationSoftware,Autodesk,EAGLE,9.5.1*%
;CreationDate,2020-02-10T20:00:36Z*%
FMAT,2
ICI,OFF
METRIC,TZ,000.000
T6C0.700
T5C0.787
T4C0.813
T3C0.900
T2C1.016
T1C1.400
%
G90
M71
T1
X96520Y40360
X96520Y30760
X29210Y15520
X29210Y25120
T2
X35560Y6350
X38100Y6350
X40640Y6350
X43180Y6350
X45720Y6350
X48260Y6350
X50800Y6350
X53340Y6350
X55880Y6350
X58420Y6350
X35560Y8890
X63500Y6350
X63500Y8890
X60960Y8890
X58420Y8890
X55880Y8890
X53340Y8890
X50800Y8890
X48260Y8890
X45720Y8890
X43180Y8890
X40640Y8890
X38100Y8890
X33020Y8890
X66040Y6350
X66040Y8890
X68580Y6350
X68580Y8890
X71120Y6350
X71120Y8890
X73660Y6350
X73660Y8890
X76200Y6350
X76200Y8890
X78740Y6350
X78740Y8890
X81280Y6350
X81280Y8890
X29210Y29210
X29210Y31750
X29210Y34290
X29210Y36830
X58420Y39370
X60960Y39370
X63500Y39370
X66040Y39370
X58420Y34290
X60960Y34290
X63500Y34290
X66040Y34290
X60960Y6350
X33020Y6350
X96520Y20320
X96520Y17780
X96520Y15240
X96520Y12700
X96520Y10160
X96520Y7620
X96520Y5080
X96520Y2540
X69850Y36830
X72390Y36830
X74930Y36830
X77470Y36830
X81280Y36830
X83820Y36830
X86360Y36830
X88900Y36830
T3
X35560Y26750
X35560Y36750
T4
X52070Y34290
X39370Y34290
X73660Y19050
X73660Y31750
X81280Y31750
X62230Y26670
X62230Y13970
X76200Y15240
X90170Y31750
X90170Y29210
X88900Y15240
X91440Y13970
X91440Y26670
X41910Y15240
X41910Y27940
X34290Y20320
X36830Y20320
X53340Y27940
X53340Y15240
X58420Y13970
X58420Y26670
X81280Y19050
T5
X48260Y19050
X45720Y20320
X48260Y21590
T6
X96520Y35560
X96520Y33560
X96520Y37460
X29210Y20320
X29210Y22320
X29210Y18420
M30