G04 EAGLE Gerber RS-274X export*
G75*
%MOIN*%
%FSLAX34Y34*%
%LPD*%
%INTop Copper*%
%IPPOS*%
%AMOC8*
5,1,8,0,0,1.08239X$1,22.5*%
G01*
%ADD10C,0.065000*%
%ADD11P,0.071438X8X202.500000*%
%ADD12C,0.074000*%
%ADD13R,0.056000X0.056000*%
%ADD14C,0.056000*%
%ADD15P,0.056284X8X202.500000*%
%ADD16P,0.056284X8X292.500000*%
%ADD17P,0.056284X8X112.500000*%
%ADD18C,0.100000*%
%ADD19C,0.076000*%
%ADD20C,0.051000*%
%ADD21R,0.051000X0.051000*%


D10*
X9031Y11500D03*
X12969Y11500D03*
X6000Y5469D03*
X6000Y1531D03*
D11*
X11350Y13000D03*
X10500Y13000D03*
X9650Y13000D03*
X11350Y15000D03*
X10500Y15000D03*
X9650Y15000D03*
D12*
X7500Y17500D03*
X7500Y16500D03*
X7500Y15500D03*
X7500Y14500D03*
X7500Y13500D03*
X7500Y12500D03*
X7500Y11500D03*
X7500Y10500D03*
X7500Y9500D03*
X7500Y8500D03*
X7500Y7500D03*
X7500Y6500D03*
X7500Y5500D03*
X7500Y4500D03*
X7500Y3500D03*
X7500Y2500D03*
X7500Y1500D03*
X1500Y1500D03*
X1500Y2500D03*
X1500Y3500D03*
X1500Y4500D03*
X1500Y5500D03*
X1500Y6500D03*
X1500Y7500D03*
X1500Y8500D03*
X1500Y9500D03*
X1500Y10500D03*
X1500Y11500D03*
X1500Y12500D03*
X1500Y13500D03*
X1500Y14500D03*
X1500Y15500D03*
X1500Y16500D03*
X1500Y17500D03*
D13*
X10330Y27163D03*
D14*
X10330Y26376D03*
X10330Y25589D03*
X10330Y24801D03*
X10330Y24014D03*
X10330Y23226D03*
X10330Y22439D03*
X10330Y21651D03*
X10330Y20864D03*
X10330Y20077D03*
D13*
X1670Y20087D03*
D14*
X1670Y20874D03*
X1670Y21661D03*
X1670Y22449D03*
X1670Y23236D03*
X1670Y24024D03*
X1670Y24811D03*
X1670Y25599D03*
X1670Y26386D03*
X1670Y27173D03*
D15*
X14000Y19500D03*
X13000Y19500D03*
D16*
X3000Y9500D03*
X3000Y4500D03*
D17*
X12000Y21500D03*
X12000Y26500D03*
X14250Y21500D03*
X14250Y26500D03*
D16*
X13000Y27500D03*
X13000Y22500D03*
X3000Y18000D03*
X3000Y13000D03*
D17*
X5500Y13000D03*
X5500Y18000D03*
D14*
X14000Y15000D03*
D18*
X14000Y16890D03*
X14000Y13110D03*
D14*
X14000Y14213D03*
X14000Y15748D03*
D19*
X1500Y1500D03*
X1500Y2500D03*
X1500Y3500D03*
X1500Y4500D03*
X1500Y5500D03*
X1500Y6500D03*
X1500Y7500D03*
X1500Y8500D03*
X1500Y9500D03*
X1500Y10500D03*
X1500Y11500D03*
X7500Y14500D03*
X7500Y13500D03*
X1500Y14500D03*
X1500Y15500D03*
X1500Y16500D03*
X1500Y17500D03*
X7500Y17500D03*
X7500Y16500D03*
X7500Y15500D03*
X1500Y12500D03*
X1500Y13500D03*
X7500Y12500D03*
X7500Y11500D03*
X7500Y10500D03*
X7500Y9500D03*
X7500Y8500D03*
X7500Y7500D03*
X7500Y6500D03*
X7500Y5500D03*
X7500Y4500D03*
X7500Y3500D03*
X7500Y2500D03*
X7500Y1500D03*
D14*
X1669Y20079D03*
X1669Y20866D03*
X1669Y21654D03*
X1669Y22441D03*
X1669Y23228D03*
X1669Y24016D03*
X1669Y24803D03*
X1669Y25591D03*
X1669Y26378D03*
D13*
X1669Y27165D03*
D14*
X10331Y20079D03*
X10331Y20866D03*
X10331Y21654D03*
X10331Y22441D03*
X10331Y23228D03*
X10331Y24016D03*
X10331Y24803D03*
X10331Y25591D03*
X10331Y26378D03*
X10331Y27165D03*
D20*
X11000Y18500D03*
D21*
X10500Y17500D03*
X10000Y18500D03*
D17*
X4750Y3000D03*
X4750Y8000D03*
M02*
