G04 EAGLE Gerber RS-274X export*
G75*
%MOIN*%
%FSLAX34Y34*%
%LPD*%
%INSilkscreen Top*%
%IPPOS*%
%AMOC8*
5,1,8,0,0,1.08239X$1,22.5*%
G01*
%ADD10C,0.008000*%
%ADD11C,0.005000*%
%ADD12C,0.000600*%
%ADD13C,0.006000*%
%ADD14C,0.010000*%
%ADD15C,0.024000*%
%ADD16R,0.024000X0.034000*%
%ADD17C,0.004000*%
%ADD18C,0.003000*%


D10*
X10803Y11750D02*
X10803Y11500D01*
X10803Y11250D01*
X11197Y11500D02*
X11197Y11750D01*
X11197Y11500D02*
X11197Y11250D01*
X10803Y11500D02*
X9622Y11500D01*
X11197Y11500D02*
X12378Y11500D01*
D11*
X10941Y11919D02*
X10899Y11919D01*
X10888Y11920D01*
X10878Y11925D01*
X10869Y11931D01*
X10863Y11940D01*
X10858Y11950D01*
X10857Y11961D01*
X10857Y12066D01*
X10858Y12077D01*
X10863Y12087D01*
X10869Y12096D01*
X10878Y12102D01*
X10888Y12107D01*
X10899Y12108D01*
X10899Y12109D02*
X10941Y12109D01*
X11038Y12066D02*
X11091Y12109D01*
X11091Y11919D01*
X11143Y11919D02*
X11038Y11919D01*
D10*
X6250Y3697D02*
X6000Y3697D01*
X5750Y3697D01*
X6000Y3303D02*
X6250Y3303D01*
X6000Y3303D02*
X5750Y3303D01*
X6000Y3697D02*
X6000Y4878D01*
X6000Y3303D02*
X6000Y2122D01*
D11*
X6609Y3399D02*
X6609Y3441D01*
X6608Y3399D02*
X6607Y3388D01*
X6602Y3378D01*
X6596Y3369D01*
X6587Y3363D01*
X6577Y3358D01*
X6566Y3357D01*
X6461Y3357D01*
X6450Y3358D01*
X6440Y3363D01*
X6431Y3369D01*
X6425Y3378D01*
X6420Y3388D01*
X6419Y3399D01*
X6419Y3441D01*
X6418Y3596D02*
X6420Y3608D01*
X6424Y3620D01*
X6432Y3630D01*
X6442Y3638D01*
X6454Y3642D01*
X6466Y3644D01*
X6419Y3596D02*
X6420Y3583D01*
X6424Y3571D01*
X6431Y3560D01*
X6439Y3551D01*
X6450Y3543D01*
X6461Y3538D01*
X6503Y3627D02*
X6492Y3636D01*
X6480Y3641D01*
X6466Y3643D01*
X6503Y3628D02*
X6609Y3538D01*
X6609Y3643D01*
D12*
X10820Y11972D02*
X10804Y12024D01*
X10804Y12023D02*
X10863Y12044D01*
X10920Y12067D01*
X10976Y12094D01*
X11029Y12125D01*
X11081Y12158D01*
X11131Y12195D01*
X11178Y12234D01*
X11223Y12277D01*
X11266Y12322D01*
X11305Y12369D01*
X11342Y12419D01*
X11376Y12471D01*
X11406Y12525D01*
X11433Y12580D01*
X11457Y12637D01*
X11477Y12696D01*
X11493Y12755D01*
X11506Y12816D01*
X11516Y12877D01*
X11521Y12938D01*
X11523Y13000D01*
X11521Y13062D01*
X11516Y13123D01*
X11506Y13184D01*
X11493Y13245D01*
X11477Y13304D01*
X11457Y13363D01*
X11433Y13420D01*
X11406Y13475D01*
X11375Y13529D01*
X11342Y13581D01*
X11305Y13631D01*
X11347Y13664D01*
X11348Y13664D01*
X11385Y13614D01*
X11420Y13561D01*
X11451Y13506D01*
X11479Y13449D01*
X11503Y13391D01*
X11525Y13332D01*
X11542Y13271D01*
X11556Y13210D01*
X11567Y13148D01*
X11574Y13085D01*
X11577Y13022D01*
X11576Y12959D01*
X11572Y12896D01*
X11564Y12833D01*
X11552Y12771D01*
X11537Y12710D01*
X11518Y12650D01*
X11496Y12591D01*
X11470Y12533D01*
X11441Y12477D01*
X11409Y12423D01*
X11374Y12371D01*
X11336Y12320D01*
X11294Y12273D01*
X11250Y12227D01*
X11204Y12185D01*
X11155Y12145D01*
X11104Y12108D01*
X11050Y12074D01*
X10995Y12044D01*
X10938Y12016D01*
X10880Y11992D01*
X10820Y11972D01*
X10819Y11977D01*
X10880Y11998D01*
X10940Y12022D01*
X10998Y12051D01*
X11055Y12083D01*
X11109Y12118D01*
X11161Y12156D01*
X11211Y12198D01*
X11258Y12242D01*
X11302Y12289D01*
X11344Y12339D01*
X11382Y12391D01*
X11417Y12445D01*
X11449Y12502D01*
X11478Y12560D01*
X11502Y12620D01*
X11523Y12681D01*
X11541Y12744D01*
X11554Y12807D01*
X11564Y12871D01*
X11570Y12935D01*
X11572Y13000D01*
X11570Y13065D01*
X11564Y13129D01*
X11554Y13193D01*
X11541Y13257D01*
X11523Y13319D01*
X11502Y13380D01*
X11478Y13440D01*
X11449Y13498D01*
X11417Y13555D01*
X11382Y13609D01*
X11344Y13661D01*
X11340Y13658D01*
X11378Y13606D01*
X11413Y13552D01*
X11445Y13496D01*
X11473Y13438D01*
X11498Y13378D01*
X11519Y13318D01*
X11536Y13255D01*
X11550Y13192D01*
X11559Y13129D01*
X11565Y13065D01*
X11567Y13000D01*
X11565Y12936D01*
X11559Y12871D01*
X11550Y12808D01*
X11536Y12745D01*
X11519Y12683D01*
X11498Y12622D01*
X11473Y12562D01*
X11445Y12504D01*
X11413Y12448D01*
X11378Y12394D01*
X11340Y12342D01*
X11299Y12292D01*
X11255Y12246D01*
X11208Y12201D01*
X11158Y12160D01*
X11106Y12122D01*
X11052Y12087D01*
X10996Y12055D01*
X10938Y12027D01*
X10878Y12002D01*
X10817Y11981D01*
X10816Y11986D01*
X10877Y12007D01*
X10936Y12032D01*
X10994Y12060D01*
X11049Y12091D01*
X11103Y12126D01*
X11155Y12164D01*
X11204Y12205D01*
X11251Y12249D01*
X11295Y12296D01*
X11336Y12345D01*
X11374Y12397D01*
X11409Y12451D01*
X11440Y12507D01*
X11468Y12564D01*
X11493Y12623D01*
X11514Y12684D01*
X11531Y12746D01*
X11545Y12809D01*
X11554Y12872D01*
X11560Y12936D01*
X11562Y13000D01*
X11560Y13064D01*
X11554Y13128D01*
X11545Y13192D01*
X11531Y13254D01*
X11514Y13316D01*
X11493Y13377D01*
X11468Y13436D01*
X11440Y13494D01*
X11409Y13550D01*
X11374Y13603D01*
X11336Y13655D01*
X11332Y13652D01*
X11370Y13601D01*
X11405Y13547D01*
X11436Y13491D01*
X11464Y13434D01*
X11488Y13375D01*
X11509Y13315D01*
X11526Y13253D01*
X11540Y13191D01*
X11549Y13127D01*
X11555Y13064D01*
X11557Y13000D01*
X11555Y12936D01*
X11549Y12873D01*
X11540Y12810D01*
X11526Y12747D01*
X11509Y12686D01*
X11488Y12625D01*
X11464Y12566D01*
X11436Y12509D01*
X11405Y12453D01*
X11370Y12400D01*
X11332Y12348D01*
X11291Y12299D01*
X11247Y12253D01*
X11201Y12209D01*
X11152Y12168D01*
X11100Y12130D01*
X11047Y12095D01*
X10991Y12064D01*
X10934Y12036D01*
X10875Y12012D01*
X10814Y11991D01*
X10813Y11996D01*
X10873Y12016D01*
X10932Y12041D01*
X10989Y12069D01*
X11044Y12100D01*
X11098Y12134D01*
X11149Y12172D01*
X11198Y12213D01*
X11244Y12256D01*
X11287Y12302D01*
X11328Y12351D01*
X11366Y12402D01*
X11400Y12456D01*
X11432Y12511D01*
X11459Y12568D01*
X11484Y12627D01*
X11504Y12687D01*
X11521Y12748D01*
X11535Y12810D01*
X11544Y12873D01*
X11550Y12937D01*
X11552Y13000D01*
X11550Y13064D01*
X11544Y13127D01*
X11535Y13190D01*
X11521Y13252D01*
X11504Y13313D01*
X11484Y13373D01*
X11459Y13432D01*
X11431Y13489D01*
X11400Y13544D01*
X11366Y13598D01*
X11328Y13649D01*
X11324Y13646D01*
X11362Y13595D01*
X11396Y13542D01*
X11427Y13487D01*
X11455Y13430D01*
X11479Y13371D01*
X11500Y13312D01*
X11517Y13251D01*
X11530Y13189D01*
X11539Y13126D01*
X11545Y13063D01*
X11547Y13000D01*
X11545Y12937D01*
X11539Y12874D01*
X11530Y12811D01*
X11517Y12750D01*
X11500Y12689D01*
X11479Y12629D01*
X11455Y12570D01*
X11427Y12513D01*
X11396Y12458D01*
X11362Y12405D01*
X11324Y12354D01*
X11284Y12306D01*
X11240Y12260D01*
X11194Y12216D01*
X11146Y12176D01*
X11095Y12138D01*
X11042Y12104D01*
X10987Y12073D01*
X10930Y12045D01*
X10871Y12021D01*
X10812Y12000D01*
X10810Y12005D01*
X10870Y12026D01*
X10928Y12050D01*
X10984Y12077D01*
X11039Y12108D01*
X11092Y12142D01*
X11143Y12180D01*
X11191Y12220D01*
X11237Y12263D01*
X11280Y12309D01*
X11320Y12357D01*
X11358Y12408D01*
X11392Y12461D01*
X11423Y12516D01*
X11450Y12572D01*
X11474Y12631D01*
X11495Y12690D01*
X11512Y12751D01*
X11525Y12812D01*
X11534Y12874D01*
X11540Y12937D01*
X11542Y13000D01*
X11540Y13063D01*
X11534Y13126D01*
X11525Y13188D01*
X11512Y13249D01*
X11495Y13310D01*
X11474Y13370D01*
X11450Y13428D01*
X11423Y13484D01*
X11392Y13539D01*
X11358Y13592D01*
X11320Y13643D01*
X11316Y13640D01*
X11353Y13589D01*
X11387Y13537D01*
X11418Y13482D01*
X11446Y13426D01*
X11470Y13368D01*
X11490Y13309D01*
X11507Y13248D01*
X11520Y13187D01*
X11529Y13125D01*
X11535Y13063D01*
X11537Y13000D01*
X11535Y12937D01*
X11529Y12875D01*
X11520Y12813D01*
X11507Y12752D01*
X11490Y12692D01*
X11470Y12632D01*
X11446Y12574D01*
X11418Y12518D01*
X11387Y12464D01*
X11353Y12411D01*
X11316Y12361D01*
X11276Y12312D01*
X11233Y12267D01*
X11188Y12224D01*
X11140Y12184D01*
X11089Y12147D01*
X11037Y12113D01*
X10982Y12082D01*
X10926Y12054D01*
X10868Y12030D01*
X10809Y12010D01*
X10807Y12015D01*
X10866Y12035D01*
X10924Y12059D01*
X10980Y12086D01*
X11034Y12117D01*
X11086Y12151D01*
X11137Y12188D01*
X11184Y12228D01*
X11230Y12270D01*
X11273Y12316D01*
X11312Y12364D01*
X11349Y12414D01*
X11383Y12466D01*
X11414Y12520D01*
X11441Y12577D01*
X11465Y12634D01*
X11485Y12693D01*
X11502Y12753D01*
X11515Y12814D01*
X11524Y12876D01*
X11530Y12938D01*
X11532Y13000D01*
X11530Y13062D01*
X11524Y13124D01*
X11515Y13186D01*
X11502Y13247D01*
X11485Y13307D01*
X11465Y13366D01*
X11441Y13424D01*
X11414Y13480D01*
X11383Y13534D01*
X11349Y13586D01*
X11312Y13636D01*
X11308Y13633D01*
X11345Y13583D01*
X11379Y13531D01*
X11409Y13477D01*
X11437Y13422D01*
X11460Y13364D01*
X11480Y13306D01*
X11497Y13246D01*
X11510Y13185D01*
X11520Y13124D01*
X11525Y13062D01*
X11527Y13000D01*
X11525Y12938D01*
X11520Y12876D01*
X11510Y12815D01*
X11497Y12754D01*
X11481Y12695D01*
X11460Y12636D01*
X11437Y12579D01*
X11409Y12523D01*
X11379Y12469D01*
X11345Y12417D01*
X11308Y12367D01*
X11269Y12319D01*
X11226Y12274D01*
X11181Y12231D01*
X11133Y12192D01*
X11083Y12155D01*
X11031Y12121D01*
X10977Y12091D01*
X10922Y12064D01*
X10864Y12040D01*
X10806Y12020D01*
X9653Y13664D02*
X9695Y13630D01*
X9695Y13631D02*
X9658Y13581D01*
X9625Y13529D01*
X9594Y13475D01*
X9567Y13420D01*
X9543Y13363D01*
X9523Y13304D01*
X9507Y13245D01*
X9494Y13184D01*
X9484Y13123D01*
X9479Y13062D01*
X9477Y13000D01*
X9479Y12938D01*
X9484Y12877D01*
X9494Y12816D01*
X9507Y12755D01*
X9523Y12696D01*
X9543Y12637D01*
X9567Y12580D01*
X9594Y12525D01*
X9624Y12471D01*
X9658Y12419D01*
X9695Y12369D01*
X9734Y12322D01*
X9777Y12277D01*
X9822Y12234D01*
X9869Y12195D01*
X9919Y12158D01*
X9971Y12125D01*
X10024Y12094D01*
X10080Y12067D01*
X10137Y12044D01*
X10196Y12023D01*
X10180Y11972D01*
X10120Y11992D01*
X10062Y12016D01*
X10005Y12044D01*
X9950Y12074D01*
X9896Y12108D01*
X9845Y12145D01*
X9796Y12185D01*
X9750Y12227D01*
X9706Y12273D01*
X9664Y12320D01*
X9626Y12371D01*
X9591Y12423D01*
X9559Y12477D01*
X9530Y12533D01*
X9504Y12591D01*
X9482Y12650D01*
X9463Y12710D01*
X9448Y12771D01*
X9436Y12833D01*
X9428Y12896D01*
X9424Y12959D01*
X9423Y13022D01*
X9426Y13085D01*
X9433Y13148D01*
X9444Y13210D01*
X9458Y13271D01*
X9475Y13332D01*
X9497Y13391D01*
X9521Y13449D01*
X9549Y13506D01*
X9580Y13561D01*
X9615Y13614D01*
X9652Y13664D01*
X9656Y13661D01*
X9618Y13609D01*
X9583Y13555D01*
X9551Y13498D01*
X9523Y13440D01*
X9498Y13380D01*
X9477Y13319D01*
X9459Y13257D01*
X9446Y13193D01*
X9436Y13129D01*
X9430Y13065D01*
X9428Y13000D01*
X9430Y12935D01*
X9436Y12871D01*
X9446Y12807D01*
X9459Y12744D01*
X9477Y12681D01*
X9498Y12620D01*
X9522Y12560D01*
X9551Y12502D01*
X9583Y12445D01*
X9618Y12391D01*
X9656Y12339D01*
X9698Y12289D01*
X9742Y12242D01*
X9789Y12198D01*
X9839Y12156D01*
X9891Y12118D01*
X9945Y12083D01*
X10002Y12051D01*
X10060Y12022D01*
X10120Y11998D01*
X10181Y11977D01*
X10183Y11981D01*
X10122Y12002D01*
X10062Y12027D01*
X10004Y12055D01*
X9948Y12087D01*
X9894Y12122D01*
X9842Y12160D01*
X9792Y12201D01*
X9745Y12246D01*
X9701Y12292D01*
X9660Y12342D01*
X9622Y12394D01*
X9587Y12448D01*
X9555Y12504D01*
X9527Y12562D01*
X9502Y12622D01*
X9481Y12683D01*
X9464Y12745D01*
X9450Y12808D01*
X9441Y12871D01*
X9435Y12936D01*
X9433Y13000D01*
X9435Y13065D01*
X9441Y13129D01*
X9451Y13192D01*
X9464Y13255D01*
X9481Y13318D01*
X9502Y13378D01*
X9527Y13438D01*
X9555Y13496D01*
X9587Y13552D01*
X9622Y13606D01*
X9660Y13658D01*
X9664Y13655D01*
X9626Y13603D01*
X9591Y13550D01*
X9560Y13494D01*
X9532Y13436D01*
X9507Y13377D01*
X9486Y13316D01*
X9469Y13254D01*
X9455Y13192D01*
X9446Y13128D01*
X9440Y13064D01*
X9438Y13000D01*
X9440Y12936D01*
X9446Y12872D01*
X9455Y12809D01*
X9469Y12746D01*
X9486Y12684D01*
X9507Y12623D01*
X9532Y12564D01*
X9560Y12507D01*
X9591Y12451D01*
X9626Y12397D01*
X9664Y12345D01*
X9705Y12296D01*
X9749Y12249D01*
X9796Y12205D01*
X9845Y12164D01*
X9897Y12126D01*
X9951Y12091D01*
X10006Y12060D01*
X10064Y12032D01*
X10123Y12007D01*
X10184Y11986D01*
X10185Y11991D01*
X10125Y12012D01*
X10066Y12036D01*
X10009Y12064D01*
X9953Y12095D01*
X9900Y12130D01*
X9848Y12168D01*
X9799Y12209D01*
X9753Y12253D01*
X9709Y12299D01*
X9668Y12348D01*
X9630Y12400D01*
X9595Y12453D01*
X9564Y12509D01*
X9536Y12566D01*
X9512Y12625D01*
X9491Y12686D01*
X9474Y12747D01*
X9460Y12810D01*
X9451Y12873D01*
X9445Y12936D01*
X9443Y13000D01*
X9445Y13064D01*
X9451Y13128D01*
X9460Y13191D01*
X9474Y13253D01*
X9491Y13315D01*
X9512Y13375D01*
X9536Y13434D01*
X9564Y13491D01*
X9596Y13547D01*
X9630Y13601D01*
X9668Y13652D01*
X9672Y13649D01*
X9634Y13598D01*
X9600Y13544D01*
X9569Y13489D01*
X9541Y13432D01*
X9516Y13373D01*
X9496Y13313D01*
X9479Y13252D01*
X9465Y13190D01*
X9456Y13127D01*
X9450Y13064D01*
X9448Y13000D01*
X9450Y12937D01*
X9456Y12873D01*
X9465Y12810D01*
X9479Y12748D01*
X9496Y12687D01*
X9516Y12627D01*
X9541Y12568D01*
X9568Y12511D01*
X9600Y12456D01*
X9634Y12402D01*
X9672Y12351D01*
X9713Y12302D01*
X9756Y12256D01*
X9802Y12213D01*
X9851Y12172D01*
X9902Y12134D01*
X9956Y12100D01*
X10011Y12069D01*
X10068Y12041D01*
X10127Y12016D01*
X10187Y11996D01*
X10188Y12000D01*
X10129Y12021D01*
X10070Y12045D01*
X10013Y12073D01*
X9958Y12104D01*
X9905Y12138D01*
X9854Y12176D01*
X9806Y12216D01*
X9760Y12260D01*
X9716Y12306D01*
X9676Y12354D01*
X9638Y12405D01*
X9604Y12458D01*
X9573Y12514D01*
X9545Y12570D01*
X9521Y12629D01*
X9500Y12689D01*
X9483Y12750D01*
X9470Y12811D01*
X9461Y12874D01*
X9455Y12937D01*
X9453Y13000D01*
X9455Y13063D01*
X9461Y13126D01*
X9470Y13189D01*
X9483Y13251D01*
X9500Y13312D01*
X9521Y13371D01*
X9545Y13430D01*
X9573Y13487D01*
X9604Y13542D01*
X9638Y13595D01*
X9676Y13646D01*
X9680Y13643D01*
X9643Y13592D01*
X9608Y13539D01*
X9577Y13484D01*
X9550Y13428D01*
X9526Y13370D01*
X9505Y13310D01*
X9488Y13249D01*
X9475Y13188D01*
X9466Y13126D01*
X9460Y13063D01*
X9458Y13000D01*
X9460Y12937D01*
X9466Y12874D01*
X9475Y12812D01*
X9488Y12751D01*
X9505Y12690D01*
X9526Y12631D01*
X9550Y12572D01*
X9577Y12516D01*
X9608Y12461D01*
X9642Y12408D01*
X9680Y12357D01*
X9720Y12309D01*
X9763Y12263D01*
X9809Y12220D01*
X9857Y12180D01*
X9908Y12142D01*
X9961Y12108D01*
X10016Y12077D01*
X10072Y12050D01*
X10130Y12026D01*
X10190Y12005D01*
X10191Y12010D01*
X10132Y12030D01*
X10074Y12054D01*
X10018Y12082D01*
X9963Y12113D01*
X9911Y12147D01*
X9860Y12184D01*
X9812Y12224D01*
X9767Y12267D01*
X9724Y12312D01*
X9684Y12361D01*
X9647Y12411D01*
X9613Y12464D01*
X9582Y12518D01*
X9554Y12574D01*
X9530Y12632D01*
X9510Y12692D01*
X9493Y12752D01*
X9480Y12813D01*
X9471Y12875D01*
X9465Y12937D01*
X9463Y13000D01*
X9465Y13063D01*
X9471Y13125D01*
X9480Y13187D01*
X9493Y13248D01*
X9510Y13309D01*
X9530Y13368D01*
X9554Y13426D01*
X9582Y13482D01*
X9613Y13537D01*
X9647Y13589D01*
X9684Y13640D01*
X9688Y13637D01*
X9651Y13586D01*
X9617Y13534D01*
X9586Y13480D01*
X9559Y13424D01*
X9535Y13366D01*
X9515Y13307D01*
X9498Y13247D01*
X9485Y13186D01*
X9476Y13124D01*
X9470Y13062D01*
X9468Y13000D01*
X9470Y12938D01*
X9476Y12876D01*
X9485Y12814D01*
X9498Y12753D01*
X9515Y12693D01*
X9535Y12634D01*
X9559Y12577D01*
X9586Y12520D01*
X9617Y12466D01*
X9651Y12414D01*
X9688Y12364D01*
X9727Y12316D01*
X9770Y12270D01*
X9816Y12228D01*
X9863Y12188D01*
X9914Y12151D01*
X9966Y12117D01*
X10020Y12086D01*
X10076Y12059D01*
X10134Y12035D01*
X10193Y12015D01*
X10194Y12020D01*
X10136Y12040D01*
X10078Y12064D01*
X10023Y12091D01*
X9969Y12121D01*
X9917Y12155D01*
X9867Y12192D01*
X9819Y12231D01*
X9774Y12274D01*
X9731Y12319D01*
X9692Y12367D01*
X9655Y12417D01*
X9621Y12469D01*
X9591Y12523D01*
X9563Y12579D01*
X9540Y12636D01*
X9519Y12695D01*
X9503Y12754D01*
X9490Y12815D01*
X9480Y12876D01*
X9475Y12938D01*
X9473Y13000D01*
X9475Y13062D01*
X9480Y13124D01*
X9490Y13185D01*
X9503Y13246D01*
X9520Y13306D01*
X9540Y13364D01*
X9564Y13422D01*
X9591Y13477D01*
X9621Y13531D01*
X9655Y13583D01*
X9692Y13633D01*
D13*
X9675Y13650D02*
X11325Y13650D01*
X11387Y13100D02*
X11545Y13100D01*
X9613Y13100D02*
X9455Y13100D01*
D11*
X8365Y12725D02*
X8365Y12275D01*
X8315Y12275D02*
X8415Y12275D01*
X8415Y12725D02*
X8315Y12725D01*
X8699Y12275D02*
X8799Y12275D01*
X8699Y12275D02*
X8682Y12277D01*
X8665Y12281D01*
X8649Y12288D01*
X8635Y12298D01*
X8622Y12311D01*
X8612Y12325D01*
X8605Y12341D01*
X8601Y12358D01*
X8599Y12375D01*
X8599Y12625D01*
X8601Y12642D01*
X8605Y12659D01*
X8612Y12675D01*
X8622Y12689D01*
X8635Y12702D01*
X8649Y12712D01*
X8665Y12719D01*
X8682Y12723D01*
X8699Y12725D01*
X8799Y12725D01*
X8975Y12625D02*
X9100Y12725D01*
X9100Y12275D01*
X8975Y12275D02*
X9225Y12275D01*
D12*
X10820Y13972D02*
X10804Y14024D01*
X10804Y14023D02*
X10863Y14044D01*
X10920Y14067D01*
X10976Y14094D01*
X11029Y14125D01*
X11081Y14158D01*
X11131Y14195D01*
X11178Y14234D01*
X11223Y14277D01*
X11266Y14322D01*
X11305Y14369D01*
X11342Y14419D01*
X11376Y14471D01*
X11406Y14525D01*
X11433Y14580D01*
X11457Y14637D01*
X11477Y14696D01*
X11493Y14755D01*
X11506Y14816D01*
X11516Y14877D01*
X11521Y14938D01*
X11523Y15000D01*
X11521Y15062D01*
X11516Y15123D01*
X11506Y15184D01*
X11493Y15245D01*
X11477Y15304D01*
X11457Y15363D01*
X11433Y15420D01*
X11406Y15475D01*
X11375Y15529D01*
X11342Y15581D01*
X11305Y15631D01*
X11347Y15664D01*
X11348Y15664D01*
X11385Y15614D01*
X11420Y15561D01*
X11451Y15506D01*
X11479Y15449D01*
X11503Y15391D01*
X11525Y15332D01*
X11542Y15271D01*
X11556Y15210D01*
X11567Y15148D01*
X11574Y15085D01*
X11577Y15022D01*
X11576Y14959D01*
X11572Y14896D01*
X11564Y14833D01*
X11552Y14771D01*
X11537Y14710D01*
X11518Y14650D01*
X11496Y14591D01*
X11470Y14533D01*
X11441Y14477D01*
X11409Y14423D01*
X11374Y14371D01*
X11336Y14320D01*
X11294Y14273D01*
X11250Y14227D01*
X11204Y14185D01*
X11155Y14145D01*
X11104Y14108D01*
X11050Y14074D01*
X10995Y14044D01*
X10938Y14016D01*
X10880Y13992D01*
X10820Y13972D01*
X10819Y13977D01*
X10880Y13998D01*
X10940Y14022D01*
X10998Y14051D01*
X11055Y14083D01*
X11109Y14118D01*
X11161Y14156D01*
X11211Y14198D01*
X11258Y14242D01*
X11302Y14289D01*
X11344Y14339D01*
X11382Y14391D01*
X11417Y14445D01*
X11449Y14502D01*
X11478Y14560D01*
X11502Y14620D01*
X11523Y14681D01*
X11541Y14744D01*
X11554Y14807D01*
X11564Y14871D01*
X11570Y14935D01*
X11572Y15000D01*
X11570Y15065D01*
X11564Y15129D01*
X11554Y15193D01*
X11541Y15257D01*
X11523Y15319D01*
X11502Y15380D01*
X11478Y15440D01*
X11449Y15498D01*
X11417Y15555D01*
X11382Y15609D01*
X11344Y15661D01*
X11340Y15658D01*
X11378Y15606D01*
X11413Y15552D01*
X11445Y15496D01*
X11473Y15438D01*
X11498Y15378D01*
X11519Y15318D01*
X11536Y15255D01*
X11550Y15192D01*
X11559Y15129D01*
X11565Y15065D01*
X11567Y15000D01*
X11565Y14936D01*
X11559Y14871D01*
X11550Y14808D01*
X11536Y14745D01*
X11519Y14683D01*
X11498Y14622D01*
X11473Y14562D01*
X11445Y14504D01*
X11413Y14448D01*
X11378Y14394D01*
X11340Y14342D01*
X11299Y14292D01*
X11255Y14246D01*
X11208Y14201D01*
X11158Y14160D01*
X11106Y14122D01*
X11052Y14087D01*
X10996Y14055D01*
X10938Y14027D01*
X10878Y14002D01*
X10817Y13981D01*
X10816Y13986D01*
X10877Y14007D01*
X10936Y14032D01*
X10994Y14060D01*
X11049Y14091D01*
X11103Y14126D01*
X11155Y14164D01*
X11204Y14205D01*
X11251Y14249D01*
X11295Y14296D01*
X11336Y14345D01*
X11374Y14397D01*
X11409Y14451D01*
X11440Y14507D01*
X11468Y14564D01*
X11493Y14623D01*
X11514Y14684D01*
X11531Y14746D01*
X11545Y14809D01*
X11554Y14872D01*
X11560Y14936D01*
X11562Y15000D01*
X11560Y15064D01*
X11554Y15128D01*
X11545Y15192D01*
X11531Y15254D01*
X11514Y15316D01*
X11493Y15377D01*
X11468Y15436D01*
X11440Y15494D01*
X11409Y15550D01*
X11374Y15603D01*
X11336Y15655D01*
X11332Y15652D01*
X11370Y15601D01*
X11405Y15547D01*
X11436Y15491D01*
X11464Y15434D01*
X11488Y15375D01*
X11509Y15315D01*
X11526Y15253D01*
X11540Y15191D01*
X11549Y15127D01*
X11555Y15064D01*
X11557Y15000D01*
X11555Y14936D01*
X11549Y14873D01*
X11540Y14810D01*
X11526Y14747D01*
X11509Y14686D01*
X11488Y14625D01*
X11464Y14566D01*
X11436Y14509D01*
X11405Y14453D01*
X11370Y14400D01*
X11332Y14348D01*
X11291Y14299D01*
X11247Y14253D01*
X11201Y14209D01*
X11152Y14168D01*
X11100Y14130D01*
X11047Y14095D01*
X10991Y14064D01*
X10934Y14036D01*
X10875Y14012D01*
X10814Y13991D01*
X10813Y13996D01*
X10873Y14016D01*
X10932Y14041D01*
X10989Y14069D01*
X11044Y14100D01*
X11098Y14134D01*
X11149Y14172D01*
X11198Y14213D01*
X11244Y14256D01*
X11287Y14302D01*
X11328Y14351D01*
X11366Y14402D01*
X11400Y14456D01*
X11432Y14511D01*
X11459Y14568D01*
X11484Y14627D01*
X11504Y14687D01*
X11521Y14748D01*
X11535Y14810D01*
X11544Y14873D01*
X11550Y14937D01*
X11552Y15000D01*
X11550Y15064D01*
X11544Y15127D01*
X11535Y15190D01*
X11521Y15252D01*
X11504Y15313D01*
X11484Y15373D01*
X11459Y15432D01*
X11431Y15489D01*
X11400Y15544D01*
X11366Y15598D01*
X11328Y15649D01*
X11324Y15646D01*
X11362Y15595D01*
X11396Y15542D01*
X11427Y15487D01*
X11455Y15430D01*
X11479Y15371D01*
X11500Y15312D01*
X11517Y15251D01*
X11530Y15189D01*
X11539Y15126D01*
X11545Y15063D01*
X11547Y15000D01*
X11545Y14937D01*
X11539Y14874D01*
X11530Y14811D01*
X11517Y14750D01*
X11500Y14689D01*
X11479Y14629D01*
X11455Y14570D01*
X11427Y14513D01*
X11396Y14458D01*
X11362Y14405D01*
X11324Y14354D01*
X11284Y14306D01*
X11240Y14260D01*
X11194Y14216D01*
X11146Y14176D01*
X11095Y14138D01*
X11042Y14104D01*
X10987Y14073D01*
X10930Y14045D01*
X10871Y14021D01*
X10812Y14000D01*
X10810Y14005D01*
X10870Y14026D01*
X10928Y14050D01*
X10984Y14077D01*
X11039Y14108D01*
X11092Y14142D01*
X11143Y14180D01*
X11191Y14220D01*
X11237Y14263D01*
X11280Y14309D01*
X11320Y14357D01*
X11358Y14408D01*
X11392Y14461D01*
X11423Y14516D01*
X11450Y14572D01*
X11474Y14631D01*
X11495Y14690D01*
X11512Y14751D01*
X11525Y14812D01*
X11534Y14874D01*
X11540Y14937D01*
X11542Y15000D01*
X11540Y15063D01*
X11534Y15126D01*
X11525Y15188D01*
X11512Y15249D01*
X11495Y15310D01*
X11474Y15370D01*
X11450Y15428D01*
X11423Y15484D01*
X11392Y15539D01*
X11358Y15592D01*
X11320Y15643D01*
X11316Y15640D01*
X11353Y15589D01*
X11387Y15537D01*
X11418Y15482D01*
X11446Y15426D01*
X11470Y15368D01*
X11490Y15309D01*
X11507Y15248D01*
X11520Y15187D01*
X11529Y15125D01*
X11535Y15063D01*
X11537Y15000D01*
X11535Y14937D01*
X11529Y14875D01*
X11520Y14813D01*
X11507Y14752D01*
X11490Y14692D01*
X11470Y14632D01*
X11446Y14574D01*
X11418Y14518D01*
X11387Y14464D01*
X11353Y14411D01*
X11316Y14361D01*
X11276Y14312D01*
X11233Y14267D01*
X11188Y14224D01*
X11140Y14184D01*
X11089Y14147D01*
X11037Y14113D01*
X10982Y14082D01*
X10926Y14054D01*
X10868Y14030D01*
X10809Y14010D01*
X10807Y14015D01*
X10866Y14035D01*
X10924Y14059D01*
X10980Y14086D01*
X11034Y14117D01*
X11086Y14151D01*
X11137Y14188D01*
X11184Y14228D01*
X11230Y14270D01*
X11273Y14316D01*
X11312Y14364D01*
X11349Y14414D01*
X11383Y14466D01*
X11414Y14520D01*
X11441Y14577D01*
X11465Y14634D01*
X11485Y14693D01*
X11502Y14753D01*
X11515Y14814D01*
X11524Y14876D01*
X11530Y14938D01*
X11532Y15000D01*
X11530Y15062D01*
X11524Y15124D01*
X11515Y15186D01*
X11502Y15247D01*
X11485Y15307D01*
X11465Y15366D01*
X11441Y15424D01*
X11414Y15480D01*
X11383Y15534D01*
X11349Y15586D01*
X11312Y15636D01*
X11308Y15633D01*
X11345Y15583D01*
X11379Y15531D01*
X11409Y15477D01*
X11437Y15422D01*
X11460Y15364D01*
X11480Y15306D01*
X11497Y15246D01*
X11510Y15185D01*
X11520Y15124D01*
X11525Y15062D01*
X11527Y15000D01*
X11525Y14938D01*
X11520Y14876D01*
X11510Y14815D01*
X11497Y14754D01*
X11481Y14695D01*
X11460Y14636D01*
X11437Y14579D01*
X11409Y14523D01*
X11379Y14469D01*
X11345Y14417D01*
X11308Y14367D01*
X11269Y14319D01*
X11226Y14274D01*
X11181Y14231D01*
X11133Y14192D01*
X11083Y14155D01*
X11031Y14121D01*
X10977Y14091D01*
X10922Y14064D01*
X10864Y14040D01*
X10806Y14020D01*
X9653Y15664D02*
X9695Y15630D01*
X9695Y15631D02*
X9658Y15581D01*
X9625Y15529D01*
X9594Y15475D01*
X9567Y15420D01*
X9543Y15363D01*
X9523Y15304D01*
X9507Y15245D01*
X9494Y15184D01*
X9484Y15123D01*
X9479Y15062D01*
X9477Y15000D01*
X9479Y14938D01*
X9484Y14877D01*
X9494Y14816D01*
X9507Y14755D01*
X9523Y14696D01*
X9543Y14637D01*
X9567Y14580D01*
X9594Y14525D01*
X9624Y14471D01*
X9658Y14419D01*
X9695Y14369D01*
X9734Y14322D01*
X9777Y14277D01*
X9822Y14234D01*
X9869Y14195D01*
X9919Y14158D01*
X9971Y14125D01*
X10024Y14094D01*
X10080Y14067D01*
X10137Y14044D01*
X10196Y14023D01*
X10180Y13972D01*
X10120Y13992D01*
X10062Y14016D01*
X10005Y14044D01*
X9950Y14074D01*
X9896Y14108D01*
X9845Y14145D01*
X9796Y14185D01*
X9750Y14227D01*
X9706Y14273D01*
X9664Y14320D01*
X9626Y14371D01*
X9591Y14423D01*
X9559Y14477D01*
X9530Y14533D01*
X9504Y14591D01*
X9482Y14650D01*
X9463Y14710D01*
X9448Y14771D01*
X9436Y14833D01*
X9428Y14896D01*
X9424Y14959D01*
X9423Y15022D01*
X9426Y15085D01*
X9433Y15148D01*
X9444Y15210D01*
X9458Y15271D01*
X9475Y15332D01*
X9497Y15391D01*
X9521Y15449D01*
X9549Y15506D01*
X9580Y15561D01*
X9615Y15614D01*
X9652Y15664D01*
X9656Y15661D01*
X9618Y15609D01*
X9583Y15555D01*
X9551Y15498D01*
X9523Y15440D01*
X9498Y15380D01*
X9477Y15319D01*
X9459Y15257D01*
X9446Y15193D01*
X9436Y15129D01*
X9430Y15065D01*
X9428Y15000D01*
X9430Y14935D01*
X9436Y14871D01*
X9446Y14807D01*
X9459Y14744D01*
X9477Y14681D01*
X9498Y14620D01*
X9522Y14560D01*
X9551Y14502D01*
X9583Y14445D01*
X9618Y14391D01*
X9656Y14339D01*
X9698Y14289D01*
X9742Y14242D01*
X9789Y14198D01*
X9839Y14156D01*
X9891Y14118D01*
X9945Y14083D01*
X10002Y14051D01*
X10060Y14022D01*
X10120Y13998D01*
X10181Y13977D01*
X10183Y13981D01*
X10122Y14002D01*
X10062Y14027D01*
X10004Y14055D01*
X9948Y14087D01*
X9894Y14122D01*
X9842Y14160D01*
X9792Y14201D01*
X9745Y14246D01*
X9701Y14292D01*
X9660Y14342D01*
X9622Y14394D01*
X9587Y14448D01*
X9555Y14504D01*
X9527Y14562D01*
X9502Y14622D01*
X9481Y14683D01*
X9464Y14745D01*
X9450Y14808D01*
X9441Y14871D01*
X9435Y14936D01*
X9433Y15000D01*
X9435Y15065D01*
X9441Y15129D01*
X9451Y15192D01*
X9464Y15255D01*
X9481Y15318D01*
X9502Y15378D01*
X9527Y15438D01*
X9555Y15496D01*
X9587Y15552D01*
X9622Y15606D01*
X9660Y15658D01*
X9664Y15655D01*
X9626Y15603D01*
X9591Y15550D01*
X9560Y15494D01*
X9532Y15436D01*
X9507Y15377D01*
X9486Y15316D01*
X9469Y15254D01*
X9455Y15192D01*
X9446Y15128D01*
X9440Y15064D01*
X9438Y15000D01*
X9440Y14936D01*
X9446Y14872D01*
X9455Y14809D01*
X9469Y14746D01*
X9486Y14684D01*
X9507Y14623D01*
X9532Y14564D01*
X9560Y14507D01*
X9591Y14451D01*
X9626Y14397D01*
X9664Y14345D01*
X9705Y14296D01*
X9749Y14249D01*
X9796Y14205D01*
X9845Y14164D01*
X9897Y14126D01*
X9951Y14091D01*
X10006Y14060D01*
X10064Y14032D01*
X10123Y14007D01*
X10184Y13986D01*
X10185Y13991D01*
X10125Y14012D01*
X10066Y14036D01*
X10009Y14064D01*
X9953Y14095D01*
X9900Y14130D01*
X9848Y14168D01*
X9799Y14209D01*
X9753Y14253D01*
X9709Y14299D01*
X9668Y14348D01*
X9630Y14400D01*
X9595Y14453D01*
X9564Y14509D01*
X9536Y14566D01*
X9512Y14625D01*
X9491Y14686D01*
X9474Y14747D01*
X9460Y14810D01*
X9451Y14873D01*
X9445Y14936D01*
X9443Y15000D01*
X9445Y15064D01*
X9451Y15128D01*
X9460Y15191D01*
X9474Y15253D01*
X9491Y15315D01*
X9512Y15375D01*
X9536Y15434D01*
X9564Y15491D01*
X9596Y15547D01*
X9630Y15601D01*
X9668Y15652D01*
X9672Y15649D01*
X9634Y15598D01*
X9600Y15544D01*
X9569Y15489D01*
X9541Y15432D01*
X9516Y15373D01*
X9496Y15313D01*
X9479Y15252D01*
X9465Y15190D01*
X9456Y15127D01*
X9450Y15064D01*
X9448Y15000D01*
X9450Y14937D01*
X9456Y14873D01*
X9465Y14810D01*
X9479Y14748D01*
X9496Y14687D01*
X9516Y14627D01*
X9541Y14568D01*
X9568Y14511D01*
X9600Y14456D01*
X9634Y14402D01*
X9672Y14351D01*
X9713Y14302D01*
X9756Y14256D01*
X9802Y14213D01*
X9851Y14172D01*
X9902Y14134D01*
X9956Y14100D01*
X10011Y14069D01*
X10068Y14041D01*
X10127Y14016D01*
X10187Y13996D01*
X10188Y14000D01*
X10129Y14021D01*
X10070Y14045D01*
X10013Y14073D01*
X9958Y14104D01*
X9905Y14138D01*
X9854Y14176D01*
X9806Y14216D01*
X9760Y14260D01*
X9716Y14306D01*
X9676Y14354D01*
X9638Y14405D01*
X9604Y14458D01*
X9573Y14514D01*
X9545Y14570D01*
X9521Y14629D01*
X9500Y14689D01*
X9483Y14750D01*
X9470Y14811D01*
X9461Y14874D01*
X9455Y14937D01*
X9453Y15000D01*
X9455Y15063D01*
X9461Y15126D01*
X9470Y15189D01*
X9483Y15251D01*
X9500Y15312D01*
X9521Y15371D01*
X9545Y15430D01*
X9573Y15487D01*
X9604Y15542D01*
X9638Y15595D01*
X9676Y15646D01*
X9680Y15643D01*
X9643Y15592D01*
X9608Y15539D01*
X9577Y15484D01*
X9550Y15428D01*
X9526Y15370D01*
X9505Y15310D01*
X9488Y15249D01*
X9475Y15188D01*
X9466Y15126D01*
X9460Y15063D01*
X9458Y15000D01*
X9460Y14937D01*
X9466Y14874D01*
X9475Y14812D01*
X9488Y14751D01*
X9505Y14690D01*
X9526Y14631D01*
X9550Y14572D01*
X9577Y14516D01*
X9608Y14461D01*
X9642Y14408D01*
X9680Y14357D01*
X9720Y14309D01*
X9763Y14263D01*
X9809Y14220D01*
X9857Y14180D01*
X9908Y14142D01*
X9961Y14108D01*
X10016Y14077D01*
X10072Y14050D01*
X10130Y14026D01*
X10190Y14005D01*
X10191Y14010D01*
X10132Y14030D01*
X10074Y14054D01*
X10018Y14082D01*
X9963Y14113D01*
X9911Y14147D01*
X9860Y14184D01*
X9812Y14224D01*
X9767Y14267D01*
X9724Y14312D01*
X9684Y14361D01*
X9647Y14411D01*
X9613Y14464D01*
X9582Y14518D01*
X9554Y14574D01*
X9530Y14632D01*
X9510Y14692D01*
X9493Y14752D01*
X9480Y14813D01*
X9471Y14875D01*
X9465Y14937D01*
X9463Y15000D01*
X9465Y15063D01*
X9471Y15125D01*
X9480Y15187D01*
X9493Y15248D01*
X9510Y15309D01*
X9530Y15368D01*
X9554Y15426D01*
X9582Y15482D01*
X9613Y15537D01*
X9647Y15589D01*
X9684Y15640D01*
X9688Y15637D01*
X9651Y15586D01*
X9617Y15534D01*
X9586Y15480D01*
X9559Y15424D01*
X9535Y15366D01*
X9515Y15307D01*
X9498Y15247D01*
X9485Y15186D01*
X9476Y15124D01*
X9470Y15062D01*
X9468Y15000D01*
X9470Y14938D01*
X9476Y14876D01*
X9485Y14814D01*
X9498Y14753D01*
X9515Y14693D01*
X9535Y14634D01*
X9559Y14577D01*
X9586Y14520D01*
X9617Y14466D01*
X9651Y14414D01*
X9688Y14364D01*
X9727Y14316D01*
X9770Y14270D01*
X9816Y14228D01*
X9863Y14188D01*
X9914Y14151D01*
X9966Y14117D01*
X10020Y14086D01*
X10076Y14059D01*
X10134Y14035D01*
X10193Y14015D01*
X10194Y14020D01*
X10136Y14040D01*
X10078Y14064D01*
X10023Y14091D01*
X9969Y14121D01*
X9917Y14155D01*
X9867Y14192D01*
X9819Y14231D01*
X9774Y14274D01*
X9731Y14319D01*
X9692Y14367D01*
X9655Y14417D01*
X9621Y14469D01*
X9591Y14523D01*
X9563Y14579D01*
X9540Y14636D01*
X9519Y14695D01*
X9503Y14754D01*
X9490Y14815D01*
X9480Y14876D01*
X9475Y14938D01*
X9473Y15000D01*
X9475Y15062D01*
X9480Y15124D01*
X9490Y15185D01*
X9503Y15246D01*
X9520Y15306D01*
X9540Y15364D01*
X9564Y15422D01*
X9591Y15477D01*
X9621Y15531D01*
X9655Y15583D01*
X9692Y15633D01*
D13*
X9675Y15650D02*
X11325Y15650D01*
X11387Y15100D02*
X11545Y15100D01*
X9613Y15100D02*
X9455Y15100D01*
D11*
X8365Y14725D02*
X8365Y14275D01*
X8315Y14275D02*
X8415Y14275D01*
X8415Y14725D02*
X8315Y14725D01*
X8699Y14275D02*
X8799Y14275D01*
X8699Y14275D02*
X8682Y14277D01*
X8665Y14281D01*
X8649Y14288D01*
X8635Y14298D01*
X8622Y14311D01*
X8612Y14325D01*
X8605Y14341D01*
X8601Y14358D01*
X8599Y14375D01*
X8599Y14625D01*
X8601Y14642D01*
X8605Y14659D01*
X8612Y14675D01*
X8622Y14689D01*
X8635Y14702D01*
X8649Y14712D01*
X8665Y14719D01*
X8682Y14723D01*
X8699Y14725D01*
X8799Y14725D01*
X9113Y14726D02*
X9133Y14724D01*
X9152Y14719D01*
X9170Y14711D01*
X9186Y14700D01*
X9200Y14686D01*
X9211Y14670D01*
X9219Y14652D01*
X9224Y14633D01*
X9226Y14613D01*
X9113Y14725D02*
X9090Y14723D01*
X9068Y14718D01*
X9047Y14709D01*
X9028Y14697D01*
X9010Y14682D01*
X8996Y14665D01*
X8984Y14646D01*
X8975Y14625D01*
X9187Y14525D02*
X9200Y14540D01*
X9211Y14556D01*
X9219Y14574D01*
X9223Y14593D01*
X9225Y14613D01*
X9188Y14525D02*
X8975Y14275D01*
X9225Y14275D01*
X8223Y17753D02*
X8075Y17753D01*
X8223Y17753D02*
X8234Y17752D01*
X8244Y17747D01*
X8253Y17741D01*
X8259Y17732D01*
X8264Y17722D01*
X8265Y17711D01*
X8265Y17690D01*
X8117Y17869D02*
X8075Y17922D01*
X8265Y17922D01*
X8265Y17869D02*
X8265Y17975D01*
X883Y1088D02*
X735Y1088D01*
X883Y1088D02*
X894Y1087D01*
X904Y1082D01*
X913Y1076D01*
X919Y1067D01*
X924Y1057D01*
X925Y1046D01*
X925Y1025D01*
X735Y1262D02*
X737Y1274D01*
X741Y1286D01*
X749Y1296D01*
X759Y1304D01*
X771Y1308D01*
X783Y1310D01*
X735Y1262D02*
X736Y1249D01*
X740Y1237D01*
X747Y1226D01*
X755Y1217D01*
X766Y1209D01*
X777Y1204D01*
X820Y1294D02*
X809Y1303D01*
X797Y1308D01*
X783Y1310D01*
X819Y1294D02*
X925Y1204D01*
X925Y1310D01*
D10*
X9838Y19585D02*
X10822Y19585D01*
X9838Y19585D02*
X9838Y27655D01*
X10822Y27655D01*
X10822Y19585D01*
D13*
X10080Y28056D02*
X10080Y28321D01*
X10080Y28056D02*
X10079Y28041D01*
X10074Y28027D01*
X10067Y28014D01*
X10058Y28002D01*
X10046Y27993D01*
X10033Y27986D01*
X10019Y27981D01*
X10004Y27980D01*
X10004Y27981D02*
X9966Y27981D01*
X10280Y27981D02*
X10280Y28321D01*
X10375Y28321D01*
X10375Y28320D02*
X10393Y28318D01*
X10411Y28313D01*
X10427Y28304D01*
X10441Y28292D01*
X10453Y28278D01*
X10462Y28262D01*
X10467Y28244D01*
X10469Y28226D01*
X10467Y28208D01*
X10462Y28190D01*
X10453Y28174D01*
X10441Y28160D01*
X10427Y28148D01*
X10411Y28139D01*
X10393Y28134D01*
X10375Y28132D01*
X10280Y28132D01*
X10621Y28245D02*
X10715Y28321D01*
X10715Y27981D01*
X10621Y27981D02*
X10810Y27981D01*
D10*
X2162Y27665D02*
X1178Y27665D01*
X2162Y27665D02*
X2162Y19595D01*
X1178Y19595D01*
X1178Y27665D01*
D13*
X1304Y19269D02*
X1304Y19005D01*
X1303Y18990D01*
X1298Y18976D01*
X1291Y18963D01*
X1282Y18951D01*
X1270Y18942D01*
X1257Y18935D01*
X1243Y18930D01*
X1228Y18929D01*
X1190Y18929D01*
X1504Y18929D02*
X1504Y19269D01*
X1599Y19269D01*
X1617Y19267D01*
X1635Y19262D01*
X1651Y19253D01*
X1665Y19241D01*
X1677Y19227D01*
X1686Y19211D01*
X1691Y19193D01*
X1693Y19175D01*
X1691Y19157D01*
X1686Y19139D01*
X1677Y19123D01*
X1665Y19109D01*
X1651Y19097D01*
X1635Y19088D01*
X1617Y19083D01*
X1599Y19081D01*
X1599Y19080D02*
X1504Y19080D01*
X1949Y19269D02*
X1966Y19267D01*
X1982Y19263D01*
X1996Y19255D01*
X2009Y19244D01*
X2020Y19231D01*
X2028Y19217D01*
X2032Y19201D01*
X2034Y19184D01*
X1949Y19269D02*
X1930Y19267D01*
X1911Y19262D01*
X1893Y19254D01*
X1877Y19242D01*
X1864Y19228D01*
X1853Y19212D01*
X1845Y19194D01*
X2005Y19118D02*
X2017Y19132D01*
X2026Y19148D01*
X2031Y19166D01*
X2033Y19184D01*
X2005Y19118D02*
X1845Y18929D01*
X2034Y18929D01*
D10*
X12500Y18750D02*
X12500Y20250D01*
D14*
X12543Y20304D01*
X12589Y20356D01*
X12638Y20405D01*
X12690Y20452D01*
X12744Y20495D01*
X12800Y20536D01*
X12859Y20573D01*
X12919Y20607D01*
X12982Y20637D01*
X13045Y20664D01*
X13111Y20688D01*
X13177Y20708D01*
X13245Y20724D01*
X13313Y20736D01*
X13382Y20744D01*
X13451Y20749D01*
X13521Y20750D01*
X13590Y20747D01*
X13659Y20740D01*
X13727Y20729D01*
X13795Y20715D01*
X13862Y20696D01*
X13928Y20674D01*
X13993Y20649D01*
X14056Y20620D01*
X14117Y20587D01*
X14176Y20551D01*
X14233Y20512D01*
X14289Y20470D01*
X14341Y20425D01*
X14391Y20377D01*
X14438Y20326D01*
X14483Y20272D01*
X14524Y20217D01*
X14562Y20159D01*
X14597Y20099D01*
X14629Y20037D01*
X14657Y19974D01*
X14681Y19909D01*
X14702Y19843D01*
X14719Y19775D01*
X14733Y19707D01*
X14742Y19638D01*
X14748Y19569D01*
X14750Y19500D01*
X14748Y19431D01*
X14742Y19362D01*
X14733Y19293D01*
X14719Y19225D01*
X14702Y19157D01*
X14681Y19091D01*
X14657Y19026D01*
X14629Y18963D01*
X14597Y18901D01*
X14562Y18841D01*
X14524Y18783D01*
X14483Y18728D01*
X14438Y18674D01*
X14391Y18623D01*
X14341Y18575D01*
X14289Y18530D01*
X14233Y18488D01*
X14176Y18449D01*
X14117Y18413D01*
X14056Y18380D01*
X13993Y18351D01*
X13928Y18326D01*
X13862Y18304D01*
X13795Y18285D01*
X13727Y18271D01*
X13659Y18260D01*
X13590Y18253D01*
X13521Y18250D01*
X13451Y18251D01*
X13382Y18256D01*
X13313Y18264D01*
X13245Y18276D01*
X13177Y18292D01*
X13111Y18312D01*
X13045Y18336D01*
X12982Y18363D01*
X12919Y18393D01*
X12859Y18427D01*
X12800Y18464D01*
X12744Y18505D01*
X12690Y18548D01*
X12638Y18595D01*
X12589Y18644D01*
X12543Y18696D01*
X12500Y18750D01*
D13*
X12500Y19500D02*
X12502Y19563D01*
X12508Y19625D01*
X12518Y19687D01*
X12531Y19749D01*
X12549Y19809D01*
X12570Y19868D01*
X12595Y19926D01*
X12624Y19982D01*
X12656Y20036D01*
X12691Y20088D01*
X12729Y20137D01*
X12771Y20185D01*
X12815Y20229D01*
X12863Y20271D01*
X12912Y20309D01*
X12964Y20344D01*
X13018Y20376D01*
X13074Y20405D01*
X13132Y20430D01*
X13191Y20451D01*
X13251Y20469D01*
X13313Y20482D01*
X13375Y20492D01*
X13437Y20498D01*
X13500Y20500D01*
X13563Y20498D01*
X13625Y20492D01*
X13687Y20482D01*
X13749Y20469D01*
X13809Y20451D01*
X13868Y20430D01*
X13926Y20405D01*
X13982Y20376D01*
X14036Y20344D01*
X14088Y20309D01*
X14137Y20271D01*
X14185Y20229D01*
X14229Y20185D01*
X14271Y20137D01*
X14309Y20088D01*
X14344Y20036D01*
X14376Y19982D01*
X14405Y19926D01*
X14430Y19868D01*
X14451Y19809D01*
X14469Y19749D01*
X14482Y19687D01*
X14492Y19625D01*
X14498Y19563D01*
X14500Y19500D01*
X14498Y19437D01*
X14492Y19375D01*
X14482Y19313D01*
X14469Y19251D01*
X14451Y19191D01*
X14430Y19132D01*
X14405Y19074D01*
X14376Y19018D01*
X14344Y18964D01*
X14309Y18912D01*
X14271Y18863D01*
X14229Y18815D01*
X14185Y18771D01*
X14137Y18729D01*
X14088Y18691D01*
X14036Y18656D01*
X13982Y18624D01*
X13926Y18595D01*
X13868Y18570D01*
X13809Y18549D01*
X13749Y18531D01*
X13687Y18518D01*
X13625Y18508D01*
X13563Y18502D01*
X13500Y18500D01*
X13437Y18502D01*
X13375Y18508D01*
X13313Y18518D01*
X13251Y18531D01*
X13191Y18549D01*
X13132Y18570D01*
X13074Y18595D01*
X13018Y18624D01*
X12964Y18656D01*
X12912Y18691D01*
X12863Y18729D01*
X12815Y18771D01*
X12771Y18815D01*
X12729Y18863D01*
X12691Y18912D01*
X12656Y18964D01*
X12624Y19018D01*
X12595Y19074D01*
X12570Y19132D01*
X12549Y19191D01*
X12531Y19251D01*
X12518Y19313D01*
X12508Y19375D01*
X12502Y19437D01*
X12500Y19500D01*
D11*
X10731Y19265D02*
X10731Y18815D01*
X10931Y18815D01*
X11121Y18815D02*
X11321Y18815D01*
X11121Y18815D02*
X11121Y19265D01*
X11321Y19265D01*
X11271Y19065D02*
X11121Y19065D01*
X11510Y19265D02*
X11510Y18815D01*
X11510Y19265D02*
X11635Y19265D01*
X11655Y19263D01*
X11674Y19259D01*
X11692Y19251D01*
X11708Y19241D01*
X11723Y19228D01*
X11736Y19213D01*
X11746Y19197D01*
X11754Y19179D01*
X11758Y19160D01*
X11760Y19140D01*
X11760Y18940D01*
X11758Y18920D01*
X11754Y18901D01*
X11746Y18883D01*
X11736Y18867D01*
X11723Y18852D01*
X11708Y18839D01*
X11692Y18829D01*
X11674Y18821D01*
X11655Y18817D01*
X11635Y18815D01*
X11510Y18815D01*
X11975Y19165D02*
X12100Y19265D01*
X12100Y18815D01*
X11975Y18815D02*
X12225Y18815D01*
D13*
X3350Y8250D02*
X3367Y8248D01*
X3384Y8244D01*
X3400Y8237D01*
X3414Y8227D01*
X3427Y8214D01*
X3437Y8200D01*
X3444Y8184D01*
X3448Y8167D01*
X3450Y8150D01*
X2650Y8250D02*
X2633Y8248D01*
X2616Y8244D01*
X2600Y8237D01*
X2586Y8227D01*
X2573Y8214D01*
X2563Y8200D01*
X2556Y8184D01*
X2552Y8167D01*
X2550Y8150D01*
X2550Y5850D02*
X2552Y5833D01*
X2556Y5816D01*
X2563Y5800D01*
X2573Y5786D01*
X2586Y5773D01*
X2600Y5763D01*
X2616Y5756D01*
X2633Y5752D01*
X2650Y5750D01*
X3350Y5750D02*
X3367Y5752D01*
X3384Y5756D01*
X3400Y5763D01*
X3414Y5773D01*
X3427Y5786D01*
X3437Y5800D01*
X3444Y5816D01*
X3448Y5833D01*
X3450Y5850D01*
X3350Y8250D02*
X2650Y8250D01*
X3450Y8150D02*
X3450Y8000D01*
X3400Y7950D01*
X2550Y8000D02*
X2550Y8150D01*
X2550Y8000D02*
X2600Y7950D01*
X3400Y6050D02*
X3450Y6000D01*
X3400Y6050D02*
X3400Y7950D01*
X2600Y6050D02*
X2550Y6000D01*
X2600Y6050D02*
X2600Y7950D01*
X3450Y6000D02*
X3450Y5850D01*
X2550Y5850D02*
X2550Y6000D01*
X2650Y5750D02*
X3350Y5750D01*
D15*
X3000Y5400D02*
X3000Y5250D01*
X3000Y8600D02*
X3000Y8750D01*
D16*
X3000Y5580D03*
X3000Y8420D03*
X3000Y5080D03*
X3000Y8920D03*
D11*
X3575Y7528D02*
X4025Y7528D01*
X3575Y7528D02*
X3575Y7653D01*
X3577Y7674D01*
X3582Y7694D01*
X3590Y7712D01*
X3601Y7730D01*
X3615Y7745D01*
X3632Y7758D01*
X3650Y7767D01*
X3669Y7774D01*
X3690Y7778D01*
X3710Y7778D01*
X3731Y7774D01*
X3750Y7767D01*
X3768Y7758D01*
X3785Y7745D01*
X3799Y7730D01*
X3810Y7712D01*
X3818Y7694D01*
X3823Y7674D01*
X3825Y7653D01*
X3825Y7528D01*
X3825Y7678D02*
X4025Y7778D01*
X3675Y7975D02*
X3575Y8100D01*
X4025Y8100D01*
X4025Y7975D02*
X4025Y8225D01*
D13*
X11650Y22750D02*
X11633Y22752D01*
X11616Y22756D01*
X11600Y22763D01*
X11586Y22773D01*
X11573Y22786D01*
X11563Y22800D01*
X11556Y22816D01*
X11552Y22833D01*
X11550Y22850D01*
X12350Y22750D02*
X12367Y22752D01*
X12384Y22756D01*
X12400Y22763D01*
X12414Y22773D01*
X12427Y22786D01*
X12437Y22800D01*
X12444Y22816D01*
X12448Y22833D01*
X12450Y22850D01*
X12450Y25150D02*
X12448Y25167D01*
X12444Y25184D01*
X12437Y25200D01*
X12427Y25214D01*
X12414Y25227D01*
X12400Y25237D01*
X12384Y25244D01*
X12367Y25248D01*
X12350Y25250D01*
X11650Y25250D02*
X11633Y25248D01*
X11616Y25244D01*
X11600Y25237D01*
X11586Y25227D01*
X11573Y25214D01*
X11563Y25200D01*
X11556Y25184D01*
X11552Y25167D01*
X11550Y25150D01*
X11650Y22750D02*
X12350Y22750D01*
X11550Y22850D02*
X11550Y23000D01*
X11600Y23050D01*
X12450Y23000D02*
X12450Y22850D01*
X12450Y23000D02*
X12400Y23050D01*
X11600Y24950D02*
X11550Y25000D01*
X11600Y24950D02*
X11600Y23050D01*
X12400Y24950D02*
X12450Y25000D01*
X12400Y24950D02*
X12400Y23050D01*
X11550Y25000D02*
X11550Y25150D01*
X12450Y25150D02*
X12450Y25000D01*
X12350Y25250D02*
X11650Y25250D01*
D15*
X12000Y25600D02*
X12000Y25750D01*
X12000Y22400D02*
X12000Y22250D01*
D16*
X12000Y25420D03*
X12000Y22580D03*
X12000Y25920D03*
X12000Y22080D03*
D11*
X11425Y22775D02*
X10975Y22775D01*
X10975Y22900D01*
X10977Y22921D01*
X10982Y22941D01*
X10990Y22959D01*
X11001Y22977D01*
X11015Y22992D01*
X11032Y23005D01*
X11050Y23014D01*
X11069Y23021D01*
X11090Y23025D01*
X11110Y23025D01*
X11131Y23021D01*
X11150Y23014D01*
X11168Y23005D01*
X11185Y22992D01*
X11199Y22977D01*
X11210Y22959D01*
X11218Y22941D01*
X11223Y22921D01*
X11225Y22900D01*
X11225Y22775D01*
X11225Y22925D02*
X11425Y23025D01*
X11088Y23472D02*
X11068Y23470D01*
X11049Y23465D01*
X11032Y23457D01*
X11015Y23446D01*
X11001Y23432D01*
X10990Y23416D01*
X10982Y23398D01*
X10977Y23379D01*
X10975Y23359D01*
X10977Y23336D01*
X10982Y23314D01*
X10991Y23293D01*
X11003Y23274D01*
X11018Y23256D01*
X11035Y23242D01*
X11054Y23230D01*
X11075Y23221D01*
X11176Y23434D02*
X11161Y23447D01*
X11145Y23458D01*
X11127Y23466D01*
X11108Y23470D01*
X11088Y23472D01*
X11175Y23434D02*
X11425Y23222D01*
X11425Y23472D01*
D13*
X13800Y22850D02*
X13802Y22833D01*
X13806Y22816D01*
X13813Y22800D01*
X13823Y22786D01*
X13836Y22773D01*
X13850Y22763D01*
X13866Y22756D01*
X13883Y22752D01*
X13900Y22750D01*
X14600Y22750D02*
X14617Y22752D01*
X14634Y22756D01*
X14650Y22763D01*
X14664Y22773D01*
X14677Y22786D01*
X14687Y22800D01*
X14694Y22816D01*
X14698Y22833D01*
X14700Y22850D01*
X14700Y25150D02*
X14698Y25167D01*
X14694Y25184D01*
X14687Y25200D01*
X14677Y25214D01*
X14664Y25227D01*
X14650Y25237D01*
X14634Y25244D01*
X14617Y25248D01*
X14600Y25250D01*
X13900Y25250D02*
X13883Y25248D01*
X13866Y25244D01*
X13850Y25237D01*
X13836Y25227D01*
X13823Y25214D01*
X13813Y25200D01*
X13806Y25184D01*
X13802Y25167D01*
X13800Y25150D01*
X13900Y22750D02*
X14600Y22750D01*
X13800Y22850D02*
X13800Y23000D01*
X13850Y23050D01*
X14700Y23000D02*
X14700Y22850D01*
X14700Y23000D02*
X14650Y23050D01*
X13850Y24950D02*
X13800Y25000D01*
X13850Y24950D02*
X13850Y23050D01*
X14650Y24950D02*
X14700Y25000D01*
X14650Y24950D02*
X14650Y23050D01*
X13800Y25000D02*
X13800Y25150D01*
X14700Y25150D02*
X14700Y25000D01*
X14600Y25250D02*
X13900Y25250D01*
D15*
X14250Y25600D02*
X14250Y25750D01*
X14250Y22400D02*
X14250Y22250D01*
D16*
X14250Y25420D03*
X14250Y22580D03*
X14250Y25920D03*
X14250Y22080D03*
D11*
X13675Y22775D02*
X13225Y22775D01*
X13225Y22900D01*
X13227Y22921D01*
X13232Y22941D01*
X13240Y22959D01*
X13251Y22977D01*
X13265Y22992D01*
X13282Y23005D01*
X13300Y23014D01*
X13319Y23021D01*
X13340Y23025D01*
X13360Y23025D01*
X13381Y23021D01*
X13400Y23014D01*
X13418Y23005D01*
X13435Y22992D01*
X13449Y22977D01*
X13460Y22959D01*
X13468Y22941D01*
X13473Y22921D01*
X13475Y22900D01*
X13475Y22775D01*
X13475Y22925D02*
X13675Y23025D01*
X13675Y23222D02*
X13675Y23347D01*
X13673Y23368D01*
X13668Y23388D01*
X13660Y23406D01*
X13649Y23424D01*
X13635Y23439D01*
X13618Y23452D01*
X13600Y23461D01*
X13581Y23468D01*
X13560Y23472D01*
X13540Y23472D01*
X13519Y23468D01*
X13500Y23461D01*
X13482Y23452D01*
X13465Y23439D01*
X13451Y23424D01*
X13440Y23406D01*
X13432Y23388D01*
X13427Y23368D01*
X13425Y23347D01*
X13225Y23372D02*
X13225Y23222D01*
X13225Y23372D02*
X13227Y23390D01*
X13232Y23408D01*
X13240Y23425D01*
X13251Y23439D01*
X13265Y23452D01*
X13280Y23462D01*
X13298Y23468D01*
X13316Y23472D01*
X13334Y23472D01*
X13352Y23468D01*
X13370Y23462D01*
X13385Y23452D01*
X13399Y23439D01*
X13410Y23425D01*
X13418Y23408D01*
X13423Y23390D01*
X13425Y23372D01*
X13425Y23272D01*
D13*
X13450Y26150D02*
X13448Y26167D01*
X13444Y26184D01*
X13437Y26200D01*
X13427Y26214D01*
X13414Y26227D01*
X13400Y26237D01*
X13384Y26244D01*
X13367Y26248D01*
X13350Y26250D01*
X12650Y26250D02*
X12633Y26248D01*
X12616Y26244D01*
X12600Y26237D01*
X12586Y26227D01*
X12573Y26214D01*
X12563Y26200D01*
X12556Y26184D01*
X12552Y26167D01*
X12550Y26150D01*
X12550Y23850D02*
X12552Y23833D01*
X12556Y23816D01*
X12563Y23800D01*
X12573Y23786D01*
X12586Y23773D01*
X12600Y23763D01*
X12616Y23756D01*
X12633Y23752D01*
X12650Y23750D01*
X13350Y23750D02*
X13367Y23752D01*
X13384Y23756D01*
X13400Y23763D01*
X13414Y23773D01*
X13427Y23786D01*
X13437Y23800D01*
X13444Y23816D01*
X13448Y23833D01*
X13450Y23850D01*
X13350Y26250D02*
X12650Y26250D01*
X13450Y26150D02*
X13450Y26000D01*
X13400Y25950D01*
X12550Y26000D02*
X12550Y26150D01*
X12550Y26000D02*
X12600Y25950D01*
X13400Y24050D02*
X13450Y24000D01*
X13400Y24050D02*
X13400Y25950D01*
X12600Y24050D02*
X12550Y24000D01*
X12600Y24050D02*
X12600Y25950D01*
X13450Y24000D02*
X13450Y23850D01*
X12550Y23850D02*
X12550Y24000D01*
X12650Y23750D02*
X13350Y23750D01*
D15*
X13000Y23400D02*
X13000Y23250D01*
X13000Y26600D02*
X13000Y26750D01*
D16*
X13000Y23580D03*
X13000Y26420D03*
X13000Y23080D03*
X13000Y26920D03*
D11*
X13575Y25528D02*
X14025Y25528D01*
X13575Y25528D02*
X13575Y25653D01*
X13577Y25674D01*
X13582Y25694D01*
X13590Y25712D01*
X13601Y25730D01*
X13615Y25745D01*
X13632Y25758D01*
X13650Y25767D01*
X13669Y25774D01*
X13690Y25778D01*
X13710Y25778D01*
X13731Y25774D01*
X13750Y25767D01*
X13768Y25758D01*
X13785Y25745D01*
X13799Y25730D01*
X13810Y25712D01*
X13818Y25694D01*
X13823Y25674D01*
X13825Y25653D01*
X13825Y25528D01*
X13825Y25678D02*
X14025Y25778D01*
X13925Y25975D02*
X13575Y26075D01*
X13925Y25975D02*
X13925Y26225D01*
X13825Y26150D02*
X14025Y26150D01*
D13*
X3450Y16650D02*
X3448Y16667D01*
X3444Y16684D01*
X3437Y16700D01*
X3427Y16714D01*
X3414Y16727D01*
X3400Y16737D01*
X3384Y16744D01*
X3367Y16748D01*
X3350Y16750D01*
X2650Y16750D02*
X2633Y16748D01*
X2616Y16744D01*
X2600Y16737D01*
X2586Y16727D01*
X2573Y16714D01*
X2563Y16700D01*
X2556Y16684D01*
X2552Y16667D01*
X2550Y16650D01*
X2550Y14350D02*
X2552Y14333D01*
X2556Y14316D01*
X2563Y14300D01*
X2573Y14286D01*
X2586Y14273D01*
X2600Y14263D01*
X2616Y14256D01*
X2633Y14252D01*
X2650Y14250D01*
X3350Y14250D02*
X3367Y14252D01*
X3384Y14256D01*
X3400Y14263D01*
X3414Y14273D01*
X3427Y14286D01*
X3437Y14300D01*
X3444Y14316D01*
X3448Y14333D01*
X3450Y14350D01*
X3350Y16750D02*
X2650Y16750D01*
X3450Y16650D02*
X3450Y16500D01*
X3400Y16450D01*
X2550Y16500D02*
X2550Y16650D01*
X2550Y16500D02*
X2600Y16450D01*
X3400Y14550D02*
X3450Y14500D01*
X3400Y14550D02*
X3400Y16450D01*
X2600Y14550D02*
X2550Y14500D01*
X2600Y14550D02*
X2600Y16450D01*
X3450Y14500D02*
X3450Y14350D01*
X2550Y14350D02*
X2550Y14500D01*
X2650Y14250D02*
X3350Y14250D01*
D15*
X3000Y13900D02*
X3000Y13750D01*
X3000Y17100D02*
X3000Y17250D01*
D16*
X3000Y14080D03*
X3000Y16920D03*
X3000Y13580D03*
X3000Y17420D03*
D11*
X3575Y16028D02*
X4025Y16028D01*
X3575Y16028D02*
X3575Y16153D01*
X3577Y16174D01*
X3582Y16194D01*
X3590Y16212D01*
X3601Y16230D01*
X3615Y16245D01*
X3632Y16258D01*
X3650Y16267D01*
X3669Y16274D01*
X3690Y16278D01*
X3710Y16278D01*
X3731Y16274D01*
X3750Y16267D01*
X3768Y16258D01*
X3785Y16245D01*
X3799Y16230D01*
X3810Y16212D01*
X3818Y16194D01*
X3823Y16174D01*
X3825Y16153D01*
X3825Y16028D01*
X3825Y16178D02*
X4025Y16278D01*
X4025Y16475D02*
X4025Y16625D01*
X4023Y16642D01*
X4019Y16659D01*
X4012Y16675D01*
X4002Y16689D01*
X3989Y16702D01*
X3975Y16712D01*
X3959Y16719D01*
X3942Y16723D01*
X3925Y16725D01*
X3875Y16725D01*
X3858Y16723D01*
X3841Y16719D01*
X3825Y16712D01*
X3811Y16702D01*
X3798Y16689D01*
X3788Y16675D01*
X3781Y16659D01*
X3777Y16642D01*
X3775Y16625D01*
X3775Y16475D01*
X3575Y16475D01*
X3575Y16725D01*
D13*
X5050Y14350D02*
X5052Y14333D01*
X5056Y14316D01*
X5063Y14300D01*
X5073Y14286D01*
X5086Y14273D01*
X5100Y14263D01*
X5116Y14256D01*
X5133Y14252D01*
X5150Y14250D01*
X5850Y14250D02*
X5867Y14252D01*
X5884Y14256D01*
X5900Y14263D01*
X5914Y14273D01*
X5927Y14286D01*
X5937Y14300D01*
X5944Y14316D01*
X5948Y14333D01*
X5950Y14350D01*
X5950Y16650D02*
X5948Y16667D01*
X5944Y16684D01*
X5937Y16700D01*
X5927Y16714D01*
X5914Y16727D01*
X5900Y16737D01*
X5884Y16744D01*
X5867Y16748D01*
X5850Y16750D01*
X5150Y16750D02*
X5133Y16748D01*
X5116Y16744D01*
X5100Y16737D01*
X5086Y16727D01*
X5073Y16714D01*
X5063Y16700D01*
X5056Y16684D01*
X5052Y16667D01*
X5050Y16650D01*
X5150Y14250D02*
X5850Y14250D01*
X5050Y14350D02*
X5050Y14500D01*
X5100Y14550D01*
X5950Y14500D02*
X5950Y14350D01*
X5950Y14500D02*
X5900Y14550D01*
X5100Y16450D02*
X5050Y16500D01*
X5100Y16450D02*
X5100Y14550D01*
X5900Y16450D02*
X5950Y16500D01*
X5900Y16450D02*
X5900Y14550D01*
X5050Y16500D02*
X5050Y16650D01*
X5950Y16650D02*
X5950Y16500D01*
X5850Y16750D02*
X5150Y16750D01*
D15*
X5500Y17100D02*
X5500Y17250D01*
X5500Y13900D02*
X5500Y13750D01*
D16*
X5500Y16920D03*
X5500Y14080D03*
X5500Y17420D03*
X5500Y13580D03*
D11*
X4925Y14275D02*
X4475Y14275D01*
X4475Y14400D01*
X4477Y14421D01*
X4482Y14441D01*
X4490Y14459D01*
X4501Y14477D01*
X4515Y14492D01*
X4532Y14505D01*
X4550Y14514D01*
X4569Y14521D01*
X4590Y14525D01*
X4610Y14525D01*
X4631Y14521D01*
X4650Y14514D01*
X4668Y14505D01*
X4685Y14492D01*
X4699Y14477D01*
X4710Y14459D01*
X4718Y14441D01*
X4723Y14421D01*
X4725Y14400D01*
X4725Y14275D01*
X4725Y14425D02*
X4925Y14525D01*
X4675Y14722D02*
X4675Y14872D01*
X4677Y14889D01*
X4681Y14906D01*
X4688Y14922D01*
X4698Y14936D01*
X4711Y14949D01*
X4725Y14959D01*
X4741Y14966D01*
X4758Y14970D01*
X4775Y14972D01*
X4800Y14972D01*
X4821Y14970D01*
X4841Y14965D01*
X4859Y14957D01*
X4877Y14946D01*
X4892Y14932D01*
X4905Y14915D01*
X4914Y14897D01*
X4921Y14878D01*
X4925Y14857D01*
X4925Y14837D01*
X4921Y14816D01*
X4914Y14797D01*
X4905Y14779D01*
X4892Y14762D01*
X4877Y14748D01*
X4859Y14737D01*
X4841Y14729D01*
X4821Y14724D01*
X4800Y14722D01*
X4675Y14722D01*
X4649Y14724D01*
X4623Y14729D01*
X4598Y14737D01*
X4575Y14749D01*
X4553Y14763D01*
X4534Y14781D01*
X4516Y14800D01*
X4502Y14822D01*
X4490Y14845D01*
X4482Y14870D01*
X4477Y14896D01*
X4475Y14922D01*
X13252Y14724D02*
X13252Y13031D01*
X13252Y14724D02*
X13252Y15276D01*
X13252Y16969D01*
X14748Y16969D01*
X14748Y15827D01*
X14748Y15394D01*
X14748Y14606D01*
X14748Y14173D01*
X14748Y13031D01*
X13252Y13031D01*
X13252Y14724D02*
X13528Y14724D01*
X13528Y15276D01*
X13252Y15276D01*
X14630Y14173D02*
X14748Y14173D01*
X14630Y14173D02*
X14630Y15827D01*
X14748Y15827D01*
X14748Y14606D02*
X16756Y14606D01*
X16756Y15394D01*
X14748Y15394D01*
D17*
X13035Y14110D02*
X13033Y14128D01*
X13029Y14145D01*
X13021Y14161D01*
X13011Y14176D01*
X12999Y14188D01*
X12984Y14198D01*
X12968Y14206D01*
X12951Y14210D01*
X12933Y14212D01*
X13035Y14110D02*
X13033Y14082D01*
X13028Y14054D01*
X13018Y14027D01*
X13006Y14001D01*
X12990Y13978D01*
X12971Y13957D01*
X12677Y13970D02*
X12659Y13972D01*
X12642Y13976D01*
X12626Y13984D01*
X12611Y13994D01*
X12599Y14006D01*
X12589Y14021D01*
X12581Y14037D01*
X12577Y14054D01*
X12575Y14072D01*
X12577Y14097D01*
X12581Y14121D01*
X12589Y14144D01*
X12600Y14167D01*
X12613Y14187D01*
X12677Y13970D02*
X12695Y13972D01*
X12712Y13976D01*
X12729Y13984D01*
X12743Y13994D01*
X12756Y14007D01*
X12767Y14021D01*
X12843Y14162D02*
X12854Y14176D01*
X12867Y14189D01*
X12881Y14199D01*
X12898Y14207D01*
X12915Y14211D01*
X12933Y14213D01*
X12843Y14161D02*
X12767Y14021D01*
X12677Y14392D02*
X12575Y14520D01*
X13035Y14520D01*
X13035Y14392D02*
X13035Y14648D01*
D11*
X8100Y19000D02*
X8100Y0D01*
X8100Y19000D02*
X900Y19000D01*
X900Y0D01*
X8100Y0D01*
X10921Y19488D02*
X1079Y19488D01*
X10921Y19488D02*
X10921Y27756D01*
X7772Y30315D01*
X4031Y30315D01*
X1079Y27756D01*
X1079Y19488D01*
D17*
X4839Y19181D02*
X4839Y18849D01*
X4841Y18828D01*
X4846Y18807D01*
X4854Y18788D01*
X4866Y18770D01*
X4880Y18755D01*
X4897Y18742D01*
X4916Y18732D01*
X4936Y18725D01*
X4956Y18721D01*
X4978Y18721D01*
X4998Y18725D01*
X5018Y18732D01*
X5037Y18742D01*
X5054Y18755D01*
X5068Y18770D01*
X5080Y18788D01*
X5088Y18807D01*
X5093Y18828D01*
X5095Y18849D01*
X5094Y18849D02*
X5094Y19181D01*
X5402Y19181D02*
X5402Y18721D01*
X5402Y18951D02*
X5338Y18989D01*
X5338Y18990D02*
X5325Y19000D01*
X5314Y19013D01*
X5306Y19027D01*
X5302Y19044D01*
X5301Y19060D01*
X5304Y19077D01*
X5311Y19092D01*
X5320Y19106D01*
X5333Y19117D01*
X5347Y19125D01*
X5363Y19130D01*
X5364Y19130D02*
X5388Y19133D01*
X5412Y19133D01*
X5436Y19130D01*
X5460Y19124D01*
X5482Y19115D01*
X5504Y19104D01*
X5402Y18951D02*
X5466Y18912D01*
X5465Y18912D02*
X5478Y18902D01*
X5489Y18889D01*
X5497Y18875D01*
X5501Y18858D01*
X5502Y18842D01*
X5499Y18825D01*
X5492Y18810D01*
X5483Y18796D01*
X5470Y18785D01*
X5456Y18777D01*
X5440Y18772D01*
X5416Y18769D01*
X5392Y18769D01*
X5368Y18772D01*
X5344Y18778D01*
X5322Y18787D01*
X5300Y18798D01*
X5834Y19181D02*
X5854Y19179D01*
X5873Y19174D01*
X5892Y19166D01*
X5908Y19154D01*
X5922Y19140D01*
X5934Y19124D01*
X5942Y19105D01*
X5947Y19086D01*
X5949Y19066D01*
X5834Y19181D02*
X5811Y19179D01*
X5788Y19174D01*
X5767Y19165D01*
X5747Y19153D01*
X5729Y19138D01*
X5714Y19120D01*
X5702Y19100D01*
X5693Y19079D01*
X5912Y18976D02*
X5925Y18991D01*
X5936Y19008D01*
X5944Y19027D01*
X5948Y19046D01*
X5950Y19066D01*
X5911Y18976D02*
X5694Y18721D01*
X5949Y18721D01*
D13*
X10340Y18680D02*
X10610Y18680D01*
X12220Y18500D02*
X12222Y18513D01*
X12227Y18525D01*
X12235Y18535D01*
X12245Y18543D01*
X12257Y18548D01*
X12270Y18550D01*
X12283Y18548D01*
X12295Y18543D01*
X12305Y18535D01*
X12313Y18525D01*
X12318Y18513D01*
X12320Y18500D01*
X12318Y18487D01*
X12313Y18475D01*
X12305Y18465D01*
X12295Y18457D01*
X12283Y18452D01*
X12270Y18450D01*
X12257Y18452D01*
X12245Y18457D01*
X12235Y18465D01*
X12227Y18475D01*
X12222Y18487D01*
X12220Y18500D01*
X9650Y18650D02*
X9613Y18598D01*
X9579Y18544D01*
X9549Y18489D01*
X9522Y18431D01*
X9498Y18372D01*
X9477Y18312D01*
X9461Y18251D01*
X9447Y18189D01*
X9438Y18126D01*
X9432Y18063D01*
X9430Y18000D01*
X9420Y18000D02*
X9422Y17935D01*
X9428Y17871D01*
X9438Y17806D01*
X9452Y17743D01*
X9470Y17681D01*
X9491Y17619D01*
X9516Y17559D01*
X9545Y17501D01*
X9577Y17444D01*
X9612Y17390D01*
X9651Y17338D01*
X9692Y17288D01*
X9737Y17241D01*
X9784Y17196D01*
X9834Y17155D01*
X9886Y17116D01*
X9941Y17081D01*
X9997Y17049D01*
X10056Y17021D01*
X10116Y16996D01*
X10177Y16975D01*
X10240Y16957D01*
X10303Y16944D01*
X10367Y16934D01*
X10432Y16928D01*
X10497Y16926D01*
X10562Y16928D01*
X10627Y16934D01*
X10691Y16943D01*
X10754Y16957D01*
X10817Y16974D01*
X10878Y16995D01*
X10938Y17020D01*
X10997Y17048D01*
X11053Y17080D01*
X11108Y17115D01*
X11160Y17154D01*
X11210Y17195D01*
X11258Y17239D01*
X11302Y17286D01*
X11344Y17336D01*
X11383Y17388D01*
X11418Y17443D01*
X11450Y17499D01*
X11479Y17557D01*
X11504Y17617D01*
X11526Y17679D01*
X11543Y17741D01*
X11557Y17804D01*
X11567Y17869D01*
X11574Y17933D01*
X11576Y17998D01*
X11574Y18063D01*
X11569Y18128D01*
X11559Y18192D01*
X11546Y18256D01*
X11529Y18318D01*
X11508Y18380D01*
X11484Y18440D01*
X11456Y18498D01*
X11424Y18555D01*
X11390Y18610D01*
D18*
X11775Y18104D02*
X11775Y17765D01*
X11775Y18104D02*
X11773Y18126D01*
X11768Y18147D01*
X11759Y18166D01*
X11747Y18184D01*
X11733Y18200D01*
X11716Y18214D01*
X11697Y18224D01*
X11676Y18231D01*
X11655Y18235D01*
X11633Y18235D01*
X11612Y18231D01*
X11591Y18224D01*
X11572Y18214D01*
X11555Y18200D01*
X11541Y18184D01*
X11529Y18166D01*
X11520Y18147D01*
X11515Y18126D01*
X11513Y18104D01*
X11514Y18104D02*
X11514Y17765D01*
X11166Y17765D02*
X11146Y17767D01*
X11126Y17772D01*
X11107Y17781D01*
X11090Y17793D01*
X11076Y17807D01*
X11064Y17824D01*
X11055Y17843D01*
X11050Y17863D01*
X11048Y17883D01*
X11166Y17765D02*
X11190Y17767D01*
X11213Y17772D01*
X11235Y17781D01*
X11255Y17794D01*
X11273Y17809D01*
X11288Y17827D01*
X11301Y17848D01*
X11310Y17869D01*
X11088Y17974D02*
X11075Y17959D01*
X11064Y17942D01*
X11056Y17923D01*
X11051Y17903D01*
X11049Y17883D01*
X11088Y17974D02*
X11310Y18235D01*
X11049Y18235D01*
X10903Y17883D02*
X10905Y17863D01*
X10910Y17843D01*
X10919Y17824D01*
X10931Y17807D01*
X10945Y17793D01*
X10962Y17781D01*
X10981Y17772D01*
X11001Y17767D01*
X11021Y17765D01*
X11045Y17767D01*
X11068Y17772D01*
X11090Y17781D01*
X11110Y17794D01*
X11128Y17809D01*
X11143Y17827D01*
X11156Y17848D01*
X11165Y17869D01*
X10943Y17974D02*
X10930Y17959D01*
X10919Y17942D01*
X10911Y17923D01*
X10906Y17903D01*
X10904Y17883D01*
X10943Y17974D02*
X11165Y18235D01*
X10904Y18235D01*
X10700Y18235D02*
X10700Y17765D01*
X10439Y18235D01*
X10439Y17765D01*
X10235Y17765D02*
X10235Y17817D01*
X10235Y17765D02*
X9974Y17765D01*
X10104Y18235D01*
X9785Y18000D02*
X9783Y17965D01*
X9779Y17930D01*
X9771Y17896D01*
X9760Y17863D01*
X9746Y17830D01*
X9746Y17831D02*
X9739Y17815D01*
X9729Y17801D01*
X9717Y17788D01*
X9703Y17778D01*
X9688Y17771D01*
X9671Y17767D01*
X9654Y17765D01*
X9637Y17767D01*
X9620Y17771D01*
X9605Y17778D01*
X9591Y17788D01*
X9579Y17801D01*
X9569Y17815D01*
X9562Y17831D01*
X9563Y17830D02*
X9549Y17863D01*
X9538Y17896D01*
X9530Y17930D01*
X9526Y17965D01*
X9524Y18000D01*
X9785Y18000D02*
X9783Y18035D01*
X9779Y18070D01*
X9771Y18104D01*
X9760Y18137D01*
X9746Y18170D01*
X9746Y18169D02*
X9739Y18185D01*
X9729Y18199D01*
X9717Y18212D01*
X9703Y18222D01*
X9688Y18229D01*
X9671Y18233D01*
X9654Y18235D01*
X9563Y18170D02*
X9549Y18137D01*
X9538Y18104D01*
X9530Y18070D01*
X9526Y18035D01*
X9524Y18000D01*
X9562Y18169D02*
X9569Y18185D01*
X9579Y18199D01*
X9591Y18212D01*
X9605Y18222D01*
X9620Y18229D01*
X9637Y18233D01*
X9654Y18235D01*
X9759Y18131D02*
X9550Y17869D01*
X9335Y18000D02*
X9333Y17965D01*
X9329Y17930D01*
X9321Y17896D01*
X9310Y17863D01*
X9296Y17830D01*
X9296Y17831D02*
X9289Y17815D01*
X9279Y17801D01*
X9267Y17788D01*
X9253Y17778D01*
X9238Y17771D01*
X9221Y17767D01*
X9204Y17765D01*
X9187Y17767D01*
X9170Y17771D01*
X9155Y17778D01*
X9141Y17788D01*
X9129Y17801D01*
X9119Y17815D01*
X9112Y17831D01*
X9113Y17830D02*
X9099Y17863D01*
X9088Y17896D01*
X9080Y17930D01*
X9076Y17965D01*
X9074Y18000D01*
X9335Y18000D02*
X9333Y18035D01*
X9329Y18070D01*
X9321Y18104D01*
X9310Y18137D01*
X9296Y18170D01*
X9296Y18169D02*
X9289Y18185D01*
X9279Y18199D01*
X9267Y18212D01*
X9253Y18222D01*
X9238Y18229D01*
X9221Y18233D01*
X9204Y18235D01*
X9113Y18170D02*
X9099Y18137D01*
X9088Y18104D01*
X9080Y18070D01*
X9076Y18035D01*
X9074Y18000D01*
X9112Y18169D02*
X9119Y18185D01*
X9129Y18199D01*
X9141Y18212D01*
X9155Y18222D01*
X9170Y18229D01*
X9187Y18233D01*
X9204Y18235D01*
X9309Y18131D02*
X9100Y17869D01*
X8885Y18000D02*
X8883Y17965D01*
X8879Y17930D01*
X8871Y17896D01*
X8860Y17863D01*
X8846Y17830D01*
X8846Y17831D02*
X8839Y17815D01*
X8829Y17801D01*
X8817Y17788D01*
X8803Y17778D01*
X8788Y17771D01*
X8771Y17767D01*
X8754Y17765D01*
X8737Y17767D01*
X8720Y17771D01*
X8705Y17778D01*
X8691Y17788D01*
X8679Y17801D01*
X8669Y17815D01*
X8662Y17831D01*
X8663Y17830D02*
X8649Y17863D01*
X8638Y17896D01*
X8630Y17930D01*
X8626Y17965D01*
X8624Y18000D01*
X8885Y18000D02*
X8883Y18035D01*
X8879Y18070D01*
X8871Y18104D01*
X8860Y18137D01*
X8846Y18170D01*
X8846Y18169D02*
X8839Y18185D01*
X8829Y18199D01*
X8817Y18212D01*
X8803Y18222D01*
X8788Y18229D01*
X8771Y18233D01*
X8754Y18235D01*
X8663Y18170D02*
X8649Y18137D01*
X8638Y18104D01*
X8630Y18070D01*
X8626Y18035D01*
X8624Y18000D01*
X8662Y18169D02*
X8669Y18185D01*
X8679Y18199D01*
X8691Y18212D01*
X8705Y18222D01*
X8720Y18229D01*
X8737Y18233D01*
X8754Y18235D01*
X8859Y18131D02*
X8650Y17869D01*
X8417Y17765D02*
X8417Y18235D01*
X8417Y17765D02*
X8287Y17765D01*
X8265Y17767D01*
X8244Y17772D01*
X8225Y17781D01*
X8207Y17793D01*
X8191Y17807D01*
X8177Y17824D01*
X8167Y17843D01*
X8160Y17864D01*
X8156Y17885D01*
X8156Y17907D01*
X8160Y17928D01*
X8167Y17949D01*
X8177Y17968D01*
X8191Y17985D01*
X8207Y17999D01*
X8225Y18011D01*
X8244Y18020D01*
X8265Y18025D01*
X8287Y18027D01*
X8287Y18026D02*
X8417Y18026D01*
X8261Y18026D02*
X8156Y18235D01*
X7954Y18235D02*
X7954Y17765D01*
X7954Y18235D02*
X7745Y18235D01*
X7562Y18235D02*
X7562Y17765D01*
X7432Y17765D01*
X7410Y17767D01*
X7389Y17772D01*
X7370Y17781D01*
X7352Y17793D01*
X7336Y17807D01*
X7322Y17824D01*
X7312Y17843D01*
X7305Y17864D01*
X7301Y17885D01*
X7301Y17907D01*
X7305Y17928D01*
X7312Y17949D01*
X7322Y17968D01*
X7336Y17985D01*
X7352Y17999D01*
X7370Y18011D01*
X7389Y18020D01*
X7410Y18025D01*
X7432Y18027D01*
X7432Y18026D02*
X7562Y18026D01*
X7406Y18026D02*
X7301Y18235D01*
X7141Y18235D02*
X6984Y17765D01*
X6828Y18235D01*
X6867Y18118D02*
X7102Y18118D01*
X6467Y17974D02*
X6389Y17974D01*
X6389Y18235D01*
X6546Y18235D01*
X6564Y18233D01*
X6582Y18229D01*
X6598Y18221D01*
X6613Y18211D01*
X6626Y18198D01*
X6636Y18183D01*
X6644Y18167D01*
X6648Y18149D01*
X6650Y18131D01*
X6650Y17869D01*
X6648Y17851D01*
X6644Y17833D01*
X6636Y17817D01*
X6626Y17802D01*
X6613Y17789D01*
X6598Y17779D01*
X6582Y17771D01*
X6564Y17767D01*
X6546Y17765D01*
X6389Y17765D01*
D13*
X4300Y4350D02*
X4302Y4333D01*
X4306Y4316D01*
X4313Y4300D01*
X4323Y4286D01*
X4336Y4273D01*
X4350Y4263D01*
X4366Y4256D01*
X4383Y4252D01*
X4400Y4250D01*
X5100Y4250D02*
X5117Y4252D01*
X5134Y4256D01*
X5150Y4263D01*
X5164Y4273D01*
X5177Y4286D01*
X5187Y4300D01*
X5194Y4316D01*
X5198Y4333D01*
X5200Y4350D01*
X5200Y6650D02*
X5198Y6667D01*
X5194Y6684D01*
X5187Y6700D01*
X5177Y6714D01*
X5164Y6727D01*
X5150Y6737D01*
X5134Y6744D01*
X5117Y6748D01*
X5100Y6750D01*
X4400Y6750D02*
X4383Y6748D01*
X4366Y6744D01*
X4350Y6737D01*
X4336Y6727D01*
X4323Y6714D01*
X4313Y6700D01*
X4306Y6684D01*
X4302Y6667D01*
X4300Y6650D01*
X4400Y4250D02*
X5100Y4250D01*
X4300Y4350D02*
X4300Y4500D01*
X4350Y4550D01*
X5200Y4500D02*
X5200Y4350D01*
X5200Y4500D02*
X5150Y4550D01*
X4350Y6450D02*
X4300Y6500D01*
X4350Y6450D02*
X4350Y4550D01*
X5150Y6450D02*
X5200Y6500D01*
X5150Y6450D02*
X5150Y4550D01*
X4300Y6500D02*
X4300Y6650D01*
X5200Y6650D02*
X5200Y6500D01*
X5100Y6750D02*
X4400Y6750D01*
D15*
X4750Y7100D02*
X4750Y7250D01*
X4750Y3900D02*
X4750Y3750D01*
D16*
X4750Y6920D03*
X4750Y4080D03*
X4750Y7420D03*
X4750Y3580D03*
D11*
X4175Y4275D02*
X3725Y4275D01*
X3725Y4400D01*
X3727Y4421D01*
X3732Y4441D01*
X3740Y4459D01*
X3751Y4477D01*
X3765Y4492D01*
X3782Y4505D01*
X3800Y4514D01*
X3819Y4521D01*
X3840Y4525D01*
X3860Y4525D01*
X3881Y4521D01*
X3900Y4514D01*
X3918Y4505D01*
X3935Y4492D01*
X3949Y4477D01*
X3960Y4459D01*
X3968Y4441D01*
X3973Y4421D01*
X3975Y4400D01*
X3975Y4275D01*
X3975Y4425D02*
X4175Y4525D01*
X3775Y4722D02*
X3725Y4722D01*
X3725Y4972D01*
X4175Y4847D01*
M02*
