M48
;GenerationSoftware,Autodesk,EAGLE,9.5.1*%
;CreationDate,2020-02-10T06:12:48Z*%
FMAT,2
ICI,OFF
METRIC,TZ,000.000
T1C1.016
%
G90
M71
T1
X30480Y27940
X27940Y27940
X25400Y27940
X22860Y27940
X20320Y27940
X17780Y27940
X15240Y27940
X12700Y27940
X12700Y12700
X15240Y12700
X17780Y12700
X20320Y12700
X22860Y12700
X25400Y12700
X27940Y12700
X30480Y12700
X3810Y13970
X3810Y16510
X3810Y19050
X3810Y21590
X3810Y24130
X3810Y26670
X62230Y26670
X62230Y24130
X62230Y21590
X62230Y19050
X62230Y16510
X62230Y13970
X43180Y27940
X45720Y27940
X48260Y27940
X50800Y27940
X49530Y12700
X52070Y12700
X54610Y12700
X57150Y12700
X36830Y12700
X39370Y12700
X41910Y12700
X44450Y12700
M30